<svg width="20" height="24" viewBox="0 0 20 24" fill="none" xmlns="http://www.w3.org/2000/svg">
<path d="M18.8019 16.9975C18.456 16.7298 18.1026 15.7488 17.886 14.358C17.6948 13.1285 17.631 11.8713 17.6329 11.0065V8C17.6329 3.58165 14.0512 0 9.63289 0C5.21453 0 1.63335 3.58165 1.63335 8V10.9999C1.63523 11.8713 1.57148 13.128 1.38023 14.358C1.16368 15.7488 0.810246 16.7298 0.46619 16.9965C-0.305357 17.5965 -0.0948928 18.8607 0.917587 19.0881C2.16491 19.352 3.4216 19.5587 4.68345 19.7077C5.02704 22.1339 7.112 24.0005 9.63336 24.0005C12.1542 24.0005 14.2392 22.1344 14.5833 19.7082C15.8418 19.5591 17.0943 19.3534 18.3369 19.0909C19.3611 18.8603 19.5716 17.5961 18.8019 16.9975ZM9.63289 21.9999C8.28994 21.9999 7.15325 21.1172 6.77075 19.9013C8.67712 20.0312 10.5901 20.0312 12.495 19.9018C12.1121 21.1177 10.9758 21.9999 9.63289 21.9999ZM13.6317 17.8004C13.5933 17.8 13.5548 17.8009 13.5159 17.8051C10.9336 18.0568 8.3326 18.0568 5.75031 17.8051C5.71234 17.8014 5.67531 17.8 5.63828 17.8004C4.62486 17.6987 3.61425 17.559 2.60927 17.38C2.95099 16.6731 3.18629 15.7609 3.35645 14.665C3.56691 13.3113 3.63582 11.9618 3.63347 11.0013V7.99953C3.63347 4.686 6.31983 1.99965 9.63336 1.99965C12.9469 1.99965 15.6332 4.686 15.6332 7.99953V10.9995C15.6309 11.9613 15.6993 13.3113 15.9103 14.665C16.0809 15.7605 16.3157 16.6731 16.6579 17.38C15.6543 17.559 14.6447 17.6987 13.6317 17.8004Z" fill="#323C45" fill-opacity="0.5"/>
<path d="M9.63289 2.99994C6.87482 2.99994 4.63284 5.24146 4.63284 8C4.63284 8.55217 5.08049 8.99982 5.63266 8.99982C6.18484 8.99982 6.63249 8.55217 6.63249 8C6.63249 6.34628 7.97871 5.00006 9.63242 5.00006C10.1846 5.00006 10.6322 4.55241 10.6322 4.00023C10.6322 3.44806 10.1851 2.99994 9.63289 2.99994Z" fill="#323C45" fill-opacity="0.5"/>
</svg>
