<svg width="14" height="18" viewBox="0 0 14 18" fill="none" xmlns="http://www.w3.org/2000/svg">
<g clip-path="url(#clip0)">
<path d="M12.9082 15.1875C12.5206 15.1875 12.2067 15.5021 12.2067 15.8906C12.2067 16.0868 12.1404 16.2517 12.0099 16.3811C11.8728 16.5168 11.6739 16.5955 11.4792 16.5938C11.287 16.5913 11.1312 16.5259 11.0025 16.3934L7.30753 12.5877C7.17529 12.4516 6.9943 12.375 6.80488 12.375C6.61547 12.375 6.43412 12.4516 6.30223 12.5877L2.60725 16.393C2.47957 16.5245 2.32243 16.5902 2.12705 16.5938C1.93027 16.5976 1.73209 16.5192 1.59599 16.3849C1.46796 16.2587 1.40272 16.0963 1.40272 15.9026V2.8125C1.40272 2.03695 2.03199 1.40625 2.80579 1.40625H10.8033C11.5771 1.40625 12.2063 2.03695 12.2063 2.8125V12.4102C12.2063 12.7986 12.5203 13.1133 12.9079 13.1133C13.2955 13.1133 13.6094 12.7986 13.6094 12.4102V2.8125C13.6094 1.26176 12.3505 0 10.8033 0H2.80614C1.2589 0 0 1.26176 0 2.8125V15.9029C0 16.4714 0.217826 16.9991 0.61279 17.3883C1.00916 17.7782 1.5546 18 2.11478 18C2.1274 18 2.13968 18 2.15231 17.9996C2.7202 17.9895 3.2253 17.7732 3.61325 17.3739L6.80523 14.0864L9.99722 17.3739C10.388 17.7761 10.8941 17.9926 11.4617 18C12.0313 18.006 12.5918 17.782 12.9959 17.3816C13.3919 16.9896 13.6101 16.4602 13.6101 15.8906C13.6098 15.5021 13.2955 15.1875 12.9082 15.1875Z" fill="#323C45" fill-opacity="0.8"/>
</g>
<defs>
<clipPath id="clip0">
<rect width="13.6098" height="18" fill="white"/>
</clipPath>
</defs>
</svg>
