<svg width="200" height="56" viewBox="0 0 200 56" fill="none" xmlns="http://www.w3.org/2000/svg">
<g clip-path="url(#clip0)">
<path d="M0 24.6135V23.8605C0 15.9008 4.66781 11.9187 14.008 11.9187C17.6799 11.9187 20.6449 12.5424 22.903 13.785C24.0597 12.5608 25.9048 11.951 28.4337 11.951C29.9943 11.951 31.6007 12.3714 33.2484 13.2122L32.0138 19.1808C31.1693 18.9868 30.4716 18.8944 29.93 18.8944C29.1911 18.8944 28.6495 19.0006 28.3052 19.2178C27.9564 19.4303 27.7315 19.7998 27.6213 20.3126C27.883 21.292 28.0161 22.4977 28.0161 23.9298V24.6782C28.0161 32.6517 23.3483 36.6431 14.0126 36.6431H13.6225C12.6265 36.8279 12.1308 37.2806 12.1308 37.9966C12.1308 38.3847 12.4383 38.685 13.0579 38.8882C13.6776 39.0915 14.49 39.2486 15.5089 39.3594C16.5232 39.4703 17.6477 39.5904 18.8778 39.7198C20.1079 39.8537 21.3379 40.0847 22.5634 40.4173C23.7889 40.75 24.9088 41.1888 25.9323 41.7432C26.9512 42.2975 27.7774 43.1106 28.4062 44.1824C29.035 45.2541 29.3517 46.5291 29.3517 48.0121C29.3517 49.1439 29.1268 50.151 28.6862 51.0287C28.241 51.9064 27.5892 52.6178 26.7355 53.163C25.8772 53.7081 24.973 54.1562 24.0184 54.5119C23.0637 54.8676 21.9162 55.1171 20.5714 55.2649C19.2266 55.4127 18.0195 55.5098 16.9363 55.5606C15.8531 55.6114 14.6139 55.6345 13.2094 55.6345C11.1624 55.6345 8.79862 55.5652 6.12278 55.422C3.44234 55.2834 1.43201 55.0986 0.0780264 54.8815L0.537005 48.5295C3.61216 49.033 6.97189 49.2825 10.6162 49.2825C13.8428 49.2825 16.28 49.1346 17.9231 48.839C19.5663 48.5433 20.3924 47.9797 20.3924 47.1482C20.3924 46.677 19.9518 46.2935 19.0706 45.9979C18.1893 45.6976 17.097 45.4528 15.8026 45.2634C14.5037 45.074 13.0855 44.8661 11.5387 44.6397C9.99197 44.4133 8.56454 44.1038 7.25187 43.7112C5.93919 43.3185 4.85141 42.6902 3.98394 41.8263C3.11647 40.9625 2.68044 39.9092 2.68044 38.6619C2.68044 36.8879 3.37349 35.5205 4.7642 34.5596C1.58348 32.6194 0 29.3071 0 24.6135ZM9.27137 24.6366C9.27137 28.0783 10.8365 29.8014 13.9713 29.8014C15.5273 29.8014 16.7114 29.3671 17.5238 28.494C18.3362 27.6209 18.7401 26.3366 18.7401 24.6366V23.9252C18.7401 20.4835 17.1612 18.7604 14.008 18.7604C10.8548 18.7604 9.27137 20.4743 9.27137 23.8928V24.6366Z" fill="#24324A"/>
<path d="M35.3322 31.6677V12.5424H44.0849V30.8177C44.0849 34.8137 45.7693 36.8094 49.1428 36.8094C50.8824 36.8094 52.6448 36.5923 54.4303 36.1534V12.5424H63.183V41.8864C61.214 42.5655 58.8548 43.0921 56.0963 43.4756C53.3379 43.859 50.8686 44.0484 48.6838 44.0484C39.7842 44.0438 35.3322 39.9184 35.3322 31.6677Z" fill="#24324A"/>
<path d="M68.6494 34.1254V0H77.4021V34.0284C77.4021 35.0077 77.5123 35.6868 77.728 36.0564C77.9437 36.426 78.3568 36.6107 78.9627 36.6107C79.4813 36.6107 80.1652 36.5137 81.0143 36.3151L82.1526 42.2375C80.3304 43.0505 78.3476 43.4525 76.1996 43.4525C74.9833 43.4525 73.9506 43.3277 73.0923 43.0736C72.234 42.8242 71.4538 42.3715 70.7515 41.7155C70.0447 41.0595 69.5215 40.0986 69.1726 38.8328C68.8238 37.5716 68.6494 36.001 68.6494 34.1254Z" fill="#24324A"/>
<path d="M82.3821 19.1254V12.5424H86.0264V10.8054C86.0264 3.60333 89.3861 0 96.1101 0C97.3677 0 98.7906 0.12935 100.374 0.39267C101.958 0.655991 103.032 0.937789 103.596 1.24269L102.26 7.04035C101.154 6.911 99.9197 6.84171 98.5519 6.84171C97.0969 6.84171 96.1055 7.1466 95.5731 7.7564C95.0407 8.36619 94.7745 9.39175 94.7745 10.8331V12.5377H100.337V19.1254H94.7791V43.4571H86.0264V19.1254H82.3821Z" fill="#24324A"/>
<path d="M102.816 19.1254V12.5423H106.396V5.89467H115.149V12.5423H121.363V19.1254H115.149V31.7093C115.149 33.2569 115.456 34.4626 116.076 35.3219C116.695 36.1811 117.599 36.6107 118.793 36.6107C120.096 36.6107 121.147 36.5322 121.951 36.3798L122.276 43.0921C121.06 43.3323 119.596 43.4524 117.884 43.4524C113.978 43.4524 111.091 42.4685 109.214 40.5051C107.337 38.5418 106.4 35.77 106.4 32.1851V19.1254H102.816Z" fill="#0572FF"/>
<path d="M125.393 43.4571V0H134.146V13.4247C137.184 12.4407 140.025 11.951 142.669 11.951C146.401 11.951 149.164 13.0043 150.967 15.1109C152.767 17.2174 153.666 20.1694 153.666 23.9714V43.4571H144.913V24.923C144.913 23.1121 144.477 21.7031 143.61 20.7007C142.742 19.6982 141.439 19.1947 139.704 19.1947C138.86 19.1947 137.877 19.3055 136.757 19.5227C135.642 19.7398 134.765 20.0031 134.137 20.308V43.4617H125.393V43.4571Z" fill="#0572FF"/>
<path d="M159.266 9.17001V0.655991H168.537V9.17001H159.266ZM159.527 34.1254V12.5424H168.28V34.0284C168.28 35.0077 168.39 35.6868 168.606 36.0564C168.822 36.426 169.235 36.6107 169.84 36.6107C170.341 36.6107 171.011 36.5137 171.86 36.3151L173.03 42.2375C171.208 43.0505 169.212 43.4525 167.045 43.4525C165.829 43.4525 164.796 43.3277 163.938 43.0736C163.08 42.8242 162.304 42.3715 161.611 41.7155C160.918 41.0595 160.395 40.1078 160.05 38.8513C159.697 37.5994 159.527 36.0241 159.527 34.1254Z" fill="#0572FF"/>
<path d="M174.82 43.1614L175.275 36.9711C179.722 37.4515 183.082 37.6917 185.363 37.6917C187.41 37.6917 188.906 37.4146 189.843 36.8556C190.779 36.2966 191.247 35.5852 191.247 34.7121C191.247 33.9498 190.976 33.3123 190.435 32.7995C189.893 32.2867 189.15 31.8941 188.209 31.6261C187.268 31.3582 186.235 31.0625 185.12 30.7392C184 30.4204 182.875 30.0324 181.751 29.5889C180.622 29.1408 179.594 28.6003 178.662 27.9674C177.73 27.3345 176.968 26.4336 176.386 25.2649C175.798 24.0961 175.509 22.7148 175.509 21.121C175.509 19.7675 175.706 18.5618 176.106 17.5039C176.5 16.446 177.065 15.5913 177.795 14.9492C178.524 14.3071 179.291 13.7712 180.094 13.3462C180.897 12.9212 181.829 12.6163 182.894 12.4315C183.954 12.2467 184.89 12.122 185.694 12.0527C186.497 11.988 187.383 11.9557 188.347 11.9557C192.395 11.9557 195.975 12.2282 199.082 12.7733L198.54 19.0283C195.534 18.5479 192.909 18.3077 190.669 18.3077C189.687 18.3077 188.842 18.34 188.135 18.4093C187.429 18.4786 186.763 18.608 186.143 18.7974C185.524 18.9868 185.056 19.2639 184.739 19.6197C184.422 19.98 184.266 20.4281 184.266 20.964C184.266 21.6384 184.578 22.1836 185.207 22.6132C185.836 23.0382 186.616 23.3708 187.552 23.6064C188.489 23.842 189.517 24.1053 190.646 24.3871C191.771 24.6736 192.881 25.0431 193.969 25.4959C195.061 25.9486 196.057 26.5122 196.962 27.1913C197.866 27.8704 198.6 28.8359 199.165 30.0878C199.729 31.3397 200.014 32.8041 200.014 34.4857C200.014 40.8608 195.787 44.0484 187.341 44.0484C182.981 44.0438 178.814 43.7527 174.82 43.1614Z" fill="#0572FF"/>
</g>
<defs>
<clipPath id="clip0">
<rect width="200" height="55.6391" fill="white"/>
</clipPath>
</defs>
</svg>
