<svg width="92" height="27" viewBox="0 0 92 27" fill="none" xmlns="http://www.w3.org/2000/svg">
<path d="M21.6361 22.5883V21.4043H19.938L21.6361 22.5883Z" fill="#24324A"/>
<path d="M21.6361 15.3952V14.2111H19.938L21.6361 15.3952Z" fill="#24324A"/>
<path d="M21.6361 20.1912V19.0063H19.938L21.6361 20.1912Z" fill="#24324A"/>
<path d="M21.6361 17.7932V16.6091H19.938L21.6361 17.7932Z" fill="#24324A"/>
<path d="M24.3175 19.008V17.8239H22.6194L24.3175 19.008Z" fill="#24324A"/>
<path d="M24.3175 21.4061V20.222H22.6194L24.3175 21.4061Z" fill="#24324A"/>
<path d="M21.6361 12.9971V11.813H19.938L21.6361 12.9971Z" fill="#24324A"/>
<path d="M25.0341 23.8023H24.0127V24.9474H25.0341V23.8023Z" fill="#24324A"/>
<path d="M22.7561 23.8023H21.7347V24.9474H22.7561V23.8023Z" fill="#24324A"/>
<path d="M23.8952 23.8023H22.8738V24.9474H23.8952V23.8023Z" fill="#24324A"/>
<path d="M34.2015 22.1375C34.2042 22.1384 34.2069 22.1393 34.2105 22.1393V20.9263C34.2078 20.9254 34.2042 20.9254 34.2015 20.9245V19.0886H34.2105V10.9875H18.2534V23.6837H34.2015V22.1375ZM21.7537 22.7015C21.7537 22.7232 21.7419 22.7441 21.722 22.754C21.7139 22.7585 21.7039 22.7604 21.6949 22.7604C21.6831 22.7604 21.6714 22.7567 21.6614 22.7495L19.7172 21.3934C19.6964 21.3789 19.6874 21.3518 19.6946 21.3273C19.7027 21.3029 19.7254 21.2857 19.7507 21.2857H21.6949C21.7275 21.2857 21.7537 21.3119 21.7537 21.3445V22.7015ZM21.7537 20.3035C21.7537 20.3252 21.7419 20.346 21.722 20.356C21.7139 20.3605 21.7039 20.3623 21.6949 20.3623C21.6831 20.3623 21.6714 20.3587 21.6614 20.3515L19.7172 18.9954C19.6964 18.9809 19.6874 18.9537 19.6946 18.9293C19.7027 18.9049 19.7254 18.8877 19.7507 18.8877H21.6949C21.7275 18.8877 21.7537 18.9139 21.7537 18.9465V20.3035ZM21.7537 17.9064C21.7537 17.9281 21.7419 17.9489 21.722 17.9589C21.7139 17.9634 21.7039 17.9652 21.6949 17.9652C21.6831 17.9652 21.6714 17.9616 21.6614 17.9543L19.7172 16.5983C19.6964 16.5838 19.6874 16.5566 19.6946 16.5322C19.7027 16.5077 19.7254 16.4905 19.7507 16.4905H21.6949C21.7275 16.4905 21.7537 16.5168 21.7537 16.5494V17.9064ZM21.7537 15.5083C21.7537 15.5301 21.7419 15.5509 21.722 15.5608C21.7139 15.5654 21.7039 15.5672 21.6949 15.5672C21.6831 15.5672 21.6714 15.5635 21.6614 15.5563L19.7172 14.2002C19.6964 14.1857 19.6874 14.1586 19.6946 14.1341C19.7027 14.1097 19.7254 14.0925 19.7507 14.0925H21.6949C21.7275 14.0925 21.7537 14.1188 21.7537 14.1514V15.5083ZM21.7537 13.1103C21.7537 13.132 21.7419 13.1529 21.722 13.1628C21.7139 13.1673 21.7039 13.1691 21.6949 13.1691C21.6831 13.1691 21.6714 13.1655 21.6614 13.1583L19.7172 11.8022C19.6964 11.7877 19.6874 11.7606 19.6946 11.7361C19.7027 11.7117 19.7254 11.6945 19.7507 11.6945H21.6949C21.7275 11.6945 21.7537 11.7207 21.7537 11.7533V13.1103ZM24.4352 21.5192C24.4352 21.541 24.4226 21.5618 24.4036 21.5717C24.3954 21.5763 24.3855 21.5781 24.3764 21.5781C24.3647 21.5781 24.3529 21.5745 24.3429 21.5672L22.3987 20.2111C22.3779 20.1967 22.3689 20.1695 22.3761 20.1451C22.3843 20.1206 22.4069 20.1034 22.4322 20.1034H24.3764C24.409 20.1034 24.4352 20.1297 24.4352 20.1623V21.5192ZM24.4352 19.1212C24.4352 19.1429 24.4226 19.1638 24.4036 19.1737C24.3954 19.1782 24.3855 19.1801 24.3764 19.1801C24.3647 19.1801 24.3529 19.1764 24.3429 19.1692L22.3987 17.8131C22.3779 17.7986 22.3689 17.7715 22.3761 17.747C22.3843 17.7226 22.4069 17.7054 22.4322 17.7054H24.3764C24.409 17.7054 24.4352 17.7316 24.4352 17.7642V19.1212ZM24.4352 16.6444C24.4352 16.6662 24.4226 16.687 24.4036 16.6969C24.3954 16.7015 24.3855 16.7033 24.3764 16.7033C24.3647 16.7033 24.3529 16.6996 24.3429 16.6924L22.3987 15.3363C22.3779 15.3218 22.3689 15.2947 22.3761 15.2703C22.3843 15.2458 22.4069 15.2286 22.4322 15.2286H24.3764C24.409 15.2286 24.4352 15.2549 24.4352 15.2874V16.6444ZM24.4352 14.2473C24.4352 14.269 24.4226 14.2898 24.4036 14.2998C24.3954 14.3043 24.3855 14.3061 24.3764 14.3061C24.3647 14.3061 24.3529 14.3025 24.3429 14.2953L22.3987 12.9392C22.3779 12.9247 22.3689 12.8976 22.3761 12.8731C22.3843 12.8487 22.4069 12.8315 22.4322 12.8315H24.3764C24.409 12.8315 24.4352 12.8577 24.4352 12.8903V14.2473ZM27.2832 22.7015C27.2832 22.7232 27.2705 22.7441 27.2516 22.754C27.2434 22.7585 27.2335 22.7604 27.2244 22.7604C27.2126 22.7604 27.2009 22.7567 27.1909 22.7495L25.2467 21.3934C25.2259 21.3789 25.2169 21.3518 25.2241 21.3273C25.2323 21.3029 25.2549 21.2857 25.2802 21.2857H27.2244C27.257 21.2857 27.2832 21.3119 27.2832 21.3445V22.7015ZM27.2832 20.3035C27.2832 20.3252 27.2705 20.346 27.2516 20.356C27.2434 20.3605 27.2335 20.3623 27.2244 20.3623C27.2126 20.3623 27.2009 20.3587 27.1909 20.3515L25.2467 18.9954C25.2259 18.9809 25.2169 18.9537 25.2241 18.9293C25.2323 18.9049 25.2549 18.8877 25.2802 18.8877H27.2244C27.257 18.8877 27.2832 18.9139 27.2832 18.9465V20.3035ZM27.2832 17.9064C27.2832 17.9281 27.2705 17.9489 27.2516 17.9589C27.2434 17.9634 27.2335 17.9652 27.2244 17.9652C27.2126 17.9652 27.2009 17.9616 27.1909 17.9543L25.2467 16.5983C25.2259 16.5838 25.2169 16.5566 25.2241 16.5322C25.2323 16.5077 25.2549 16.4905 25.2802 16.4905H27.2244C27.257 16.4905 27.2832 16.5168 27.2832 16.5494V17.9064ZM27.2832 15.5083C27.2832 15.5301 27.2705 15.5509 27.2516 15.5608C27.2434 15.5654 27.2335 15.5672 27.2244 15.5672C27.2126 15.5672 27.2009 15.5635 27.1909 15.5563L25.2467 14.2002C25.2259 14.1857 25.2169 14.1586 25.2241 14.1341C25.2323 14.1097 25.2549 14.0925 25.2802 14.0925H27.2244C27.257 14.0925 27.2832 14.1188 27.2832 14.1514V15.5083ZM27.2832 13.1103C27.2832 13.132 27.2705 13.1529 27.2516 13.1628C27.2434 13.1673 27.2335 13.1691 27.2244 13.1691C27.2126 13.1691 27.2009 13.1655 27.1909 13.1583L25.2467 11.8022C25.2259 11.7877 25.2169 11.7606 25.2241 11.7361C25.2323 11.7117 25.2549 11.6945 25.2802 11.6945H27.2244C27.257 11.6945 27.2832 11.7207 27.2832 11.7533V13.1103ZM29.9638 21.5192C29.9638 21.541 29.9512 21.5618 29.9322 21.5717C29.924 21.5763 29.9141 21.5781 29.905 21.5781C29.8933 21.5781 29.8815 21.5745 29.8716 21.5672L27.9274 20.2111C27.9065 20.1967 27.8975 20.1695 27.9047 20.1451C27.9129 20.1206 27.9355 20.1034 27.9608 20.1034H29.905C29.9376 20.1034 29.9638 20.1297 29.9638 20.1623V21.5192ZM29.9638 19.1212C29.9638 19.1429 29.9512 19.1638 29.9322 19.1737C29.924 19.1782 29.9141 19.1801 29.905 19.1801C29.8933 19.1801 29.8815 19.1764 29.8716 19.1692L27.9274 17.8131C27.9065 17.7986 27.8975 17.7715 27.9047 17.747C27.9129 17.7226 27.9355 17.7054 27.9608 17.7054H29.905C29.9376 17.7054 29.9638 17.7316 29.9638 17.7642V19.1212ZM29.9638 16.6444C29.9638 16.6662 29.9512 16.687 29.9322 16.6969C29.924 16.7015 29.9141 16.7033 29.905 16.7033C29.8933 16.7033 29.8815 16.6996 29.8716 16.6924L27.9274 15.3363C27.9065 15.3218 27.8975 15.2947 27.9047 15.2703C27.9129 15.2458 27.9355 15.2286 27.9608 15.2286H29.905C29.9376 15.2286 29.9638 15.2549 29.9638 15.2874V16.6444ZM29.9638 14.2473C29.9638 14.269 29.9512 14.2898 29.9322 14.2998C29.924 14.3043 29.9141 14.3061 29.905 14.3061C29.8933 14.3061 29.8815 14.3025 29.8716 14.2953L27.9274 12.9392C27.9065 12.9247 27.8975 12.8976 27.9047 12.8731C27.9129 12.8487 27.9355 12.8315 27.9608 12.8315H29.905C29.9376 12.8315 29.9638 12.8577 29.9638 12.8903V14.2473ZM32.5766 22.7015C32.5766 22.7232 32.5648 22.7441 32.5449 22.754C32.5368 22.7585 32.5268 22.7604 32.5178 22.7604C32.506 22.7604 32.4943 22.7567 32.4843 22.7495L30.5401 21.3934C30.5193 21.3789 30.5103 21.3518 30.5175 21.3273C30.5256 21.3029 30.5483 21.2857 30.5736 21.2857H32.5178C32.5504 21.2857 32.5766 21.3119 32.5766 21.3445V22.7015ZM32.5766 20.3035C32.5766 20.3252 32.5648 20.346 32.5449 20.356C32.5368 20.3605 32.5268 20.3623 32.5178 20.3623C32.506 20.3623 32.4943 20.3587 32.4843 20.3515L30.5401 18.9954C30.5193 18.9809 30.5103 18.9537 30.5175 18.9293C30.5256 18.9049 30.5483 18.8877 30.5736 18.8877H32.5178C32.5504 18.8877 32.5766 18.9139 32.5766 18.9465V20.3035ZM32.5766 17.9064C32.5766 17.9281 32.5648 17.9489 32.5449 17.9589C32.5368 17.9634 32.5268 17.9652 32.5178 17.9652C32.506 17.9652 32.4943 17.9616 32.4843 17.9543L30.5401 16.5983C30.5193 16.5838 30.5103 16.5566 30.5175 16.5322C30.5256 16.5077 30.5483 16.4905 30.5736 16.4905H32.5178C32.5504 16.4905 32.5766 16.5168 32.5766 16.5494V17.9064ZM32.5766 15.5083C32.5766 15.5301 32.5648 15.5509 32.5449 15.5608C32.5368 15.5654 32.5268 15.5672 32.5178 15.5672C32.506 15.5672 32.4943 15.5635 32.4843 15.5563L30.5401 14.2002C30.5193 14.1857 30.5103 14.1586 30.5175 14.1341C30.5256 14.1097 30.5483 14.0925 30.5736 14.0925H32.5178C32.5504 14.0925 32.5766 14.1188 32.5766 14.1514V15.5083ZM32.5766 13.1103C32.5766 13.132 32.5648 13.1529 32.5449 13.1628C32.5368 13.1673 32.5268 13.1691 32.5178 13.1691C32.506 13.1691 32.4943 13.1655 32.4843 13.1583L30.5401 11.8022C30.5193 11.7877 30.5103 11.7606 30.5175 11.7361C30.5256 11.7117 30.5483 11.6945 30.5736 11.6945H32.5178C32.5504 11.6945 32.5766 11.7207 32.5766 11.7533V13.1103Z" fill="#24324A"/>
<path d="M24.3175 16.5322V15.3472H22.6194L24.3175 16.5322Z" fill="#24324A"/>
<path d="M19.3381 23.8023H18.2335V24.9474H19.3381V23.8023Z" fill="#24324A"/>
<path d="M21.6171 23.8023H20.5957V24.9474H21.6171V23.8023Z" fill="#24324A"/>
<path d="M32.4588 15.3952V14.2111H30.7607L32.4588 15.3952Z" fill="#24324A"/>
<path d="M20.4769 23.8023H19.4556V24.9474H20.4769V23.8023Z" fill="#24324A"/>
<path d="M29.8462 16.5322V15.3472H28.1481L29.8462 16.5322Z" fill="#24324A"/>
<path d="M29.8462 19.008V17.8239H28.1481L29.8462 19.008Z" fill="#24324A"/>
<path d="M29.8462 14.1341V12.9501H28.1481L29.8462 14.1341Z" fill="#24324A"/>
<path d="M32.4588 20.1912V19.0063H30.7607L32.4588 20.1912Z" fill="#24324A"/>
<path d="M32.4588 17.7932V16.6091H30.7607L32.4588 17.7932Z" fill="#24324A"/>
<path d="M29.8462 21.4061V20.222H28.1481L29.8462 21.4061Z" fill="#24324A"/>
<path d="M32.4588 22.5883V21.4043H30.7607L32.4588 22.5883Z" fill="#24324A"/>
<path d="M27.1647 17.7932V16.6091H25.4666L27.1647 17.7932Z" fill="#24324A"/>
<path d="M27.1647 22.5883V21.4043H25.4666L27.1647 22.5883Z" fill="#24324A"/>
<path d="M27.1647 20.1912V19.0063H25.4666L27.1647 20.1912Z" fill="#24324A"/>
<path d="M26.1732 23.8023H25.1519V24.9474H26.1732V23.8023Z" fill="#24324A"/>
<path d="M24.3175 14.1341V12.9501H22.6194L24.3175 14.1341Z" fill="#24324A"/>
<path d="M27.1647 15.3952V14.2111H25.4666L27.1647 15.3952Z" fill="#24324A"/>
<path d="M27.1647 12.9971V11.813H25.4666L27.1647 12.9971Z" fill="#24324A"/>
<path d="M46.1271 17.9996V17.1604H44.9238L46.1271 17.9996Z" fill="#24324A"/>
<path d="M48.3156 24.9466H50.7809C51.0921 24.6741 52.118 23.8702 54.1753 23.0745V24.9466H54.529V22.9414C55.2681 22.6717 56.1276 22.4073 57.1219 22.1674V24.9457H57.4756V22.0841C58.2591 21.9058 59.1213 21.7447 60.0685 21.6089V24.9457H60.4222V21.56C61.2437 21.4505 62.1258 21.3599 63.0739 21.2947V24.9457H63.4276V21.2721C64.2445 21.2223 65.1076 21.1916 66.0205 21.1825V24.9457H66.3742V21.1807C66.7261 21.1798 67.0853 21.1816 67.4517 21.187C67.4517 21.187 67.9918 21.1707 68.9662 21.2187V24.9457H69.3199V21.2386C70.0292 21.2812 70.923 21.3572 71.9716 21.4894V24.9457H72.3253V21.5356C73.1133 21.6415 73.9809 21.7782 74.9182 21.9556V24.9457H75.2719V22.0235C76.0898 22.1846 76.9556 22.3756 77.8648 22.6038V24.9457H78.2185V22.6943C79.0689 22.9143 79.9546 23.1659 80.8702 23.4538V24.9466H81.2239V23.5669C81.5532 23.6729 81.8871 23.7842 82.2236 23.9001L84.7378 24.6469C84.7378 24.6469 84.916 24.7719 84.9829 24.9466H90.5667L76.4878 21.1879C76.4851 21.1879 57.5507 17.1414 48.3156 24.9466Z" fill="#24324A"/>
<path d="M91.7628 25.0452H0.215454V26.5669H91.7628V25.0452Z" fill="#24324A"/>
<path d="M46.1271 13.6281V12.7889H44.9238L46.1271 13.6281Z" fill="#24324A"/>
<path d="M46.1271 15.8134V14.9751H44.9238L46.1271 15.8134Z" fill="#24324A"/>
<path d="M46.1271 20.1849V19.3466H44.9238L46.1271 20.1849Z" fill="#24324A"/>
<path d="M32.4588 12.9971V11.813H30.7607L32.4588 12.9971Z" fill="#24324A"/>
<path d="M46.1271 4.88513V4.04594H44.9238L46.1271 4.88513Z" fill="#24324A"/>
<path d="M46.1271 7.07039V6.23212H44.9238L46.1271 7.07039Z" fill="#24324A"/>
<path d="M46.689 0.693787H44.3359V24.9465H46.689V0.693787ZM45.7889 1.56736C45.8558 1.56736 45.9219 1.57641 45.9861 1.59542C46.0114 1.60266 46.0286 1.6262 46.0286 1.65245C46.0286 1.6787 46.0114 1.70224 45.9861 1.70948C45.7319 1.78281 45.5546 2.01818 45.5546 2.28251C45.5546 2.54685 45.7319 2.78312 45.9861 2.85554C46.0114 2.86278 46.0286 2.88632 46.0286 2.91257C46.0286 2.93882 46.0114 2.96236 45.9861 2.9696C45.9219 2.9877 45.8558 2.99766 45.7889 2.99766C45.3953 2.99766 45.0751 2.67721 45.0751 2.28342C45.0751 1.88963 45.3953 1.56736 45.7889 1.56736ZM46.2448 22.4842C46.2448 22.506 46.2331 22.5268 46.2132 22.5367C46.205 22.5413 46.1951 22.5431 46.186 22.5431C46.1743 22.5431 46.1625 22.5395 46.1526 22.5322L44.7032 21.521C44.6824 21.5066 44.6734 21.4794 44.6806 21.455C44.6878 21.4305 44.7114 21.4133 44.7367 21.4133H46.186C46.2186 21.4133 46.2448 21.4396 46.2448 21.4722V22.4842ZM46.2448 20.298C46.2448 20.3198 46.2331 20.3406 46.2132 20.3505C46.205 20.3551 46.1951 20.3569 46.186 20.3569C46.1743 20.3569 46.1625 20.3533 46.1526 20.346L44.7032 19.3348C44.6824 19.3204 44.6734 19.2932 44.6806 19.2688C44.6888 19.2443 44.7114 19.2271 44.7367 19.2271H46.186C46.2186 19.2271 46.2448 19.2534 46.2448 19.286V20.298ZM46.2448 18.1127C46.2448 18.1345 46.2331 18.1553 46.2132 18.1653C46.205 18.1698 46.1951 18.1716 46.186 18.1716C46.1743 18.1716 46.1625 18.168 46.1526 18.1607L44.7032 17.1496C44.6824 17.1351 44.6734 17.1079 44.6806 17.0835C44.6888 17.059 44.7114 17.0418 44.7367 17.0418H46.186C46.2186 17.0418 46.2448 17.0681 46.2448 17.1007V18.1127ZM46.2448 15.9266C46.2448 15.9483 46.2331 15.9691 46.2132 15.9791C46.205 15.9836 46.1951 15.9854 46.186 15.9854C46.1743 15.9854 46.1625 15.9818 46.1526 15.9745L44.7032 14.9634C44.6824 14.9489 44.6734 14.9217 44.6806 14.8973C44.6888 14.8728 44.7114 14.8556 44.7367 14.8556H46.186C46.2186 14.8556 46.2448 14.8819 46.2448 14.9145V15.9266ZM46.2448 13.7413C46.2448 13.763 46.2331 13.7838 46.2132 13.7938C46.205 13.7983 46.1951 13.8001 46.186 13.8001C46.1743 13.8001 46.1625 13.7965 46.1526 13.7892L44.7032 12.7781C44.6824 12.7636 44.6734 12.7364 44.6806 12.712C44.6888 12.6875 44.7114 12.6703 44.7367 12.6703H46.186C46.2186 12.6703 46.2448 12.6966 46.2448 12.7292V13.7413ZM46.2448 11.5551C46.2448 11.5768 46.2331 11.5976 46.2132 11.6076C46.205 11.6121 46.1951 11.6139 46.186 11.6139C46.1743 11.6139 46.1625 11.6103 46.1526 11.603L44.7032 10.5919C44.6824 10.5774 44.6734 10.5502 44.6806 10.5258C44.6888 10.5013 44.7114 10.4841 44.7367 10.4841H46.186C46.2186 10.4841 46.2448 10.5104 46.2448 10.543V11.5551ZM46.2448 9.36977C46.2448 9.3915 46.2331 9.41232 46.2132 9.42227C46.205 9.4268 46.1951 9.42862 46.186 9.42862C46.1743 9.42862 46.1625 9.425 46.1526 9.41775L44.7032 8.40658C44.6824 8.39209 44.6734 8.36494 44.6806 8.34049C44.6888 8.31605 44.7114 8.29886 44.7367 8.29886H46.186C46.2186 8.29886 46.2448 8.32511 46.2448 8.3577V9.36977ZM46.2448 7.18357C46.2448 7.2053 46.2331 7.22613 46.2132 7.23608C46.205 7.24061 46.1951 7.24242 46.186 7.24242C46.1743 7.24242 46.1625 7.2388 46.1526 7.23155L44.7032 6.22038C44.6824 6.20589 44.6734 6.17874 44.6806 6.1543C44.6888 6.12985 44.7114 6.11266 44.7367 6.11266H46.186C46.2186 6.11266 46.2448 6.13891 46.2448 6.1715V7.18357ZM46.2448 4.99829C46.2448 5.02001 46.2331 5.04083 46.2132 5.05079C46.205 5.05532 46.1951 5.05712 46.186 5.05712C46.1743 5.05712 46.1625 5.0535 46.1526 5.04626L44.7032 4.03509C44.6824 4.02061 44.6734 3.99345 44.6806 3.96901C44.6888 3.94457 44.7114 3.92736 44.7367 3.92736H46.186C46.2186 3.92736 46.2448 3.95362 46.2448 3.98621V4.99829Z" fill="#24324A"/>
<path d="M39.6811 24.9465V24.2386C40.2031 24.5591 40.5216 24.8153 40.6718 24.9465H43.1371C40.7007 22.8871 37.5885 21.6532 34.328 20.9516V22.1674C35.0889 22.3503 35.7719 22.5485 36.3817 22.7522V24.9465H36.7354V22.8744C37.85 23.2691 38.7013 23.6765 39.3283 24.0304V24.9465H39.6811Z" fill="#24324A"/>
<path d="M46.1271 9.25662V8.41743H44.9238L46.1271 9.25662Z" fill="#24324A"/>
<path d="M27.3131 23.8023H26.2916V24.9474H27.3131V23.8023Z" fill="#24324A"/>
<path d="M46.1271 11.4419V10.6037H44.9238L46.1271 11.4419Z" fill="#24324A"/>
<path d="M6.71846 24.6469L9.23262 23.9001C9.53208 23.7969 9.8279 23.6982 10.1219 23.6032V24.9475H10.4757V23.49C11.3695 23.2067 12.2353 22.9577 13.0685 22.7395V24.9475H13.4223V22.649C14.3297 22.4182 15.1964 22.2235 16.0152 22.0597V24.9484H16.3689V21.9909C16.9886 21.8714 17.5785 21.7691 18.1367 21.6822V20.671C16.1798 20.9317 14.9693 21.1897 14.9693 21.1897L0.890381 24.9484H6.47419C6.54114 24.7718 6.71846 24.6469 6.71846 24.6469Z" fill="#24324A"/>
<path d="M31.8692 23.8023H30.8478V24.9474H31.8692V23.8023Z" fill="#24324A"/>
<path d="M33.0089 23.8023H31.9874V24.9474H33.0089V23.8023Z" fill="#24324A"/>
<path d="M34.2013 23.8023H33.1265V24.9474H34.2013V23.8023Z" fill="#24324A"/>
<path d="M46.1271 22.3711V21.5319H44.9238L46.1271 22.3711Z" fill="#24324A"/>
<path d="M28.452 23.8023H27.4305V24.9474H28.452V23.8023Z" fill="#24324A"/>
<path d="M29.591 23.8023H28.5696V24.9474H29.591V23.8023Z" fill="#24324A"/>
<path d="M45.757 2.87817C45.5616 2.74781 45.4368 2.52512 45.4368 2.28251C45.4368 2.0399 45.5616 1.8172 45.757 1.68684C45.4431 1.70314 45.1925 1.96385 45.1925 2.28251C45.1925 2.60025 45.4431 2.86097 45.757 2.87817Z" fill="#24324A"/>
<path d="M30.73 23.8023H29.7086V24.9474H30.73V23.8023Z" fill="#24324A"/>
<path d="M16.3952 8.09247H15.6425V9.86768H16.3952V8.09247Z" fill="#24324A"/>
<path d="M15.5238 8.09247H14.7711V9.86768H15.5238V8.09247Z" fill="#24324A"/>
<path d="M17.2655 8.09247H16.5128V9.86768H17.2655V8.09247Z" fill="#24324A"/>
<path d="M39.0353 13.772H38.2826V15.5472H39.0353V13.772Z" fill="#24324A"/>
<path d="M18.1366 8.09247H17.3839V9.86768H18.1366V8.09247Z" fill="#24324A"/>
<path d="M14.6536 8.09247H13.9009V9.86768H14.6536V8.09247Z" fill="#24324A"/>
<path d="M13.7822 9.98532H13.0295V11.7605H13.7822V9.98532Z" fill="#24324A"/>
<path d="M15.5238 13.772H14.7711V15.5472H15.5238V13.772Z" fill="#24324A"/>
<path d="M37.2935 13.772H36.5408V15.5472H37.2935V13.772Z" fill="#24324A"/>
<path d="M19.8781 8.09247H19.1254V9.86768H19.8781V8.09247Z" fill="#24324A"/>
<path d="M38.1639 13.772H37.4113V15.5472H38.1639V13.772Z" fill="#24324A"/>
<path d="M14.6536 13.772H13.9009V15.5472H14.6536V13.772Z" fill="#24324A"/>
<path d="M13.7822 11.8792H13.0295V13.6544H13.7822V11.8792Z" fill="#24324A"/>
<path d="M19.007 8.09247H18.2543V9.86768H19.007V8.09247Z" fill="#24324A"/>
<path d="M30.3274 6.19955H29.5747V7.97477H30.3274V6.19955Z" fill="#24324A"/>
<path d="M26.8442 8.09247H26.0916V9.86768H26.8442V8.09247Z" fill="#24324A"/>
<path d="M27.7147 8.09247H26.962V9.86768H27.7147V8.09247Z" fill="#24324A"/>
<path d="M29.4562 8.09247H28.7035V9.86768H29.4562V8.09247Z" fill="#24324A"/>
<path d="M32.0691 8.09247H31.3164V9.86768H32.0691V8.09247Z" fill="#24324A"/>
<path d="M30.3274 8.09247H29.5747V9.86768H30.3274V8.09247Z" fill="#24324A"/>
<path d="M31.1978 8.09247H30.4452V9.86768H31.1978V8.09247Z" fill="#24324A"/>
<path d="M22.4901 8.09247H21.7374V9.86768H22.4901V8.09247Z" fill="#24324A"/>
<path d="M23.3611 8.09247H22.6084V9.86768H23.3611V8.09247Z" fill="#24324A"/>
<path d="M25.9733 8.09247H25.2206V9.86768H25.9733V8.09247Z" fill="#24324A"/>
<path d="M32.9392 8.09247H32.1865V9.86768H32.9392V8.09247Z" fill="#24324A"/>
<path d="M20.7484 8.09247H19.9957V9.86768H20.7484V8.09247Z" fill="#24324A"/>
<path d="M25.103 8.09247H24.3502V9.86768H25.103V8.09247Z" fill="#24324A"/>
<path d="M24.2316 8.09247H23.4789V9.86768H24.2316V8.09247Z" fill="#24324A"/>
<path d="M21.6198 8.09247H20.8671V9.86768H21.6198V8.09247Z" fill="#24324A"/>
<path d="M39.9055 13.772H39.1528V15.5472H39.9055V13.772Z" fill="#24324A"/>
<path d="M39.0353 6.19955H38.2826V7.97477H39.0353V6.19955Z" fill="#24324A"/>
<path d="M37.2935 6.19955H36.5408V7.97477H37.2935V6.19955Z" fill="#24324A"/>
<path d="M41.6471 6.19955H40.8944V7.97477H41.6471V6.19955Z" fill="#24324A"/>
<path d="M42.5183 6.19955H41.7656V7.97477H42.5183V6.19955Z" fill="#24324A"/>
<path d="M39.9055 6.19955H39.1528V7.97477H39.9055V6.19955Z" fill="#24324A"/>
<path d="M40.7766 6.19955H40.0239V7.97477H40.7766V6.19955Z" fill="#24324A"/>
<path d="M36.4224 6.19955H35.6697V7.97477H36.4224V6.19955Z" fill="#24324A"/>
<path d="M35.5521 6.19955H34.7994V7.97477H35.5521V6.19955Z" fill="#24324A"/>
<path d="M32.0691 6.19955H31.3164V7.97477H32.0691V6.19955Z" fill="#24324A"/>
<path d="M31.1978 6.19955H30.4452V7.97477H31.1978V6.19955Z" fill="#24324A"/>
<path d="M32.9392 6.19955H32.1865V7.97477H32.9392V6.19955Z" fill="#24324A"/>
<path d="M34.6809 6.19955H33.9282V7.97477H34.6809V6.19955Z" fill="#24324A"/>
<path d="M33.8105 6.19955H33.0577V7.97477H33.8105V6.19955Z" fill="#24324A"/>
<path d="M38.1639 6.19955H37.4113V7.97477H38.1639V6.19955Z" fill="#24324A"/>
<path d="M42.5183 9.98532H41.7656V11.7605H42.5183V9.98532Z" fill="#24324A"/>
<path d="M42.5183 8.09247H41.7656V9.86768H42.5183V8.09247Z" fill="#24324A"/>
<path d="M13.7822 8.09247H13.0295V9.86768H13.7822V8.09247Z" fill="#24324A"/>
<path d="M13.7822 13.772H13.0295V15.5472H13.7822V13.772Z" fill="#24324A"/>
<path d="M42.5183 11.8792H41.7656V13.6544H42.5183V11.8792Z" fill="#24324A"/>
<path d="M42.5183 13.772H41.7656V15.5472H42.5183V13.772Z" fill="#24324A"/>
<path d="M41.6471 13.772H40.8944V15.5472H41.6471V13.772Z" fill="#24324A"/>
<path d="M40.7766 13.772H40.0239V15.5472H40.7766V13.772Z" fill="#24324A"/>
<path d="M34.6817 13.772H34.328V15.5472H34.6817V13.772Z" fill="#24324A"/>
<path d="M35.5521 13.772H34.7994V15.5472H35.5521V13.772Z" fill="#24324A"/>
<path d="M36.4224 13.772H35.6697V15.5472H36.4224V13.772Z" fill="#24324A"/>
<path d="M17.2655 13.772H16.5128V15.5472H17.2655V13.772Z" fill="#24324A"/>
<path d="M16.3952 13.772H15.6425V15.5472H16.3952V13.772Z" fill="#24324A"/>
<path d="M18.1357 13.772H17.3839V15.5472H18.1357V13.772Z" fill="#24324A"/>
<path d="M28.5858 8.09247H27.8331V9.86768H28.5858V8.09247Z" fill="#24324A"/>
<path d="M18.1348 10.9286C18.1348 10.9241 18.1357 10.9195 18.1366 10.9159V9.98532H17.3839V11.7605H18.1357V10.9286H18.1348Z" fill="#24324A"/>
<path d="M25.103 9.98532H24.3502V10.8698H25.103V9.98532Z" fill="#24324A"/>
<path d="M26.8442 9.98532H26.0916V10.8698H26.8442V9.98532Z" fill="#24324A"/>
<path d="M25.9733 9.98532H25.2206V10.8698H25.9733V9.98532Z" fill="#24324A"/>
<path d="M29.4562 9.98532H28.7035V10.8698H29.4562V9.98532Z" fill="#24324A"/>
<path d="M27.7147 9.98532H26.962V10.8698H27.7147V9.98532Z" fill="#24324A"/>
<path d="M28.5858 9.98532H27.8331V10.8698H28.5858V9.98532Z" fill="#24324A"/>
<path d="M19.8781 9.98532H19.1254V10.8698H19.8781V9.98532Z" fill="#24324A"/>
<path d="M23.3611 9.98532H22.6084V10.8698H23.3611V9.98532Z" fill="#24324A"/>
<path d="M30.3274 9.98532H29.5747V10.8698H30.3274V9.98532Z" fill="#24324A"/>
<path d="M19.007 9.98532H18.2543V10.8698H19.007V9.98532Z" fill="#24324A"/>
<path d="M20.7484 9.98532H19.9957V10.8698H20.7484V9.98532Z" fill="#24324A"/>
<path d="M21.6198 9.98532H20.8671V10.8698H21.6198V9.98532Z" fill="#24324A"/>
<path d="M22.4901 9.98532H21.7374V10.8698H22.4901V9.98532Z" fill="#24324A"/>
<path d="M24.2316 9.98532H23.4789V10.8698H24.2316V9.98532Z" fill="#24324A"/>
<path d="M39.9055 9.98532H39.1528V11.7605H39.9055V9.98532Z" fill="#24324A"/>
<path d="M39.0353 9.98532H38.2826V11.7605H39.0353V9.98532Z" fill="#24324A"/>
<path d="M38.1639 9.98532H37.4113V11.7605H38.1639V9.98532Z" fill="#24324A"/>
<path d="M40.7766 9.98532H40.0239V11.7605H40.7766V9.98532Z" fill="#24324A"/>
<path d="M37.2935 9.98532H36.5408V11.7605H37.2935V9.98532Z" fill="#24324A"/>
<path d="M44.2182 4.52664H43.5071V6.08189H44.2182V4.52664Z" fill="#24324A"/>
<path d="M31.1978 9.98532H30.4452V10.8698H31.1978V9.98532Z" fill="#24324A"/>
<path d="M36.4224 9.98532H35.6697V11.7605H36.4224V9.98532Z" fill="#24324A"/>
<path d="M33.8105 9.98532H33.0577V10.8698H33.8105V9.98532Z" fill="#24324A"/>
<path d="M32.0691 9.98532H31.3164V10.8698H32.0691V9.98532Z" fill="#24324A"/>
<path d="M32.9392 9.98532H32.1865V10.8698H32.9392V9.98532Z" fill="#24324A"/>
<path d="M35.5521 9.98532H34.7994V11.7605H35.5521V9.98532Z" fill="#24324A"/>
<path d="M34.3281 10.9286V11.7605H34.6818V9.98532H33.9291V10.8698H34.2693C34.3018 10.8698 34.3281 10.896 34.3281 10.9286Z" fill="#24324A"/>
<path d="M15.5238 9.98532H14.7711V11.7605H15.5238V9.98532Z" fill="#24324A"/>
<path d="M41.6471 8.09247H40.8944V9.86768H41.6471V8.09247Z" fill="#24324A"/>
<path d="M41.6471 11.8792H40.8944V13.6544H41.6471V11.8792Z" fill="#24324A"/>
<path d="M40.7766 8.09247H40.0239V9.86768H40.7766V8.09247Z" fill="#24324A"/>
<path d="M39.9055 8.09247H39.1528V9.86768H39.9055V8.09247Z" fill="#24324A"/>
<path d="M35.5521 11.8792H34.7994V13.6544H35.5521V11.8792Z" fill="#24324A"/>
<path d="M37.2935 11.8792H36.5408V13.6544H37.2935V11.8792Z" fill="#24324A"/>
<path d="M36.4224 11.8792H35.6697V13.6544H36.4224V11.8792Z" fill="#24324A"/>
<path d="M38.1639 8.09247H37.4113V9.86768H38.1639V8.09247Z" fill="#24324A"/>
<path d="M36.4224 8.09247H35.6697V9.86768H36.4224V8.09247Z" fill="#24324A"/>
<path d="M35.5521 8.09247H34.7994V9.86768H35.5521V8.09247Z" fill="#24324A"/>
<path d="M39.0353 8.09247H38.2826V9.86768H39.0353V8.09247Z" fill="#24324A"/>
<path d="M34.6809 8.09247H33.9282V9.86768H34.6809V8.09247Z" fill="#24324A"/>
<path d="M34.6817 11.8792H34.328V13.6544H34.6817V11.8792Z" fill="#24324A"/>
<path d="M37.2935 8.09247H36.5408V9.86768H37.2935V8.09247Z" fill="#24324A"/>
<path d="M39.9055 11.8792H39.1528V13.6544H39.9055V11.8792Z" fill="#24324A"/>
<path d="M38.1639 11.8792H37.4113V13.6544H38.1639V11.8792Z" fill="#24324A"/>
<path d="M40.7766 11.8792H40.0239V13.6544H40.7766V11.8792Z" fill="#24324A"/>
<path d="M17.2655 9.98532H16.5128V11.7605H17.2655V9.98532Z" fill="#24324A"/>
<path d="M39.0353 11.8792H38.2826V13.6544H39.0353V11.8792Z" fill="#24324A"/>
<path d="M33.8105 8.09247H33.0577V9.86768H33.8105V8.09247Z" fill="#24324A"/>
<path d="M18.1357 11.8792H17.3839V13.6544H18.1357V11.8792Z" fill="#24324A"/>
<path d="M16.3952 9.98532H15.6425V11.7605H16.3952V9.98532Z" fill="#24324A"/>
<path d="M15.5238 11.8792H14.7711V13.6544H15.5238V11.8792Z" fill="#24324A"/>
<path d="M41.6471 9.98532H40.8944V11.7605H41.6471V9.98532Z" fill="#24324A"/>
<path d="M17.2655 11.8792H16.5128V13.6544H17.2655V11.8792Z" fill="#24324A"/>
<path d="M16.3952 11.8792H15.6425V13.6544H16.3952V11.8792Z" fill="#24324A"/>
<path d="M14.6536 9.98532H13.9009V11.7605H14.6536V9.98532Z" fill="#24324A"/>
<path d="M14.6536 11.8792H13.9009V13.6544H14.6536V11.8792Z" fill="#24324A"/>
<path d="M20.7484 4.52664H19.9957V6.08189H20.7484V4.52664Z" fill="#24324A"/>
<path d="M16.3952 4.52664H15.6425V6.08189H16.3952V4.52664Z" fill="#24324A"/>
<path d="M17.2655 4.52664H16.5128V6.08189H17.2655V4.52664Z" fill="#24324A"/>
<path d="M15.5238 4.52664H14.7711V6.08189H15.5238V4.52664Z" fill="#24324A"/>
<path d="M19.8781 4.52664H19.1254V6.08189H19.8781V4.52664Z" fill="#24324A"/>
<path d="M14.6536 4.52664H13.9009V6.08189H14.6536V4.52664Z" fill="#24324A"/>
<path d="M19.007 4.52664H18.2543V6.08189H19.007V4.52664Z" fill="#24324A"/>
<path d="M21.6198 4.52664H20.8671V6.08189H21.6198V4.52664Z" fill="#24324A"/>
<path d="M18.1366 4.52664H17.3839V6.08189H18.1366V4.52664Z" fill="#24324A"/>
<path d="M12.0418 8.09247H11.1633V9.86768H12.0418V8.09247Z" fill="#24324A"/>
<path d="M12.0418 9.98532H11.1633V11.7605H12.0418V9.98532Z" fill="#24324A"/>
<path d="M12.0418 11.8792H11.1633V13.6544H12.0418V11.8792Z" fill="#24324A"/>
<path d="M12.9121 4.52664H12.1594V6.08189H12.9121V4.52664Z" fill="#24324A"/>
<path d="M13.7822 4.52664H13.0295V6.08189H13.7822V4.52664Z" fill="#24324A"/>
<path d="M12.0418 6.19955H11.1633V7.97477H12.0418V6.19955Z" fill="#24324A"/>
<path d="M28.5858 4.52664H27.8331V6.08189H28.5858V4.52664Z" fill="#24324A"/>
<path d="M30.3274 4.52664H29.5747V6.08189H30.3274V4.52664Z" fill="#24324A"/>
<path d="M33.8105 4.52664H33.0577V6.08189H33.8105V4.52664Z" fill="#24324A"/>
<path d="M31.1978 4.52664H30.4452V6.08189H31.1978V4.52664Z" fill="#24324A"/>
<path d="M29.4562 4.52664H28.7035V6.08189H29.4562V4.52664Z" fill="#24324A"/>
<path d="M32.9392 4.52664H32.1865V6.08189H32.9392V4.52664Z" fill="#24324A"/>
<path d="M32.0691 4.52664H31.3164V6.08189H32.0691V4.52664Z" fill="#24324A"/>
<path d="M24.2316 4.52664H23.4789V6.08189H24.2316V4.52664Z" fill="#24324A"/>
<path d="M22.4901 4.52664H21.7374V6.08189H22.4901V4.52664Z" fill="#24324A"/>
<path d="M25.103 4.52664H24.3502V6.08189H25.103V4.52664Z" fill="#24324A"/>
<path d="M27.7147 4.52664H26.962V6.08189H27.7147V4.52664Z" fill="#24324A"/>
<path d="M23.3611 4.52664H22.6084V6.08189H23.3611V4.52664Z" fill="#24324A"/>
<path d="M26.8442 4.52664H26.0916V6.08189H26.8442V4.52664Z" fill="#24324A"/>
<path d="M25.9733 4.52664H25.2206V6.08189H25.9733V4.52664Z" fill="#24324A"/>
<path d="M12.0418 13.772H11.1633V15.5472H12.0418V13.772Z" fill="#24324A"/>
<path d="M44.2182 11.8792H43.5071V13.6544H44.2182V11.8792Z" fill="#24324A"/>
<path d="M44.2182 8.09247H43.5071V9.86768H44.2182V8.09247Z" fill="#24324A"/>
<path d="M44.2182 13.772H43.5071V15.5472H44.2182V13.772Z" fill="#24324A"/>
<path d="M44.2182 9.98532H43.5071V11.7605H44.2182V9.98532Z" fill="#24324A"/>
<path d="M44.2182 15.6659H43.5071V17.4411H44.2182V15.6659Z" fill="#24324A"/>
<path d="M42.5183 17.5587H41.7656V19.0886H42.5183V17.5587Z" fill="#24324A"/>
<path d="M43.3887 17.5587H42.636V19.0886H43.3887V17.5587Z" fill="#24324A"/>
<path d="M41.6471 17.5587H40.8944V19.0886H41.6471V17.5587Z" fill="#24324A"/>
<path d="M34.6817 17.5587H34.328V19.0886H34.6817V17.5587Z" fill="#24324A"/>
<path d="M44.2182 17.5587H43.5071V19.0886H44.2182V17.5587Z" fill="#24324A"/>
<path d="M12.0418 15.6659H11.1633V17.4411H12.0418V15.6659Z" fill="#24324A"/>
<path d="M12.0418 17.5587H11.1633V19.0886H12.0418V17.5587Z" fill="#24324A"/>
<path d="M12.0418 4.52664H11.1633V6.08189H12.0418V4.52664Z" fill="#24324A"/>
<path d="M44.2182 6.19955H43.5071V7.97477H44.2182V6.19955Z" fill="#24324A"/>
<path d="M18.1357 17.5587H17.3839V19.0886H18.1357V17.5587Z" fill="#24324A"/>
<path d="M14.6536 17.5587H13.9009V19.0886H14.6536V17.5587Z" fill="#24324A"/>
<path d="M15.5238 17.5587H14.7711V19.0886H15.5238V17.5587Z" fill="#24324A"/>
<path d="M17.2655 17.5587H16.5128V19.0886H17.2655V17.5587Z" fill="#24324A"/>
<path d="M16.3952 17.5587H15.6425V19.0886H16.3952V17.5587Z" fill="#24324A"/>
<path d="M40.7766 17.5587H40.0239V19.0886H40.7766V17.5587Z" fill="#24324A"/>
<path d="M12.9121 17.5587H12.1594V19.0886H12.9121V17.5587Z" fill="#24324A"/>
<path d="M13.7822 17.5587H13.0295V19.0886H13.7822V17.5587Z" fill="#24324A"/>
<path d="M39.0353 17.5587H38.2826V19.0886H39.0353V17.5587Z" fill="#24324A"/>
<path d="M38.1639 17.5587H37.4113V19.0886H38.1639V17.5587Z" fill="#24324A"/>
<path d="M39.9055 17.5587H39.1528V19.0886H39.9055V17.5587Z" fill="#24324A"/>
<path d="M36.4224 17.5587H35.6697V19.0886H36.4224V17.5587Z" fill="#24324A"/>
<path d="M37.2935 17.5587H36.5408V19.0886H37.2935V17.5587Z" fill="#24324A"/>
<path d="M35.5521 17.5587H34.7994V19.0886H35.5521V17.5587Z" fill="#24324A"/>
<path d="M41.6471 15.6659H40.8944V17.4411H41.6471V15.6659Z" fill="#24324A"/>
<path d="M12.9121 8.09247H12.1594V9.86768H12.9121V8.09247Z" fill="#24324A"/>
<path d="M12.9121 9.98532H12.1594V11.7605H12.9121V9.98532Z" fill="#24324A"/>
<path d="M17.2655 6.19955H16.5128V7.97477H17.2655V6.19955Z" fill="#24324A"/>
<path d="M13.7822 6.19955H13.0295V7.97477H13.7822V6.19955Z" fill="#24324A"/>
<path d="M16.3952 6.19955H15.6425V7.97477H16.3952V6.19955Z" fill="#24324A"/>
<path d="M15.5238 6.19955H14.7711V7.97477H15.5238V6.19955Z" fill="#24324A"/>
<path d="M14.6536 6.19955H13.9009V7.97477H14.6536V6.19955Z" fill="#24324A"/>
<path d="M37.2935 15.6659H36.5408V17.4411H37.2935V15.6659Z" fill="#24324A"/>
<path d="M16.3952 15.6659H15.6425V17.4411H16.3952V15.6659Z" fill="#24324A"/>
<path d="M36.4224 15.6659H35.6697V17.4411H36.4224V15.6659Z" fill="#24324A"/>
<path d="M15.5238 15.6659H14.7711V17.4411H15.5238V15.6659Z" fill="#24324A"/>
<path d="M12.9121 13.772H12.1594V15.5472H12.9121V13.772Z" fill="#24324A"/>
<path d="M14.6536 15.6659H13.9009V17.4411H14.6536V15.6659Z" fill="#24324A"/>
<path d="M13.7822 15.6659H13.0295V17.4411H13.7822V15.6659Z" fill="#24324A"/>
<path d="M12.9121 11.8792H12.1594V13.6544H12.9121V11.8792Z" fill="#24324A"/>
<path d="M25.9733 6.19955H25.2206V7.97477H25.9733V6.19955Z" fill="#24324A"/>
<path d="M25.103 6.19955H24.3502V7.97477H25.103V6.19955Z" fill="#24324A"/>
<path d="M24.2316 6.19955H23.4789V7.97477H24.2316V6.19955Z" fill="#24324A"/>
<path d="M26.8442 6.19955H26.0916V7.97477H26.8442V6.19955Z" fill="#24324A"/>
<path d="M28.5858 6.19955H27.8331V7.97477H28.5858V6.19955Z" fill="#24324A"/>
<path d="M27.7147 6.19955H26.962V7.97477H27.7147V6.19955Z" fill="#24324A"/>
<path d="M23.3611 6.19955H22.6084V7.97477H23.3611V6.19955Z" fill="#24324A"/>
<path d="M20.7484 6.19955H19.9957V7.97477H20.7484V6.19955Z" fill="#24324A"/>
<path d="M19.8781 6.19955H19.1254V7.97477H19.8781V6.19955Z" fill="#24324A"/>
<path d="M18.1366 6.19955H17.3839V7.97477H18.1366V6.19955Z" fill="#24324A"/>
<path d="M19.007 6.19955H18.2543V7.97477H19.007V6.19955Z" fill="#24324A"/>
<path d="M22.4901 6.19955H21.7374V7.97477H22.4901V6.19955Z" fill="#24324A"/>
<path d="M21.6198 6.19955H20.8671V7.97477H21.6198V6.19955Z" fill="#24324A"/>
<path d="M35.5521 4.52664H34.7994V6.08189H35.5521V4.52664Z" fill="#24324A"/>
<path d="M43.3887 4.52664H42.636V6.08189H43.3887V4.52664Z" fill="#24324A"/>
<path d="M42.5183 4.52664H41.7656V6.08189H42.5183V4.52664Z" fill="#24324A"/>
<path d="M40.7766 4.52664H40.0239V6.08189H40.7766V4.52664Z" fill="#24324A"/>
<path d="M18.1357 15.6659H17.3839V17.4411H18.1357V15.6659Z" fill="#24324A"/>
<path d="M43.3887 15.6659H42.636V17.4411H43.3887V15.6659Z" fill="#24324A"/>
<path d="M34.6817 15.6659H34.328V17.4411H34.6817V15.6659Z" fill="#24324A"/>
<path d="M35.5521 15.6659H34.7994V17.4411H35.5521V15.6659Z" fill="#24324A"/>
<path d="M41.6471 4.52664H40.8944V6.08189H41.6471V4.52664Z" fill="#24324A"/>
<path d="M36.4224 4.52664H35.6697V6.08189H36.4224V4.52664Z" fill="#24324A"/>
<path d="M37.2935 4.52664H36.5408V6.08189H37.2935V4.52664Z" fill="#24324A"/>
<path d="M34.6809 4.52664H33.9282V6.08189H34.6809V4.52664Z" fill="#24324A"/>
<path d="M39.0353 4.52664H38.2826V6.08189H39.0353V4.52664Z" fill="#24324A"/>
<path d="M39.9055 4.52664H39.1528V6.08189H39.9055V4.52664Z" fill="#24324A"/>
<path d="M38.1639 4.52664H37.4113V6.08189H38.1639V4.52664Z" fill="#24324A"/>
<path d="M39.0353 15.6659H38.2826V17.4411H39.0353V15.6659Z" fill="#24324A"/>
<path d="M29.4562 6.19955H28.7035V7.97477H29.4562V6.19955Z" fill="#24324A"/>
<path d="M42.5183 15.6659H41.7656V17.4411H42.5183V15.6659Z" fill="#24324A"/>
<path d="M40.7766 15.6659H40.0239V17.4411H40.7766V15.6659Z" fill="#24324A"/>
<path d="M38.1639 15.6659H37.4113V17.4411H38.1639V15.6659Z" fill="#24324A"/>
<path d="M17.2655 15.6659H16.5128V17.4411H17.2655V15.6659Z" fill="#24324A"/>
<path d="M43.3887 13.772H42.636V15.5472H43.3887V13.772Z" fill="#24324A"/>
<path d="M39.9055 15.6659H39.1528V17.4411H39.9055V15.6659Z" fill="#24324A"/>
<path d="M43.3887 6.19955H42.636V7.97477H43.3887V6.19955Z" fill="#24324A"/>
<path d="M12.9121 6.19955H12.1594V7.97477H12.9121V6.19955Z" fill="#24324A"/>
<path d="M12.9121 15.6659H12.1594V17.4411H12.9121V15.6659Z" fill="#24324A"/>
<path d="M43.3887 9.98532H42.636V11.7605H43.3887V9.98532Z" fill="#24324A"/>
<path d="M43.3887 11.8792H42.636V13.6544H43.3887V11.8792Z" fill="#24324A"/>
<path d="M43.3887 8.09247H42.636V9.86768H43.3887V8.09247Z" fill="#24324A"/>
<path d="M51.937 13.772H51.1843V15.5472H51.937V13.772Z" fill="#24324A"/>
<path d="M53.6786 13.772H52.9259V15.5472H53.6786V13.772Z" fill="#24324A"/>
<path d="M52.8084 13.772H52.0557V15.5472H52.8084V13.772Z" fill="#24324A"/>
<path d="M50.1953 8.09247H49.4426V9.86768H50.1953V8.09247Z" fill="#24324A"/>
<path d="M49.3252 9.98532H48.5725V11.7605H49.3252V9.98532Z" fill="#24324A"/>
<path d="M50.1953 13.772H49.4426V15.5472H50.1953V13.772Z" fill="#24324A"/>
<path d="M49.3252 11.8792H48.5725V13.6544H49.3252V11.8792Z" fill="#24324A"/>
<path d="M51.0668 13.772H50.3141V15.5472H51.0668V13.772Z" fill="#24324A"/>
<path d="M58.0329 13.772H57.2802V15.5472H58.0329V13.772Z" fill="#24324A"/>
<path d="M58.9033 13.772H58.1506V15.5472H58.9033V13.772Z" fill="#24324A"/>
<path d="M61.516 13.772H60.7633V15.5472H61.516V13.772Z" fill="#24324A"/>
<path d="M60.6449 13.772H59.8922V15.5472H60.6449V13.772Z" fill="#24324A"/>
<path d="M59.7746 13.772H59.0219V15.5472H59.7746V13.772Z" fill="#24324A"/>
<path d="M55.4202 13.772H54.6675V15.5472H55.4202V13.772Z" fill="#24324A"/>
<path d="M57.1616 13.772H56.4089V15.5472H57.1616V13.772Z" fill="#24324A"/>
<path d="M56.2914 13.772H55.5387V15.5472H56.2914V13.772Z" fill="#24324A"/>
<path d="M54.5498 13.772H53.7971V15.5472H54.5498V13.772Z" fill="#24324A"/>
<path d="M58.9033 8.09247H58.1506V9.86768H58.9033V8.09247Z" fill="#24324A"/>
<path d="M61.516 8.09247H60.7633V9.86768H61.516V8.09247Z" fill="#24324A"/>
<path d="M51.0668 8.09247H50.3141V9.86768H51.0668V8.09247Z" fill="#24324A"/>
<path d="M59.7746 8.09247H59.0219V9.86768H59.7746V8.09247Z" fill="#24324A"/>
<path d="M60.6449 8.09247H59.8922V9.86768H60.6449V8.09247Z" fill="#24324A"/>
<path d="M64.9991 8.09247H64.2463V9.86768H64.9991V8.09247Z" fill="#24324A"/>
<path d="M63.2575 8.09247H62.5048V9.86768H63.2575V8.09247Z" fill="#24324A"/>
<path d="M64.1281 8.09247H63.3754V9.86768H64.1281V8.09247Z" fill="#24324A"/>
<path d="M62.3865 8.09247H61.6338V9.86768H62.3865V8.09247Z" fill="#24324A"/>
<path d="M52.8084 8.09247H52.0557V9.86768H52.8084V8.09247Z" fill="#24324A"/>
<path d="M53.6786 8.09247H52.9259V9.86768H53.6786V8.09247Z" fill="#24324A"/>
<path d="M65.8693 8.09247H65.1167V9.86768H65.8693V8.09247Z" fill="#24324A"/>
<path d="M51.937 8.09247H51.1843V9.86768H51.937V8.09247Z" fill="#24324A"/>
<path d="M55.4202 8.09247H54.6675V9.86768H55.4202V8.09247Z" fill="#24324A"/>
<path d="M57.1616 8.09247H56.4089V9.86768H57.1616V8.09247Z" fill="#24324A"/>
<path d="M58.0329 8.09247H57.2802V9.86768H58.0329V8.09247Z" fill="#24324A"/>
<path d="M56.2914 8.09247H55.5387V9.86768H56.2914V8.09247Z" fill="#24324A"/>
<path d="M54.5498 8.09247H53.7971V9.86768H54.5498V8.09247Z" fill="#24324A"/>
<path d="M73.7068 6.19955H72.9541V7.97477H73.7068V6.19955Z" fill="#24324A"/>
<path d="M74.5772 6.19955H73.8245V7.97477H74.5772V6.19955Z" fill="#24324A"/>
<path d="M71.0941 6.19955H70.3414V7.97477H71.0941V6.19955Z" fill="#24324A"/>
<path d="M71.9652 6.19955H71.2125V7.97477H71.9652V6.19955Z" fill="#24324A"/>
<path d="M72.8356 6.19955H72.0829V7.97477H72.8356V6.19955Z" fill="#24324A"/>
<path d="M49.3252 13.772H48.5725V15.5472H49.3252V13.772Z" fill="#24324A"/>
<path d="M75.4483 6.19955H74.6957V7.97477H75.4483V6.19955Z" fill="#24324A"/>
<path d="M75.4483 13.772H74.6957V15.5472H75.4483V13.772Z" fill="#24324A"/>
<path d="M68.4823 6.19955H67.7296V7.97477H68.4823V6.19955Z" fill="#24324A"/>
<path d="M65.8693 6.19955H65.1167V7.97477H65.8693V6.19955Z" fill="#24324A"/>
<path d="M66.7406 6.19955H65.9879V7.97477H66.7406V6.19955Z" fill="#24324A"/>
<path d="M64.9991 6.19955H64.2463V7.97477H64.9991V6.19955Z" fill="#24324A"/>
<path d="M64.1281 6.19955H63.3754V7.97477H64.1281V6.19955Z" fill="#24324A"/>
<path d="M70.2238 6.19955H69.4711V7.97477H70.2238V6.19955Z" fill="#24324A"/>
<path d="M62.3865 13.772H61.6338V15.5472H62.3865V13.772Z" fill="#24324A"/>
<path d="M69.3525 6.19955H68.5999V7.97477H69.3525V6.19955Z" fill="#24324A"/>
<path d="M49.3252 8.09247H48.5725V9.86768H49.3252V8.09247Z" fill="#24324A"/>
<path d="M67.6109 6.19955H66.8583V7.97477H67.6109V6.19955Z" fill="#24324A"/>
<path d="M66.7406 13.772H65.9879V15.5472H66.7406V13.772Z" fill="#24324A"/>
<path d="M67.6109 13.772H66.8583V15.5472H67.6109V13.772Z" fill="#24324A"/>
<path d="M68.4823 13.772H67.7296V15.5472H68.4823V13.772Z" fill="#24324A"/>
<path d="M69.3525 13.772H68.5999V15.5472H69.3525V13.772Z" fill="#24324A"/>
<path d="M65.8693 13.772H65.1167V15.5472H65.8693V13.772Z" fill="#24324A"/>
<path d="M64.9991 13.772H64.2463V15.5472H64.9991V13.772Z" fill="#24324A"/>
<path d="M63.2575 13.772H62.5048V15.5472H63.2575V13.772Z" fill="#24324A"/>
<path d="M64.1281 13.772H63.3754V15.5472H64.1281V13.772Z" fill="#24324A"/>
<path d="M73.7068 13.772H72.9541V15.5472H73.7068V13.772Z" fill="#24324A"/>
<path d="M70.2238 13.772H69.4711V15.5472H70.2238V13.772Z" fill="#24324A"/>
<path d="M75.4483 9.98532H74.6957V11.7605H75.4483V9.98532Z" fill="#24324A"/>
<path d="M74.5772 13.772H73.8245V15.5472H74.5772V13.772Z" fill="#24324A"/>
<path d="M75.4483 11.8792H74.6957V13.6544H75.4483V11.8792Z" fill="#24324A"/>
<path d="M71.0941 13.772H70.3414V15.5472H71.0941V13.772Z" fill="#24324A"/>
<path d="M75.4483 8.09247H74.6957V9.86768H75.4483V8.09247Z" fill="#24324A"/>
<path d="M71.9652 13.772H71.2125V15.5472H71.9652V13.772Z" fill="#24324A"/>
<path d="M53.6786 11.8792H52.9259V13.6544H53.6786V11.8792Z" fill="#24324A"/>
<path d="M56.2914 9.98532H55.5387V11.7605H56.2914V9.98532Z" fill="#24324A"/>
<path d="M60.6449 9.98532H59.8922V11.7605H60.6449V9.98532Z" fill="#24324A"/>
<path d="M57.1616 9.98532H56.4089V11.7605H57.1616V9.98532Z" fill="#24324A"/>
<path d="M53.6786 9.98532H52.9259V11.7605H53.6786V9.98532Z" fill="#24324A"/>
<path d="M54.5498 9.98532H53.7971V11.7605H54.5498V9.98532Z" fill="#24324A"/>
<path d="M59.7746 9.98532H59.0219V11.7605H59.7746V9.98532Z" fill="#24324A"/>
<path d="M58.0329 9.98532H57.2802V11.7605H58.0329V9.98532Z" fill="#24324A"/>
<path d="M58.9033 9.98532H58.1506V11.7605H58.9033V9.98532Z" fill="#24324A"/>
<path d="M55.4202 9.98532H54.6675V11.7605H55.4202V9.98532Z" fill="#24324A"/>
<path d="M51.937 11.8792H51.1843V13.6544H51.937V11.8792Z" fill="#24324A"/>
<path d="M63.2575 6.19955H62.5048V7.97477H63.2575V6.19955Z" fill="#24324A"/>
<path d="M52.8084 11.8792H52.0557V13.6544H52.8084V11.8792Z" fill="#24324A"/>
<path d="M52.8084 9.98532H52.0557V11.7605H52.8084V9.98532Z" fill="#24324A"/>
<path d="M54.5498 11.8792H53.7971V13.6544H54.5498V11.8792Z" fill="#24324A"/>
<path d="M51.937 9.98532H51.1843V11.7605H51.937V9.98532Z" fill="#24324A"/>
<path d="M51.0668 9.98532H50.3141V11.7605H51.0668V9.98532Z" fill="#24324A"/>
<path d="M51.0668 11.8792H50.3141V13.6544H51.0668V11.8792Z" fill="#24324A"/>
<path d="M62.3865 9.98532H61.6338V11.7605H62.3865V9.98532Z" fill="#24324A"/>
<path d="M70.2238 9.98532H69.4711V11.7605H70.2238V9.98532Z" fill="#24324A"/>
<path d="M71.9652 9.98532H71.2125V11.7605H71.9652V9.98532Z" fill="#24324A"/>
<path d="M71.0941 9.98532H70.3414V11.7605H71.0941V9.98532Z" fill="#24324A"/>
<path d="M69.3525 9.98532H68.5999V11.7605H69.3525V9.98532Z" fill="#24324A"/>
<path d="M61.516 9.98532H60.7633V11.7605H61.516V9.98532Z" fill="#24324A"/>
<path d="M68.4823 9.98532H67.7296V11.7605H68.4823V9.98532Z" fill="#24324A"/>
<path d="M72.8356 9.98532H72.0829V11.7605H72.8356V9.98532Z" fill="#24324A"/>
<path d="M73.7068 9.98532H72.9541V11.7605H73.7068V9.98532Z" fill="#24324A"/>
<path d="M63.2575 9.98532H62.5048V11.7605H63.2575V9.98532Z" fill="#24324A"/>
<path d="M64.1281 9.98532H63.3754V11.7605H64.1281V9.98532Z" fill="#24324A"/>
<path d="M55.4202 11.8792H54.6675V13.6544H55.4202V11.8792Z" fill="#24324A"/>
<path d="M65.8693 9.98532H65.1167V11.7605H65.8693V9.98532Z" fill="#24324A"/>
<path d="M64.9991 9.98532H64.2463V11.7605H64.9991V9.98532Z" fill="#24324A"/>
<path d="M66.7406 9.98532H65.9879V11.7605H66.7406V9.98532Z" fill="#24324A"/>
<path d="M67.6109 9.98532H66.8583V11.7605H67.6109V9.98532Z" fill="#24324A"/>
<path d="M71.0941 11.8792H70.3414V13.6544H71.0941V11.8792Z" fill="#24324A"/>
<path d="M50.1953 11.8792H49.4426V13.6544H50.1953V11.8792Z" fill="#24324A"/>
<path d="M74.5772 8.09247H73.8245V9.86768H74.5772V8.09247Z" fill="#24324A"/>
<path d="M74.5772 9.98532H73.8245V11.7605H74.5772V9.98532Z" fill="#24324A"/>
<path d="M74.5772 11.8792H73.8245V13.6544H74.5772V11.8792Z" fill="#24324A"/>
<path d="M50.1953 9.98532H49.4426V11.7605H50.1953V9.98532Z" fill="#24324A"/>
<path d="M73.7068 11.8792H72.9541V13.6544H73.7068V11.8792Z" fill="#24324A"/>
<path d="M71.9652 11.8792H71.2125V13.6544H71.9652V11.8792Z" fill="#24324A"/>
<path d="M72.8356 11.8792H72.0829V13.6544H72.8356V11.8792Z" fill="#24324A"/>
<path d="M71.0941 8.09247H70.3414V9.86768H71.0941V8.09247Z" fill="#24324A"/>
<path d="M68.4823 8.09247H67.7296V9.86768H68.4823V8.09247Z" fill="#24324A"/>
<path d="M70.2238 8.09247H69.4711V9.86768H70.2238V8.09247Z" fill="#24324A"/>
<path d="M73.7068 8.09247H72.9541V9.86768H73.7068V8.09247Z" fill="#24324A"/>
<path d="M67.6109 8.09247H66.8583V9.86768H67.6109V8.09247Z" fill="#24324A"/>
<path d="M69.3525 8.09247H68.5999V9.86768H69.3525V8.09247Z" fill="#24324A"/>
<path d="M66.7406 8.09247H65.9879V9.86768H66.7406V8.09247Z" fill="#24324A"/>
<path d="M72.8356 8.09247H72.0829V9.86768H72.8356V8.09247Z" fill="#24324A"/>
<path d="M71.9652 8.09247H71.2125V9.86768H71.9652V8.09247Z" fill="#24324A"/>
<path d="M69.3525 11.8792H68.5999V13.6544H69.3525V11.8792Z" fill="#24324A"/>
<path d="M60.6449 11.8792H59.8922V13.6544H60.6449V11.8792Z" fill="#24324A"/>
<path d="M61.516 11.8792H60.7633V13.6544H61.516V11.8792Z" fill="#24324A"/>
<path d="M63.2575 11.8792H62.5048V13.6544H63.2575V11.8792Z" fill="#24324A"/>
<path d="M59.7746 11.8792H59.0219V13.6544H59.7746V11.8792Z" fill="#24324A"/>
<path d="M62.3865 11.8792H61.6338V13.6544H62.3865V11.8792Z" fill="#24324A"/>
<path d="M58.9033 11.8792H58.1506V13.6544H58.9033V11.8792Z" fill="#24324A"/>
<path d="M57.1616 11.8792H56.4089V13.6544H57.1616V11.8792Z" fill="#24324A"/>
<path d="M58.0329 11.8792H57.2802V13.6544H58.0329V11.8792Z" fill="#24324A"/>
<path d="M64.9991 11.8792H64.2463V13.6544H64.9991V11.8792Z" fill="#24324A"/>
<path d="M68.4823 11.8792H67.7296V13.6544H68.4823V11.8792Z" fill="#24324A"/>
<path d="M56.2914 11.8792H55.5387V13.6544H56.2914V11.8792Z" fill="#24324A"/>
<path d="M67.6109 11.8792H66.8583V13.6544H67.6109V11.8792Z" fill="#24324A"/>
<path d="M64.1281 11.8792H63.3754V13.6544H64.1281V11.8792Z" fill="#24324A"/>
<path d="M70.2238 11.8792H69.4711V13.6544H70.2238V11.8792Z" fill="#24324A"/>
<path d="M65.8693 11.8792H65.1167V13.6544H65.8693V11.8792Z" fill="#24324A"/>
<path d="M66.7406 11.8792H65.9879V13.6544H66.7406V11.8792Z" fill="#24324A"/>
<path d="M72.8356 13.772H72.0829V15.5472H72.8356V13.772Z" fill="#24324A"/>
<path d="M47.5837 9.98532H46.8065V11.7605H47.5837V9.98532Z" fill="#24324A"/>
<path d="M47.5837 8.09247H46.8065V9.86768H47.5837V8.09247Z" fill="#24324A"/>
<path d="M47.5837 6.19955H46.8065V7.97477H47.5837V6.19955Z" fill="#24324A"/>
<path d="M47.5837 11.8792H46.8065V13.6544H47.5837V11.8792Z" fill="#24324A"/>
<path d="M50.1953 4.52664H49.4426V6.08189H50.1953V4.52664Z" fill="#24324A"/>
<path d="M47.5837 13.772H46.8065V15.5472H47.5837V13.772Z" fill="#24324A"/>
<path d="M49.3252 4.52664H48.5725V6.08189H49.3252V4.52664Z" fill="#24324A"/>
<path d="M48.4538 4.52664H47.7012V6.08189H48.4538V4.52664Z" fill="#24324A"/>
<path d="M53.6786 17.5587H52.9259V19.0886H53.6786V17.5587Z" fill="#24324A"/>
<path d="M52.8084 17.5587H52.0557V19.0886H52.8084V17.5587Z" fill="#24324A"/>
<path d="M51.0668 17.5587H50.3141V19.0886H51.0668V17.5587Z" fill="#24324A"/>
<path d="M51.937 17.5587H51.1843V19.0886H51.937V17.5587Z" fill="#24324A"/>
<path d="M51.0668 4.52664H50.3141V6.08189H51.0668V4.52664Z" fill="#24324A"/>
<path d="M49.3252 17.5587H48.5725V19.0886H49.3252V17.5587Z" fill="#24324A"/>
<path d="M48.4538 17.5587H47.7012V19.0886H48.4538V17.5587Z" fill="#24324A"/>
<path d="M50.1953 17.5587H49.4426V19.0886H50.1953V17.5587Z" fill="#24324A"/>
<path d="M47.5837 15.6659H46.8065V17.4411H47.5837V15.6659Z" fill="#24324A"/>
<path d="M54.5498 17.5587H53.7971V19.0886H54.5498V17.5587Z" fill="#24324A"/>
<path d="M62.3865 4.52664H61.6338V6.08189H62.3865V4.52664Z" fill="#24324A"/>
<path d="M63.2575 4.52664H62.5048V6.08189H63.2575V4.52664Z" fill="#24324A"/>
<path d="M61.516 4.52664H60.7633V6.08189H61.516V4.52664Z" fill="#24324A"/>
<path d="M60.6449 4.52664H59.8922V6.08189H60.6449V4.52664Z" fill="#24324A"/>
<path d="M64.9991 4.52664H64.2463V6.08189H64.9991V4.52664Z" fill="#24324A"/>
<path d="M65.8693 4.52664H65.1167V6.08189H65.8693V4.52664Z" fill="#24324A"/>
<path d="M64.1281 4.52664H63.3754V6.08189H64.1281V4.52664Z" fill="#24324A"/>
<path d="M59.7746 4.52664H59.0219V6.08189H59.7746V4.52664Z" fill="#24324A"/>
<path d="M58.9033 4.52664H58.1506V6.08189H58.9033V4.52664Z" fill="#24324A"/>
<path d="M55.4202 4.52664H54.6675V6.08189H55.4202V4.52664Z" fill="#24324A"/>
<path d="M54.5498 4.52664H53.7971V6.08189H54.5498V4.52664Z" fill="#24324A"/>
<path d="M53.6786 4.52664H52.9259V6.08189H53.6786V4.52664Z" fill="#24324A"/>
<path d="M52.8084 4.52664H52.0557V6.08189H52.8084V4.52664Z" fill="#24324A"/>
<path d="M57.1616 4.52664H56.4089V6.08189H57.1616V4.52664Z" fill="#24324A"/>
<path d="M58.0329 4.52664H57.2802V6.08189H58.0329V4.52664Z" fill="#24324A"/>
<path d="M56.2914 4.52664H55.5387V6.08189H56.2914V4.52664Z" fill="#24324A"/>
<path d="M51.937 4.52664H51.1843V6.08189H51.937V4.52664Z" fill="#24324A"/>
<path d="M60.6449 17.5587H59.8922V19.0886H60.6449V17.5587Z" fill="#24324A"/>
<path d="M73.7068 17.5587H72.9541V19.0886H73.7068V17.5587Z" fill="#24324A"/>
<path d="M70.2238 17.5587H69.4711V19.0886H70.2238V17.5587Z" fill="#24324A"/>
<path d="M76.269 17.5587H75.566V19.0886H76.269V17.5587Z" fill="#24324A"/>
<path d="M74.5772 17.5587H73.8245V19.0886H74.5772V17.5587Z" fill="#24324A"/>
<path d="M72.8356 17.5587H72.0829V19.0886H72.8356V17.5587Z" fill="#24324A"/>
<path d="M71.0941 17.5587H70.3414V19.0886H71.0941V17.5587Z" fill="#24324A"/>
<path d="M71.9652 17.5587H71.2125V19.0886H71.9652V17.5587Z" fill="#24324A"/>
<path d="M75.4483 17.5587H74.6957V19.0886H75.4483V17.5587Z" fill="#24324A"/>
<path d="M46.8101 19.0886H47.5837V17.5587H46.8065V24.9465H46.8101V19.0886Z" fill="#24324A"/>
<path d="M55.4202 17.5587H54.6675V19.0886H55.4202V17.5587Z" fill="#24324A"/>
<path d="M47.5837 4.52665H46.8101V0.693787H46.8065V6.08098H47.5837V4.52665Z" fill="#24324A"/>
<path d="M58.9033 17.5587H58.1506V19.0886H58.9033V17.5587Z" fill="#24324A"/>
<path d="M66.7406 4.52664H65.9879V6.08189H66.7406V4.52664Z" fill="#24324A"/>
<path d="M59.7746 17.5587H59.0219V19.0886H59.7746V17.5587Z" fill="#24324A"/>
<path d="M61.516 17.5587H60.7633V19.0886H61.516V17.5587Z" fill="#24324A"/>
<path d="M57.1616 17.5587H56.4089V19.0886H57.1616V17.5587Z" fill="#24324A"/>
<path d="M56.2914 17.5587H55.5387V19.0886H56.2914V17.5587Z" fill="#24324A"/>
<path d="M62.3865 17.5587H61.6338V19.0886H62.3865V17.5587Z" fill="#24324A"/>
<path d="M58.0329 17.5587H57.2802V19.0886H58.0329V17.5587Z" fill="#24324A"/>
<path d="M64.1281 17.5587H63.3754V19.0886H64.1281V17.5587Z" fill="#24324A"/>
<path d="M67.6109 17.5587H66.8583V19.0886H67.6109V17.5587Z" fill="#24324A"/>
<path d="M68.4823 17.5587H67.7296V19.0886H68.4823V17.5587Z" fill="#24324A"/>
<path d="M66.7406 17.5587H65.9879V19.0886H66.7406V17.5587Z" fill="#24324A"/>
<path d="M65.8693 17.5587H65.1167V19.0886H65.8693V17.5587Z" fill="#24324A"/>
<path d="M69.3525 17.5587H68.5999V19.0886H69.3525V17.5587Z" fill="#24324A"/>
<path d="M63.2575 17.5587H62.5048V19.0886H63.2575V17.5587Z" fill="#24324A"/>
<path d="M64.9991 17.5587H64.2463V19.0886H64.9991V17.5587Z" fill="#24324A"/>
<path d="M61.516 6.19955H60.7633V7.97477H61.516V6.19955Z" fill="#24324A"/>
<path d="M51.0668 15.6659H50.3141V17.4411H51.0668V15.6659Z" fill="#24324A"/>
<path d="M50.1953 15.6659H49.4426V17.4411H50.1953V15.6659Z" fill="#24324A"/>
<path d="M61.516 15.6659H60.7633V17.4411H61.516V15.6659Z" fill="#24324A"/>
<path d="M53.6786 15.6659H52.9259V17.4411H53.6786V15.6659Z" fill="#24324A"/>
<path d="M48.4538 9.98532H47.7012V11.7605H48.4538V9.98532Z" fill="#24324A"/>
<path d="M49.3252 15.6659H48.5725V17.4411H49.3252V15.6659Z" fill="#24324A"/>
<path d="M48.4538 11.8792H47.7012V13.6544H48.4538V11.8792Z" fill="#24324A"/>
<path d="M48.4538 13.772H47.7012V15.5472H48.4538V13.772Z" fill="#24324A"/>
<path d="M52.8084 15.6659H52.0557V17.4411H52.8084V15.6659Z" fill="#24324A"/>
<path d="M59.7746 15.6659H59.0219V17.4411H59.7746V15.6659Z" fill="#24324A"/>
<path d="M58.9033 15.6659H58.1506V17.4411H58.9033V15.6659Z" fill="#24324A"/>
<path d="M58.0329 15.6659H57.2802V17.4411H58.0329V15.6659Z" fill="#24324A"/>
<path d="M60.6449 15.6659H59.8922V17.4411H60.6449V15.6659Z" fill="#24324A"/>
<path d="M56.2914 15.6659H55.5387V17.4411H56.2914V15.6659Z" fill="#24324A"/>
<path d="M55.4202 15.6659H54.6675V17.4411H55.4202V15.6659Z" fill="#24324A"/>
<path d="M54.5498 15.6659H53.7971V17.4411H54.5498V15.6659Z" fill="#24324A"/>
<path d="M57.1616 15.6659H56.4089V17.4411H57.1616V15.6659Z" fill="#24324A"/>
<path d="M67.6109 4.52664H66.8583V6.08189H67.6109V4.52664Z" fill="#24324A"/>
<path d="M58.9033 6.19955H58.1506V7.97477H58.9033V6.19955Z" fill="#24324A"/>
<path d="M57.1616 6.19955H56.4089V7.97477H57.1616V6.19955Z" fill="#24324A"/>
<path d="M58.0329 6.19955H57.2802V7.97477H58.0329V6.19955Z" fill="#24324A"/>
<path d="M56.2914 6.19955H55.5387V7.97477H56.2914V6.19955Z" fill="#24324A"/>
<path d="M62.3865 6.19955H61.6338V7.97477H62.3865V6.19955Z" fill="#24324A"/>
<path d="M59.7746 6.19955H59.0219V7.97477H59.7746V6.19955Z" fill="#24324A"/>
<path d="M55.4202 6.19955H54.6675V7.97477H55.4202V6.19955Z" fill="#24324A"/>
<path d="M60.6449 6.19955H59.8922V7.97477H60.6449V6.19955Z" fill="#24324A"/>
<path d="M50.1953 6.19955H49.4426V7.97477H50.1953V6.19955Z" fill="#24324A"/>
<path d="M48.4538 8.09247H47.7012V9.86768H48.4538V8.09247Z" fill="#24324A"/>
<path d="M49.3252 6.19955H48.5725V7.97477H49.3252V6.19955Z" fill="#24324A"/>
<path d="M51.0668 6.19955H50.3141V7.97477H51.0668V6.19955Z" fill="#24324A"/>
<path d="M54.5498 6.19955H53.7971V7.97477H54.5498V6.19955Z" fill="#24324A"/>
<path d="M51.937 6.19955H51.1843V7.97477H51.937V6.19955Z" fill="#24324A"/>
<path d="M53.6786 6.19955H52.9259V7.97477H53.6786V6.19955Z" fill="#24324A"/>
<path d="M52.8084 6.19955H52.0557V7.97477H52.8084V6.19955Z" fill="#24324A"/>
<path d="M51.937 15.6659H51.1843V17.4411H51.937V15.6659Z" fill="#24324A"/>
<path d="M76.269 15.6659H75.566V17.4411H76.269V15.6659Z" fill="#24324A"/>
<path d="M48.4538 6.19955H47.7012V7.97477H48.4538V6.19955Z" fill="#24324A"/>
<path d="M76.269 11.8792H75.566V13.6544H76.269V11.8792Z" fill="#24324A"/>
<path d="M76.269 4.52664H75.566V6.08189H76.269V4.52664Z" fill="#24324A"/>
<path d="M48.4538 15.6659H47.7012V17.4411H48.4538V15.6659Z" fill="#24324A"/>
<path d="M76.269 9.98532H75.566V11.7605H76.269V9.98532Z" fill="#24324A"/>
<path d="M76.269 6.19955H75.566V7.97477H76.269V6.19955Z" fill="#24324A"/>
<path d="M76.269 8.09247H75.566V9.86768H76.269V8.09247Z" fill="#24324A"/>
<path d="M75.4483 4.52664H74.6957V6.08189H75.4483V4.52664Z" fill="#24324A"/>
<path d="M74.5772 4.52664H73.8245V6.08189H74.5772V4.52664Z" fill="#24324A"/>
<path d="M69.3525 4.52664H68.5999V6.08189H69.3525V4.52664Z" fill="#24324A"/>
<path d="M70.2238 4.52664H69.4711V6.08189H70.2238V4.52664Z" fill="#24324A"/>
<path d="M68.4823 4.52664H67.7296V6.08189H68.4823V4.52664Z" fill="#24324A"/>
<path d="M71.0941 4.52664H70.3414V6.08189H71.0941V4.52664Z" fill="#24324A"/>
<path d="M73.7068 4.52664H72.9541V6.08189H73.7068V4.52664Z" fill="#24324A"/>
<path d="M72.8356 4.52664H72.0829V6.08189H72.8356V4.52664Z" fill="#24324A"/>
<path d="M71.9652 4.52664H71.2125V6.08189H71.9652V4.52664Z" fill="#24324A"/>
<path d="M63.2575 15.6659H62.5048V17.4411H63.2575V15.6659Z" fill="#24324A"/>
<path d="M65.8693 15.6659H65.1167V17.4411H65.8693V15.6659Z" fill="#24324A"/>
<path d="M76.269 13.772H75.566V15.5472H76.269V13.772Z" fill="#24324A"/>
<path d="M67.6109 15.6659H66.8583V17.4411H67.6109V15.6659Z" fill="#24324A"/>
<path d="M68.4823 15.6659H67.7296V17.4411H68.4823V15.6659Z" fill="#24324A"/>
<path d="M64.9991 15.6659H64.2463V17.4411H64.9991V15.6659Z" fill="#24324A"/>
<path d="M62.3865 15.6659H61.6338V17.4411H62.3865V15.6659Z" fill="#24324A"/>
<path d="M69.3525 15.6659H68.5999V17.4411H69.3525V15.6659Z" fill="#24324A"/>
<path d="M64.1281 15.6659H63.3754V17.4411H64.1281V15.6659Z" fill="#24324A"/>
<path d="M66.7406 15.6659H65.9879V17.4411H66.7406V15.6659Z" fill="#24324A"/>
<path d="M73.7068 15.6659H72.9541V17.4411H73.7068V15.6659Z" fill="#24324A"/>
<path d="M74.5772 15.6659H73.8245V17.4411H74.5772V15.6659Z" fill="#24324A"/>
<path d="M70.2238 15.6659H69.4711V17.4411H70.2238V15.6659Z" fill="#24324A"/>
<path d="M75.4483 15.6659H74.6957V17.4411H75.4483V15.6659Z" fill="#24324A"/>
<path d="M71.0941 15.6659H70.3414V17.4411H71.0941V15.6659Z" fill="#24324A"/>
<path d="M72.8356 15.6659H72.0829V17.4411H72.8356V15.6659Z" fill="#24324A"/>
<path d="M71.9652 15.6659H71.2125V17.4411H71.9652V15.6659Z" fill="#24324A"/>
</svg>
