<svg width="66" height="19" viewBox="0 0 66 19" fill="none" xmlns="http://www.w3.org/2000/svg">
<g filter="url(#filter0_dd)">
<path d="M20.9324 5.36197H21.4544V4.29466H20.9324H20.8754H20.3534V5.36197H20.8754H20.9324Z" fill="#24324A"/>
<path d="M20.9324 11.0027H21.4544V9.93536H20.9324H20.8754H20.3534V11.0027H20.8754H20.9324Z" fill="#24324A"/>
<path d="M20.9324 4.23408H21.4544V3.16678H20.9324H20.8754H20.3534V4.23408H20.8754H20.9324Z" fill="#24324A"/>
<path d="M20.9324 6.48994H21.4544V5.42264H20.9324H20.8754H20.3534V6.48994H20.8754H20.9324Z" fill="#24324A"/>
<path d="M20.9324 9.8747H21.4544V8.80739H20.9324H20.8754H20.3534V9.8747H20.8754H20.9324Z" fill="#24324A"/>
<path d="M20.9324 8.74587H21.4544V7.67949H20.9324H20.8754H20.3534V8.74587H20.8754H20.9324Z" fill="#24324A"/>
<path d="M20.9324 7.61791H21.4544V6.55151H20.9324H20.8754H20.3534V7.61791H20.8754H20.9324Z" fill="#24324A"/>
<path d="M20.9324 12.1306H21.4544V11.0633H20.9324H20.8754H20.3534V12.1306H20.8754H20.9324Z" fill="#24324A"/>
<path d="M20.9324 3.1061H21.4544V2.09946H21.069V1.86319L21.1758 1.66493V1.52823H21.0383V1.13898L21.0763 1.06293V0.888224L20.955 0.811279H20.9116H20.8962H20.8537L20.7316 0.888224V1.06293L20.7696 1.13898V1.52823H20.632V1.66493L20.7388 1.86319V2.09946H20.3534V3.1061H20.8754H20.9324Z" fill="#24324A"/>
<path d="M45.2472 5.36197H45.7701V4.29466H45.2472H45.1911H44.6682V5.36197H45.1911H45.2472Z" fill="#24324A"/>
<path d="M45.2472 11.0027H45.7701V9.93536H45.2472H45.1911H44.6682V11.0027H45.1911H45.2472Z" fill="#24324A"/>
<path d="M45.2472 4.23408H45.7701V3.16678H45.2472H45.1911H44.6682V4.23408H45.1911H45.2472Z" fill="#24324A"/>
<path d="M45.2472 6.48994H45.7701V5.42264H45.2472H45.1911H44.6682V6.48994H45.1911H45.2472Z" fill="#24324A"/>
<path d="M45.2472 9.8747H45.7701V8.80739H45.2472H45.1911H44.6682V9.8747H45.1911H45.2472Z" fill="#24324A"/>
<path d="M45.2472 8.74587H45.7701V7.67949H45.2472H45.1911H44.6682V8.74587H45.1911H45.2472Z" fill="#24324A"/>
<path d="M45.2472 7.61791H45.7701V6.55151H45.2472H45.1911H44.6682V7.61791H45.1911H45.2472Z" fill="#24324A"/>
<path d="M45.2472 12.1306H45.7701V11.0633H45.2472H45.1911H44.6682V12.1306H45.1911H45.2472Z" fill="#24324A"/>
<path d="M45.2472 3.1061H45.7701V2.09946H45.3838V1.86319L45.4906 1.66493V1.52823H45.354V1.13898L45.392 1.06293V0.888224L45.2698 0.811279H45.2264H45.2119H45.1685L45.0464 0.888224V1.06293L45.0844 1.13898V1.52823H44.9478V1.66493L45.0545 1.86319V2.09946H44.6682V3.1061H45.1911H45.2472Z" fill="#24324A"/>
<path d="M54.9753 13.2893L45.8306 3.82124V4.5889L54.0217 13.2893H54.9753Z" fill="#24324A"/>
<path d="M44.3335 13.1364V13.2894H44.6077V13.1364V12.9743V6.45468L39.8326 13.2894H40.8061L44.3335 7.56634V12.9743V13.1364Z" fill="#24324A"/>
<path d="M53.9376 13.2893L45.8306 4.67854V5.19635L52.9469 13.2893H53.9376Z" fill="#24324A"/>
<path d="M44.6073 3.82124L35.4626 13.2893H36.4162L44.6073 4.5889V3.82124Z" fill="#24324A"/>
<path d="M44.6075 4.67854L36.5005 13.2893H37.4911L44.6075 5.19635V4.67854Z" fill="#24324A"/>
<path d="M56.2798 13.2893L46.1047 3.40936V2.09946H45.8306V3.73344L55.0603 13.2893H56.2798Z" fill="#24324A"/>
<path d="M20.018 13.1364V13.2894H20.2921V13.1364V12.9743V6.45468L15.5181 13.2894H16.4906L20.018 7.56634V12.9743V13.1364Z" fill="#24324A"/>
<path d="M20.2917 5.79289L14.3469 13.2893H15.4425L20.2917 6.34872V5.79289Z" fill="#24324A"/>
<path d="M20.292 5.28871L13.2571 13.2894H14.2694L20.292 5.69426V5.28871Z" fill="#24324A"/>
<path d="M44.6076 5.28871L37.5718 13.2894H38.585L44.6076 5.69426V5.28871Z" fill="#24324A"/>
<path d="M4.94275 14.9659H18.9846V14.9966H22.8232V14.9659H43.2992V14.9966H47.1388V14.9659H61.0648V13.7773H4.94275V14.9659Z" fill="#24324A"/>
<path d="M20.2919 4.67854L12.1849 13.2893H13.1756L20.2919 5.19635V4.67854Z" fill="#24324A"/>
<path d="M44.6074 5.79289L38.6626 13.2893H39.7582L44.6074 6.34872V5.79289Z" fill="#24324A"/>
<path d="M56.3432 13.35H55.1191H55.0341H54.0787H53.9955H53.0003H52.9198H51.902H51.8242H50.7223H50.6481H49.6701H46.1047H45.8306H45.77H44.6681H44.6074H44.3333H40.7679H39.7899H39.7157H38.6138H38.536H37.5182H37.4368H36.4425H36.3593H35.4039H35.3189H34.0948H32.0276H30.8035H30.7194H29.764H29.6799H28.6856H28.6042H27.5864H27.5086H26.4076H26.3334H25.3545H21.79H21.5159H21.4544H20.3534H20.2919H20.0177H16.4532H15.4743H15.4002H14.2991H14.2213H13.2035H13.1221H12.1279H12.0437H11.0884H11.0042H9.78017H4.94275V13.7157H61.0648V13.35H56.3432Z" fill="#24324A"/>
<path d="M20.2919 3.82124L11.1481 13.2893H12.1016L20.2919 4.5889V3.82124Z" fill="#24324A"/>
<path d="M21.7901 13.1364V12.9743V7.56634L25.3175 13.2894H26.291L21.516 6.45468V12.9743V13.1364V13.2894H21.7901V13.1364Z" fill="#24324A"/>
<path d="M28.5509 13.2894L21.516 5.28871V5.69426L27.5386 13.2894H28.5509Z" fill="#24324A"/>
<path d="M27.4608 13.2893L21.516 5.79289V6.34872L26.3652 13.2893H27.4608Z" fill="#24324A"/>
<path d="M21.4544 12.1913H20.9324H20.8754H20.3534V13.2894H21.4544V12.1913Z" fill="#24324A"/>
<path d="M52.8664 13.2894L45.8306 5.28871V5.69426L51.8531 13.2894H52.8664Z" fill="#24324A"/>
<path d="M47.1388 15.0573H43.2993V18.1976H47.1388V15.0573Z" fill="#24324A"/>
<path d="M22.8242 15.0573H18.9846V18.1976H22.8242V15.0573Z" fill="#24324A"/>
<path d="M20.2918 3.73344V2.09946H20.0177V3.40936L9.84253 13.2893H11.063L20.2918 3.73344Z" fill="#24324A"/>
<path d="M29.623 13.2893L21.516 4.67854V5.19635L28.6323 13.2893H29.623Z" fill="#24324A"/>
<path d="M51.7753 13.2893L45.8306 5.79289V6.34872L50.6797 13.2893H51.7753Z" fill="#24324A"/>
<path d="M45.7701 12.1913H45.2472H45.1911H44.6682V13.2894H45.7701V12.1913Z" fill="#24324A"/>
<path d="M46.1047 13.1364V12.9743V7.56634L49.6321 13.2894H50.6056L45.8306 6.45468V12.9743V13.1364V13.2894H46.1047V13.1364Z" fill="#24324A"/>
<path d="M30.6607 13.2893L21.516 3.82124V4.5889L29.7062 13.2893H30.6607Z" fill="#24324A"/>
<path d="M44.6075 3.73344V2.09946H44.3333V3.40936L34.1582 13.2893H35.3777L44.6075 3.73344Z" fill="#24324A"/>
<path d="M31.9653 13.2893L21.7901 3.40936V2.09946H21.516V3.73344L30.7448 13.2893H31.9653Z" fill="#24324A"/>
</g>
<defs>
<filter id="filter0_dd" x="0.942749" y="0.811279" width="64.1221" height="25.3864" filterUnits="userSpaceOnUse" color-interpolation-filters="sRGB">
<feFlood flood-opacity="0" result="BackgroundImageFix"/>
<feColorMatrix in="SourceAlpha" type="matrix" values="0 0 0 0 0 0 0 0 0 0 0 0 0 0 0 0 0 0 127 0" result="hardAlpha"/>
<feOffset dy="4"/>
<feGaussianBlur stdDeviation="2"/>
<feComposite in2="hardAlpha" operator="out"/>
<feColorMatrix type="matrix" values="0 0 0 0 0 0 0 0 0 0 0 0 0 0 0 0 0 0 0.25 0"/>
<feBlend mode="normal" in2="BackgroundImageFix" result="effect1_dropShadow"/>
<feColorMatrix in="SourceAlpha" type="matrix" values="0 0 0 0 0 0 0 0 0 0 0 0 0 0 0 0 0 0 127 0" result="hardAlpha"/>
<feOffset dy="4"/>
<feGaussianBlur stdDeviation="2"/>
<feComposite in2="hardAlpha" operator="out"/>
<feColorMatrix type="matrix" values="0 0 0 0 0 0 0 0 0 0 0 0 0 0 0 0 0 0 0.25 0"/>
<feBlend mode="normal" in2="effect1_dropShadow" result="effect2_dropShadow"/>
<feBlend mode="normal" in="SourceGraphic" in2="effect2_dropShadow" result="shape"/>
</filter>
</defs>
</svg>
