<svg width="27" height="30" viewBox="0 0 27 30" fill="none" xmlns="http://www.w3.org/2000/svg">
<path d="M10.5905 4.1727C10.6348 4.25417 10.9099 4.76927 11.2256 5.66819C11.2003 5.51339 11.174 5.3604 11.146 5.20922C11.1378 5.16758 11.1297 5.12503 11.1207 5.08339C11.0691 4.83263 11.004 4.52032 11.1451 4.18628C11.2907 3.84228 11.5911 3.62773 11.9286 3.62773C11.972 3.62773 12.0172 3.63136 12.0634 3.6386C12.6107 3.72731 12.7093 4.32478 12.7518 4.58007C12.8007 4.8788 12.8541 5.17754 12.9065 5.47537C13.0051 6.02939 13.1056 6.6015 13.1825 7.17453C13.1834 7.17453 13.1852 7.17453 13.1861 7.17453C13.187 7.17453 13.1888 7.17453 13.1897 7.17453C13.2666 6.60332 13.367 6.03301 13.4647 5.47989C13.5181 5.18025 13.5706 4.88061 13.6203 4.58007C13.6629 4.32478 13.7615 3.72641 14.3088 3.6386C14.355 3.63136 14.4002 3.62773 14.4436 3.62773C14.7811 3.62773 15.0814 3.84138 15.2271 4.18628C15.3682 4.52032 15.304 4.83263 15.2515 5.08339C15.2425 5.12503 15.2343 5.16668 15.2262 5.20922C15.1981 5.3604 15.1719 5.51339 15.1466 5.66819C15.4623 4.76927 15.7364 4.25417 15.7817 4.1727C16.0087 3.71193 16.3507 3.64222 16.5362 3.64222C16.5823 3.64222 16.6248 3.64675 16.6646 3.65399C16.6429 1.74842 15.095 0.210388 13.1861 0.210388C11.2772 0.210388 9.72833 1.74842 9.70752 3.65399C9.74733 3.64765 9.78985 3.64222 9.83599 3.64222C10.0214 3.64222 10.3643 3.71193 10.5905 4.1727Z" fill="#24324A"/>
<path d="M16.5288 17.489C16.5288 17.489 14.4688 9.52818 16.8129 5.1929C16.8129 5.1929 17.3458 4.48228 16.7414 4.0559C16.7414 4.0559 16.3506 3.82596 16.1018 4.34015C16.1018 4.34015 15.4224 5.5541 14.9366 7.72853H14.5304C14.6055 6.86219 14.7131 5.99949 14.8714 5.14492C14.923 4.86429 15.0108 4.60267 14.895 4.32838C14.8027 4.1093 14.6136 3.95722 14.3666 3.99705C14.0825 4.04322 14.0156 4.40804 13.9776 4.64069C13.8283 5.54595 13.6465 6.44306 13.5307 7.35375C13.5153 7.47777 13.5053 7.6036 13.4909 7.72853H12.882C12.8675 7.6036 12.8576 7.47777 12.8422 7.35375C12.7264 6.44306 12.5445 5.54595 12.3953 4.64069C12.3573 4.40804 12.2903 4.04322 12.0063 3.99705C11.7593 3.95722 11.5702 4.1093 11.4779 4.32838C11.3621 4.60267 11.449 4.86429 11.5005 5.14492C11.6588 5.99949 11.7665 6.8631 11.8416 7.72853H11.4354C10.9487 5.555 10.2701 4.34015 10.2701 4.34015C10.0222 3.82505 9.63051 4.0559 9.63051 4.0559C9.02708 4.48228 9.55904 5.1929 9.55904 5.1929C11.9031 9.52909 9.84312 17.489 9.84312 17.489C8.12148 24.5437 1.36971 28.7233 0 29.5072H4.55787C8.65977 25.8409 10.3742 21.072 10.9794 18.8876H11.3151C11.0663 20.0944 10.7342 21.2857 10.2729 22.4281C10.1634 22.7784 10.0331 23.1224 9.90012 23.4646C9.47129 24.5663 8.97008 25.6418 8.39198 26.672C8.03101 27.3156 7.63837 27.942 7.20683 28.5395C6.96346 28.8781 6.69477 29.1886 6.42969 29.5063H9.33649C9.75627 28.7803 10.1209 28.0217 10.4447 27.2504C10.974 25.9894 11.3965 24.684 11.7457 23.3623C12.0379 22.257 12.2786 21.1381 12.474 20.0111C12.5382 19.6381 12.5961 19.2633 12.6495 18.8876H13.7225C13.7758 19.2633 13.8337 19.639 13.898 20.0111C14.0925 21.1381 14.334 22.257 14.6263 23.3623C14.9755 24.684 15.398 25.9894 15.9272 27.2504C16.2511 28.0226 16.6157 28.7803 17.0355 29.5063H19.9423C19.6763 29.1895 19.4085 28.8781 19.1642 28.5395C18.7327 27.9411 18.34 27.3147 17.9791 26.672C17.401 25.6409 16.8998 24.5663 16.4709 23.4646C16.3379 23.1224 16.2077 22.7784 16.0982 22.4281C15.6368 21.2857 15.3039 20.0944 15.056 18.8876H15.3916C15.9969 21.0711 17.7122 25.8409 21.8132 29.5072H26.3711C25.0022 28.7233 18.2514 24.5437 16.5288 17.489ZM11.9836 12.492C11.9447 14.1622 11.8244 15.836 11.5684 17.4881H11.3105C12.0669 14.1369 12.0144 11.2989 11.6932 9.12625H11.9375C11.9954 10.2479 12.0099 11.3704 11.9836 12.492ZM12.8259 17.489C12.8802 17.0011 12.9299 16.5132 12.9716 16.0288C13.0557 15.0448 13.1082 14.0572 13.1281 13.0695C13.1543 11.7587 13.1172 10.4371 13.0168 9.12716H13.3561C13.2556 10.438 13.2195 11.7587 13.2448 13.0695C13.2647 14.0572 13.3172 15.0439 13.4013 16.0288C13.4429 16.5141 13.4927 17.0011 13.547 17.489H12.8259ZM14.8045 17.489C14.5485 15.8369 14.4281 14.1631 14.3892 12.4929C14.363 11.3713 14.3775 10.2479 14.4354 9.12716H14.6796C14.3585 11.2998 14.306 14.1387 15.0623 17.489H14.8045Z" fill="#24324A"/>
</svg>
