<svg width="31" height="51" viewBox="0 0 31 51" fill="none" xmlns="http://www.w3.org/2000/svg">
<path d="M29.4946 2.9648H28.9825V7.95639H29.4946V2.9648Z" fill="#24324A"/>
<path d="M27.4472 9.3786V9.26454H25.807C23.5208 11.5729 22.4198 17.4734 22.2841 18.2411H24.0528C24.5685 13.7546 26.8972 10.1716 27.4472 9.3786Z" fill="#24324A"/>
<path d="M26.6792 18.4076H23.0477V19.3093H26.6792V18.4076Z" fill="#24324A"/>
<path d="M29.5037 8.12299H28.9826V8.13295L28.3466 11.1393H30.3206L29.5037 8.12299Z" fill="#24324A"/>
<path d="M27.631 9.40666C27.6256 9.4139 27.6201 9.42205 27.6147 9.43019V11.142C27.6201 11.1411 27.6256 11.1384 27.631 11.1384V9.40666Z" fill="#24324A"/>
<path d="M24.0248 23.6463C24.0131 23.7667 24.0013 23.8889 23.9886 24.0139H26.5969V23.6463H24.0248Z" fill="#24324A"/>
<path d="M26.5961 21.3035H24.185C24.1805 21.4212 24.1742 21.5434 24.1678 21.671H26.5961V21.3035Z" fill="#24324A"/>
<path d="M24.2166 20.1321C24.2157 20.2435 24.2139 20.3657 24.2112 20.4997H26.5969V20.1321H24.2166Z" fill="#24324A"/>
<path d="M23.5698 27.1615C23.5662 27.1841 23.5626 27.2058 23.559 27.2275C23.5427 27.3262 23.5255 27.4276 23.5083 27.5281H26.5969V27.1606H23.5698V27.1615Z" fill="#24324A"/>
<path d="M23.7479 25.9891C23.7308 26.1104 23.7136 26.2326 23.6946 26.3567H26.596V25.9891H23.7479Z" fill="#24324A"/>
<path d="M23.9 24.8177C23.8855 24.939 23.871 25.0612 23.8557 25.1853H26.5969V24.8177H23.9Z" fill="#24324A"/>
<path d="M24.4373 16.8822C24.4129 17.0035 24.3894 17.1266 24.3677 17.2498H26.596V16.8822H24.4373Z" fill="#24324A"/>
<path d="M25.5094 13.368C25.4606 13.4884 25.4117 13.6106 25.3638 13.7356H26.596V13.368H25.5094Z" fill="#24324A"/>
<path d="M26.0287 12.1966C25.9717 12.3161 25.9147 12.4383 25.8568 12.5642H26.596V12.1966H26.0287Z" fill="#24324A"/>
<path d="M23.3625 28.3328C23.3399 28.4541 23.3164 28.5763 23.292 28.7003H26.596V28.3328H23.3625Z" fill="#24324A"/>
<path d="M24.7142 15.7108C24.6816 15.8322 24.65 15.9544 24.6183 16.0784H26.596V15.7108H24.7142Z" fill="#24324A"/>
<path d="M25.0724 14.5395C25.0317 14.6608 24.991 14.783 24.9512 14.907H26.5969V14.5395H25.0724Z" fill="#24324A"/>
<path d="M26.5961 22.4749H24.1199C24.1118 22.5944 24.1027 22.7166 24.0928 22.8424H26.5961V22.4749Z" fill="#24324A"/>
<path d="M20.6865 37.704C20.6385 37.8263 20.5897 37.9485 20.5408 38.0716H26.596V37.704H20.6865Z" fill="#24324A"/>
<path d="M23.1283 29.5042C23.1029 29.6255 23.0767 29.7478 23.0496 29.8718H26.596V29.5042H23.1283Z" fill="#24324A"/>
<path d="M19.7022 40.0469C19.647 40.1691 19.59 40.2913 19.5339 40.4144H26.5969V40.0469H19.7022Z" fill="#24324A"/>
<path d="M20.2124 38.8755C20.1608 38.9977 20.1083 39.1199 20.0558 39.243H26.5968V38.8755H20.2124Z" fill="#24324A"/>
<path d="M22.2589 33.0184C22.2245 33.1406 22.1893 33.2628 22.154 33.386H26.5961V33.0184H22.2589Z" fill="#24324A"/>
<path d="M22.5773 31.847C22.5456 31.9683 22.5139 32.0914 22.4805 32.2146H26.596V31.847H22.5773Z" fill="#24324A"/>
<path d="M22.8668 30.6757C22.8378 30.797 22.8088 30.9201 22.779 31.0432H26.596V30.6757H22.8668Z" fill="#24324A"/>
<path d="M21.5349 35.3613C21.4942 35.4835 21.4526 35.6057 21.4101 35.7289H26.5959V35.3613H21.5349Z" fill="#24324A"/>
<path d="M21.127 36.5327C21.0827 36.6549 21.0374 36.7771 20.9922 36.9002H26.5968V36.5327H21.127Z" fill="#24324A"/>
<path d="M21.9124 34.1899C21.8744 34.3121 21.8364 34.4343 21.7975 34.5574H26.5969V34.1899H21.9124Z" fill="#24324A"/>
<path d="M4.68701 0.133179H4.17493V5.12477H4.68701V0.133179Z" fill="#24324A"/>
<path d="M11.3852 15.4094C11.2504 14.6417 10.1484 8.74127 7.86225 6.43286H6.22205V6.54692C6.7721 7.33993 9.09989 10.9229 9.61647 15.4094H11.3852Z" fill="#24324A"/>
<path d="M10.6208 15.5759H6.98932V16.4776H10.6208V15.5759Z" fill="#24324A"/>
<path d="M18.9458 41.2672C21.5496 35.9289 22.7971 30.8006 23.3933 27.2049C24.0917 22.9891 24.0583 19.9936 24.0456 19.4758H22.029C22.4732 27.8359 19.9193 34.9095 17.7028 39.3679C18.2465 40.2641 18.6889 40.9087 18.9458 41.2672Z" fill="#24324A"/>
<path d="M30.2003 14.0497H30.9015V11.3113H30.3677L30.3659 11.3058H27.631C27.6247 11.3058 27.6201 11.304 27.6147 11.3022V42.3037H30.2012V14.0497H30.2003ZM28.0978 11.7458H30.5341V12.1794H28.0978V11.7458ZM28.0978 12.4809H30.5341V12.9154H28.0978V12.4809ZM28.0978 13.215H30.5341V13.6486H28.0978V13.215ZM29.7335 42.2973H28.0987V41.8637H29.7335V42.2973ZM29.7335 41.5632H28.0987V41.1286H29.7335V41.5632ZM29.7335 40.829H28.0987V40.3945H29.7335V40.829ZM29.7335 40.0939H28.0987V39.6603H29.7335V40.0939ZM29.7335 39.3598H28.0987V38.9252H29.7335V39.3598ZM29.7335 38.6247H28.0987V38.1911H29.7335V38.6247ZM29.7335 37.8905H28.0987V37.4569H29.7335V37.8905ZM29.7335 37.1555H28.0987V36.7218H29.7335V37.1555ZM29.7335 36.4213H28.0987V35.9868H29.7335V36.4213ZM29.7335 35.6862H28.0987V35.2526H29.7335V35.6862ZM29.7335 34.9521H28.0987V34.5175H29.7335V34.9521ZM29.7335 34.217H28.0987V33.7825H29.7335V34.217ZM29.7335 33.4828H28.0987V33.0492H29.7335V33.4828ZM29.7335 32.7478H28.0987V32.3141H29.7335V32.7478ZM29.7335 32.0136H28.0987V31.58H29.7335V32.0136ZM29.7335 31.2794H28.0987V30.8458H29.7335V31.2794ZM29.7335 30.5444H28.0987V30.1098H29.7335V30.5444ZM29.7335 29.8102H28.0987V29.3757H29.7335V29.8102ZM29.7335 29.0751H28.0987V28.6415H29.7335V29.0751ZM29.7335 28.341H28.0987V27.9074H29.7335V28.341ZM29.7335 27.6059H28.0987V27.1723H29.7335V27.6059ZM29.7335 26.8717H28.0987V26.4381H29.7335V26.8717ZM29.7335 26.1367H28.0987V25.7031H29.7335V26.1367ZM29.7335 25.4025H28.0987V24.9689H29.7335V25.4025ZM29.7335 24.6674H28.0987V24.2338H29.7335V24.6674ZM29.7335 23.9333H28.0987V23.4988H29.7335V23.9333ZM29.7335 23.1991H28.0987V22.7655H29.7335V23.1991ZM29.7335 22.464H28.0987V22.0304H29.7335V22.464ZM29.7335 21.7299H28.0987V21.2963H29.7335V21.7299ZM29.7335 20.9948H28.0987V20.5612H29.7335V20.9948ZM29.7335 20.2606H28.0987V19.827H29.7335V20.2606ZM29.7335 19.5256H28.0987V19.092H29.7335V19.5256ZM29.7335 18.7914H28.0987V18.3569H29.7335V18.7914ZM29.7335 18.0563H28.0987V17.6227H29.7335V18.0563ZM29.7335 17.3222H28.0987V16.8886H29.7335V17.3222ZM29.7335 16.5871H28.0987V16.1535H29.7335V16.5871ZM29.7335 15.8529H28.0987V15.4193H29.7335V15.8529ZM29.7335 15.1188H28.0987V14.6852H29.7335V15.1188ZM29.7335 14.3837H28.0987V13.9501H29.7335V14.3837Z" fill="#24324A"/>
<path d="M21.488 41.4599C21.5125 41.4455 21.5405 41.4364 21.5713 41.4364H24.1904C24.2763 41.4364 24.346 41.5016 24.3551 41.5849H26.5951V41.2173H19.153C19.1196 41.2861 19.0852 41.3558 19.0508 41.4246C19.0553 41.4283 19.0607 41.4319 19.0653 41.4364H20.6358C20.6666 41.4364 20.6946 41.4455 20.719 41.4599C20.7435 41.4455 20.7715 41.4364 20.8023 41.4364H21.403C21.4356 41.4364 21.4636 41.4455 21.488 41.4599Z" fill="#24324A"/>
<path d="M26.7625 42.3046H27.4464V9.67551C27.1542 10.1137 26.6431 10.9329 26.1084 12.0301H26.6793C26.7254 12.0301 26.7625 12.0672 26.7625 12.1134V12.6475C26.7625 12.6936 26.7254 12.7308 26.6793 12.7308H25.7818C25.714 12.8837 25.6461 13.0403 25.5791 13.2006H26.6801C26.7263 13.2006 26.7634 13.2377 26.7634 13.2839V13.818C26.7634 13.8641 26.7263 13.9012 26.6801 13.9012H25.3005C25.2426 14.0551 25.1856 14.2118 25.1295 14.3711H26.6801C26.7263 14.3711 26.7634 14.4082 26.7634 14.4544V14.9885C26.7634 15.0346 26.7263 15.0717 26.6801 15.0717H24.8997C24.8518 15.2265 24.8056 15.3832 24.7613 15.5416H26.6811C26.7272 15.5416 26.7643 15.5787 26.7643 15.6249V16.159C26.7643 16.2051 26.7272 16.2422 26.6811 16.2422H24.5795C24.5424 16.3979 24.5062 16.5536 24.4727 16.7121H26.6811C26.7272 16.7121 26.7643 16.7492 26.7643 16.7954V17.3295C26.7643 17.3756 26.7272 17.4127 26.6811 17.4127H24.3397C24.2944 17.6834 24.2547 17.9577 24.2221 18.2365H26.7643C26.8104 18.2365 26.8475 18.2736 26.8475 18.3198V19.388C26.8475 19.4342 26.8104 19.4713 26.7643 19.4713H24.214C24.2158 19.5636 24.2185 19.7302 24.2185 19.961H26.6811C26.7272 19.961 26.7643 19.9982 26.7643 20.0443V20.5784C26.7643 20.6246 26.7272 20.6617 26.6811 20.6617H24.2085C24.2049 20.8065 24.1995 20.965 24.1932 21.1315H26.6811C26.7272 21.1315 26.7643 21.1687 26.7643 21.2148V21.7489C26.7643 21.7951 26.7272 21.8322 26.6811 21.8322H24.1606C24.1524 21.9834 24.1434 22.14 24.1325 22.302H26.6811C26.7272 22.302 26.7643 22.3392 26.7643 22.3853V22.9194C26.7643 22.9656 26.7272 23.0027 26.6811 23.0027H24.081C24.0683 23.1557 24.0547 23.3123 24.0403 23.4725H26.6801C26.7263 23.4725 26.7634 23.5097 26.7634 23.5558V24.0899C26.7634 24.1361 26.7263 24.1732 26.6801 24.1732H23.9715C23.9552 24.3271 23.938 24.4837 23.9199 24.643H26.6801C26.7263 24.643 26.7634 24.6801 26.7634 24.7263V25.2604C26.7634 25.3066 26.7263 25.3437 26.6801 25.3437H23.8349C23.815 25.4976 23.7942 25.6551 23.7716 25.8135H26.6801C26.7263 25.8135 26.7634 25.8506 26.7634 25.8968V26.4309C26.7634 26.4771 26.7263 26.5142 26.6801 26.5142H23.6702C23.6467 26.669 23.6223 26.8256 23.5969 26.984H26.6801C26.7263 26.984 26.7634 27.0211 26.7634 27.0673V27.6014C26.7634 27.6476 26.7263 27.6847 26.6801 27.6847H23.4793C23.4522 27.8386 23.4242 27.9961 23.3943 28.1545H26.6801C26.7263 28.1545 26.7634 28.1916 26.7634 28.2378V28.7719C26.7634 28.8181 26.7263 28.8552 26.6801 28.8552H23.2604C23.2296 29.01 23.198 29.1666 23.1645 29.325H26.6801C26.7263 29.325 26.7634 29.3621 26.7634 29.4083V29.9424C26.7634 29.9886 26.7263 30.0257 26.6801 30.0257H23.0134C22.9791 30.1805 22.9428 30.338 22.9067 30.4955H26.6801C26.7263 30.4955 26.7634 30.5326 26.7634 30.5788V31.1129C26.7634 31.1591 26.7263 31.1962 26.6801 31.1962H22.7393C22.7013 31.3519 22.6615 31.5085 22.6208 31.666H26.6801C26.7263 31.666 26.7634 31.7031 26.7634 31.7493V32.2834C26.7634 32.3296 26.7263 32.3667 26.6801 32.3667H22.4362C22.3937 32.5224 22.3512 32.679 22.3069 32.8365H26.6801C26.7263 32.8365 26.7634 32.8736 26.7634 32.9198V33.4539C26.7634 33.5001 26.7263 33.5372 26.6801 33.5372H22.1051C22.059 33.6929 22.0119 33.8495 21.964 34.007H26.6801C26.7263 34.007 26.7634 34.0441 26.7634 34.0903V34.6244C26.7634 34.6706 26.7263 34.7077 26.6801 34.7077H21.7441C21.6944 34.8634 21.6428 35.02 21.5912 35.1775H26.6801C26.7263 35.1775 26.7634 35.2146 26.7634 35.2608V35.7949C26.7634 35.8411 26.7263 35.8782 26.6801 35.8782H21.3533C21.299 36.0339 21.2439 36.1914 21.1869 36.348H26.6801C26.7263 36.348 26.7634 36.3851 26.7634 36.4313V36.9654C26.7634 37.0116 26.7263 37.0487 26.6801 37.0487H20.9308C20.872 37.2053 20.8123 37.3619 20.7517 37.5185H26.6801C26.7263 37.5185 26.7634 37.5556 26.7634 37.6018V38.1359C26.7634 38.1821 26.7263 38.2192 26.6801 38.2192H20.4749C20.4115 38.3758 20.3473 38.5324 20.2822 38.689H26.6811C26.7272 38.689 26.7643 38.7261 26.7643 38.7723V39.3064C26.7643 39.3526 26.7272 39.3897 26.6811 39.3897H19.9854C19.9175 39.5463 19.8479 39.7029 19.7782 39.8595H26.6819C26.7281 39.8595 26.7652 39.8966 26.7652 39.9428V40.4769C26.7652 40.5231 26.7281 40.5602 26.6819 40.5602H19.4589C19.3856 40.7168 19.3114 40.8734 19.2363 41.03H26.6819C26.7281 41.03 26.7652 41.0671 26.7652 41.1133V41.6474C26.7652 41.6936 26.7281 41.7307 26.6819 41.7307H24.3578V42.2005H26.6793C26.7254 42.2222 26.7625 42.2593 26.7625 42.3046Z" fill="#24324A"/>
<path d="M3.46903 42.6223H6.05555V8.47151C6.05012 8.47242 6.04469 8.47513 6.03927 8.47513H3.30437L3.30256 8.48056H2.7688V11.219H3.46994V42.6223H3.46903ZM5.57064 42.4051H3.93585V41.9715H5.57064V42.4051ZM5.57064 41.67H3.93585V41.2364H5.57064V41.67ZM5.57064 40.9358H3.93585V40.5022H5.57064V40.9358ZM5.57064 40.2008H3.93585V39.7672H5.57064V40.2008ZM5.57064 39.4666H3.93585V39.0321H5.57064V39.4666ZM5.57064 38.7324H3.93585V38.2979H5.57064V38.7324ZM5.57064 37.9974H3.93585V37.5638H5.57064V37.9974ZM5.57064 37.2632H3.93585V36.8287H5.57064V37.2632ZM5.57064 36.5281H3.93585V36.0945H5.57064V36.5281ZM5.57064 35.794H3.93585V35.3604H5.57064V35.794ZM5.57064 35.0589H3.93585V34.6253H5.57064V35.0589ZM5.57064 34.3248H3.93585V33.8902H5.57064V34.3248ZM5.57064 33.5897H3.93585V33.1561H5.57064V33.5897ZM5.57064 32.8555H3.93585V32.421H5.57064V32.8555ZM5.57064 32.1204H3.93585V31.6859H5.57064V32.1204ZM5.57064 31.3863H3.93585V30.9527H5.57064V31.3863ZM5.57064 30.6512H3.93585V30.2176H5.57064V30.6512ZM5.57064 29.917H3.93585V29.4834H5.57064V29.917ZM5.57064 29.1829H3.93585V28.7493H5.57064V29.1829ZM5.57064 28.4478H3.93585V28.0142H5.57064V28.4478ZM5.57064 27.7137H3.93585V27.2791H5.57064V27.7137ZM5.57064 26.9786H3.93585V26.545H5.57064V26.9786ZM5.57064 26.2444H3.93585V25.8108H5.57064V26.2444ZM5.57064 25.5094H3.93585V25.0748H5.57064V25.5094ZM5.57064 24.7752H3.93585V24.3407H5.57064V24.7752ZM5.57064 24.0401H3.93585V23.6065H5.57064V24.0401ZM5.57064 23.306H3.93585V22.8723H5.57064V23.306ZM5.57064 22.5709H3.93585V22.1373H5.57064V22.5709ZM5.57064 21.8367H3.93585V21.4031H5.57064V21.8367ZM5.57064 21.1026H3.93585V20.6689H5.57064V21.1026ZM5.57064 20.3675H3.93585V19.9339H5.57064V20.3675ZM5.57064 19.6333H3.93585V19.1988H5.57064V19.6333ZM5.57064 18.8983H3.93585V18.4646H5.57064V18.8983ZM5.57064 18.1641H3.93585V17.7305H5.57064V18.1641ZM5.57064 17.429H3.93585V16.9954H5.57064V17.429ZM5.57064 16.6949H3.93585V16.2612H5.57064V16.6949ZM5.57064 15.9598H3.93585V15.5262H5.57064V15.9598ZM5.57064 15.2256H3.93585V14.792H5.57064V15.2256ZM5.57064 14.4906H3.93585V14.056H5.57064V14.4906ZM5.57064 13.7564H3.93585V13.3228H5.57064V13.7564ZM5.57064 13.0222H3.93585V12.5886H5.57064V13.0222ZM5.57064 12.2872H3.93585V11.8526H5.57064V12.2872ZM5.57064 11.553H3.93585V11.1194H5.57064V11.553ZM3.13518 8.91508H5.57155V9.34871H3.13518V8.91508ZM3.13518 9.64925H5.57155V10.0829H3.13518V9.64925ZM3.13518 10.8179V10.3843H5.57155V10.8179H3.13518Z" fill="#24324A"/>
<path d="M4.68681 5.3013V5.29225H4.16479L3.34875 8.30857H5.32281L4.68681 5.3013Z" fill="#24324A"/>
<path d="M7.07257 21.1831H9.68084C9.66818 21.0582 9.65642 20.936 9.64466 20.8156H7.07257V21.1831Z" fill="#24324A"/>
<path d="M7.07257 18.8403H9.50081C9.49448 18.7136 9.48906 18.5904 9.48363 18.4727H7.07257V18.8403Z" fill="#24324A"/>
<path d="M7.07257 17.3014V17.6689H9.45831C9.4556 17.5349 9.45378 17.4127 9.45288 17.3014H7.07257Z" fill="#24324A"/>
<path d="M7.07257 24.3298V24.6973H10.1613C10.1441 24.5959 10.1269 24.4955 10.1106 24.3968C10.107 24.3742 10.1033 24.3524 10.0997 24.3307H7.07257V24.3298Z" fill="#24324A"/>
<path d="M7.07257 23.5259H9.97398C9.95588 23.4019 9.93778 23.2797 9.92059 23.1584H7.07257V23.5259Z" fill="#24324A"/>
<path d="M7.07257 22.3545H9.81383C9.79845 22.2305 9.78307 22.1083 9.7695 21.987H7.07348V22.3545H7.07257Z" fill="#24324A"/>
<path d="M7.07257 14.419H9.30087C9.27916 14.2959 9.25564 14.1737 9.23121 14.0515H7.07257V14.419Z" fill="#24324A"/>
<path d="M7.07257 10.9039H8.30484C8.25689 10.7799 8.20802 10.6568 8.15917 10.5364H7.07257V10.9039Z" fill="#24324A"/>
<path d="M7.07256 9.73253H7.81171C7.75471 9.6067 7.6968 9.48449 7.6398 9.36499H7.07166V9.73253H7.07256Z" fill="#24324A"/>
<path d="M7.07257 25.8687H10.3766C10.3521 25.7447 10.3286 25.6225 10.306 25.5012H7.07257V25.8687Z" fill="#24324A"/>
<path d="M7.07256 13.2477H9.05025C9.01949 13.1245 8.98782 13.0014 8.95435 12.8801H7.07166V13.2477H7.07256Z" fill="#24324A"/>
<path d="M7.07257 12.0753H8.71828C8.67847 11.9513 8.63868 11.8291 8.59706 11.7078H7.07257V12.0753Z" fill="#24324A"/>
<path d="M7.07257 20.0117H9.57591C9.56596 19.8868 9.5569 19.7637 9.54876 19.6442H7.07257V20.0117Z" fill="#24324A"/>
<path d="M7.07257 35.24H13.1278C13.0789 35.1177 13.03 34.9946 12.9821 34.8724H7.07257V35.24Z" fill="#24324A"/>
<path d="M7.07257 27.0401H10.619C10.5918 26.9161 10.5656 26.7948 10.5403 26.6726H7.07257V27.0401Z" fill="#24324A"/>
<path d="M7.07257 38.7542H14.6956C14.635 38.6319 14.5744 38.5088 14.5147 38.3866H7.07257V38.7542Z" fill="#24324A"/>
<path d="M7.07257 37.5828H14.1356C14.0795 37.4605 14.0225 37.3374 13.9673 37.2152H7.07348V37.5828H7.07257Z" fill="#24324A"/>
<path d="M7.07257 39.9256H15.2963C15.2312 39.8034 15.166 39.6803 15.1027 39.558H7.07257V39.9256Z" fill="#24324A"/>
<path d="M21.4048 41.6039H20.8041V42.6223H21.4048V41.6039Z" fill="#24324A"/>
<path d="M9.62288 16.6442C9.61021 17.162 9.57676 20.1575 10.2752 24.3733C10.9808 28.6289 12.5984 35.0309 16.2968 41.3858H18.8255C17.6937 39.8124 10.9383 29.8265 11.6395 16.6442H9.62288Z" fill="#24324A"/>
<path d="M24.1913 42.472V41.6039H21.5722V42.7056C21.5722 42.7518 21.5351 42.7889 21.4889 42.7889H20.7218C20.6756 42.7889 20.6385 42.7518 20.6385 42.7056V41.6039H18.9865C18.9865 41.6039 18.9739 41.5867 18.9486 41.5541H7.59097V42.7065C7.59097 42.7527 7.55389 42.7898 7.50775 42.7898H3.47009V42.8061H0.700806V50.7524H31V42.472H24.1913ZM2.86846 43.7068H5.10396V44.1078H2.86846V43.7068ZM2.86846 44.3079H5.10396V44.7089H2.86846V44.3079ZM2.86846 44.909H5.10396V45.31H2.86846V44.909ZM2.86846 45.5101H5.10396V45.9111H2.86846V45.5101ZM2.86846 46.1112H5.10396V46.5122H2.86846V46.1112ZM2.86846 46.7123H5.10396V47.1133H2.86846V46.7123ZM2.86846 47.3134H5.10396V47.7144H2.86846V47.3134ZM2.86846 47.9144H5.10396V48.3155H2.86846V47.9144ZM2.86846 48.5155H5.10396V48.9166H2.86846V48.5155ZM2.86846 49.1166H5.10396V49.5177H2.86846V49.1166ZM7.50684 49.5167H5.32651V49.1157H7.50684V49.5167ZM7.50684 48.9157H5.32651V48.5146H7.50684V48.9157ZM7.50684 48.3146H5.32651V47.9135H7.50684V48.3146ZM7.50684 47.7135H5.32651V47.3124H7.50684V47.7135ZM7.50684 47.1133H5.32651V46.7123H7.50684V47.1133ZM7.50684 46.5122H5.32651V46.1112H7.50684V46.5122ZM7.50684 45.9111H5.32651V45.5101H7.50684V45.9111ZM7.50684 45.31H5.32651V44.909H7.50684V45.31ZM7.50684 44.7089H5.32651V44.3079H7.50684V44.7089ZM7.50684 44.1078H5.32651V43.7068H7.50684V44.1078ZM17.4839 43.7068H19.4525V44.1078H17.4839V43.7068ZM17.4839 44.3079H19.4525V44.7089H17.4839V44.3079ZM17.4839 44.909H19.4525V45.31H17.4839V44.909ZM17.4839 45.5101H19.4525V45.9111H17.4839V45.5101ZM17.4839 46.1112H19.4525V46.5122H17.4839V46.1112ZM17.4839 46.7123H19.4525V47.1133H17.4839V46.7123ZM17.4839 47.3134H19.4525V47.7144H17.4839V47.3134ZM17.4839 47.9144H19.4525V48.3155H17.4839V47.9144ZM17.4839 48.5155H19.4525V48.9166H17.4839V48.5155ZM12.612 43.7068H14.6702V44.1078H12.612V43.7068ZM12.612 44.3079H14.6702V44.7089H12.612V44.3079ZM12.612 44.909H14.6702V45.31H12.612V44.909ZM12.612 45.5101H14.6702V45.9111H12.612V45.5101ZM12.612 46.1112H14.6702V46.5122H12.612V46.1112ZM12.612 46.7123H14.6702V47.1133H12.612V46.7123ZM12.612 47.3134H14.6702V47.7144H12.612V47.3134ZM12.612 47.9144H14.6702V48.3155H12.612V47.9144ZM12.612 48.5155H14.6702V48.9166H12.612V48.5155ZM7.74026 43.7068H9.88711V44.1078H7.74026V43.7068ZM7.74026 44.3079H9.88711V44.7089H7.74026V44.3079ZM7.74026 44.909H9.88711V45.31H7.74026V44.909ZM7.74026 45.5101H9.88711V45.9111H7.74026V45.5101ZM7.74026 46.1112H9.88711V46.5122H7.74026V46.1112ZM7.74026 46.7123H9.88711V47.1133H7.74026V46.7123ZM7.74026 47.3134H9.88711V47.7144H7.74026V47.3134ZM7.74026 47.9144H9.88711V48.3155H7.74026V47.9144ZM7.74026 48.5155H9.88711V48.9166H7.74026V48.5155ZM7.74026 49.1166H9.88711V49.5177H7.74026V49.1166ZM12.3786 49.5167H10.1097V49.1157H12.3786V49.5167ZM12.3786 48.9157H10.1097V48.5146H12.3786V48.9157ZM12.3786 48.3146H10.1097V47.9135H12.3786V48.3146ZM12.3786 47.7135H10.1097V47.3124H12.3786V47.7135ZM12.3786 47.1133H10.1097V46.7123H12.3786V47.1133ZM12.3786 46.5122H10.1097V46.1112H12.3786V46.5122ZM12.3786 45.9111H10.1097V45.5101H12.3786V45.9111ZM12.3786 45.31H10.1097V44.909H12.3786V45.31ZM12.3786 44.7089H10.1097V44.3079H12.3786V44.7089ZM12.3786 44.1078H10.1097V43.7068H12.3786V44.1078ZM12.612 49.1166H14.6702V49.5177H12.612V49.1166ZM17.2504 49.5167H14.8928V49.1157H17.2504V49.5167ZM17.2504 48.9157H14.8928V48.5146H17.2504V48.9157ZM17.2504 48.3146H14.8928V47.9135H17.2504V48.3146ZM17.2504 47.7135H14.8928V47.3124H17.2504V47.7135ZM17.2504 47.1133H14.8928V46.7123H17.2504V47.1133ZM17.2504 46.5122H14.8928V46.1112H17.2504V46.5122ZM17.2504 45.9111H14.8928V45.5101H17.2504V45.9111ZM17.2504 45.31H14.8928V44.909H17.2504V45.31ZM17.2504 44.7089H14.8928V44.3079H17.2504V44.7089ZM17.2504 44.1078H14.8928V43.7068H17.2504V44.1078ZM17.4839 49.1166H19.4525V49.5177H17.4839V49.1166ZM22.1222 49.5167H19.675V49.1157H22.1222V49.5167ZM22.1222 48.9157H19.675V48.5146H22.1222V48.9157ZM22.1222 48.3146H19.675V47.9135H22.1222V48.3146ZM22.1222 47.7135H19.675V47.3124H22.1222V47.7135ZM22.1222 47.1133H19.675V46.7123H22.1222V47.1133ZM22.1222 46.5122H19.675V46.1112H22.1222V46.5122ZM22.1222 45.9111H19.675V45.5101H22.1222V45.9111ZM22.1222 45.31H19.675V44.909H22.1222V45.31ZM22.1222 44.7089H19.675V44.3079H22.1222V44.7089ZM22.1222 44.1078H19.675V43.7068H22.1222V44.1078ZM24.2582 43.7068H26.4856V44.1078H24.2582V43.7068ZM24.2582 44.3079H26.4856V44.7089H24.2582V44.3079ZM24.2582 44.909H26.4856V45.31H24.2582V44.909ZM24.2582 45.5101H26.4856V45.9111H24.2582V45.5101ZM24.2582 46.1112H26.4856V46.5122H24.2582V46.1112ZM24.2582 46.7123H26.4856V47.1133H24.2582V46.7123ZM24.2582 47.3134H26.4856V47.7144H24.2582V47.3134ZM24.2582 47.9144H26.4856V48.3155H24.2582V47.9144ZM24.2582 48.5155H26.4856V48.9166H24.2582V48.5155ZM24.2582 49.1166H26.4856V49.5177H24.2582V49.1166ZM28.8631 49.5167H26.7081V49.1157H28.8631V49.5167ZM28.8631 48.9157H26.7081V48.5146H28.8631V48.9157ZM28.8631 48.3146H26.7081V47.9135H28.8631V48.3146ZM28.8631 47.7135H26.7081V47.3124H28.8631V47.7135ZM28.8631 47.1133H26.7081V46.7123H28.8631V47.1133ZM28.8631 46.5122H26.7081V46.1112H28.8631V46.5122ZM28.8631 45.9111H26.7081V45.5101H28.8631V45.9111ZM28.8631 45.31H26.7081V44.909H28.8631V45.31ZM28.8631 44.7089H26.7081V44.3079H28.8631V44.7089ZM28.8631 44.1078H26.7081V43.7068H28.8631V44.1078Z" fill="#24324A"/>
<path d="M7.07257 41.097H15.9405C15.8708 40.9747 15.8012 40.8525 15.7324 40.7294H7.07257V41.097Z" fill="#24324A"/>
<path d="M7.42353 41.4699C7.42353 41.4238 7.46061 41.3867 7.50675 41.3867H16.1059C16.0824 41.3459 16.0598 41.3052 16.0362 41.2644H6.99017C6.94403 41.2644 6.90695 41.2273 6.90695 41.1812V40.6471C6.90695 40.6009 6.94403 40.5638 6.99017 40.5638H15.6418C15.555 40.4072 15.4699 40.2506 15.3858 40.0939H6.99017C6.94403 40.0939 6.90695 40.0568 6.90695 40.0107V39.4766C6.90695 39.4304 6.94403 39.3933 6.99017 39.3933H15.0185C14.9379 39.2367 14.8574 39.0801 14.7796 38.9234H6.99108C6.94494 38.9234 6.90785 38.8863 6.90785 38.8402V38.3061C6.90785 38.2599 6.94494 38.2228 6.99108 38.2228H14.4367C14.3616 38.0662 14.2865 37.9087 14.2142 37.753H6.99108C6.94494 37.753 6.90785 37.7158 6.90785 37.6697V37.1356C6.90785 37.0894 6.94494 37.0523 6.99108 37.0523H13.8948C13.8243 36.8957 13.7555 36.7382 13.6876 36.5825H6.99198C6.94584 36.5825 6.90874 36.5453 6.90874 36.4992V35.9651C6.90874 35.9189 6.94584 35.8818 6.99198 35.8818H13.3909C13.3257 35.7243 13.2606 35.5677 13.1982 35.412H6.99289C6.94675 35.412 6.90964 35.3748 6.90964 35.3287V34.7946C6.90964 34.7484 6.94675 34.7113 6.99289 34.7113H12.9213C12.8607 34.5538 12.801 34.3972 12.7422 34.2415H6.99289C6.94675 34.2415 6.90964 34.2043 6.90964 34.1582V33.6241C6.90964 33.5779 6.94675 33.5408 6.99289 33.5408H12.4862C12.4301 33.3833 12.374 33.2267 12.3197 33.071H6.99289C6.94675 33.071 6.90964 33.0338 6.90964 32.9877V32.4536C6.90964 32.4074 6.94675 32.3703 6.99289 32.3703H12.0818C12.0293 32.2128 11.9787 32.0562 11.928 31.9005H6.99198C6.94584 31.9005 6.90874 31.8633 6.90874 31.8172V31.2831C6.90874 31.2369 6.94584 31.1998 6.99198 31.1998H11.7082C11.6602 31.0423 11.6132 30.8857 11.567 30.73H6.99198C6.94584 30.73 6.90874 30.6929 6.90874 30.6467V30.1126C6.90874 30.0664 6.94584 30.0293 6.99198 30.0293H11.3653C11.3209 29.8718 11.2784 29.7152 11.2359 29.5595H6.99198C6.94584 29.5595 6.90874 29.5224 6.90874 29.4762V28.9421C6.90874 28.8959 6.94584 28.8588 6.99198 28.8588H11.0513C11.0106 28.7004 10.9718 28.5438 10.9328 28.389H6.99198C6.94584 28.389 6.90874 28.3519 6.90874 28.3057V27.7716C6.90874 27.7254 6.94584 27.6883 6.99198 27.6883H10.7664C10.7293 27.5299 10.694 27.3733 10.6596 27.2185H6.99289C6.94675 27.2185 6.90964 27.1814 6.90964 27.1352V26.6011C6.90964 26.5549 6.94675 26.5178 6.99289 26.5178H10.5085C10.4751 26.3594 10.4434 26.2028 10.4126 26.048H6.99289C6.94675 26.048 6.90964 26.0109 6.90964 25.9647V25.4306C6.90964 25.3844 6.94675 25.3473 6.99289 25.3473H10.2787C10.2498 25.188 10.2208 25.0314 10.1937 24.8775H6.99289C6.94675 24.8775 6.90964 24.8404 6.90964 24.7942V24.2601C6.90964 24.2139 6.94675 24.1768 6.99289 24.1768H10.0761C10.0508 24.0184 10.0263 23.8618 10.0028 23.707H6.99289C6.94675 23.707 6.90964 23.6699 6.90964 23.6237V23.0896C6.90964 23.0434 6.94675 23.0063 6.99289 23.0063H9.90148C9.87977 22.8479 9.85806 22.6904 9.83816 22.5365H6.99289C6.94675 22.5365 6.90964 22.4994 6.90964 22.4532V21.9191C6.90964 21.8729 6.94675 21.8358 6.99289 21.8358H9.75312C9.73503 21.6756 9.71783 21.5199 9.70155 21.366H6.99289C6.94675 21.366 6.90964 21.3289 6.90964 21.2827V20.7486C6.90964 20.7024 6.94675 20.6653 6.99289 20.6653H9.63279C9.61831 20.5051 9.60475 20.3476 9.59208 20.1955H6.99198C6.94584 20.1955 6.90874 20.1584 6.90874 20.1122V19.5781C6.90874 19.5319 6.94584 19.4948 6.99198 19.4948H9.54051C9.52965 19.3319 9.5206 19.1753 9.51246 19.025H6.99198C6.94584 19.025 6.90874 18.9879 6.90874 18.9417V18.4076C6.90874 18.3614 6.94584 18.3243 6.99198 18.3243H9.4799C9.47357 18.1568 9.46903 17.9993 9.46451 17.8545H6.99198C6.94584 17.8545 6.90874 17.8174 6.90874 17.7712V17.2371C6.90874 17.1909 6.94584 17.1538 6.99198 17.1538H9.45457C9.45366 16.923 9.45638 16.7564 9.45909 16.6641H6.90874C6.8626 16.6641 6.82551 16.627 6.82551 16.5808V15.5126C6.82551 15.4664 6.8626 15.4293 6.90874 15.4293H9.45094C9.41838 15.1514 9.37856 14.8762 9.33333 14.6055H6.99198C6.94584 14.6055 6.90874 14.5684 6.90874 14.5222V13.9881C6.90874 13.942 6.94584 13.9048 6.99198 13.9048H9.20034C9.16687 13.7464 9.13069 13.5898 9.09359 13.435H6.99198C6.94584 13.435 6.90874 13.3979 6.90874 13.3517V12.8176C6.90874 12.7715 6.94584 12.7344 6.99198 12.7344H8.91175C8.86742 12.5759 8.82128 12.4184 8.77333 12.2645H6.99289C6.94675 12.2645 6.90964 12.2274 6.90964 12.1812V11.6471C6.90964 11.601 6.94675 11.5639 6.99289 11.5639H8.54353C8.48744 11.4045 8.43045 11.2479 8.37255 11.094H6.99289C6.94675 11.094 6.90964 11.0569 6.90964 11.0107V10.4766C6.90964 10.4305 6.94675 10.3934 6.99289 10.3934H8.0939C8.02695 10.2322 7.9591 10.0756 7.89125 9.92353H6.99289C6.94675 9.92353 6.90964 9.88642 6.90964 9.84025V9.30614C6.90964 9.25998 6.94675 9.22286 6.99289 9.22286H7.56376C7.02818 8.12569 6.51702 7.30643 6.22571 6.86829V42.6459H7.42715V41.4699H7.42353Z" fill="#24324A"/>
<path d="M7.07257 36.4114H13.6136C13.5611 36.2892 13.5077 36.1661 13.4571 36.0439H7.07257V36.4114Z" fill="#24324A"/>
<path d="M7.07257 30.5543H11.5147C11.4785 30.4312 11.4441 30.309 11.4097 30.1868H7.07257V30.5543Z" fill="#24324A"/>
<path d="M7.07257 29.383H11.1881C11.1555 29.2599 11.1229 29.1376 11.0913 29.0154H7.07257V29.383Z" fill="#24324A"/>
<path d="M7.07257 28.2115H10.8895C10.8597 28.0884 10.8298 27.9653 10.8018 27.844H7.07257V28.2115Z" fill="#24324A"/>
<path d="M7.07257 32.8972H12.2583C12.2158 32.774 12.1742 32.6518 12.1335 32.5296H7.07257V32.8972Z" fill="#24324A"/>
<path d="M7.07257 34.0686H12.6772C12.632 33.9455 12.5858 33.8233 12.5424 33.701H7.07348V34.0686H7.07257Z" fill="#24324A"/>
<path d="M7.07257 31.7258H11.872C11.8331 31.6027 11.7951 31.4805 11.7571 31.3582H7.07257V31.7258Z" fill="#24324A"/>
</svg>
