<svg width="21" height="43" viewBox="0 0 21 43" fill="none" xmlns="http://www.w3.org/2000/svg">
<path d="M13.4715 22.9092H11.1527C11.0433 23.1491 10.9329 23.389 10.8225 23.628H13.1521C13.2598 23.389 13.3665 23.15 13.4715 22.9092Z" fill="#24324A"/>
<path d="M11.2186 22.7663H13.5347C13.6387 22.5273 13.7409 22.2883 13.8423 22.0475H11.5434C11.4367 22.2865 11.3281 22.5264 11.2186 22.7663Z" fill="#24324A"/>
<path d="M8.85486 27.9389H11.1293C11.2442 27.6981 11.3582 27.4582 11.4712 27.2201H9.1706C9.06475 27.4591 8.9589 27.699 8.85486 27.9389Z" fill="#24324A"/>
<path d="M16.1774 28.9455H10.8126C10.7004 29.1845 10.5882 29.4235 10.4769 29.6643H16.0119C16.0707 29.4226 16.1259 29.1827 16.1774 28.9455Z" fill="#24324A"/>
<path d="M12.3577 25.3526C12.4699 25.1136 12.5821 24.8746 12.6934 24.6338H10.3565C10.2453 24.8728 10.134 25.1118 10.0227 25.3526H12.3577Z" fill="#24324A"/>
<path d="M9.62537 26.2144H11.9504C12.0635 25.9754 12.1775 25.7364 12.2906 25.4956H9.95648C9.84611 25.7346 9.73574 25.9745 9.62537 26.2144Z" fill="#24324A"/>
<path d="M10.4236 24.4908H12.7604C12.8708 24.2518 12.9803 24.0128 13.0888 23.772H10.7574C10.6452 24.0128 10.534 24.2527 10.4236 24.4908Z" fill="#24324A"/>
<path d="M6.05286 22.7663H11.0613C11.1707 22.5264 11.2793 22.2865 11.3861 22.0475H6.21299C6.1578 22.2856 6.10442 22.5255 6.05286 22.7663Z" fill="#24324A"/>
<path d="M5.87646 23.628H10.665C10.7754 23.389 10.8858 23.15 10.9952 22.9092H6.02212C5.97146 23.1482 5.92351 23.3872 5.87646 23.628Z" fill="#24324A"/>
<path d="M16.7692 23.772H13.2445C13.1359 24.0119 13.0274 24.2518 12.917 24.4908H16.762C16.7665 24.2608 16.7692 24.02 16.7692 23.772Z" fill="#24324A"/>
<path d="M13.9963 22.0475C13.8958 22.2874 13.7936 22.5273 13.6896 22.7663H16.7574C16.752 22.53 16.7429 22.2901 16.7321 22.0475H13.9963Z" fill="#24324A"/>
<path d="M16.7609 22.9092H13.6279C13.523 23.1491 13.4171 23.389 13.3094 23.628H16.769C16.7681 23.3945 16.7654 23.1546 16.7609 22.9092Z" fill="#24324A"/>
<path d="M6.49437 20.323H5.81314C5.78961 20.5629 5.7679 20.8028 5.7489 21.0418H6.30709C6.36771 20.801 6.43013 20.5611 6.49437 20.323Z" fill="#24324A"/>
<path d="M5.87565 22.9092H5.65852C5.654 23.1491 5.6531 23.389 5.654 23.628H5.72999C5.77704 23.3872 5.82499 23.1482 5.87565 22.9092Z" fill="#24324A"/>
<path d="M7.90109 16.0121H6.52053C6.46625 16.252 6.41377 16.491 6.36401 16.7309H7.62878C7.71744 16.4883 7.80791 16.2493 7.90109 16.0121Z" fill="#24324A"/>
<path d="M7.57637 16.874H6.33422C6.28537 17.1139 6.23923 17.3529 6.1958 17.5928H7.32397C7.40629 17.3511 7.49043 17.1121 7.57637 16.874Z" fill="#24324A"/>
<path d="M10.1982 24.6338H5.68918C5.68556 24.6546 5.68194 24.6764 5.67832 24.6972C5.68465 24.8638 5.69279 25.0303 5.70274 25.1969C5.70546 25.2367 5.6747 25.2702 5.63489 25.2729C5.63308 25.2729 5.63218 25.2729 5.63037 25.2729C5.62765 25.2729 5.62584 25.272 5.62313 25.2711C5.62132 25.2928 5.61861 25.32 5.61499 25.3526H9.86436C9.97564 25.1118 10.0869 24.8728 10.1982 24.6338Z" fill="#24324A"/>
<path d="M8.27193 28.9455H5.42395C5.42033 29.18 5.41851 29.4208 5.41942 29.6643H7.98152C8.07652 29.4235 8.17332 29.1836 8.27193 28.9455Z" fill="#24324A"/>
<path d="M6.9956 18.5984H6.02938C5.99319 18.8383 5.95971 19.0773 5.92896 19.3172H6.77756C6.84813 19.0755 6.92141 18.8365 6.9956 18.5984Z" fill="#24324A"/>
<path d="M9.23474 27.0771H11.5399C11.6539 26.8381 11.7679 26.5991 11.8819 26.3583H9.55952C9.45096 26.5973 9.3424 26.8363 9.23474 27.0771Z" fill="#24324A"/>
<path d="M6.27086 21.1857H5.73798C5.72079 21.4255 5.70451 21.6654 5.69275 21.9044H6.09715C6.15415 21.6627 6.21205 21.4237 6.27086 21.1857Z" fill="#24324A"/>
<path d="M16.5854 26.3963C16.5854 26.3936 16.5854 26.3909 16.5863 26.3891C16.5863 26.3873 16.5899 26.3764 16.5935 26.3592H12.0411C11.9271 26.6 11.8122 26.839 11.6991 27.078H16.5085C16.5383 26.849 16.5646 26.6227 16.5845 26.4018C16.5845 26.3991 16.5854 26.3973 16.5854 26.3963Z" fill="#24324A"/>
<path d="M6.73583 19.4612H5.90985C5.87999 19.7011 5.85285 19.941 5.82751 20.1799H6.53318C6.59922 19.9382 6.66617 19.6984 6.73583 19.4612Z" fill="#24324A"/>
<path d="M5.71448 24.4908H10.2651C10.3755 24.2536 10.4868 24.0137 10.5989 23.772H5.84838C5.80133 24.0101 5.7579 24.25 5.71448 24.4908Z" fill="#24324A"/>
<path d="M8.48743 28.8016H10.7211C10.8342 28.5608 10.9473 28.3218 11.0604 28.0828H8.79231C8.68917 28.3218 8.58785 28.5608 8.48743 28.8016Z" fill="#24324A"/>
<path d="M6.45471 21.0418H11.8377C11.9462 20.8019 12.0548 20.562 12.1643 20.323H6.6438C6.57866 20.5611 6.51623 20.8001 6.45471 21.0418Z" fill="#24324A"/>
<path d="M11.2885 27.9389H16.3756C16.4181 27.6963 16.4561 27.4564 16.4887 27.2201H11.6304C11.5173 27.4591 11.4024 27.6981 11.2885 27.9389Z" fill="#24324A"/>
<path d="M12.6227 19.3172C12.7312 19.0782 12.8407 18.8383 12.9493 18.5984H7.14655C7.07146 18.8365 6.99908 19.0755 6.92761 19.3172H12.6227Z" fill="#24324A"/>
<path d="M6.68176 20.179H12.2294C12.2873 20.0523 12.3443 19.9256 12.4022 19.8006C12.4537 19.6875 12.5053 19.5734 12.5569 19.4603H6.88532C6.81566 19.6992 6.74781 19.9382 6.68176 20.179Z" fill="#24324A"/>
<path d="M14.6204 20.5004L14.5308 20.7304C14.4901 20.8345 14.4476 20.9377 14.4069 21.0418H16.6686C16.6487 20.801 16.6261 20.5611 16.5989 20.323H14.6882C14.6665 20.3827 14.643 20.4416 14.6204 20.5004Z" fill="#24324A"/>
<path d="M16.7201 25.8125C16.7247 25.712 16.7292 25.607 16.7337 25.4956H12.4491C12.336 25.7364 12.2229 25.9754 12.1089 26.2144H16.6288C16.6523 26.1175 16.683 25.9817 16.7201 25.8125Z" fill="#24324A"/>
<path d="M16.76 24.6338H12.8517C12.7404 24.8746 12.6292 25.1136 12.517 25.3526H16.7401C16.7473 25.1299 16.7546 24.8891 16.76 24.6338Z" fill="#24324A"/>
<path d="M8.3989 15.1494C8.3021 15.3884 8.2062 15.6283 8.11121 15.8682H14.1546C14.2559 15.6292 14.3563 15.3893 14.4559 15.1494H8.3989Z" fill="#24324A"/>
<path d="M9.11262 13.4258C9.01129 13.6648 8.91177 13.9047 8.81226 14.1446H14.8629C14.957 13.9056 15.0492 13.6657 15.1397 13.4258H9.11262Z" fill="#24324A"/>
<path d="M13.0135 18.4554C13.122 18.2164 13.2297 17.9765 13.3365 17.7366H7.42607C7.34555 17.9738 7.26684 18.2137 7.18994 18.4554H13.0135Z" fill="#24324A"/>
<path d="M13.4018 17.5928C13.5086 17.3538 13.6144 17.1139 13.7203 16.874H7.73029C7.64435 17.1112 7.55931 17.3511 7.47607 17.5928H13.4018Z" fill="#24324A"/>
<path d="M13.7827 16.7309C13.8877 16.4919 13.9908 16.252 14.093 16.0121H8.05508C7.96189 16.2493 7.87052 16.4883 7.78186 16.7309H13.7827Z" fill="#24324A"/>
<path d="M11.9957 21.0417H14.2539C14.3018 20.9204 14.3498 20.8 14.3968 20.6787L14.4864 20.4488C14.5026 20.4071 14.5189 20.3655 14.5352 20.3239H12.3223C12.2129 20.5619 12.1043 20.8018 11.9957 21.0417Z" fill="#24324A"/>
<path d="M16.3503 28.0828H11.2207C11.1076 28.3209 10.9936 28.5608 10.8805 28.8016H16.2083C16.2598 28.559 16.3069 28.32 16.3503 28.0828Z" fill="#24324A"/>
<path d="M5.70101 23.772H5.65393C5.65484 23.849 5.65664 23.9251 5.65755 24.0012C5.67294 23.9251 5.68652 23.8481 5.70101 23.772Z" fill="#24324A"/>
<path d="M6.06561 22.0475H5.68744C5.67659 22.2874 5.66754 22.5273 5.66211 22.7663H5.90638C5.95704 22.5255 6.01042 22.2856 6.06561 22.0475Z" fill="#24324A"/>
<path d="M14.3499 21.1857C14.254 21.4255 14.1563 21.6654 14.0568 21.9044H16.7256C16.7139 21.6654 16.6985 21.4255 16.6804 21.1857H14.3499Z" fill="#24324A"/>
<path d="M11.6077 21.9036H13.9029C14.0024 21.6646 14.101 21.4247 14.1969 21.1848H11.9306C11.8221 21.4256 11.7135 21.6655 11.6077 21.9036Z" fill="#24324A"/>
<path d="M9.47978 12.5631C9.37665 12.8021 9.27442 13.042 9.1731 13.2819H15.192C15.2816 13.0429 15.3685 12.803 15.4535 12.5631H9.47978Z" fill="#24324A"/>
<path d="M9.79821 25.4965H5.60221C5.58683 25.6703 5.56602 25.9147 5.54431 26.2153H9.46799C9.57746 25.9745 9.68783 25.7346 9.79821 25.4965Z" fill="#24324A"/>
<path d="M8.63566 28.0828H5.44478C5.43664 28.3146 5.4303 28.5545 5.42578 28.8016H8.33077C8.43119 28.5608 8.53342 28.3218 8.63566 28.0828Z" fill="#24324A"/>
<path d="M8.13623 29.6634H10.3184C10.4296 29.4235 10.5418 29.1836 10.6531 28.9446H8.42754C8.32893 29.1836 8.23122 29.4235 8.13623 29.6634Z" fill="#24324A"/>
<path d="M9.40221 26.3583H5.53371C5.51833 26.5747 5.50386 26.8155 5.48938 27.0771H9.07742C9.18508 26.8363 9.29364 26.5973 9.40221 26.3583Z" fill="#24324A"/>
<path d="M9.01393 27.221H5.48198C5.47022 27.4473 5.45936 27.6881 5.45032 27.9398H8.69819C8.80223 27.699 8.90717 27.4591 9.01393 27.221Z" fill="#24324A"/>
<path d="M6.24536 21.9036H11.4501C11.5559 21.6655 11.6645 21.4256 11.7731 21.1848H6.41907C6.35936 21.4238 6.30145 21.6628 6.24536 21.9036Z" fill="#24324A"/>
<path d="M6.20483 36.8403V37.5944H7.09144C7.1801 37.3427 7.26967 37.0919 7.36104 36.8403H6.20483Z" fill="#24324A"/>
<path d="M7.69216 35.9423H6.20483V36.6964H7.41352C7.50489 36.4456 7.59807 36.194 7.69216 35.9423Z" fill="#24324A"/>
<path d="M16.5844 29.8073H16.1239C16.0651 30.0454 16.0027 30.2853 15.9385 30.5261H16.5844V29.8073Z" fill="#24324A"/>
<path d="M7.04078 37.7383H6.20483V38.4924H6.78113C6.86617 38.2416 6.95302 37.99 7.04078 37.7383Z" fill="#24324A"/>
<path d="M6.20483 39.3913H6.48077C6.5631 39.1397 6.64723 38.8889 6.73227 38.6372H6.20483V39.3913Z" fill="#24324A"/>
<path d="M6.20483 40.2513C6.27992 40.0132 6.35592 39.7742 6.43373 39.5352H6.20483V40.2513Z" fill="#24324A"/>
<path d="M13.9752 35.9423H7.84583C7.75174 36.194 7.65856 36.4456 7.56628 36.6964H13.6775C13.777 36.4483 13.8766 36.1967 13.9752 35.9423Z" fill="#24324A"/>
<path d="M7.51403 36.8403C7.42266 37.0919 7.33219 37.3436 7.24353 37.5944H13.3104C13.4127 37.3472 13.5158 37.0956 13.6189 36.8403H7.51403Z" fill="#24324A"/>
<path d="M13.2516 37.7383H7.1928C7.10414 37.99 7.01729 38.2416 6.93225 38.4924H12.9331C13.0381 38.2471 13.1448 37.9954 13.2516 37.7383Z" fill="#24324A"/>
<path d="M6.20483 35.049C6.20483 35.0478 6.20602 35.0466 6.20602 35.0443H6.20483V35.049Z" fill="#24324A"/>
<path d="M12.4798 39.5352H6.58567C6.50334 39.7869 6.42282 40.0386 6.34412 40.2893H12.1423C12.2509 40.0485 12.364 39.7959 12.4798 39.5352Z" fill="#24324A"/>
<path d="M12.8716 38.6372H6.88432C6.79927 38.8889 6.71514 39.1406 6.63281 39.3913H12.5432C12.6509 39.1478 12.7603 38.8952 12.8716 38.6372Z" fill="#24324A"/>
<path d="M8.03504 35.0443H6.35502C6.30345 35.2326 6.25278 35.42 6.20483 35.6046V35.7984H7.74644C7.84144 35.5476 7.93734 35.2959 8.03504 35.0443Z" fill="#24324A"/>
<path d="M13.742 42.0854C13.8442 41.86 13.9546 41.6083 14.0713 41.3313H11.8195C11.691 41.6056 11.5716 41.8582 11.4622 42.0854H13.742Z" fill="#24324A"/>
<path d="M6.58203 42.2293V42.8757H10.9192C11.006 42.7009 11.1119 42.4837 11.2349 42.2293H6.58203Z" fill="#24324A"/>
<path d="M14.4891 1.21116C14.5813 1.0102 14.6727 0.809232 14.765 0.607361L12.667 0.268799L12.5494 0.280568C12.4155 0.590163 12.2816 0.900661 12.1477 1.21116H14.4891Z" fill="#24324A"/>
<path d="M20.4582 35.0443H17.9449V35.6906H20.4582V35.0443Z" fill="#24324A"/>
<path d="M11.3943 42.2293C11.2731 42.481 11.1672 42.6973 11.0795 42.8757H13.3684C13.4543 42.7019 13.5592 42.4855 13.6769 42.2293H11.3943Z" fill="#24324A"/>
<path d="M16.2822 18.4554C16.2514 18.3305 16.2197 18.2074 16.1854 18.0879C16.1854 18.0879 16.1564 17.9548 16.1238 17.7366H15.6616C15.5756 17.9774 15.4888 18.2173 15.401 18.4554H16.2822Z" fill="#24324A"/>
<path d="M16.7321 28.0828H16.7275V28.8016H16.733C16.7375 28.5545 16.7375 28.3136 16.7321 28.0828Z" fill="#24324A"/>
<path d="M6.58203 42.0854H11.3037C11.4122 41.8591 11.5326 41.6065 11.661 41.3313H6.48523L6.56032 41.4064C6.57389 41.42 6.58113 41.4381 6.58113 41.4571V42.0854H6.58203Z" fill="#24324A"/>
<path d="M17.035 9.11404H16.6442C16.5863 9.35394 16.5248 9.59384 16.4606 9.83283H17.0341C17.0387 9.59836 17.0387 9.35937 17.035 9.11404Z" fill="#24324A"/>
<path d="M6.0611 35.4037H5.19983V41.0081H6.0611V35.4037Z" fill="#24324A"/>
<path d="M6.20483 34.9003H6.24555C6.3143 34.6523 6.38577 34.4006 6.46086 34.1462H6.20483V34.9003Z" fill="#24324A"/>
<path d="M16.1918 34.1462H14.7968C14.7072 34.3997 14.6158 34.6505 14.5236 34.9003H16.0516C16.1005 34.6523 16.1475 34.4015 16.1918 34.1462Z" fill="#24324A"/>
<path d="M9.35322 7.39046H6.02573C6.02302 7.40675 6.0194 7.42304 6.01669 7.43843C6.01307 7.64845 6.01035 7.87296 6.00854 8.10833H9.05286C9.15237 7.86934 9.2528 7.62945 9.35322 7.39046Z" fill="#24324A"/>
<path d="M6.52148 4.65932H10.5103C10.6125 4.41942 10.7148 4.18043 10.8179 3.94054H6.64996C6.60653 4.18224 6.56401 4.42214 6.52148 4.65932Z" fill="#24324A"/>
<path d="M6.052 7.24651H9.41295C9.51338 7.00662 9.6147 6.76763 9.71603 6.52774H6.18318C6.13794 6.7785 6.09452 7.01929 6.052 7.24651Z" fill="#24324A"/>
<path d="M8.99225 8.25229H6.00675C6.00494 8.48222 6.00403 8.72301 6.00403 8.97105H8.6937C8.79321 8.73116 8.89273 8.49218 8.99225 8.25229Z" fill="#24324A"/>
<path d="M6.36682 5.52202H10.143C10.2453 5.28213 10.3466 5.04313 10.4488 4.80324H6.49619C6.45186 5.04676 6.40844 5.28665 6.36682 5.52202Z" fill="#24324A"/>
<path d="M6.21021 6.3838H9.77743C9.87876 6.14391 9.98008 5.90493 10.0814 5.66504H6.34048C6.29615 5.91127 6.25273 6.15206 6.21021 6.3838Z" fill="#24324A"/>
<path d="M14.3172 35.0443H8.18875C8.09104 35.2959 7.99514 35.5476 7.90015 35.7984H14.0313C14.1272 35.5494 14.2222 35.2978 14.3172 35.0443Z" fill="#24324A"/>
<path d="M7.52844 12.4192H9.38488C9.48802 12.1793 9.59206 11.9403 9.6961 11.7004H7.77543C7.69039 11.9403 7.60806 12.1802 7.52844 12.4192Z" fill="#24324A"/>
<path d="M15.9765 29.8073H10.4108C10.3004 30.0463 10.191 30.2862 10.0824 30.5261H15.7901C15.8553 30.2853 15.9168 30.0454 15.9765 29.8073Z" fill="#24324A"/>
<path d="M7.8269 11.5573H9.75843C9.86338 11.3174 9.96832 11.0785 10.0742 10.8386H8.09198C8.00151 11.0775 7.91376 11.3174 7.8269 11.5573Z" fill="#24324A"/>
<path d="M8.4928 9.83283H10.5238C10.6315 9.59293 10.7392 9.35394 10.8477 9.11404H8.79044C8.69092 9.35394 8.59141 9.59384 8.4928 9.83283Z" fill="#24324A"/>
<path d="M10.4586 9.97679H8.4339C8.3362 10.2158 8.24121 10.4557 8.14893 10.6956H10.1384C10.2451 10.4557 10.3519 10.2158 10.4586 9.97679Z" fill="#24324A"/>
<path d="M8.84924 8.97105H10.912C11.0205 8.73116 11.13 8.49127 11.2385 8.25229H9.14779C9.04828 8.49218 8.94876 8.73116 8.84924 8.97105Z" fill="#24324A"/>
<path d="M17.0864 3.94144H13.388C13.2785 4.17861 13.1681 4.41488 13.0596 4.64934C13.0578 4.65296 13.056 4.65658 13.0551 4.6593H17.0746C17.0819 4.42393 17.0864 4.18223 17.0864 3.94144Z" fill="#24324A"/>
<path d="M13.4551 3.79748H17.0865C17.0847 3.55396 17.0784 3.31226 17.0648 3.0787H13.788C13.6767 3.3195 13.5655 3.55849 13.4551 3.79748Z" fill="#24324A"/>
<path d="M6.19388 5.66592H6.06361L6.0609 5.72929C6.0609 5.72929 6.05095 5.9719 6.03918 6.38379H6.06361C6.10613 6.15295 6.14955 5.91215 6.19388 5.66592Z" fill="#24324A"/>
<path d="M14.6447 34.1462H8.54252C8.4421 34.3979 8.34258 34.6496 8.24487 34.9003H14.3715C14.4629 34.6505 14.5542 34.3988 14.6447 34.1462Z" fill="#24324A"/>
<path d="M9.56958 7.24651H11.7001C11.8105 7.00662 11.9209 6.76673 12.0313 6.52774H9.87266C9.77133 6.76763 9.67 7.00662 9.56958 7.24651Z" fill="#24324A"/>
<path d="M10.2379 5.66592C10.1366 5.90491 10.0353 6.1448 9.93396 6.3847H12.098C12.2093 6.1448 12.3196 5.90491 12.4309 5.66592H10.2379Z" fill="#24324A"/>
<path d="M12.2556 6.3838H16.9673C16.9854 6.17922 17.0053 5.9348 17.0234 5.66504H12.5885C12.4782 5.90493 12.3669 6.14391 12.2556 6.3838Z" fill="#24324A"/>
<path d="M12.9882 4.80324C12.8769 5.04223 12.7666 5.28213 12.6553 5.52202H17.0331C17.0476 5.2957 17.0602 5.05309 17.0693 4.80324H12.9882Z" fill="#24324A"/>
<path d="M11.3047 8.10831C11.4142 7.86842 11.5245 7.62853 11.634 7.38954H9.50886C9.40843 7.62943 9.30801 7.86842 9.2085 8.10831H11.3047Z" fill="#24324A"/>
<path d="M12.9294 4.58868C13.029 4.37324 13.1294 4.15779 13.2298 3.94144H10.9735C10.8713 4.18133 10.7681 4.42031 10.6659 4.6602H12.8969C12.9077 4.63576 12.9186 4.61222 12.9294 4.58868Z" fill="#24324A"/>
<path d="M10.6043 4.80324C10.502 5.04223 10.4007 5.28213 10.2985 5.52202H12.4969C12.6082 5.28213 12.7194 5.04223 12.8298 4.80324H10.6043Z" fill="#24324A"/>
<path d="M7.27515 17.7366H6.17142C6.1289 17.9765 6.08909 18.2155 6.052 18.4554H7.04084C7.11683 18.2137 7.19554 17.9738 7.27515 17.7366Z" fill="#24324A"/>
<path d="M11.6196 2.07299C11.7227 1.83309 11.8259 1.5941 11.9299 1.3542H7.10786C7.06715 1.58776 7.02463 1.82766 6.9812 2.07299H11.6196Z" fill="#24324A"/>
<path d="M17.0051 8.25229H16.8386C16.7888 8.49218 16.7355 8.73207 16.6785 8.97105H17.0322C17.0277 8.73569 17.0186 8.4958 17.0051 8.25229Z" fill="#24324A"/>
<path d="M6.82812 2.9357H11.2485C11.3516 2.6958 11.4548 2.45681 11.5579 2.21692H6.95569C6.91317 2.45319 6.87065 2.69309 6.82812 2.9357Z" fill="#24324A"/>
<path d="M16.997 8.10829C16.987 7.94897 16.9753 7.78783 16.9617 7.62488C16.9319 7.78602 16.9011 7.94716 16.8685 8.10829H16.997Z" fill="#24324A"/>
<path d="M14.2521 2.07299H16.797L15.8507 1.3542H14.5823C14.4719 1.5941 14.3615 1.83399 14.2521 2.07299Z" fill="#24324A"/>
<path d="M6.80924 2.21692H6.204L6.17505 2.9357H6.68258C6.7242 2.6949 6.76672 2.455 6.80924 2.21692Z" fill="#24324A"/>
<path d="M14.4241 1.3542H12.0863C11.9832 1.59319 11.88 1.83218 11.776 2.07299H14.0938C14.2042 1.83399 14.3137 1.5941 14.4241 1.3542Z" fill="#24324A"/>
<path d="M6.39478 34.9003H8.09018C8.18789 34.6487 8.2865 34.397 8.38692 34.1462H6.60919C6.535 34.4015 6.46353 34.6523 6.39478 34.9003Z" fill="#24324A"/>
<path d="M6.0611 34.1462H5.19983V34.4694H6.0611V34.1462Z" fill="#24324A"/>
<path d="M6.65259 34.0023H8.4457C8.54522 33.7534 8.64655 33.5044 8.74878 33.2564H6.88057C6.80186 33.5081 6.72587 33.757 6.65259 34.0023Z" fill="#24324A"/>
<path d="M6.77488 33.1125C6.84906 32.8762 6.92596 32.6372 7.00557 32.3937H5.54358C5.5671 32.6363 5.59425 32.8771 5.62591 33.1125H6.77488Z" fill="#24324A"/>
<path d="M6.92603 33.1125H8.8078C8.90731 32.8726 9.00683 32.6336 9.10816 32.3937H7.15763C7.07711 32.6372 7.00021 32.8762 6.92603 33.1125Z" fill="#24324A"/>
<path d="M16.5248 31.5319H15.6536C15.5821 31.7709 15.5088 32.0107 15.4337 32.2506H16.4578C16.4832 32.0126 16.5049 31.7736 16.5248 31.5319Z" fill="#24324A"/>
<path d="M16.3321 33.2564H15.1053C15.0212 33.5063 14.9352 33.7552 14.8484 34.0023H16.2172C16.2579 33.757 16.2959 33.5081 16.3321 33.2564Z" fill="#24324A"/>
<path d="M16.4417 32.3937H15.3878C15.3118 32.6336 15.2331 32.8735 15.1534 33.1125H16.3531C16.3847 32.8753 16.4146 32.6354 16.4417 32.3937Z" fill="#24324A"/>
<path d="M14.954 33.2564H8.90432C8.80209 33.5054 8.70076 33.7534 8.60034 34.0023H14.6962C14.783 33.7543 14.869 33.5063 14.954 33.2564Z" fill="#24324A"/>
<path d="M5.05589 34.1462H0.38855V34.4694H5.05589V34.1462Z" fill="#24324A"/>
<path d="M15.5032 31.5319H9.63538C9.53134 31.7709 9.4273 32.0107 9.32507 32.2506H15.2825C15.3585 32.0107 15.4327 31.7709 15.5032 31.5319Z" fill="#24324A"/>
<path d="M17.0314 9.97679H16.4217C16.3556 10.2167 16.2878 10.4566 16.2163 10.6956H17.0016C17.0161 10.462 17.026 10.2221 17.0314 9.97679Z" fill="#24324A"/>
<path d="M15.2373 32.3937H9.26452C9.16319 32.6327 9.06277 32.8726 8.96326 33.1125H15.0021C15.0826 32.8735 15.1604 32.6336 15.2373 32.3937Z" fill="#24324A"/>
<path d="M16.0063 16.7316H16.0428C16.0418 16.6951 16.0418 16.6587 16.0418 16.6214C16.0309 16.6578 16.0191 16.6942 16.0063 16.7316Z" fill="#24324A"/>
<path d="M16.7275 28.9455V29.0899C16.7284 29.0418 16.7303 28.9937 16.7312 28.9455H16.7275Z" fill="#24324A"/>
<path d="M15.7133 17.5928H16.105C16.0797 17.3927 16.0552 17.1456 16.0462 16.874H15.9593C15.8788 17.1148 15.7965 17.3547 15.7133 17.5928Z" fill="#24324A"/>
<path d="M16.4587 19.3172C16.4171 19.071 16.3692 18.8302 16.3167 18.5984H15.3487C15.2591 18.8392 15.1686 19.0791 15.0773 19.3172H16.4587Z" fill="#24324A"/>
<path d="M16.7286 27.9426C16.7286 27.9341 16.7275 27.9256 16.7275 27.9172L16.7286 27.9426Z" fill="#24324A"/>
<path d="M15.0726 38.6372H13.0271C12.9158 38.8961 12.8063 39.1478 12.6996 39.3913H14.8184C14.9034 39.1487 14.9885 38.897 15.0726 38.6372Z" fill="#24324A"/>
<path d="M6.13333 34.0023H6.50336C6.57573 33.757 6.65263 33.5081 6.73134 33.2564H5.64661C5.67465 33.4492 5.70451 33.6384 5.73889 33.8231V34.0023H6.13333Z" fill="#24324A"/>
<path d="M12.3868 0.295929L7.20556 0.797443C7.18204 0.932327 7.15761 1.06993 7.13318 1.21115H11.9914C12.1235 0.90517 12.2547 0.600098 12.3868 0.295929Z" fill="#24324A"/>
<path d="M6.9611 1.3542H6.23915L6.21021 2.07299H6.83535C6.87696 1.83037 6.91949 1.59048 6.9611 1.3542Z" fill="#24324A"/>
<path d="M7.05252 0.836395L6.41199 1.21028H6.98737C7.00909 1.08444 7.0308 0.960418 7.05252 0.836395Z" fill="#24324A"/>
<path d="M15.3793 42.8756V38.1384C14.698 40.3644 13.9354 42.0455 13.5273 42.8756H15.3793Z" fill="#24324A"/>
<path d="M6.26185 41.3105L6.10353 41.1511H0.38855V41.439H6.39032L6.26185 41.3105Z" fill="#24324A"/>
<path d="M6.43827 41.5829H0.38855V42.8765H6.43827V41.5829Z" fill="#24324A"/>
<path d="M20.4582 34.5409H17.9449V34.9003H20.4582V34.5409Z" fill="#24324A"/>
<path d="M16.0299 35.6906H17.8013V35.0443H16.1683C16.124 35.2624 16.0779 35.4779 16.0299 35.6906Z" fill="#24324A"/>
<path d="M15.9974 35.8327C15.9946 35.8436 15.9928 35.8545 15.9901 35.8653C15.9901 35.8671 15.991 35.8689 15.991 35.8708C15.991 35.8834 15.9865 35.8952 15.9802 35.9061C15.8381 36.5189 15.6834 37.1055 15.5215 37.6614C15.5215 37.6632 15.5224 37.665 15.5224 37.6668V42.8756H17.8004V35.8345H16.0055C16.0028 35.8345 16.001 35.8336 15.9974 35.8327Z" fill="#24324A"/>
<path d="M13.7745 36.8403C13.6714 37.0956 13.5691 37.3472 13.4669 37.5944H15.393C15.4645 37.349 15.5342 37.0974 15.602 36.8403H13.7745Z" fill="#24324A"/>
<path d="M14.7679 39.5352H12.6364C12.5206 39.7959 12.4084 40.0485 12.299 40.2893H14.4892C14.5815 40.0494 14.6747 39.7977 14.7679 39.5352Z" fill="#24324A"/>
<path d="M14.4348 40.4333H12.2337C12.1134 40.6985 11.9967 40.9511 11.8872 41.1873H14.1327C14.2295 40.952 14.3308 40.7003 14.4348 40.4333Z" fill="#24324A"/>
<path d="M7.20471 32.2506H9.16971C9.27194 32.0107 9.37508 31.7718 9.47912 31.5319H7.44717C7.36394 31.7745 7.28342 32.0144 7.20471 32.2506Z" fill="#24324A"/>
<path d="M15.6607 1.21117L14.908 0.639954C14.8212 0.830962 14.7343 1.02106 14.6475 1.21117H15.6607Z" fill="#24324A"/>
<path d="M6.0611 34.6134H5.19983V35.2597H6.0611V34.6134Z" fill="#24324A"/>
<path d="M11.7289 41.1873C11.8393 40.9511 11.9551 40.6985 12.0763 40.4333H6.29802C6.26726 40.5328 6.23559 40.6324 6.20483 40.732V41.0506L6.34235 41.1882H11.7289V41.1873Z" fill="#24324A"/>
<path d="M16.0218 35.0443H14.4702C14.3761 35.2978 14.2802 35.5494 14.1843 35.7984H15.8589C15.915 35.5512 15.9702 35.2996 16.0218 35.0443Z" fill="#24324A"/>
<path d="M16.197 34.9003H17.802V34.5409H16.2667C16.2432 34.6622 16.2205 34.7817 16.197 34.9003Z" fill="#24324A"/>
<path d="M15.1186 38.4951C15.1974 38.2498 15.2743 37.9981 15.3512 37.7383H13.407C13.3002 37.9954 13.1944 38.2471 13.0885 38.4924H15.1087C15.1123 38.4933 15.115 38.4942 15.1186 38.4951Z" fill="#24324A"/>
<path d="M15.8253 35.9423H14.129C14.0304 36.1967 13.9309 36.4483 13.8323 36.6964H15.6399C15.7032 36.4501 15.7647 36.1985 15.8253 35.9423Z" fill="#24324A"/>
<path d="M5.05589 34.6134H0.38855V35.2597H5.05589V34.6134Z" fill="#24324A"/>
<path d="M14.9234 19.3172C15.0139 19.0791 15.1052 18.8402 15.1948 18.5984H13.1067C12.9982 18.8383 12.8896 19.0782 12.7802 19.3172H14.9234Z" fill="#24324A"/>
<path d="M16.5798 30.6691H15.8995C15.8343 30.9081 15.7665 31.1471 15.6959 31.3879H16.5364C16.5536 31.1498 16.568 30.9108 16.5798 30.6691Z" fill="#24324A"/>
<path d="M16.5846 27.556C16.5647 27.6828 16.5439 27.8105 16.5212 27.9392H16.5846V27.556Z" fill="#24324A"/>
<path d="M16.3546 28.8016H16.5844V28.0828H16.4957C16.4532 28.32 16.4053 28.5599 16.3546 28.8016Z" fill="#24324A"/>
<path d="M16.5846 28.9455H16.3241C16.2725 29.1827 16.2173 29.4226 16.1594 29.6643H16.5846V28.9455Z" fill="#24324A"/>
<path d="M7.8053 30.5261H9.92501C10.0336 30.2862 10.1421 30.0463 10.2525 29.8073H8.08033C7.98624 30.0463 7.89486 30.2862 7.8053 30.5261Z" fill="#24324A"/>
<path d="M7.05338 32.2506C7.13118 32.0153 7.2117 31.7754 7.29493 31.5319H5.47559C5.49006 31.7727 5.50816 32.0126 5.52897 32.2506H7.05338Z" fill="#24324A"/>
<path d="M9.61484 31.2205C9.69536 31.0367 9.77769 30.8529 9.86002 30.6701H7.75298C7.67518 30.8819 7.59827 31.0946 7.52499 31.3074C7.51504 31.3345 7.5069 31.3617 7.49695 31.3888H9.54247C9.56599 31.3318 9.59042 31.2757 9.61484 31.2205Z" fill="#24324A"/>
<path d="M15.5604 17.5928C15.6446 17.3547 15.7269 17.1148 15.8074 16.874H13.8759C13.771 17.1139 13.6651 17.3538 13.5583 17.5928H15.5604Z" fill="#24324A"/>
<path d="M15.2482 18.4554C15.3359 18.2173 15.4237 17.9783 15.5096 17.7366H13.4949C13.3881 17.9765 13.2795 18.2164 13.1719 18.4554H15.2482Z" fill="#24324A"/>
<path d="M12.5323 19.8604C12.4844 19.9654 12.4355 20.0722 12.3876 20.179H14.5914C14.6837 19.9419 14.776 19.702 14.8692 19.4603H12.716C12.6545 19.5942 12.5929 19.7273 12.5323 19.8604Z" fill="#24324A"/>
<path d="M15.0221 19.4612C14.9298 19.7029 14.8367 19.9428 14.7444 20.1799H16.5827C16.5538 19.9364 16.5203 19.6965 16.4823 19.4612H15.0221Z" fill="#24324A"/>
<path d="M8.7516 14.2876C8.65299 14.5266 8.55437 14.7665 8.45667 15.0064H14.5145C14.6131 14.7674 14.709 14.5275 14.804 14.2876H8.7516Z" fill="#24324A"/>
<path d="M16.923 11.7013H15.9016C15.8229 11.9412 15.7406 12.1811 15.6573 12.4201H16.838C16.8696 12.191 16.8977 11.9512 16.923 11.7013Z" fill="#24324A"/>
<path d="M13.9392 16.7309H15.8554C15.9296 16.5055 16.0019 16.2783 16.0725 16.0511C16.0743 16.0384 16.0752 16.0257 16.0761 16.013H14.2486C14.1473 16.252 14.0432 16.4919 13.9392 16.7309Z" fill="#24324A"/>
<path d="M15.0156 14.1436H16.531C16.5789 13.9282 16.6287 13.6874 16.6776 13.4249H15.2916C15.202 13.6657 15.1097 13.9047 15.0156 14.1436Z" fill="#24324A"/>
<path d="M15.6066 12.5631C15.5215 12.803 15.4347 13.0429 15.3451 13.2819H16.703C16.7428 13.0574 16.7818 12.8175 16.817 12.5631H15.6066Z" fill="#24324A"/>
<path d="M14.67 15.0064H16.3148C16.3673 14.8226 16.4306 14.5809 16.4984 14.2876H14.9586C14.8646 14.5275 14.7678 14.7674 14.67 15.0064Z" fill="#24324A"/>
<path d="M5.4332 30.5261H7.65242C7.74108 30.2862 7.83246 30.0463 7.92564 29.8073H5.42053C5.42234 30.0445 5.42596 30.2844 5.4332 30.5261Z" fill="#24324A"/>
<path d="M14.3102 15.8682H16.0952C16.1169 15.7197 16.1467 15.5722 16.1856 15.4291C16.1856 15.4291 16.2191 15.3323 16.2734 15.1494H14.6105C14.5119 15.3902 14.4124 15.6292 14.3102 15.8682Z" fill="#24324A"/>
<path d="M7.97722 15.8166C8.06497 15.5948 8.15454 15.3721 8.2441 15.1503H6.72692C6.66631 15.3902 6.60841 15.6292 6.55322 15.8691H7.95641C7.96365 15.851 7.96998 15.8338 7.97722 15.8166Z" fill="#24324A"/>
<path d="M6.76404 15.0064H8.30202C8.39882 14.7665 8.49743 14.5275 8.59605 14.2876H6.95583C6.88979 14.5275 6.82556 14.7665 6.76404 15.0064Z" fill="#24324A"/>
<path d="M7.48065 12.5631C7.40194 12.8021 7.32504 13.042 7.25085 13.2819H9.01682C9.11814 13.042 9.22038 12.803 9.32261 12.5631H7.48065Z" fill="#24324A"/>
<path d="M15.7502 11.7013H9.85338C9.74934 11.9403 9.6453 12.1802 9.54126 12.4201H15.505C15.5883 12.1802 15.6706 11.9412 15.7502 11.7013Z" fill="#24324A"/>
<path d="M7.20713 13.4258C7.13476 13.6648 7.06419 13.9047 6.99634 14.1446H8.65556C8.75508 13.9047 8.8555 13.6657 8.95592 13.4258H7.20713Z" fill="#24324A"/>
<path d="M15.7505 30.6691H10.0175C9.9261 30.8719 9.83563 31.0747 9.74607 31.2775C9.72978 31.3137 9.7144 31.3508 9.69812 31.387H15.5461C15.6176 31.148 15.6854 30.9081 15.7505 30.6691Z" fill="#24324A"/>
<path d="M7.99432 10.6956C8.0866 10.4557 8.1816 10.2158 8.27931 9.97679H6.01123C6.01394 10.2131 6.01846 10.4539 6.0248 10.6956H7.99432Z" fill="#24324A"/>
<path d="M7.67511 11.5573C7.76106 11.3174 7.84882 11.0775 7.94019 10.8386H6.02856C6.0349 11.0775 6.04214 11.3174 6.05209 11.5573H7.67511Z" fill="#24324A"/>
<path d="M6.00953 9.83283H8.33731C8.43592 9.59384 8.53544 9.35394 8.63496 9.11404H6.005C6.005 9.34851 6.00681 9.58841 6.00953 9.83283Z" fill="#24324A"/>
<path d="M6.09168 12.4192H7.37635C7.45596 12.1793 7.53829 11.9403 7.62243 11.7004H6.0564C6.06635 11.9421 6.07811 12.182 6.09168 12.4192Z" fill="#24324A"/>
<path d="M16.9943 10.8386H16.1738C16.1014 11.0785 16.0254 11.3183 15.9485 11.5573H16.9373C16.959 11.3256 16.9789 11.0866 16.9943 10.8386Z" fill="#24324A"/>
<path d="M6.34853 4.80324H6.09792L6.06897 5.52202H6.21916C6.26168 5.28756 6.3051 5.04766 6.34853 4.80324Z" fill="#24324A"/>
<path d="M6.84733 14.1436C6.91519 13.9037 6.98575 13.6648 7.05813 13.4249H6.16248C6.18328 13.672 6.20771 13.9119 6.23394 14.1436H6.84733Z" fill="#24324A"/>
<path d="M7.10045 13.2819C7.17373 13.042 7.25063 12.803 7.32934 12.5631H6.09985C6.11433 12.8066 6.13152 13.0465 6.15052 13.2819H7.10045Z" fill="#24324A"/>
<path d="M7.3446 31.3879C7.35908 31.3445 7.37355 31.3028 7.38893 31.2594C7.45679 31.062 7.52826 30.8656 7.59973 30.6691H5.4375C5.44474 30.9081 5.45469 31.148 5.46826 31.3879H7.3446Z" fill="#24324A"/>
<path d="M6.47072 15.5903C6.506 15.4436 6.54129 15.297 6.57838 15.1494H6.38025C6.4083 15.3042 6.43815 15.4518 6.47072 15.5903Z" fill="#24324A"/>
<path d="M6.35502 15.0064H6.61557C6.67709 14.7665 6.74042 14.5275 6.80737 14.2876H6.25098C6.28174 14.5393 6.31612 14.7801 6.35502 15.0064Z" fill="#24324A"/>
<path d="M6.5033 3.94144H6.13418L6.10522 4.6602H6.37573C6.41735 4.42302 6.45987 4.18314 6.5033 3.94144Z" fill="#24324A"/>
<path d="M6.03564 6.52774C6.03564 6.53155 6.03564 6.53535 6.03564 6.53916C6.0366 6.53535 6.03755 6.53155 6.03755 6.52774H6.03564Z" fill="#24324A"/>
<path d="M16.4967 9.11404H11.0052C10.8966 9.35304 10.7889 9.59293 10.6813 9.83283H16.3121C16.3763 9.59384 16.4379 9.35485 16.4967 9.11404Z" fill="#24324A"/>
<path d="M16.692 8.25229H11.3968C11.2873 8.49127 11.1788 8.73116 11.0702 8.97105H16.5319C16.5879 8.73207 16.6413 8.49218 16.692 8.25229Z" fill="#24324A"/>
<path d="M16.7221 8.10831C16.7709 7.86933 16.8162 7.62943 16.8578 7.38954H11.7915C11.6811 7.62853 11.5716 7.86842 11.4622 8.10831H16.7221Z" fill="#24324A"/>
<path d="M16.2732 9.97679H10.6162C10.5085 10.2158 10.4017 10.4557 10.2959 10.6956H16.067C16.1384 10.4566 16.2072 10.2167 16.2732 9.97679Z" fill="#24324A"/>
<path d="M16.0237 10.8386H10.2318C10.126 11.0775 10.0201 11.3174 9.91516 11.5573H15.7966C15.8753 11.3183 15.9504 11.0785 16.0237 10.8386Z" fill="#24324A"/>
<path d="M13.6297 3.0787H11.3435C11.2404 3.31769 11.1382 3.55758 11.035 3.79748H13.2968C13.4072 3.55849 13.5184 3.3195 13.6297 3.0787Z" fill="#24324A"/>
<path d="M6.67529 3.79748H10.8785C10.9808 3.55758 11.0839 3.31769 11.1861 3.0787H6.80195C6.76034 3.31769 6.71781 3.55758 6.67529 3.79748Z" fill="#24324A"/>
<path d="M6.65635 3.0787H6.16872L6.13977 3.79748H6.52879C6.57131 3.55849 6.61383 3.3186 6.65635 3.0787Z" fill="#24324A"/>
<path d="M13.8541 2.9357H17.0559C17.0387 2.68132 17.0124 2.43961 16.9771 2.21692H14.1861C14.0749 2.45681 13.9645 2.69671 13.8541 2.9357Z" fill="#24324A"/>
<path d="M11.405 2.9357H13.6957C13.8061 2.69671 13.9165 2.45681 14.0278 2.21692H11.7135C11.6104 2.45591 11.5082 2.6958 11.405 2.9357Z" fill="#24324A"/>
<path d="M12.1895 6.52774C12.0791 6.76673 11.9688 7.00662 11.8584 7.24651H16.8831C16.8921 7.19129 16.9012 7.13698 16.9102 7.08176C16.9084 7.06184 16.9057 7.04283 16.9039 7.02292C16.9039 7.02292 16.9256 6.83553 16.9546 6.52774H12.1895Z" fill="#24324A"/>
<path d="M5.05589 35.4037H0.38855V41.0081H5.05589V35.4037ZM1.42352 40.6487H1.06888V36.0745H1.42352V40.6487ZM2.02877 40.6487H1.67413V36.0745H2.02877V40.6487ZM2.63311 40.6487H2.27847V36.0745H2.63311V40.6487ZM3.23835 40.6487H2.88371V36.0745H3.23835V40.6487ZM3.84269 40.6487H3.48805V36.0745H3.84269V40.6487ZM4.44793 40.6487H4.09329V36.0745H4.44793V40.6487Z" fill="#24324A"/>
<path d="M17.9449 42.8757H20.4582V35.8346H17.9449V42.8757ZM19.5969 36.8403H19.9515V41.4146H19.5969V36.8403ZM18.9917 36.8403H19.3463V41.4146H18.9917V36.8403ZM18.3873 36.8403H18.742V41.4146H18.3873V36.8403Z" fill="#24324A"/>
</svg>
