<svg width="40" height="69" viewBox="0 0 40 69" fill="none" xmlns="http://www.w3.org/2000/svg">
<path d="M11.8489 17.4298C11.7277 17.7901 11.6028 18.192 11.4735 18.632C10.7018 21.6682 10.0088 24.5415 9.46955 26.8364C6.32843 41.2806 2.46534 64.6399 1.84381 68.4284H2.48435C3.19544 63.8949 8.5938 29.9269 12.4107 18.5867L11.8489 17.4298Z" fill="#24324A"/>
<path d="M11.9286 31.0024L2.99829 68.4293H4.82849L5.50249 65.4673H13.9804C13.9795 65.6348 13.9786 65.7959 13.9768 65.9516H5.39121L4.82759 68.4293H13.9515H14.8363V54.6685C14.7811 45.2538 13.9668 39.2637 13.2938 35.8953C12.722 33.0238 12.1502 31.5202 11.9286 31.0024ZM13.9677 67.1484C13.9687 67.0416 13.9696 66.9293 13.9705 66.8125C13.9705 66.9293 13.9687 67.0416 13.9677 67.1484ZM11.4744 39.2103H13.1969C13.2178 39.3669 13.2386 39.529 13.2585 39.6947H11.364L11.4744 39.2103ZM13.9849 64.9015H5.63188L5.74225 64.4172H13.9877C13.9867 64.582 13.9858 64.744 13.9849 64.9015ZM13.9904 63.8505H5.87071L6.07245 62.9643L5.98108 63.3653H13.9922C13.9913 63.531 13.9904 63.6921 13.9904 63.8505ZM13.9931 62.8004H6.10956L6.21993 62.3161H13.994C13.994 62.48 13.9931 62.6411 13.9931 62.8004ZM13.994 62.3089C13.994 62.1278 13.994 61.9432 13.9949 61.7567C13.994 61.9432 13.994 62.1278 13.994 62.3089ZM13.9949 61.7504H6.34839L6.25067 62.1803L6.45876 61.2651H13.9949C13.9949 61.429 13.9949 61.5901 13.9949 61.7504ZM13.994 60.7003H6.58722L6.5248 60.9736L6.69761 60.215H13.9931C13.9931 60.3789 13.994 60.54 13.994 60.7003ZM13.9913 59.6501H6.82607L6.96268 59.0509L6.93644 59.1658H13.9895C13.9904 59.3279 13.9913 59.489 13.9913 59.6501ZM13.9867 58.6H7.0649L7.26305 57.7283L7.17527 58.1157H13.984C13.9849 58.2778 13.9858 58.4389 13.9867 58.6ZM13.9804 57.549H7.30375L7.41413 57.0647H13.9768C13.9777 57.2268 13.9795 57.3888 13.9804 57.549ZM13.9714 56.499H7.54259L7.41594 57.0548L7.65296 56.0137H13.9668C13.9687 56.1767 13.9705 56.3378 13.9714 56.499ZM13.9605 55.4489H7.78144L7.719 55.7231L7.89181 54.9645H13.9551C13.9569 55.1257 13.9587 55.2877 13.9605 55.4489ZM13.9469 54.3987H8.02027L8.16593 53.7596L8.13064 53.9135H13.9397C13.9424 54.0756 13.9442 54.2367 13.9469 54.3987ZM13.9307 53.3486H8.25912L8.46628 52.4371L8.36949 52.8634H13.9225C13.9252 53.0255 13.928 53.1866 13.9307 53.3486ZM13.8891 51.2475H8.73678L8.60832 51.8133H13.9017C13.9053 51.9745 13.9081 52.1365 13.9117 52.2976H8.49886L8.84806 50.7623H13.8782C13.8809 50.9244 13.8854 51.0855 13.8891 51.2475ZM13.8637 50.1975H8.97563L8.90688 50.5007L9.086 49.7131H13.8501C13.8547 49.8743 13.8592 50.0354 13.8637 50.1975ZM13.8339 49.1473H9.21446L9.19185 49.2478L9.36916 48.4684L9.32484 48.6621H13.8194C13.8248 48.8233 13.8293 48.9853 13.8339 49.1473ZM13.8004 48.0972H9.45332L9.66953 47.1467L9.56369 47.6129H13.7832C13.7895 47.7732 13.795 47.9343 13.8004 48.0972ZM13.7181 45.9961H9.931L9.80252 46.5619H13.7425C13.7488 46.7222 13.756 46.8842 13.7624 47.0462H9.69215L10.0414 45.5109H13.6954C13.7036 45.6721 13.7108 45.8341 13.7181 45.9961ZM13.6674 44.9461H10.1698L10.2802 44.4617H13.6421C13.6511 44.622 13.6592 44.7831 13.6674 44.9461ZM13.6095 43.8959H10.4087L10.5191 43.4116H13.5805C13.5905 43.571 13.6004 43.7321 13.6095 43.8959ZM13.5425 42.8459H10.6475L10.7579 42.3615H13.5082C13.5199 42.5209 13.5317 42.682 13.5425 42.8459ZM13.3715 40.7447H11.1252L10.9967 41.3105H13.424C13.4376 41.4699 13.4512 41.631 13.4647 41.7948H10.8863L11.2356 40.2595H13.3227C13.339 40.418 13.3553 40.58 13.3715 40.7447Z" fill="#24324A"/>
<path d="M7.65284 31.0232L0.951782 68.4293H1.68004C2.22105 65.1315 5.34859 46.2089 8.25086 31.8714L7.65284 31.0232Z" fill="#24324A"/>
<path d="M14.6426 17.132L12.2081 31.263C12.3854 31.7238 12.6496 32.4924 12.9445 33.6276L14.8399 22.3381C14.8471 22.2974 14.8824 22.2684 14.924 22.2711C14.9656 22.2738 14.9982 22.3064 15 22.3481C15.0063 22.4902 15.6478 36.6801 15.8079 46.3718V68.4284H16.1842V50.574C16.3941 39.5597 15.3266 18.8583 15.2841 18.0436L14.6426 17.132Z" fill="#24324A"/>
<path d="M14.9483 51.4231H15.6458V51.0999H14.9401C14.9428 51.2068 14.9456 51.3145 14.9483 51.4231Z" fill="#24324A"/>
<path d="M14.9845 53.2002H15.6458V52.877H14.98C14.9818 52.9838 14.9827 53.0924 14.9845 53.2002Z" fill="#24324A"/>
<path d="M14.9692 52.3112H15.6459V51.988H14.962C14.9647 52.0957 14.9674 52.2035 14.9692 52.3112Z" fill="#24324A"/>
<path d="M15.6459 55.0985H14.9999V55.4216H15.6459V55.0985Z" fill="#24324A"/>
<path d="M14.5485 43.9901C14.5702 44.2418 14.5911 44.497 14.611 44.7578H15.6152C15.6097 44.5043 15.6043 44.2481 15.5989 43.9901H14.5485Z" fill="#24324A"/>
<path d="M15.6331 45.6467C15.6313 45.5399 15.6295 45.4313 15.6268 45.3235H14.6533C14.6615 45.4304 14.6687 45.5381 14.6768 45.6467H15.6331Z" fill="#24324A"/>
<path d="M14.8335 48.3127H15.6459V47.9895H14.8181C14.8235 48.0963 14.829 48.204 14.8335 48.3127Z" fill="#24324A"/>
<path d="M14.923 50.5342H15.6458V50.211H14.9121C14.9157 50.3178 14.9194 50.4255 14.923 50.5342Z" fill="#24324A"/>
<path d="M14.8913 49.6452H15.6459V48.8775H14.8597C14.8714 49.1301 14.8814 49.3863 14.8913 49.6452Z" fill="#24324A"/>
<path d="M14.9991 54.5336H15.6459V53.7659H14.9918C14.9954 54.0185 14.9973 54.2747 14.9991 54.5336Z" fill="#24324A"/>
<path d="M15.6459 61.7639H14.9999V62.0871H15.6459V61.7639Z" fill="#24324A"/>
<path d="M15.6459 62.6529H14.9999V62.9761H15.6459V62.6529Z" fill="#24324A"/>
<path d="M15.6459 60.875H14.9999V61.1981H15.6459V60.875Z" fill="#24324A"/>
<path d="M14.5222 25.2069H14.9618C14.9248 24.3234 14.894 23.61 14.8723 23.1194L14.5222 25.2069Z" fill="#24324A"/>
<path d="M14.7148 46.2116C14.7221 46.3184 14.7284 46.4261 14.7356 46.5347H15.6457V46.3736C15.6448 46.3202 15.6439 46.2659 15.643 46.2125H14.7148V46.2116Z" fill="#24324A"/>
<path d="M15.6459 55.9875H14.9999V56.3106H15.6459V55.9875Z" fill="#24324A"/>
<path d="M15.6459 59.9869H14.9999V60.3101H15.6459V59.9869Z" fill="#24324A"/>
<path d="M15.6459 56.8764H14.9999V57.1995H15.6459V56.8764Z" fill="#24324A"/>
<path d="M15.6459 57.7645H14.9999V58.0876H15.6459V57.7645Z" fill="#24324A"/>
<path d="M15.6459 58.6534H14.9999V59.4211H15.6459V58.6534Z" fill="#24324A"/>
<path d="M14.7882 47.4238H15.6459V47.1006H14.7701C14.7756 47.2074 14.7819 47.3152 14.7882 47.4238Z" fill="#24324A"/>
<path d="M13.1046 33.6493H15.2904C15.2868 33.5416 15.2822 33.4339 15.2786 33.3262H13.1589L13.1046 33.6493Z" fill="#24324A"/>
<path d="M13.5524 30.9833H15.1926C15.1881 30.8747 15.1845 30.767 15.1799 30.6602H13.6067L13.5524 30.9833Z" fill="#24324A"/>
<path d="M13.9251 28.7609H15.1067C15.1021 28.6523 15.0985 28.5446 15.094 28.4378H13.9794L13.9251 28.7609Z" fill="#24324A"/>
<path d="M13.2538 32.7603H15.2577C15.2541 32.6517 15.2496 32.5449 15.246 32.4372H13.3081L13.2538 32.7603Z" fill="#24324A"/>
<path d="M13.4031 31.8714H15.2252C15.2216 31.7637 15.217 31.6551 15.2134 31.5482H13.4574L13.4031 31.8714Z" fill="#24324A"/>
<path d="M13.7017 30.0944H15.1582C15.1483 29.8346 15.1383 29.5784 15.1284 29.3267H13.8301L13.7017 30.0944Z" fill="#24324A"/>
<path d="M14.0743 27.8729H15.0713C15.0668 27.7642 15.0623 27.6565 15.0587 27.5497H14.1286L14.0743 27.8729Z" fill="#24324A"/>
<path d="M15.6459 63.5409H14.9999V68.4284H15.6459V63.5409Z" fill="#24324A"/>
<path d="M14.373 26.095H14.9991C14.9946 25.9854 14.99 25.8777 14.9855 25.7718H14.4273L14.373 26.095Z" fill="#24324A"/>
<path d="M14.2237 26.9839H15.0352C15.0307 26.8744 15.0261 26.7666 15.0216 26.6607H14.2771L14.2237 26.9839Z" fill="#24324A"/>
<path d="M13.3895 35.5477C13.4103 35.6463 13.4302 35.7459 13.451 35.8482C13.4529 35.8554 13.4538 35.8636 13.4556 35.8708H15.3672C15.3636 35.7631 15.36 35.6554 15.3564 35.5477H13.3895Z" fill="#24324A"/>
<path d="M13.2683 34.9819H15.3365C15.3274 34.7248 15.3184 34.4686 15.3103 34.2142H13.0919C13.1498 34.4559 13.2095 34.7121 13.2683 34.9819Z" fill="#24324A"/>
<path d="M14.2852 41.3241C14.297 41.4309 14.3096 41.5386 14.3214 41.6473H15.5427C15.54 41.5395 15.5373 41.4318 15.5337 41.3241H14.2852Z" fill="#24324A"/>
<path d="M14.1794 40.4351C14.193 40.542 14.2056 40.6497 14.2192 40.7583H15.5183C15.5156 40.6506 15.512 40.5429 15.5093 40.4351H14.1794Z" fill="#24324A"/>
<path d="M14.3812 42.213C14.392 42.3199 14.4029 42.4276 14.4137 42.5362H15.5645C15.5618 42.4285 15.5591 42.3208 15.5563 42.213H14.3812Z" fill="#24324A"/>
<path d="M14.0012 39.1026C14.0364 39.3507 14.0717 39.6068 14.1061 39.8703H15.4921C15.4849 39.615 15.4767 39.3588 15.4695 39.1026H14.0012Z" fill="#24324A"/>
<path d="M14.4688 43.1012C14.4788 43.208 14.4887 43.3157 14.4987 43.4243H15.5861C15.5834 43.3166 15.5807 43.2089 15.5789 43.1012H14.4688Z" fill="#24324A"/>
<path d="M13.5649 36.4366C13.5848 36.5425 13.6047 36.6503 13.6246 36.7598H15.397C15.3934 36.6521 15.3897 36.5443 15.3861 36.4366H13.5649Z" fill="#24324A"/>
<path d="M13.869 38.2137C13.8852 38.3196 13.9024 38.4273 13.9187 38.5368H15.4531C15.4495 38.4291 15.4467 38.3214 15.4431 38.2137H13.869Z" fill="#24324A"/>
<path d="M13.7243 37.3247C13.7424 37.4306 13.7605 37.5383 13.7786 37.6479H15.4251C15.4215 37.5401 15.4179 37.4324 15.4152 37.3247H13.7243Z" fill="#24324A"/>
<path d="M7.49724 48.8775H5.93573C5.88959 49.1346 5.84436 49.3899 5.79822 49.6452H7.31359L7.49724 48.8775Z" fill="#24324A"/>
<path d="M7.1797 50.211H5.69873C5.67973 50.3187 5.66072 50.4265 5.64172 50.5342H7.10281L7.1797 50.211Z" fill="#24324A"/>
<path d="M7.70983 47.9895H6.09585C6.07686 48.0972 6.05696 48.2049 6.03796 48.3127H7.63293L7.70983 47.9895Z" fill="#24324A"/>
<path d="M6.96706 51.0999H5.54126C5.52226 51.2077 5.50325 51.3154 5.48425 51.4231H6.89016L6.96706 51.0999Z" fill="#24324A"/>
<path d="M6.75538 51.988H5.38477C5.36577 52.0957 5.34676 52.2035 5.32776 52.3112H6.67757L6.75538 51.988Z" fill="#24324A"/>
<path d="M8.34586 45.3235H6.5817C6.56179 45.4313 6.54188 45.539 6.52197 45.6467H8.26895L8.34586 45.3235Z" fill="#24324A"/>
<path d="M8.13417 46.2116H6.41886C6.39896 46.3193 6.37905 46.427 6.36005 46.5347H8.05726L8.13417 46.2116Z" fill="#24324A"/>
<path d="M6.54366 52.877H5.23003C5.21103 52.9847 5.19204 53.0924 5.17395 53.2002H6.46677L6.54366 52.877Z" fill="#24324A"/>
<path d="M7.92148 47.1006H6.25686C6.23695 47.2083 6.21796 47.3161 6.19806 47.4238H7.8446L7.92148 47.1006Z" fill="#24324A"/>
<path d="M5.58927 56.8764H4.54165C4.52355 56.9841 4.50454 57.0927 4.48645 57.1995H5.51236L5.58927 56.8764Z" fill="#24324A"/>
<path d="M4.6348 60.875H3.86943C3.85133 60.9836 3.83323 61.0913 3.81604 61.1981H4.55789L4.6348 60.875Z" fill="#24324A"/>
<path d="M4.84738 59.9869H4.01779C3.9997 60.0955 3.98159 60.2033 3.9635 60.3101H4.76959L4.84738 59.9869Z" fill="#24324A"/>
<path d="M5.16495 58.6534H4.24034C4.19691 58.9123 4.15349 59.1685 4.11188 59.4211H4.9822L5.16495 58.6534Z" fill="#24324A"/>
<path d="M4.42305 61.7639H3.72282C3.70472 61.8726 3.68753 61.9803 3.66943 62.0871H4.34616L4.42305 61.7639Z" fill="#24324A"/>
<path d="M6.33106 53.7659H5.07531C5.03098 54.0239 4.98665 54.2792 4.94232 54.5336H6.1483L6.33106 53.7659Z" fill="#24324A"/>
<path d="M3.52289 62.9761H4.13357L4.21048 62.6529H3.57537C3.55818 62.7615 3.54098 62.8692 3.52289 62.9761Z" fill="#24324A"/>
<path d="M5.37756 57.7645H4.39053C4.37244 57.8731 4.35434 57.9808 4.33624 58.0876H5.30065L5.37756 57.7645Z" fill="#24324A"/>
<path d="M6.01355 55.0985H4.84558C4.82658 55.2062 4.8085 55.3148 4.79041 55.4216H5.93665L6.01355 55.0985Z" fill="#24324A"/>
<path d="M5.80091 55.9875H4.69269C4.67459 56.0952 4.65561 56.2038 4.63751 56.3106H5.72403L5.80091 55.9875Z" fill="#24324A"/>
<path d="M8.66342 43.9901H6.82777C6.77983 44.2463 6.73277 44.5025 6.68573 44.7578H8.48067L8.66342 43.9901Z" fill="#24324A"/>
<path d="M12.531 28.4378H9.97526C9.95084 28.5455 9.9264 28.6523 9.90198 28.7609H12.4749L12.531 28.4378Z" fill="#24324A"/>
<path d="M11.8262 30.7353C11.8344 30.7027 11.8615 30.6783 11.895 30.6737C11.9285 30.6701 11.961 30.6873 11.9764 30.7172C11.9782 30.7208 12.0207 30.805 12.0931 30.9779L12.1474 30.6602H9.48305C9.45953 30.7679 9.43601 30.8756 9.41339 30.9833H11.7665L11.8262 30.7353Z" fill="#24324A"/>
<path d="M12.378 29.3267H9.77707C9.72098 29.5811 9.664 29.8364 9.60791 30.0944H12.2468L12.378 29.3267Z" fill="#24324A"/>
<path d="M11.6326 31.5482H9.29306C9.27044 31.656 9.24692 31.7637 9.2243 31.8714H11.5557L11.6326 31.5482Z" fill="#24324A"/>
<path d="M17.2598 62.6529H16.3452V62.9761H17.2598V62.6529Z" fill="#24324A"/>
<path d="M12.8367 26.6607H10.3841C10.3588 26.7684 10.3334 26.8753 10.3081 26.9839H12.7806L12.8367 26.6607Z" fill="#24324A"/>
<path d="M12.6838 27.5497H10.1778C10.1533 27.6574 10.128 27.7642 10.1036 27.8729H12.6277L12.6838 27.5497Z" fill="#24324A"/>
<path d="M11.4199 32.4372H9.10301C9.08039 32.5449 9.05777 32.6526 9.03516 32.7603H11.343L11.4199 32.4372Z" fill="#24324A"/>
<path d="M8.87604 43.1012H6.99426C6.97436 43.2089 6.95356 43.3166 6.93365 43.4243H8.79916L8.87604 43.1012Z" fill="#24324A"/>
<path d="M12.9905 25.7718H10.5957C10.5704 25.8786 10.5442 25.9863 10.5189 26.095H12.9353L12.9905 25.7718Z" fill="#24324A"/>
<path d="M10.0421 38.2137H7.93051C7.9097 38.3214 7.888 38.4291 7.86719 38.5368H9.96518L10.0421 38.2137Z" fill="#24324A"/>
<path d="M9.5121 40.4351H7.49914C7.47833 40.5429 7.45753 40.6506 7.43762 40.7583H9.43521L9.5121 40.4351Z" fill="#24324A"/>
<path d="M9.83046 39.1026H7.7569C7.70714 39.3579 7.65737 39.6141 7.60852 39.8703H9.64771L9.83046 39.1026Z" fill="#24324A"/>
<path d="M9.08766 42.213H7.16064C7.14074 42.3208 7.11994 42.4285 7.10004 42.5362H9.01075L9.08766 42.213Z" fill="#24324A"/>
<path d="M10.9967 34.2142H8.73404C8.68157 34.4686 8.62907 34.7248 8.5766 34.9819H10.8131L10.9967 34.2142Z" fill="#24324A"/>
<path d="M11.2084 33.3262H8.91771C8.8951 33.4339 8.87339 33.5416 8.85077 33.6493H11.1315L11.2084 33.3262Z" fill="#24324A"/>
<path d="M10.2539 37.3247H8.10525C8.08353 37.4324 8.06273 37.5401 8.04102 37.6479H10.1761L10.2539 37.3247Z" fill="#24324A"/>
<path d="M10.6781 35.5477H8.46164C8.43993 35.6554 8.4182 35.7631 8.39648 35.8708H10.6012L10.6781 35.5477Z" fill="#24324A"/>
<path d="M10.4665 36.4366H8.28347C8.26176 36.5443 8.24005 36.6521 8.21924 36.7598H10.3905L10.4665 36.4366Z" fill="#24324A"/>
<path d="M9.3003 41.3241H7.32991C7.3091 41.4318 7.28918 41.5395 7.26837 41.6473H9.22342L9.3003 41.3241Z" fill="#24324A"/>
<path d="M17.2608 35.5477H16.1607C16.1643 35.6554 16.167 35.7631 16.1707 35.8708H17.2608V35.5477Z" fill="#24324A"/>
<path d="M17.2608 37.3247H16.2123C16.215 37.4324 16.2177 37.5401 16.2213 37.6479H17.2608V37.3247Z" fill="#24324A"/>
<path d="M17.2608 36.7598V36.4366H16.1869C16.1896 36.5443 16.1932 36.6521 16.1959 36.7598H17.2608Z" fill="#24324A"/>
<path d="M17.2608 33.3262H16.0901C16.0937 33.4339 16.0973 33.5416 16.101 33.6493H17.2608V33.3262Z" fill="#24324A"/>
<path d="M17.2608 32.4372H16.0602C16.0639 32.5449 16.0675 32.6526 16.0711 32.7603H17.2608V32.4372Z" fill="#24324A"/>
<path d="M17.2608 34.2142H16.119C16.1272 34.4695 16.1353 34.7248 16.1434 34.9819H17.2608V34.2142Z" fill="#24324A"/>
<path d="M17.2608 40.4351H16.2882C16.2909 40.5429 16.2927 40.6506 16.2954 40.7583H17.2608V40.4351Z" fill="#24324A"/>
<path d="M17.2608 41.3241H16.3063C16.3081 41.4318 16.3108 41.5395 16.3126 41.6473H17.2608V41.3241Z" fill="#24324A"/>
<path d="M17.2607 38.2137H16.2357C16.2384 38.3214 16.2411 38.4291 16.2438 38.5368H17.2607V38.2137Z" fill="#24324A"/>
<path d="M3.4306 63.5409C3.04701 65.8892 2.77471 67.6137 2.64624 68.4284H2.83621C2.83621 68.4221 2.83531 68.4157 2.83712 68.4094L3.99875 63.54H3.4306V63.5409Z" fill="#24324A"/>
<path d="M17.2607 26.9839V26.6607H15.8403C15.8449 26.7675 15.8494 26.8753 15.8539 26.9839H17.2607Z" fill="#24324A"/>
<path d="M17.2608 26.095V25.7718H15.8033C15.8079 25.8786 15.8124 25.9863 15.8169 26.095H17.2608Z" fill="#24324A"/>
<path d="M17.2598 63.5409H16.3452V68.4284H17.2598V63.5409Z" fill="#24324A"/>
<path d="M17.2608 30.6602H15.9969C16.0005 30.7679 16.005 30.8756 16.0087 30.9833H17.2608V30.6602Z" fill="#24324A"/>
<path d="M17.2607 31.5482H16.0285C16.0321 31.656 16.0357 31.7637 16.0403 31.8714H17.2607V31.5482Z" fill="#24324A"/>
<path d="M17.2608 42.213H16.3235C16.3253 42.3208 16.3271 42.4285 16.3289 42.5362H17.2608V42.213Z" fill="#24324A"/>
<path d="M17.2607 28.7609V28.4378H15.9118C15.9163 28.5446 15.92 28.6523 15.9245 28.7609H17.2607Z" fill="#24324A"/>
<path d="M17.2607 27.8729V27.5497H15.8765C15.881 27.6565 15.8855 27.7642 15.8891 27.8729H17.2607Z" fill="#24324A"/>
<path d="M17.2598 58.6534H16.3452V59.4211H17.2598V58.6534Z" fill="#24324A"/>
<path d="M17.2598 55.0985H16.3452V55.4216H17.2598V55.0985Z" fill="#24324A"/>
<path d="M17.2598 55.9875H16.3452V56.3106H17.2598V55.9875Z" fill="#24324A"/>
<path d="M17.2598 56.8764H16.3452V57.1995H17.2598V56.8764Z" fill="#24324A"/>
<path d="M17.2598 53.7659H16.3452V54.5336H17.2598V53.7659Z" fill="#24324A"/>
<path d="M17.2598 52.877H16.3452V53.2002H17.2598V52.877Z" fill="#24324A"/>
<path d="M17.2608 43.1012H16.338C16.3398 43.2089 16.3416 43.3166 16.3425 43.4243H17.2608V43.1012Z" fill="#24324A"/>
<path d="M17.2598 57.7645H16.3452V58.0876H17.2598V57.7645Z" fill="#24324A"/>
<path d="M17.2598 60.875H16.3452V61.1981H17.2598V60.875Z" fill="#24324A"/>
<path d="M17.2598 61.7639H16.3452V62.0871H17.2598V61.7639Z" fill="#24324A"/>
<path d="M17.2598 59.9869H16.3452V60.3101H17.2598V59.9869Z" fill="#24324A"/>
<path d="M17.2608 45.3235H16.3642C16.3651 45.4313 16.366 45.539 16.3669 45.6467H17.2616V45.3235H17.2608Z" fill="#24324A"/>
<path d="M17.2608 46.2116H16.3696C16.3705 46.3193 16.3705 46.427 16.3714 46.5347H17.2608V46.2116Z" fill="#24324A"/>
<path d="M17.2598 51.988H16.3452V52.3112H17.2598V51.988Z" fill="#24324A"/>
<path d="M17.2608 43.9901H16.3497C16.3534 44.2472 16.3561 44.5034 16.3588 44.7578H17.2608V43.9901Z" fill="#24324A"/>
<path d="M17.2607 47.1006H16.3723C16.3723 47.2092 16.3723 47.317 16.3723 47.4238H17.2598V47.1006H17.2607Z" fill="#24324A"/>
<path d="M16.3461 50.5342H17.2607V50.211H16.3524C16.3506 50.3196 16.3479 50.4274 16.3461 50.5342Z" fill="#24324A"/>
<path d="M17.2598 51.0999H16.3452V51.4231H17.2598V51.0999Z" fill="#24324A"/>
<path d="M16.3705 48.3127H17.2599V47.9895H16.3715C16.3715 48.0972 16.3714 48.2049 16.3705 48.3127Z" fill="#24324A"/>
<path d="M17.2608 0C17.0491 0.429997 16.8292 0.927891 16.6049 1.481H17.2608V0Z" fill="#24324A"/>
<path d="M17.2608 1.64305H17.0428C16.8718 6.31871 15.4804 17.7268 15.4451 18.0192C15.4532 18.1758 15.6034 21.0617 15.7807 25.2069H17.2617V1.64305H17.2608Z" fill="#24324A"/>
<path d="M12.5735 18.6076C11.99 20.3375 11.3684 22.5998 10.7324 25.2069H13.0874L14.5168 16.912C14.5222 16.8794 14.5467 16.8541 14.5783 16.8469C14.61 16.8396 14.6434 16.8523 14.6624 16.8794L15.3084 17.7983C15.5002 16.2141 16.7206 6.00277 16.8808 1.64305H16.5388C15.0641 5.32202 13.3488 11.3691 11.8669 17.0967L12.569 18.546C12.5789 18.5659 12.5798 18.5877 12.5735 18.6076Z" fill="#24324A"/>
<path d="M29.3457 18.632C29.2163 18.192 29.0905 17.7892 28.9702 17.4298L28.4093 18.5867C32.2262 29.9278 37.6246 63.8949 38.3357 68.4284H38.9762C38.3546 64.639 34.4916 41.2806 31.3505 26.8364C30.8104 24.5415 30.1174 21.6682 29.3457 18.632Z" fill="#24324A"/>
<path d="M27.5237 35.8953C26.8506 39.2628 26.0363 45.2538 25.9811 54.6685V68.4293H26.8659H35.9898L35.4262 65.9516H26.8406C26.8397 65.795 26.8379 65.6348 26.837 65.4673H35.3149L35.9889 68.4293H37.8191L28.8888 31.0024C28.669 31.5202 28.0972 33.0238 27.5237 35.8953ZM26.8514 67.1484C26.8505 67.0416 26.8497 66.9293 26.8488 66.8125C26.8488 66.9293 26.8496 67.0416 26.8514 67.1484ZM35.1873 64.9015H26.8343C26.8334 64.744 26.8325 64.582 26.8315 64.4172H35.077L35.1873 64.9015ZM34.9485 63.8505H26.8288C26.8279 63.6921 26.8279 63.5301 26.827 63.3662H34.8381L34.7467 62.9652L34.9485 63.8505ZM34.7097 62.8004H26.8261C26.8261 62.6411 26.8252 62.4791 26.8252 62.3161H34.5993L34.7097 62.8004ZM26.8243 61.7567C26.8243 61.9432 26.8243 62.1278 26.8252 62.3089C26.8252 62.1278 26.8243 61.9432 26.8243 61.7567ZM34.5685 62.1803L34.4708 61.7504H26.8243C26.8243 61.5901 26.8243 61.429 26.8243 61.266H34.3604L34.5685 62.1803ZM34.2944 60.9736L34.232 60.7003H26.8252C26.8252 60.54 26.8261 60.3789 26.8261 60.2159H34.1216L34.2944 60.9736ZM33.9931 59.6501H26.8279C26.8289 59.4899 26.8288 59.3279 26.8297 59.1658H33.8828L33.8565 59.0509L33.9931 59.6501ZM33.7543 58.6H26.8325C26.8334 58.4398 26.8343 58.2778 26.8352 58.1157H33.6439L33.5562 57.7283L33.7543 58.6ZM33.5155 57.549H26.8388C26.8397 57.3879 26.8415 57.2268 26.8424 57.0647H33.4051L33.5155 57.549ZM33.4033 57.0557L33.2766 56.4999H26.8478C26.8497 56.3387 26.8505 56.1776 26.8524 56.0155H33.1662L33.4033 57.0557ZM33.1002 55.7222L33.0378 55.4479H26.8587C26.8605 55.2868 26.8623 55.1248 26.865 54.9636H32.9283L33.1002 55.7222ZM32.799 54.3987H26.8723C26.875 54.2376 26.8768 54.0756 26.8795 53.9144H32.6886L32.6533 53.7605L32.799 54.3987ZM32.5601 53.3486H26.8886C26.8913 53.1875 26.894 53.0255 26.8967 52.8643H32.4497L32.3529 52.438L32.5601 53.3486ZM32.3213 52.2976H26.9085C26.9112 52.1356 26.9148 51.9745 26.9184 51.8133H32.2118L32.0833 51.2475H26.9302C26.9338 51.0855 26.9374 50.9244 26.9419 50.7632H31.972L32.3213 52.2976ZM31.9123 50.5007L31.8436 50.1975H26.9555C26.96 50.0354 26.9645 49.8743 26.9691 49.7131H31.7332L31.9123 50.5007ZM31.6273 49.2478L31.6047 49.1473H26.9854C26.9899 48.9853 26.9953 48.8233 27.0007 48.663H31.4953L31.4509 48.4693L31.6273 49.2478ZM31.3659 48.0972H27.0188C27.0243 47.9352 27.0297 47.7732 27.036 47.6129H31.2555L31.1497 47.1467L31.3659 48.0972ZM31.127 47.0462H27.0568C27.0631 46.8842 27.0695 46.7222 27.0767 46.5619H31.0167L30.8882 45.9961H27.1011C27.1084 45.8332 27.1156 45.6721 27.1238 45.5118H30.7778L31.127 47.0462ZM30.6494 44.9461H27.1518C27.16 44.7831 27.169 44.622 27.1771 44.4617H30.539L30.6494 44.9461ZM30.4105 43.8959H27.2097C27.2197 43.7321 27.2296 43.571 27.2396 43.4116H30.3011L30.4105 43.8959ZM30.1717 42.8459H27.2767C27.2875 42.682 27.2993 42.5209 27.311 42.3615H30.0613L30.1717 42.8459ZM29.9329 41.7958H27.3545C27.368 41.631 27.3816 41.4699 27.3952 41.3114H29.8225L29.694 40.7457H27.4477C27.4639 40.5809 27.4802 40.4189 27.4965 40.2613H29.5837L29.9329 41.7958ZM29.4552 39.6947H27.5607C27.5806 39.5281 27.6014 39.366 27.6223 39.2103H29.3448L29.4552 39.6947Z" fill="#24324A"/>
<path d="M33.1662 31.0232L32.5682 31.8714C35.4704 46.2089 38.5989 65.1315 39.139 68.4293H39.8673L33.1662 31.0232Z" fill="#24324A"/>
<path d="M25.8952 22.2711C25.9368 22.2684 25.973 22.2974 25.9793 22.3381L27.8746 33.6276C28.1696 32.4924 28.4337 31.7229 28.6111 31.263L26.1765 17.132L25.5351 18.0436C25.4926 18.8583 24.425 39.5606 24.6349 50.574V68.4284H25.0113V46.3718C25.1705 36.6801 25.8119 22.4902 25.8192 22.3481C25.821 22.3073 25.8536 22.2738 25.8952 22.2711Z" fill="#24324A"/>
<path d="M25.1732 51.4231H25.8707C25.8734 51.3145 25.8761 51.2068 25.8797 51.0999H25.1741V51.4231H25.1732Z" fill="#24324A"/>
<path d="M25.1732 53.2002H25.8345C25.8363 53.0924 25.8381 52.9838 25.84 52.877H25.1741V53.2002H25.1732Z" fill="#24324A"/>
<path d="M25.1732 52.3112H25.8499C25.8517 52.2026 25.8544 52.0948 25.8571 51.988H25.1732V52.3112Z" fill="#24324A"/>
<path d="M25.8191 55.0985H25.1732V55.4216H25.8191V55.0985Z" fill="#24324A"/>
<path d="M26.2707 43.9901H25.2203C25.2149 44.2481 25.2095 44.5043 25.204 44.7578H26.2082C26.2281 44.497 26.2489 44.2418 26.2707 43.9901Z" fill="#24324A"/>
<path d="M26.1648 45.3235H25.1913C25.1895 45.4313 25.1868 45.5399 25.185 45.6467H26.1413C26.1494 45.5381 26.1576 45.4304 26.1648 45.3235Z" fill="#24324A"/>
<path d="M25.1732 48.3127H25.9856C25.991 48.204 25.9965 48.0963 26.0019 47.9895H25.1741V48.3127H25.1732Z" fill="#24324A"/>
<path d="M25.1732 50.5342H25.8961C25.8997 50.4255 25.9033 50.3178 25.9069 50.211H25.1732V50.5342Z" fill="#24324A"/>
<path d="M25.1732 49.6452H25.9277C25.9377 49.3863 25.9485 49.1301 25.9594 48.8775H25.1732V49.6452Z" fill="#24324A"/>
<path d="M25.1732 54.5336H25.8201C25.8219 54.2756 25.8237 54.0194 25.8273 53.7659H25.1732V54.5336Z" fill="#24324A"/>
<path d="M25.8191 61.7639H25.1732V62.0871H25.8191V61.7639Z" fill="#24324A"/>
<path d="M25.8191 62.6529H25.1732V62.9761H25.8191V62.6529Z" fill="#24324A"/>
<path d="M25.8191 60.875H25.1732V61.1981H25.8191V60.875Z" fill="#24324A"/>
<path d="M25.8572 25.2069H26.2969L25.9467 23.1194C25.925 23.61 25.8943 24.3224 25.8572 25.2069Z" fill="#24324A"/>
<path d="M26.1041 46.2116H25.1759C25.175 46.265 25.1741 46.3193 25.1732 46.3727V46.5338H26.0833C26.0896 46.4261 26.0969 46.3193 26.1041 46.2116Z" fill="#24324A"/>
<path d="M25.8191 55.9875H25.1732V56.3106H25.8191V55.9875Z" fill="#24324A"/>
<path d="M25.8191 59.9869H25.1732V60.3101H25.8191V59.9869Z" fill="#24324A"/>
<path d="M25.8191 56.8764H25.1732V57.1995H25.8191V56.8764Z" fill="#24324A"/>
<path d="M25.8191 57.7645H25.1732V58.0876H25.8191V57.7645Z" fill="#24324A"/>
<path d="M25.8191 58.6534H25.1732V59.4211H25.8191V58.6534Z" fill="#24324A"/>
<path d="M26.0489 47.1006H25.1732V47.4238H26.0309C26.0372 47.3152 26.0426 47.2074 26.0489 47.1006Z" fill="#24324A"/>
<path d="M25.5289 33.6493H27.7146L27.6604 33.3262H25.5406C25.537 33.433 25.5325 33.5407 25.5289 33.6493Z" fill="#24324A"/>
<path d="M25.6265 30.9833H27.2668L27.2125 30.6602H25.6392C25.6347 30.767 25.631 30.8747 25.6265 30.9833Z" fill="#24324A"/>
<path d="M25.7125 28.7609H26.8941L26.8398 28.4378H25.7252C25.7216 28.5446 25.717 28.6523 25.7125 28.7609Z" fill="#24324A"/>
<path d="M25.5604 32.7603H27.5643L27.51 32.4372H25.573C25.5685 32.5449 25.5649 32.6517 25.5604 32.7603Z" fill="#24324A"/>
<path d="M25.5939 31.8714H27.416L27.3617 31.5482H25.6057C25.6012 31.656 25.5976 31.7637 25.5939 31.8714Z" fill="#24324A"/>
<path d="M25.661 30.0944H27.1176L26.9891 29.3267H25.6909C25.6809 29.5784 25.671 29.8346 25.661 30.0944Z" fill="#24324A"/>
<path d="M25.7477 27.8729H26.7447L26.6905 27.5497H25.7604C25.7567 27.6556 25.7522 27.7633 25.7477 27.8729Z" fill="#24324A"/>
<path d="M25.8191 63.5409H25.1732V68.4284H25.8191V63.5409Z" fill="#24324A"/>
<path d="M25.8201 26.095H26.4462L26.3919 25.7718H25.8337C25.8292 25.8777 25.8247 25.9854 25.8201 26.095Z" fill="#24324A"/>
<path d="M25.7839 26.9839H26.5954L26.5411 26.6607H25.7965C25.7929 26.7666 25.7884 26.8744 25.7839 26.9839Z" fill="#24324A"/>
<path d="M27.368 35.8482C27.3888 35.7459 27.4087 35.6463 27.4295 35.5477H25.4627C25.4591 35.6554 25.4555 35.7631 25.4518 35.8708H27.3635C27.3653 35.8636 27.3671 35.8554 27.368 35.8482Z" fill="#24324A"/>
<path d="M27.7272 34.2142H25.5089C25.4999 34.4686 25.4908 34.7248 25.4827 34.9819H27.5508C27.6096 34.7121 27.6693 34.4559 27.7272 34.2142Z" fill="#24324A"/>
<path d="M26.5339 41.3241H25.2854C25.2827 41.4318 25.28 41.5395 25.2764 41.6473H26.4977C26.5104 41.5386 26.5222 41.4309 26.5339 41.3241Z" fill="#24324A"/>
<path d="M26.6397 40.4351H25.3098C25.3071 40.5429 25.3034 40.6506 25.3007 40.7583H26.5999C26.6135 40.6497 26.627 40.542 26.6397 40.4351Z" fill="#24324A"/>
<path d="M26.438 42.213H25.2628C25.2601 42.3208 25.2574 42.4285 25.2546 42.5362H26.4054C26.4154 42.4276 26.4271 42.3199 26.438 42.213Z" fill="#24324A"/>
<path d="M26.8178 39.1026H25.3495C25.3423 39.3588 25.3341 39.6141 25.3269 39.8703H26.7129C26.7473 39.6068 26.7817 39.3507 26.8178 39.1026Z" fill="#24324A"/>
<path d="M26.3503 43.1012H25.2402C25.2375 43.2089 25.2348 43.3166 25.233 43.4243H26.3204C26.3303 43.3157 26.3403 43.208 26.3503 43.1012Z" fill="#24324A"/>
<path d="M27.254 36.4366H25.4328C25.4292 36.5443 25.4256 36.6521 25.422 36.7598H27.1943C27.2142 36.6493 27.2341 36.5416 27.254 36.4366Z" fill="#24324A"/>
<path d="M26.95 38.2137H25.3759C25.3722 38.3214 25.3695 38.4291 25.3659 38.5368H26.9003C26.9165 38.4273 26.9337 38.3196 26.95 38.2137Z" fill="#24324A"/>
<path d="M27.0949 37.3247H25.4039C25.4003 37.4324 25.3967 37.5401 25.394 37.6479H27.0406C27.0587 37.5383 27.0768 37.4306 27.0949 37.3247Z" fill="#24324A"/>
<path d="M33.3209 48.8775L33.5037 49.6452H35.0191C34.9738 49.3899 34.9277 49.1346 34.8815 48.8775H33.3209Z" fill="#24324A"/>
<path d="M33.6393 50.211L33.7163 50.5342H35.1773C35.1583 50.4265 35.1393 50.3187 35.1203 50.211H33.6393Z" fill="#24324A"/>
<path d="M33.1093 47.9895L33.1861 48.3127H34.7812C34.7622 48.2049 34.7423 48.0972 34.7233 47.9895H33.1093Z" fill="#24324A"/>
<path d="M33.8511 51.0999L33.928 51.4231H35.3339C35.3149 51.3154 35.2959 51.2077 35.2769 51.0999H33.8511Z" fill="#24324A"/>
<path d="M34.0638 51.988L34.1407 52.3112H35.4905C35.4715 52.2035 35.4525 52.0957 35.4335 51.988H34.0638Z" fill="#24324A"/>
<path d="M32.4732 45.3235L32.5501 45.6467H34.2971C34.2772 45.539 34.2573 45.4313 34.2374 45.3235H32.4732Z" fill="#24324A"/>
<path d="M32.6849 46.2116L32.7618 46.5347H34.4591C34.4392 46.427 34.4202 46.3193 34.4003 46.2116H32.6849Z" fill="#24324A"/>
<path d="M34.2754 52.877L34.3523 53.2002H35.6452C35.6262 53.0924 35.6081 52.9847 35.5891 52.877H34.2754Z" fill="#24324A"/>
<path d="M32.8976 47.1006L32.9745 47.4238H34.621C34.6011 47.3161 34.5821 47.2083 34.5622 47.1006H32.8976Z" fill="#24324A"/>
<path d="M35.2299 56.8764L35.3068 57.1995H36.3327C36.3146 57.0927 36.2965 56.9841 36.2775 56.8764H35.2299Z" fill="#24324A"/>
<path d="M36.1834 60.875L36.2603 61.1981H37.0022C36.9841 61.0913 36.9669 60.9836 36.9488 60.875H36.1834Z" fill="#24324A"/>
<path d="M35.9717 59.9869L36.0486 60.3101H36.8547C36.8366 60.2033 36.8186 60.0955 36.8005 59.9869H35.9717Z" fill="#24324A"/>
<path d="M35.6542 58.6534L35.837 59.4211H36.7073C36.6648 59.1685 36.6223 58.9133 36.5788 58.6534H35.6542Z" fill="#24324A"/>
<path d="M36.396 61.7639L36.4729 62.0871H37.1496C37.1324 61.9803 37.1144 61.8726 37.0963 61.7639H36.396Z" fill="#24324A"/>
<path d="M34.4872 53.7659L34.6699 54.5336H35.8759C35.8324 54.2801 35.7881 54.0239 35.7429 53.7659H34.4872Z" fill="#24324A"/>
<path d="M37.2954 62.9761C37.2782 62.8692 37.2601 62.7615 37.242 62.6529H36.6069L36.6838 62.9761H37.2954Z" fill="#24324A"/>
<path d="M35.4416 57.7645L35.5185 58.0876H36.4829C36.4648 57.9808 36.4467 57.8731 36.4286 57.7645H35.4416Z" fill="#24324A"/>
<path d="M34.8055 55.0985L34.8824 55.4216H36.0287C36.0106 55.3148 35.9916 55.2062 35.9735 55.0985H34.8055Z" fill="#24324A"/>
<path d="M35.0173 55.9875L35.0942 56.3106H36.1807C36.1626 56.2038 36.1436 56.0952 36.1255 55.9875H35.0173Z" fill="#24324A"/>
<path d="M32.1548 43.9901L32.3375 44.7578H34.1325C34.0855 44.5025 34.0375 44.2463 33.9905 43.9901H32.1548Z" fill="#24324A"/>
<path d="M28.2881 28.4378L28.3442 28.7609H30.9172C30.8928 28.6523 30.8683 28.5455 30.8439 28.4378H28.2881Z" fill="#24324A"/>
<path d="M28.6708 30.6602L28.7251 30.9779C28.7975 30.805 28.84 30.7208 28.8418 30.7172C28.8572 30.6873 28.8898 30.6701 28.9233 30.6737C28.9567 30.6774 28.9839 30.7027 28.992 30.7353L29.0508 30.9833H31.4039C31.3804 30.8756 31.3569 30.7679 31.3343 30.6602H28.6708Z" fill="#24324A"/>
<path d="M28.441 29.3267L28.5731 30.0944H31.2121C31.1561 29.8364 31.099 29.5811 31.043 29.3267H28.441Z" fill="#24324A"/>
<path d="M29.1865 31.5482L29.2634 31.8714H31.5948C31.5722 31.7637 31.5487 31.656 31.526 31.5482H29.1865Z" fill="#24324A"/>
<path d="M24.4731 62.6529H23.5585V62.9761H24.4731V62.6529Z" fill="#24324A"/>
<path d="M27.9815 26.6607L28.0376 26.9839H30.5101C30.4848 26.8753 30.4595 26.7684 30.4341 26.6607H27.9815Z" fill="#24324A"/>
<path d="M28.1352 27.5497L28.1913 27.8729H30.7154C30.691 27.7642 30.6656 27.6574 30.6412 27.5497H28.1352Z" fill="#24324A"/>
<path d="M29.399 32.4372L29.4759 32.7603H31.7838C31.7612 32.6526 31.7386 32.5449 31.716 32.4372H29.399Z" fill="#24324A"/>
<path d="M31.943 43.1012L32.0199 43.4243H33.8854C33.8655 43.3166 33.8456 43.2089 33.8248 43.1012H31.943Z" fill="#24324A"/>
<path d="M27.8285 25.7718L27.8846 26.095H30.301C30.2757 25.9872 30.2495 25.8786 30.2241 25.7718H27.8285Z" fill="#24324A"/>
<path d="M30.7769 38.2137L30.8538 38.5368H32.9518C32.931 38.4291 32.9093 38.3214 32.8885 38.2137H30.7769Z" fill="#24324A"/>
<path d="M31.3071 40.4351L31.384 40.7583H33.3816C33.3608 40.6506 33.34 40.5429 33.3201 40.4351H31.3071Z" fill="#24324A"/>
<path d="M30.9886 39.1026L31.1713 39.8703H33.2105C33.1607 39.6141 33.1119 39.3579 33.0621 39.1026H30.9886Z" fill="#24324A"/>
<path d="M31.7314 42.213L31.8083 42.5362H33.719C33.6991 42.4285 33.6783 42.3208 33.6584 42.213H31.7314Z" fill="#24324A"/>
<path d="M29.8225 34.2142L30.0053 34.9819H32.2417C32.1892 34.7248 32.1367 34.4695 32.0843 34.2142H29.8225Z" fill="#24324A"/>
<path d="M29.6108 33.3262L29.6877 33.6493H31.9684C31.9458 33.5416 31.9241 33.4339 31.9015 33.3262H29.6108Z" fill="#24324A"/>
<path d="M30.5652 37.3247L30.6422 37.6479H32.7772C32.7555 37.5401 32.7347 37.4324 32.713 37.3247H30.5652Z" fill="#24324A"/>
<path d="M30.1409 35.5477L30.2178 35.8708H32.4226C32.4009 35.7631 32.3792 35.6554 32.3575 35.5477H30.1409Z" fill="#24324A"/>
<path d="M30.3527 36.4366L30.4295 36.7598H32.6008C32.5791 36.6521 32.5574 36.5443 32.5366 36.4366H30.3527Z" fill="#24324A"/>
<path d="M31.5189 41.3241L31.5958 41.6473H33.5509C33.5301 41.5395 33.5102 41.4318 33.4894 41.3241H31.5189Z" fill="#24324A"/>
<path d="M24.6585 35.5477H23.5585V35.8708H24.6486C24.6513 35.7631 24.6549 35.6554 24.6585 35.5477Z" fill="#24324A"/>
<path d="M23.5585 37.6479H24.598C24.6007 37.5401 24.6034 37.4324 24.607 37.3247H23.5585V37.6479Z" fill="#24324A"/>
<path d="M23.5584 36.7598H24.6223C24.625 36.6521 24.6287 36.5443 24.6314 36.4366H23.5575V36.7598H23.5584Z" fill="#24324A"/>
<path d="M24.7291 33.3262H23.5585V33.6493H24.7183C24.7219 33.5407 24.7255 33.433 24.7291 33.3262Z" fill="#24324A"/>
<path d="M24.759 32.4372H23.5585V32.7603H24.7481C24.7517 32.6526 24.7553 32.5449 24.759 32.4372Z" fill="#24324A"/>
<path d="M24.7001 34.2142H23.5585V34.9819H24.6757C24.6839 34.7257 24.692 34.4695 24.7001 34.2142Z" fill="#24324A"/>
<path d="M23.5585 40.7583H24.5237C24.5256 40.6506 24.5283 40.5429 24.531 40.4351H23.5585V40.7583Z" fill="#24324A"/>
<path d="M23.5585 41.6473H24.5065C24.5084 41.5395 24.5111 41.4318 24.5129 41.3241H23.5585V41.6473Z" fill="#24324A"/>
<path d="M23.5585 38.5368H24.5753C24.578 38.4291 24.5808 38.3214 24.5835 38.2137H23.5585V38.5368Z" fill="#24324A"/>
<path d="M36.8203 63.5409L37.9819 68.4103C37.9837 68.4166 37.9828 68.4229 37.9828 68.4293H38.1728C38.0453 67.6136 37.7721 65.8891 37.3885 63.5418H36.8203V63.5409Z" fill="#24324A"/>
<path d="M24.9788 26.6607H23.5585V26.9839H24.9652C24.9698 26.8753 24.9743 26.7675 24.9788 26.6607Z" fill="#24324A"/>
<path d="M25.0159 25.7718H23.5585V26.095H25.0023C25.0069 25.9863 25.0114 25.8786 25.0159 25.7718Z" fill="#24324A"/>
<path d="M24.4731 63.5409H23.5585V68.4284H24.4731V63.5409Z" fill="#24324A"/>
<path d="M24.8223 30.6602H23.5585V30.9833H24.8105C24.8151 30.8747 24.8187 30.767 24.8223 30.6602Z" fill="#24324A"/>
<path d="M24.7906 31.5482H23.5585V31.8714H24.7789C24.7825 31.7637 24.7861 31.656 24.7906 31.5482Z" fill="#24324A"/>
<path d="M23.5585 42.5362H24.4903C24.4921 42.4285 24.4939 42.3208 24.4957 42.213H23.5585V42.5362Z" fill="#24324A"/>
<path d="M24.9073 28.4378H23.5585V28.7609H24.8947C24.8983 28.6532 24.9028 28.5455 24.9073 28.4378Z" fill="#24324A"/>
<path d="M24.9426 27.5497H23.5585V27.8729H24.929C24.9336 27.7642 24.9381 27.6565 24.9426 27.5497Z" fill="#24324A"/>
<path d="M24.4731 58.6534H23.5585V59.4211H24.4731V58.6534Z" fill="#24324A"/>
<path d="M24.4731 55.0985H23.5585V55.4216H24.4731V55.0985Z" fill="#24324A"/>
<path d="M24.4731 55.9875H23.5585V56.3106H24.4731V55.9875Z" fill="#24324A"/>
<path d="M24.4731 56.8764H23.5585V57.1995H24.4731V56.8764Z" fill="#24324A"/>
<path d="M24.4731 53.7659H23.5585V54.5336H24.4731V53.7659Z" fill="#24324A"/>
<path d="M24.4731 52.877H23.5585V53.2002H24.4731V52.877Z" fill="#24324A"/>
<path d="M23.5585 43.4243H24.4767C24.4785 43.3166 24.4794 43.2089 24.4812 43.1012H23.5585V43.4243Z" fill="#24324A"/>
<path d="M24.4731 57.7645H23.5585V58.0876H24.4731V57.7645Z" fill="#24324A"/>
<path d="M24.4731 60.875H23.5585V61.1981H24.4731V60.875Z" fill="#24324A"/>
<path d="M24.4731 61.7639H23.5585V62.0871H24.4731V61.7639Z" fill="#24324A"/>
<path d="M24.4731 59.9869H23.5585V60.3101H24.4731V59.9869Z" fill="#24324A"/>
<path d="M24.455 45.3235H23.5585V45.6467H24.4532C24.4532 45.539 24.4541 45.4313 24.455 45.3235Z" fill="#24324A"/>
<path d="M23.5585 46.5347H24.4478C24.4478 46.4279 24.4487 46.3193 24.4496 46.2116H23.5585V46.5347Z" fill="#24324A"/>
<path d="M24.4731 51.988H23.5585V52.3112H24.4731V51.988Z" fill="#24324A"/>
<path d="M23.5585 44.7578H24.4604C24.4631 44.5034 24.4659 44.2481 24.4695 43.9901H23.5585V44.7578Z" fill="#24324A"/>
<path d="M23.5584 47.4238H24.4459C24.4459 47.317 24.4459 47.2092 24.4459 47.1006H23.5575V47.4238H23.5584Z" fill="#24324A"/>
<path d="M24.4668 50.211H23.5585V50.5342H24.4731C24.4704 50.4274 24.4686 50.3196 24.4668 50.211Z" fill="#24324A"/>
<path d="M24.4731 51.0999H23.5585V51.4231H24.4731V51.0999Z" fill="#24324A"/>
<path d="M23.5585 48.3127H24.4477C24.4468 48.2058 24.4468 48.0981 24.4468 47.9895H23.5585V48.3127Z" fill="#24324A"/>
<path d="M23.5585 0V1.481H24.2143C23.99 0.927891 23.7702 0.430903 23.5585 0Z" fill="#24324A"/>
<path d="M25.375 18.0192C25.3388 17.7268 23.9483 6.31871 23.7773 1.64305H23.5593V25.2069H25.0403C25.2167 21.0608 25.3669 18.1758 25.375 18.0192Z" fill="#24324A"/>
<path d="M25.5107 17.7983L26.1566 16.8794C26.1756 16.8523 26.2082 16.8396 26.2407 16.8468C26.2724 16.8541 26.2968 16.8794 26.3023 16.912L27.7317 25.2069H30.0866C29.4506 22.5997 28.83 20.3375 28.2456 18.6076C28.2392 18.5876 28.2401 18.5659 28.2492 18.5469L28.9512 17.0976C27.4693 11.3691 25.754 5.3229 24.2794 1.64394H23.9374C24.0984 6.00275 25.3189 16.2141 25.5107 17.7983Z" fill="#24324A"/>
<path d="M20.6262 29.3828C20.7131 29.3828 20.7963 29.4136 20.8614 29.4698L21.1953 29.3267H20.5765L20.6082 29.3828C20.6145 29.3828 20.6208 29.3828 20.6262 29.3828Z" fill="#24324A"/>
<path d="M20.2318 30.0944L20.3223 29.9432C20.2716 29.8644 20.2544 29.7703 20.2707 29.6807L19.8002 29.3276H17.2617H16.8166H15.9481C15.958 29.5811 15.967 29.8373 15.977 30.0953H16.8166H17.2617H20.2318V30.0944Z" fill="#24324A"/>
<path d="M24.8729 29.3267H24.0849C24.0804 29.3276 24.0767 29.3303 24.0722 29.3312L21.6395 29.9151C21.6268 29.9179 21.6142 29.9197 21.6015 29.9197C21.6006 29.9197 20.9492 29.9115 20.9492 29.9115C20.9284 29.9523 20.9003 29.9885 20.866 30.0192C20.8316 30.05 20.7909 30.0727 20.7483 30.088L20.7474 30.0944H23.5583H23.7881H24.843C24.853 29.8364 24.8629 29.5802 24.8729 29.3267Z" fill="#24324A"/>
<path d="M19.8465 29.1602L20.4653 29.6246C20.4092 29.6988 20.411 29.8056 20.4743 29.878C20.4888 29.8943 20.506 29.907 20.5232 29.9179L20.1269 30.5841L19.4167 32.984L19.3968 33.2293L19.4765 33.2565L19.6076 33.0492L20.5087 30.7136L20.6019 29.9441C20.6571 29.9505 20.7141 29.936 20.7584 29.8961C20.8036 29.8572 20.8254 29.802 20.8263 29.7468L21.6007 29.7567L24.0334 29.1728L24.256 29.0669L24.2397 28.9845L23.9945 28.9746L21.5229 29.3611L20.8109 29.6653C20.8027 29.6463 20.7928 29.6282 20.7783 29.611C20.7141 29.5377 20.6091 29.5223 20.5277 29.5675L20.1495 28.8922L18.4279 27.0763L18.2253 26.9369L18.1619 26.9921L18.2759 27.2093L19.8465 29.1602Z" fill="#24324A"/>
<path d="M17.2607 39.8703H19.945L20.3042 39.5969C20.287 39.5055 20.306 39.4113 20.3548 39.3335L20.2155 39.1026H17.2607H16.8156H16.2583C16.2646 39.3588 16.2701 39.615 16.2764 39.8703H16.8156H17.2607Z" fill="#24324A"/>
<path d="M20.8976 39.8033C20.8641 39.8322 20.8252 39.8549 20.7836 39.8703H21.056L20.8976 39.8033Z" fill="#24324A"/>
<path d="M23.5583 39.1026H20.7691L20.78 39.1859C20.8668 39.2158 20.9392 39.2782 20.9826 39.3615C20.9826 39.3615 21.6349 39.3488 21.6358 39.3488C21.6485 39.3488 21.6602 39.3507 21.6729 39.3534L23.8867 39.8712H24.5435C24.5489 39.6159 24.5553 39.3597 24.5616 39.1035H23.789H23.5583V39.1026Z" fill="#24324A"/>
<path d="M24.2794 40.2631L24.2948 40.1808L24.0714 40.0794L21.635 39.51L20.8606 39.5245C20.8606 39.5036 20.8579 39.4828 20.8507 39.462C20.819 39.3706 20.7276 39.3162 20.6344 39.328L20.5367 38.5604L19.6212 36.2311L19.4855 36.0256L19.4059 36.0528L19.4303 36.2972L20.1559 38.6934L20.5557 39.3561C20.4761 39.4041 20.4372 39.5036 20.4698 39.5951C20.477 39.6159 20.4879 39.634 20.5005 39.6503L19.8835 40.1192L18.3247 42.0773L18.2144 42.2973L18.2777 42.3525L18.4767 42.2094L20.1875 40.3826L20.5621 39.7046C20.61 39.7309 20.6688 39.739 20.7249 39.7191C20.781 39.6992 20.8226 39.6575 20.8443 39.6059L21.5581 39.9056L24.0325 40.2767L24.2794 40.2631Z" fill="#24324A"/>
<path d="M17.1784 49.3836L17.4119 49.3057C17.4227 49.3021 17.4336 49.2994 17.4444 49.2985L19.9305 49.0161C19.9369 49.0152 19.9423 49.0152 19.9486 49.0152C19.9559 49.0152 19.9631 49.0161 19.9703 49.017L20.6145 49.1048C20.667 49.0287 20.7466 48.9744 20.8361 48.9545L20.8551 48.8775H17.2608H16.8157H16.3678C16.366 49.1374 16.3633 49.3935 16.3606 49.6452H16.8157H17.0762C17.0753 49.6407 17.0744 49.6371 17.0744 49.6325L17.0681 49.5484C17.0626 49.475 17.1079 49.4071 17.1784 49.3836Z" fill="#24324A"/>
<path d="M20.648 49.5547L20.334 49.6452H20.7819C20.7737 49.6416 20.7656 49.6398 20.7574 49.6361C20.7149 49.6162 20.6778 49.5882 20.648 49.5547Z" fill="#24324A"/>
<path d="M21.4966 49.6452H23.5584H23.7882H24.4595C24.4568 49.3935 24.4541 49.1374 24.4523 48.8775H23.7891H23.5593H21.4541L21.2424 49.1509C21.2822 49.2333 21.2903 49.3293 21.2623 49.418L21.4966 49.6452Z" fill="#24324A"/>
<path d="M21.6178 49.9865L21.0596 49.4488C21.0741 49.4334 21.0867 49.4171 21.0967 49.3972C21.1392 49.3094 21.112 49.2071 21.0388 49.15L21.5128 48.5381L22.5116 46.2433L22.5614 46.0025L22.4854 45.9663L22.3298 46.1564L21.1501 48.3634L20.9637 49.1147C20.8732 49.0921 20.7764 49.1356 20.7339 49.2225C20.7239 49.2424 20.7194 49.2623 20.7167 49.2831L19.9495 49.1781L17.4634 49.4606L17.23 49.5384L17.2363 49.6226L17.4788 49.6624L19.9794 49.5819L20.723 49.3673C20.7384 49.4207 20.7746 49.4669 20.828 49.4931C20.8814 49.5194 20.9411 49.5185 20.9917 49.4977L21.2849 50.2146L22.7722 52.2279L22.9558 52.3918L23.0255 52.3447L22.9386 52.1148L21.6178 49.9865Z" fill="#24324A"/>
</svg>
