<svg width="14" height="45" viewBox="0 0 14 45" fill="none" xmlns="http://www.w3.org/2000/svg">
<path d="M5.91386 18.9491H5.12677V19.504H5.91386V18.9491Z" fill="#24324A"/>
<path d="M5.91386 20.0327H5.12677V20.5876H5.91386V20.0327Z" fill="#24324A"/>
<path d="M1.70702 16.4777H0.464844V16.9484H1.70702V16.4777Z" fill="#24324A"/>
<path d="M4.4998 5.94685H3.74982V6.36689H4.4998V5.94685Z" fill="#24324A"/>
<path d="M6.85111 44.1931H5.71204V44.5724H6.85111V44.1931Z" fill="#24324A"/>
<path d="M1.70702 12.0592H0.464844V12.5299H1.70702V12.0592Z" fill="#24324A"/>
<path d="M1.70702 3.88109H0.464844V4.35182H1.70702V3.88109Z" fill="#24324A"/>
<path d="M6.1916 5.61649H5.44159V6.36694H6.1916V5.61649Z" fill="#24324A"/>
<path d="M5.91386 33.0358H5.12677V33.5907H5.91386V33.0358Z" fill="#24324A"/>
<path d="M5.91386 30.8686H5.12677V31.4235H5.91386V30.8686Z" fill="#24324A"/>
<path d="M5.91386 31.9522H5.12677V32.5071H5.91386V31.9522Z" fill="#24324A"/>
<path d="M4.53686 24.367H3.74982V24.9219H4.53686V24.367Z" fill="#24324A"/>
<path d="M4.53686 23.2835H3.74982V23.8384H4.53686V23.2835Z" fill="#24324A"/>
<path d="M5.91386 29.785H5.12677V30.34H5.91386V29.785Z" fill="#24324A"/>
<path d="M2.57009 20.0327H2.09692V20.5876H2.57009V20.0327Z" fill="#24324A"/>
<path d="M4.53686 22.1999H3.74982V22.7548H4.53686V22.1999Z" fill="#24324A"/>
<path d="M4.53686 21.1163H3.74982V21.6712H4.53686V21.1163Z" fill="#24324A"/>
<path d="M4.53686 18.9491H3.74982V19.504H4.53686V18.9491Z" fill="#24324A"/>
<path d="M4.53686 25.4507H3.74982V26.0056H4.53686V25.4507Z" fill="#24324A"/>
<path d="M4.53686 20.0327H3.74982V20.5876H4.53686V20.0327Z" fill="#24324A"/>
<path d="M5.91386 21.1163H5.12677V21.6712H5.91386V21.1163Z" fill="#24324A"/>
<path d="M5.91386 25.4507H5.12677V26.0056H5.91386V25.4507Z" fill="#24324A"/>
<path d="M5.91386 24.367H5.12677V24.9219H5.91386V24.367Z" fill="#24324A"/>
<path d="M4.53686 29.785H3.74982V30.34H4.53686V29.785Z" fill="#24324A"/>
<path d="M4.53686 30.8686H3.74982V31.4235H4.53686V30.8686Z" fill="#24324A"/>
<path d="M5.91386 23.2835H5.12677V23.8384H5.91386V23.2835Z" fill="#24324A"/>
<path d="M5.91386 22.1999H5.12677V22.7548H5.91386V22.1999Z" fill="#24324A"/>
<path d="M5.91386 27.6178H5.12677V28.1727H5.91386V27.6178Z" fill="#24324A"/>
<path d="M4.53686 26.5342H3.74982V27.0892H4.53686V26.5342Z" fill="#24324A"/>
<path d="M5.91386 28.7014H5.12677V29.2563H5.91386V28.7014Z" fill="#24324A"/>
<path d="M5.91386 26.5342H5.12677V27.0892H5.91386V26.5342Z" fill="#24324A"/>
<path d="M4.53686 28.7014H3.74982V29.2563H4.53686V28.7014Z" fill="#24324A"/>
<path d="M4.53686 27.6178H3.74982V28.1727H4.53686V27.6178Z" fill="#24324A"/>
<path d="M6.85111 42.0259H5.71204V42.3373H6.85111V42.0259Z" fill="#24324A"/>
<path d="M6.85111 42.4595H5.71204V42.7709H6.85111V42.4595Z" fill="#24324A"/>
<path d="M1.66986 29.785H1.19672V30.34H1.66986V29.785Z" fill="#24324A"/>
<path d="M1.66986 33.0358H1.19672V33.5907H1.66986V33.0358Z" fill="#24324A"/>
<path d="M1.66986 30.8686H1.19672V31.4235H1.66986V30.8686Z" fill="#24324A"/>
<path d="M1.66986 28.7014H1.19672V29.2563H1.66986V28.7014Z" fill="#24324A"/>
<path d="M5.59093 42.8931H4.4519V43.2045H5.59093V42.8931Z" fill="#24324A"/>
<path d="M4.33066 42.8931H3.21698V43.2045H4.33066V42.8931Z" fill="#24324A"/>
<path d="M4.53686 31.9522H3.74982V32.5071H4.53686V31.9522Z" fill="#24324A"/>
<path d="M1.66986 27.6178H1.19672V28.1727H1.66986V27.6178Z" fill="#24324A"/>
<path d="M4.33066 42.4595H3.21698V42.7709H4.33066V42.4595Z" fill="#24324A"/>
<path d="M4.53686 33.0358H3.74982V33.5907H4.53686V33.0358Z" fill="#24324A"/>
<path d="M1.66986 31.9522H1.19672V32.5071H1.66986V31.9522Z" fill="#24324A"/>
<path d="M5.59093 42.4595H4.4519V42.7709H5.59093V42.4595Z" fill="#24324A"/>
<path d="M1.66986 22.1999H1.19672V22.7548H1.66986V22.1999Z" fill="#24324A"/>
<path d="M3.09391 35.5542H2.09692V35.9526H3.09391V35.5542Z" fill="#24324A"/>
<path d="M1.66986 23.2835H1.19672V23.8384H1.66986V23.2835Z" fill="#24324A"/>
<path d="M3.09477 8.63458H1.90961V9.10531H3.09477V8.63458Z" fill="#24324A"/>
<path d="M1.66986 21.1163H1.19672V21.6712H1.66986V21.1163Z" fill="#24324A"/>
<path d="M3.09391 38.9571H2.09692V39.3554H3.09391V38.9571Z" fill="#24324A"/>
<path d="M1.66986 24.367H1.19672V24.9219H1.66986V24.367Z" fill="#24324A"/>
<path d="M6.85111 41.4845H5.71204V41.9046H6.85111V41.4845Z" fill="#24324A"/>
<path d="M1.66986 26.5342H1.19672V27.0892H1.66986V26.5342Z" fill="#24324A"/>
<path d="M1.66986 25.4507H1.19672V26.0056H1.66986V25.4507Z" fill="#24324A"/>
<path d="M5.59093 41.4845H4.4519V41.9046H5.59093V41.4845Z" fill="#24324A"/>
<path d="M6.85111 42.8931H5.71204V43.2045H6.85111V42.8931Z" fill="#24324A"/>
<path d="M2.57009 30.8686H2.09692V31.4235H2.57009V30.8686Z" fill="#24324A"/>
<path d="M5.59093 43.7595H4.4519V44.0709H5.59093V43.7595Z" fill="#24324A"/>
<path d="M4.33066 42.0259H3.21698V42.3373H4.33066V42.0259Z" fill="#24324A"/>
<path d="M2.57009 25.4507H2.09692V26.0056H2.57009V25.4507Z" fill="#24324A"/>
<path d="M2.57009 27.6178H2.09692V28.1727H2.57009V27.6178Z" fill="#24324A"/>
<path d="M6.85111 43.7595H5.71204V44.0709H6.85111V43.7595Z" fill="#24324A"/>
<path d="M4.33066 43.7595H3.21698V44.0709H4.33066V43.7595Z" fill="#24324A"/>
<path d="M2.57009 26.5342H2.09692V27.0892H2.57009V26.5342Z" fill="#24324A"/>
<path d="M5.59093 44.1931H4.4519V44.5724H5.59093V44.1931Z" fill="#24324A"/>
<path d="M2.57009 21.1163H2.09692V21.6712H2.57009V21.1163Z" fill="#24324A"/>
<path d="M4.33066 44.1931H3.21698V44.5724H4.33066V44.1931Z" fill="#24324A"/>
<path d="M2.57009 23.2835H2.09692V23.8384H2.57009V23.2835Z" fill="#24324A"/>
<path d="M2.57009 24.367H2.09692V24.9219H2.57009V24.367Z" fill="#24324A"/>
<path d="M4.33066 41.4845H3.21698V41.9046H4.33066V41.4845Z" fill="#24324A"/>
<path d="M2.57009 22.1999H2.09692V22.7548H2.57009V22.1999Z" fill="#24324A"/>
<path d="M6.85111 43.3268H5.71204V43.6382H6.85111V43.3268Z" fill="#24324A"/>
<path d="M2.57009 31.9522H2.09692V32.5071H2.57009V31.9522Z" fill="#24324A"/>
<path d="M2.57009 28.7014H2.09692V29.2563H2.57009V28.7014Z" fill="#24324A"/>
<path d="M2.57009 33.0358H2.09692V33.5907H2.57009V33.0358Z" fill="#24324A"/>
<path d="M4.33066 43.3268H3.21698V43.6382H4.33066V43.3268Z" fill="#24324A"/>
<path d="M5.59093 43.3268H4.4519V43.6382H5.59093V43.3268Z" fill="#24324A"/>
<path d="M5.59093 42.0259H4.4519V42.3373H5.59093V42.0259Z" fill="#24324A"/>
<path d="M2.57009 29.785H2.09692V30.34H2.57009V29.785Z" fill="#24324A"/>
<path d="M1.66986 20.0327H1.19672V20.5876H1.66986V20.0327Z" fill="#24324A"/>
<path d="M1.02487 12.6512H0.464844V16.3555H1.02487V12.6512Z" fill="#24324A"/>
<path d="M1.02487 4.474H0.464844V11.9369H1.02487V4.474Z" fill="#24324A"/>
<path d="M1.02487 17.0698H0.464844V18.8885H1.02487V17.0698Z" fill="#24324A"/>
<path d="M1.14691 44.5724H1.48073H1.70872V34.6336H1.14691V44.5724Z" fill="#24324A"/>
<path d="M3.09478 39.4776H2.51489V44.5724H3.09478V39.4776Z" fill="#24324A"/>
<path d="M1.97566 39.417V38.8964C1.97566 38.863 2.00282 38.8358 2.03629 38.8358H2.39271V36.0757H2.03629C2.00282 36.0757 1.97566 36.0485 1.97566 36.015V35.4945C1.97566 35.461 2.00282 35.4338 2.03629 35.4338H2.39271V34.6354H1.83093V44.5742H2.39271V39.4794H2.03629C2.00282 39.4776 1.97566 39.4505 1.97566 39.417Z" fill="#24324A"/>
<path d="M3.09478 34.6336H2.51489V35.432H3.09478V34.6336Z" fill="#24324A"/>
<path d="M3.09478 36.0747H2.51489V38.8348H3.09478V36.0747Z" fill="#24324A"/>
<path d="M1.02487 34.6336H0.464844V44.5724H1.02487V34.6336Z" fill="#24324A"/>
<path d="M2.39278 9.22753H1.84817C1.84183 9.22753 1.83641 9.22572 1.83008 9.22391V18.8893H2.39188V9.22753H2.39278Z" fill="#24324A"/>
<path d="M2.39271 8.51237V0.484558H1.83093V8.51599C1.83636 8.51418 1.84269 8.51237 1.84902 8.51237H2.39271Z" fill="#24324A"/>
<path d="M1.70872 0.484558H1.14691V3.75886H1.70872V0.484558Z" fill="#24324A"/>
<path d="M3.09478 9.22751H2.51489V18.8893H3.09478V9.22751Z" fill="#24324A"/>
<path d="M0.464844 34.5123H3.0939V19.0106H0.464844V34.5123ZM1.97569 19.972C1.97569 19.9385 2.00284 19.9114 2.03632 19.9114H2.63069C2.66416 19.9114 2.69132 19.9385 2.69132 19.972V20.6491C2.69132 20.6826 2.66416 20.7098 2.63069 20.7098H2.03632C2.00284 20.7098 1.97569 20.6826 1.97569 20.6491V19.972ZM1.97569 21.0556C1.97569 21.0221 2.00284 20.995 2.03632 20.995H2.63069C2.66416 20.995 2.69132 21.0221 2.69132 21.0556V21.7327C2.69132 21.7662 2.66416 21.7934 2.63069 21.7934H2.03632C2.00284 21.7934 1.97569 21.7662 1.97569 21.7327V21.0556ZM1.97569 22.1392C1.97569 22.1057 2.00284 22.0785 2.03632 22.0785H2.63069C2.66416 22.0785 2.69132 22.1057 2.69132 22.1392V22.8163C2.69132 22.8498 2.66416 22.877 2.63069 22.877H2.03632C2.00284 22.877 1.97569 22.8498 1.97569 22.8163V22.1392ZM1.97569 23.2228C1.97569 23.1893 2.00284 23.1621 2.03632 23.1621H2.63069C2.66416 23.1621 2.69132 23.1893 2.69132 23.2228V23.8999C2.69132 23.9334 2.66416 23.9606 2.63069 23.9606H2.03632C2.00284 23.9606 1.97569 23.9334 1.97569 23.8999V23.2228ZM1.97569 24.3064C1.97569 24.2729 2.00284 24.2457 2.03632 24.2457H2.63069C2.66416 24.2457 2.69132 24.2729 2.69132 24.3064V24.9835C2.69132 25.017 2.66416 25.0442 2.63069 25.0442H2.03632C2.00284 25.0442 1.97569 25.017 1.97569 24.9835V24.3064ZM1.97569 25.39C1.97569 25.3565 2.00284 25.3293 2.03632 25.3293H2.63069C2.66416 25.3293 2.69132 25.3565 2.69132 25.39V26.0671C2.69132 26.1006 2.66416 26.1278 2.63069 26.1278H2.03632C2.00284 26.1278 1.97569 26.1006 1.97569 26.0671V25.39ZM1.97569 26.4736C1.97569 26.4401 2.00284 26.4129 2.03632 26.4129H2.63069C2.66416 26.4129 2.69132 26.4401 2.69132 26.4736V27.1507C2.69132 27.1842 2.66416 27.2114 2.63069 27.2114H2.03632C2.00284 27.2114 1.97569 27.1842 1.97569 27.1507V26.4736ZM1.97569 27.5572C1.97569 27.5237 2.00284 27.4965 2.03632 27.4965H2.63069C2.66416 27.4965 2.69132 27.5237 2.69132 27.5572V28.2343C2.69132 28.2678 2.66416 28.295 2.63069 28.295H2.03632C2.00284 28.295 1.97569 28.2678 1.97569 28.2343V27.5572ZM1.97569 28.6408C1.97569 28.6073 2.00284 28.5801 2.03632 28.5801H2.63069C2.66416 28.5801 2.69132 28.6073 2.69132 28.6408V29.3179C2.69132 29.3514 2.66416 29.3786 2.63069 29.3786H2.03632C2.00284 29.3786 1.97569 29.3514 1.97569 29.3179V28.6408ZM1.97569 29.7244C1.97569 29.6909 2.00284 29.6637 2.03632 29.6637H2.63069C2.66416 29.6637 2.69132 29.6909 2.69132 29.7244V30.4015C2.69132 30.435 2.66416 30.4621 2.63069 30.4621H2.03632C2.00284 30.4621 1.97569 30.435 1.97569 30.4015V29.7244ZM1.97569 30.8079C1.97569 30.7745 2.00284 30.7473 2.03632 30.7473H2.63069C2.66416 30.7473 2.69132 30.7745 2.69132 30.8079V31.4851C2.69132 31.5186 2.66416 31.5457 2.63069 31.5457H2.03632C2.00284 31.5457 1.97569 31.5186 1.97569 31.4851V30.8079ZM1.97569 31.8915C1.97569 31.858 2.00284 31.8309 2.03632 31.8309H2.63069C2.66416 31.8309 2.69132 31.858 2.69132 31.8915V32.5687C2.69132 32.6022 2.66416 32.6293 2.63069 32.6293H2.03632C2.00284 32.6293 1.97569 32.6022 1.97569 32.5687V31.8915ZM1.97569 32.9751C1.97569 32.9416 2.00284 32.9145 2.03632 32.9145H2.63069C2.66416 32.9145 2.69132 32.9416 2.69132 32.9751V33.6523C2.69132 33.6858 2.66416 33.7129 2.63069 33.7129H2.03632C2.00284 33.7129 1.97569 33.6858 1.97569 33.6523V32.9751ZM1.07461 19.972C1.07461 19.9385 1.10177 19.9114 1.13524 19.9114H1.72961C1.76308 19.9114 1.79024 19.9385 1.79024 19.972V20.6491C1.79024 20.6826 1.76308 20.7098 1.72961 20.7098H1.13524C1.10177 20.7098 1.07461 20.6826 1.07461 20.6491V19.972ZM1.07461 21.0556C1.07461 21.0221 1.10177 20.995 1.13524 20.995H1.72961C1.76308 20.995 1.79024 21.0221 1.79024 21.0556V21.7327C1.79024 21.7662 1.76308 21.7934 1.72961 21.7934H1.13524C1.10177 21.7934 1.07461 21.7662 1.07461 21.7327V21.0556ZM1.07461 22.1392C1.07461 22.1057 1.10177 22.0785 1.13524 22.0785H1.72961C1.76308 22.0785 1.79024 22.1057 1.79024 22.1392V22.8163C1.79024 22.8498 1.76308 22.877 1.72961 22.877H1.13524C1.10177 22.877 1.07461 22.8498 1.07461 22.8163V22.1392ZM1.07461 23.2228C1.07461 23.1893 1.10177 23.1621 1.13524 23.1621H1.72961C1.76308 23.1621 1.79024 23.1893 1.79024 23.2228V23.8999C1.79024 23.9334 1.76308 23.9606 1.72961 23.9606H1.13524C1.10177 23.9606 1.07461 23.9334 1.07461 23.8999V23.2228ZM1.07461 24.3064C1.07461 24.2729 1.10177 24.2457 1.13524 24.2457H1.72961C1.76308 24.2457 1.79024 24.2729 1.79024 24.3064V24.9835C1.79024 25.017 1.76308 25.0442 1.72961 25.0442H1.13524C1.10177 25.0442 1.07461 25.017 1.07461 24.9835V24.3064ZM1.07461 25.39C1.07461 25.3565 1.10177 25.3293 1.13524 25.3293H1.72961C1.76308 25.3293 1.79024 25.3565 1.79024 25.39V26.0671C1.79024 26.1006 1.76308 26.1278 1.72961 26.1278H1.13524C1.10177 26.1278 1.07461 26.1006 1.07461 26.0671V25.39ZM1.07461 26.4736C1.07461 26.4401 1.10177 26.4129 1.13524 26.4129H1.72961C1.76308 26.4129 1.79024 26.4401 1.79024 26.4736V27.1507C1.79024 27.1842 1.76308 27.2114 1.72961 27.2114H1.13524C1.10177 27.2114 1.07461 27.1842 1.07461 27.1507V26.4736ZM1.07461 27.5572C1.07461 27.5237 1.10177 27.4965 1.13524 27.4965H1.72961C1.76308 27.4965 1.79024 27.5237 1.79024 27.5572V28.2343C1.79024 28.2678 1.76308 28.295 1.72961 28.295H1.13524C1.10177 28.295 1.07461 28.2678 1.07461 28.2343V27.5572ZM1.07461 28.6408C1.07461 28.6073 1.10177 28.5801 1.13524 28.5801H1.72961C1.76308 28.5801 1.79024 28.6073 1.79024 28.6408V29.3179C1.79024 29.3514 1.76308 29.3786 1.72961 29.3786H1.13524C1.10177 29.3786 1.07461 29.3514 1.07461 29.3179V28.6408ZM1.07461 29.7244C1.07461 29.6909 1.10177 29.6637 1.13524 29.6637H1.72961C1.76308 29.6637 1.79024 29.6909 1.79024 29.7244V30.4015C1.79024 30.435 1.76308 30.4621 1.72961 30.4621H1.13524C1.10177 30.4621 1.07461 30.435 1.07461 30.4015V29.7244ZM1.07461 30.8079C1.07461 30.7745 1.10177 30.7473 1.13524 30.7473H1.72961C1.76308 30.7473 1.79024 30.7745 1.79024 30.8079V31.4851C1.79024 31.5186 1.76308 31.5457 1.72961 31.5457H1.13524C1.10177 31.5457 1.07461 31.5186 1.07461 31.4851V30.8079ZM1.07461 31.8915C1.07461 31.858 1.10177 31.8309 1.13524 31.8309H1.72961C1.76308 31.8309 1.79024 31.858 1.79024 31.8915V32.5687C1.79024 32.6022 1.76308 32.6293 1.72961 32.6293H1.13524C1.10177 32.6293 1.07461 32.6022 1.07461 32.5687V31.8915ZM1.07461 32.9751C1.07461 32.9416 1.10177 32.9145 1.13524 32.9145H1.72961C1.76308 32.9145 1.79024 32.9416 1.79024 32.9751V33.6523C1.79024 33.6858 1.76308 33.7129 1.72961 33.7129H1.13524C1.10177 33.7129 1.07461 33.6858 1.07461 33.6523V32.9751Z" fill="#24324A"/>
<path d="M1.70872 17.0698H1.14691V18.8885H1.70872V17.0698Z" fill="#24324A"/>
<path d="M3.09478 0.484558H2.51489V8.51237H3.09478V0.484558Z" fill="#24324A"/>
<path d="M1.70872 4.474H1.14691V11.9369H1.70872V4.474Z" fill="#24324A"/>
<path d="M1.02487 0.484558H0.464844V3.75886H1.02487V0.484558Z" fill="#24324A"/>
<path d="M1.70872 12.6512H1.14691V16.3555H1.70872V12.6512Z" fill="#24324A"/>
<path d="M6.79054 24.367H6.50372V24.9228H6.79054H6.91176H7.19947V24.367H6.91176H6.79054Z" fill="#24324A"/>
<path d="M8.57637 18.9491H7.78931V19.504H8.57637V18.9491Z" fill="#24324A"/>
<path d="M6.79054 25.4507H6.50372V26.0065H6.79054H6.91176H7.19947V25.4507H6.91176H6.79054Z" fill="#24324A"/>
<path d="M6.79054 22.1999H6.50372V22.7557H6.79054H6.91176H7.19947V22.1999H6.91176H6.79054Z" fill="#24324A"/>
<path d="M8.57637 20.0327H7.78931V20.5876H8.57637V20.0327Z" fill="#24324A"/>
<path d="M6.79054 26.5342H6.50372V27.0901H6.79054H6.91176H7.19947V26.5342H6.91176H6.79054Z" fill="#24324A"/>
<path d="M6.79054 23.2835H6.50372V23.8393H6.79054H6.91176H7.19947V23.2835H6.91176H6.79054Z" fill="#24324A"/>
<path d="M6.79054 18.9491H6.50372V19.5049H6.79054H6.91176H7.19947V18.9491H6.91176H6.79054Z" fill="#24324A"/>
<path d="M6.7906 17.1449H3.21613V35.3696H6.7906H6.91181H10.4863V17.1449H6.91181H6.7906ZM4.65912 33.6523C4.65912 33.6858 4.63196 33.713 4.59849 33.713H3.68928C3.65581 33.713 3.62865 33.6858 3.62865 33.6523V32.9752C3.62865 32.9417 3.65581 32.9145 3.68928 32.9145H4.59849C4.63196 32.9145 4.65912 32.9417 4.65912 32.9752V33.6523ZM4.65912 32.5687C4.65912 32.6022 4.63196 32.6294 4.59849 32.6294H3.68928C3.65581 32.6294 3.62865 32.6022 3.62865 32.5687V31.8916C3.62865 31.8581 3.65581 31.8309 3.68928 31.8309H4.59849C4.63196 31.8309 4.65912 31.8581 4.65912 31.8916V32.5687ZM4.65912 31.4851C4.65912 31.5186 4.63196 31.5458 4.59849 31.5458H3.68928C3.65581 31.5458 3.62865 31.5186 3.62865 31.4851V30.808C3.62865 30.7745 3.65581 30.7473 3.68928 30.7473H4.59849C4.63196 30.7473 4.65912 30.7745 4.65912 30.808V31.4851ZM4.65912 30.4015C4.65912 30.435 4.63196 30.4622 4.59849 30.4622H3.68928C3.65581 30.4622 3.62865 30.435 3.62865 30.4015V29.7244C3.62865 29.6909 3.65581 29.6637 3.68928 29.6637H4.59849C4.63196 29.6637 4.65912 29.6909 4.65912 29.7244V30.4015ZM4.65912 29.3179C4.65912 29.3514 4.63196 29.3786 4.59849 29.3786H3.68928C3.65581 29.3786 3.62865 29.3514 3.62865 29.3179V28.6408C3.62865 28.6073 3.65581 28.5801 3.68928 28.5801H4.59849C4.63196 28.5801 4.65912 28.6073 4.65912 28.6408V29.3179ZM4.65912 28.2343C4.65912 28.2678 4.63196 28.295 4.59849 28.295H3.68928C3.65581 28.295 3.62865 28.2678 3.62865 28.2343V27.5572C3.62865 27.5237 3.65581 27.4966 3.68928 27.4966H4.59849C4.63196 27.4966 4.65912 27.5237 4.65912 27.5572V28.2343ZM4.65912 27.1507C4.65912 27.1842 4.63196 27.2114 4.59849 27.2114H3.68928C3.65581 27.2114 3.62865 27.1842 3.62865 27.1507V26.4736C3.62865 26.4401 3.65581 26.413 3.68928 26.413H4.59849C4.63196 26.413 4.65912 26.4401 4.65912 26.4736V27.1507ZM4.65912 26.0671C4.65912 26.1006 4.63196 26.1278 4.59849 26.1278H3.68928C3.65581 26.1278 3.62865 26.1006 3.62865 26.0671V25.39C3.62865 25.3565 3.65581 25.3294 3.68928 25.3294H4.59849C4.63196 25.3294 4.65912 25.3565 4.65912 25.39V26.0671ZM4.65912 24.9836C4.65912 25.017 4.63196 25.0442 4.59849 25.0442H3.68928C3.65581 25.0442 3.62865 25.017 3.62865 24.9836V24.3064C3.62865 24.2729 3.65581 24.2458 3.68928 24.2458H4.59849C4.63196 24.2458 4.65912 24.2729 4.65912 24.3064V24.9836ZM4.65912 23.9C4.65912 23.9335 4.63196 23.9606 4.59849 23.9606H3.68928C3.65581 23.9606 3.62865 23.9335 3.62865 23.9V23.2228C3.62865 23.1893 3.65581 23.1622 3.68928 23.1622H4.59849C4.63196 23.1622 4.65912 23.1893 4.65912 23.2228V23.9ZM4.65912 22.8164C4.65912 22.8499 4.63196 22.877 4.59849 22.877H3.68928C3.65581 22.877 3.62865 22.8499 3.62865 22.8164V22.1392C3.62865 22.1057 3.65581 22.0786 3.68928 22.0786H4.59849C4.63196 22.0786 4.65912 22.1057 4.65912 22.1392V22.8164ZM4.65912 21.7328C4.65912 21.7663 4.63196 21.7934 4.59849 21.7934H3.68928C3.65581 21.7934 3.62865 21.7663 3.62865 21.7328V21.0556C3.62865 21.0221 3.65581 20.995 3.68928 20.995H4.59849C4.63196 20.995 4.65912 21.0221 4.65912 21.0556V21.7328ZM4.65912 20.6492C4.65912 20.6827 4.63196 20.7098 4.59849 20.7098H3.68928C3.65581 20.7098 3.62865 20.6827 3.62865 20.6492V19.9721C3.62865 19.9386 3.65581 19.9114 3.68928 19.9114H4.59849C4.63196 19.9114 4.65912 19.9386 4.65912 19.9721V20.6492ZM4.65912 19.5656C4.65912 19.5991 4.63196 19.6262 4.59849 19.6262H3.68928C3.65581 19.6262 3.62865 19.5991 3.62865 19.5656V18.8885C3.62865 18.855 3.65581 18.8278 3.68928 18.8278H4.59849C4.63196 18.8278 4.65912 18.855 4.65912 18.8885V19.5656ZM6.03607 33.6523C6.03607 33.6858 6.00894 33.713 5.97546 33.713H5.06623C5.03276 33.713 5.0056 33.6858 5.0056 33.6523V32.9752C5.0056 32.9417 5.03276 32.9145 5.06623 32.9145H5.97546C6.00894 32.9145 6.03607 32.9417 6.03607 32.9752V33.6523ZM6.03607 32.5687C6.03607 32.6022 6.00894 32.6294 5.97546 32.6294H5.06623C5.03276 32.6294 5.0056 32.6022 5.0056 32.5687V31.8916C5.0056 31.8581 5.03276 31.8309 5.06623 31.8309H5.97546C6.00894 31.8309 6.03607 31.8581 6.03607 31.8916V32.5687ZM6.03607 31.4851C6.03607 31.5186 6.00894 31.5458 5.97546 31.5458H5.06623C5.03276 31.5458 5.0056 31.5186 5.0056 31.4851V30.808C5.0056 30.7745 5.03276 30.7473 5.06623 30.7473H5.97546C6.00894 30.7473 6.03607 30.7745 6.03607 30.808V31.4851ZM6.03607 30.4015C6.03607 30.435 6.00894 30.4622 5.97546 30.4622H5.06623C5.03276 30.4622 5.0056 30.435 5.0056 30.4015V29.7244C5.0056 29.6909 5.03276 29.6637 5.06623 29.6637H5.97546C6.00894 29.6637 6.03607 29.6909 6.03607 29.7244V30.4015ZM6.03607 29.3179C6.03607 29.3514 6.00894 29.3786 5.97546 29.3786H5.06623C5.03276 29.3786 5.0056 29.3514 5.0056 29.3179V28.6408C5.0056 28.6073 5.03276 28.5801 5.06623 28.5801H5.97546C6.00894 28.5801 6.03607 28.6073 6.03607 28.6408V29.3179ZM6.03607 28.2343C6.03607 28.2678 6.00894 28.295 5.97546 28.295H5.06623C5.03276 28.295 5.0056 28.2678 5.0056 28.2343V27.5572C5.0056 27.5237 5.03276 27.4966 5.06623 27.4966H5.97546C6.00894 27.4966 6.03607 27.5237 6.03607 27.5572V28.2343ZM6.03607 27.1507C6.03607 27.1842 6.00894 27.2114 5.97546 27.2114H5.06623C5.03276 27.2114 5.0056 27.1842 5.0056 27.1507V26.4736C5.0056 26.4401 5.03276 26.413 5.06623 26.413H5.97546C6.00894 26.413 6.03607 26.4401 6.03607 26.4736V27.1507ZM6.03607 26.0671C6.03607 26.1006 6.00894 26.1278 5.97546 26.1278H5.06623C5.03276 26.1278 5.0056 26.1006 5.0056 26.0671V25.39C5.0056 25.3565 5.03276 25.3294 5.06623 25.3294H5.97546C6.00894 25.3294 6.03607 25.3565 6.03607 25.39V26.0671ZM6.03607 24.9836C6.03607 25.017 6.00894 25.0442 5.97546 25.0442H5.06623C5.03276 25.0442 5.0056 25.017 5.0056 24.9836V24.3064C5.0056 24.2729 5.03276 24.2458 5.06623 24.2458H5.97546C6.00894 24.2458 6.03607 24.2729 6.03607 24.3064V24.9836ZM6.03607 23.9C6.03607 23.9335 6.00894 23.9606 5.97546 23.9606H5.06623C5.03276 23.9606 5.0056 23.9335 5.0056 23.9V23.2228C5.0056 23.1893 5.03276 23.1622 5.06623 23.1622H5.97546C6.00894 23.1622 6.03607 23.1893 6.03607 23.2228V23.9ZM6.03607 22.8164C6.03607 22.8499 6.00894 22.877 5.97546 22.877H5.06623C5.03276 22.877 5.0056 22.8499 5.0056 22.8164V22.1392C5.0056 22.1057 5.03276 22.0786 5.06623 22.0786H5.97546C6.00894 22.0786 6.03607 22.1057 6.03607 22.1392V22.8164ZM6.03607 21.7328C6.03607 21.7663 6.00894 21.7934 5.97546 21.7934H5.06623C5.03276 21.7934 5.0056 21.7663 5.0056 21.7328V21.0556C5.0056 21.0221 5.03276 20.995 5.06623 20.995H5.97546C6.00894 20.995 6.03607 21.0221 6.03607 21.0556V21.7328ZM6.03607 20.6492C6.03607 20.6827 6.00894 20.7098 5.97546 20.7098H5.06623C5.03276 20.7098 5.0056 20.6827 5.0056 20.6492V19.9721C5.0056 19.9386 5.03276 19.9114 5.06623 19.9114H5.97546C6.00894 19.9114 6.03607 19.9386 6.03607 19.9721V20.6492ZM6.03607 19.5656C6.03607 19.5991 6.00894 19.6262 5.97546 19.6262H5.06623C5.03276 19.6262 5.0056 19.5991 5.0056 19.5656V18.8885C5.0056 18.855 5.03276 18.8278 5.06623 18.8278H5.97546C6.00894 18.8278 6.03607 18.855 6.03607 18.8885V19.5656ZM7.32165 33.6523C7.32165 33.6858 7.29451 33.713 7.26104 33.713H6.91272H6.7915H6.44319C6.40971 33.713 6.38258 33.6858 6.38258 33.6523V32.9752C6.38258 32.9417 6.40971 32.9145 6.44319 32.9145H6.7915H6.91272H7.26104C7.29451 32.9145 7.32165 32.9417 7.32165 32.9752V33.6523ZM7.32165 32.5687C7.32165 32.6022 7.29451 32.6294 7.26104 32.6294H6.91272H6.7915H6.44319C6.40971 32.6294 6.38258 32.6022 6.38258 32.5687V31.8916C6.38258 31.8581 6.40971 31.8309 6.44319 31.8309H6.7915H6.91272H7.26104C7.29451 31.8309 7.32165 31.8581 7.32165 31.8916V32.5687ZM7.32165 31.4851C7.32165 31.5186 7.29451 31.5458 7.26104 31.5458H6.91272H6.7915H6.44319C6.40971 31.5458 6.38258 31.5186 6.38258 31.4851V30.808C6.38258 30.7745 6.40971 30.7473 6.44319 30.7473H6.7915H6.91272H7.26104C7.29451 30.7473 7.32165 30.7745 7.32165 30.808V31.4851ZM7.32165 30.4015C7.32165 30.435 7.29451 30.4622 7.26104 30.4622H6.91272H6.7915H6.44319C6.40971 30.4622 6.38258 30.435 6.38258 30.4015V29.7244C6.38258 29.6909 6.40971 29.6637 6.44319 29.6637H6.7915H6.91272H7.26104C7.29451 29.6637 7.32165 29.6909 7.32165 29.7244V30.4015ZM7.32165 29.3179C7.32165 29.3514 7.29451 29.3786 7.26104 29.3786H6.91272H6.7915H6.44319C6.40971 29.3786 6.38258 29.3514 6.38258 29.3179V28.6408C6.38258 28.6073 6.40971 28.5801 6.44319 28.5801H6.7915H6.91272H7.26104C7.29451 28.5801 7.32165 28.6073 7.32165 28.6408V29.3179ZM7.32165 28.2343C7.32165 28.2678 7.29451 28.295 7.26104 28.295H6.91272H6.7915H6.44319C6.40971 28.295 6.38258 28.2678 6.38258 28.2343V27.5572C6.38258 27.5237 6.40971 27.4966 6.44319 27.4966H6.7915H6.91272H7.26104C7.29451 27.4966 7.32165 27.5237 7.32165 27.5572V28.2343ZM7.32165 27.1507C7.32165 27.1842 7.29451 27.2114 7.26104 27.2114H6.91272H6.7915H6.44319C6.40971 27.2114 6.38258 27.1842 6.38258 27.1507V26.4736C6.38258 26.4401 6.40971 26.413 6.44319 26.413H6.7915H6.91272H7.26104C7.29451 26.413 7.32165 26.4401 7.32165 26.4736V27.1507ZM7.32165 26.0671C7.32165 26.1006 7.29451 26.1278 7.26104 26.1278H6.91272H6.7915H6.44319C6.40971 26.1278 6.38258 26.1006 6.38258 26.0671V25.39C6.38258 25.3565 6.40971 25.3294 6.44319 25.3294H6.7915H6.91272H7.26104C7.29451 25.3294 7.32165 25.3565 7.32165 25.39V26.0671ZM7.32165 24.9836C7.32165 25.017 7.29451 25.0442 7.26104 25.0442H6.91272H6.7915H6.44319C6.40971 25.0442 6.38258 25.017 6.38258 24.9836V24.3064C6.38258 24.2729 6.40971 24.2458 6.44319 24.2458H6.7915H6.91272H7.26104C7.29451 24.2458 7.32165 24.2729 7.32165 24.3064V24.9836ZM7.32165 23.9C7.32165 23.9335 7.29451 23.9606 7.26104 23.9606H6.91272H6.7915H6.44319C6.40971 23.9606 6.38258 23.9335 6.38258 23.9V23.2228C6.38258 23.1893 6.40971 23.1622 6.44319 23.1622H6.7915H6.91272H7.26104C7.29451 23.1622 7.32165 23.1893 7.32165 23.2228V23.9ZM7.32165 22.8164C7.32165 22.8499 7.29451 22.877 7.26104 22.877H6.91272H6.7915H6.44319C6.40971 22.877 6.38258 22.8499 6.38258 22.8164V22.1392C6.38258 22.1057 6.40971 22.0786 6.44319 22.0786H6.7915H6.91272H7.26104C7.29451 22.0786 7.32165 22.1057 7.32165 22.1392V22.8164ZM7.32165 21.7328C7.32165 21.7663 7.29451 21.7934 7.26104 21.7934H6.91272H6.7915H6.44319C6.40971 21.7934 6.38258 21.7663 6.38258 21.7328V21.0556C6.38258 21.0221 6.40971 20.995 6.44319 20.995H6.7915H6.91272H7.26104C7.29451 20.995 7.32165 21.0221 7.32165 21.0556V21.7328ZM7.32165 20.6492C7.32165 20.6827 7.29451 20.7098 7.26104 20.7098H6.91272H6.7915H6.44319C6.40971 20.7098 6.38258 20.6827 6.38258 20.6492V19.9721C6.38258 19.9386 6.40971 19.9114 6.44319 19.9114H6.7915H6.91272H7.26104C7.29451 19.9114 7.32165 19.9386 7.32165 19.9721V20.6492ZM9.0442 18.8885C9.0442 18.855 9.07133 18.8278 9.10481 18.8278H10.014C10.0475 18.8278 10.0746 18.855 10.0746 18.8885V19.5656C10.0746 19.5991 10.0475 19.6262 10.014 19.6262H9.10481C9.07133 19.6262 9.0442 19.5991 9.0442 19.5656V18.8885ZM9.0442 19.9721C9.0442 19.9386 9.07133 19.9114 9.10481 19.9114H10.014C10.0475 19.9114 10.0746 19.9386 10.0746 19.9721V20.6492C10.0746 20.6827 10.0475 20.7098 10.014 20.7098H9.10481C9.07133 20.7098 9.0442 20.6827 9.0442 20.6492V19.9721ZM9.0442 21.0556C9.0442 21.0221 9.07133 20.995 9.10481 20.995H10.014C10.0475 20.995 10.0746 21.0221 10.0746 21.0556V21.7328C10.0746 21.7663 10.0475 21.7934 10.014 21.7934H9.10481C9.07133 21.7934 9.0442 21.7663 9.0442 21.7328V21.0556ZM9.0442 22.1392C9.0442 22.1057 9.07133 22.0786 9.10481 22.0786H10.014C10.0475 22.0786 10.0746 22.1057 10.0746 22.1392V22.8164C10.0746 22.8499 10.0475 22.877 10.014 22.877H9.10481C9.07133 22.877 9.0442 22.8499 9.0442 22.8164V22.1392ZM9.0442 23.2228C9.0442 23.1893 9.07133 23.1622 9.10481 23.1622H10.014C10.0475 23.1622 10.0746 23.1893 10.0746 23.2228V23.9C10.0746 23.9335 10.0475 23.9606 10.014 23.9606H9.10481C9.07133 23.9606 9.0442 23.9335 9.0442 23.9V23.2228ZM9.0442 24.3064C9.0442 24.2729 9.07133 24.2458 9.10481 24.2458H10.014C10.0475 24.2458 10.0746 24.2729 10.0746 24.3064V24.9836C10.0746 25.017 10.0475 25.0442 10.014 25.0442H9.10481C9.07133 25.0442 9.0442 25.017 9.0442 24.9836V24.3064ZM9.0442 25.39C9.0442 25.3565 9.07133 25.3294 9.10481 25.3294H10.014C10.0475 25.3294 10.0746 25.3565 10.0746 25.39V26.0671C10.0746 26.1006 10.0475 26.1278 10.014 26.1278H9.10481C9.07133 26.1278 9.0442 26.1006 9.0442 26.0671V25.39ZM9.0442 26.4736C9.0442 26.4401 9.07133 26.413 9.10481 26.413H10.014C10.0475 26.413 10.0746 26.4401 10.0746 26.4736V27.1507C10.0746 27.1842 10.0475 27.2114 10.014 27.2114H9.10481C9.07133 27.2114 9.0442 27.1842 9.0442 27.1507V26.4736ZM9.0442 27.5572C9.0442 27.5237 9.07133 27.4966 9.10481 27.4966H10.014C10.0475 27.4966 10.0746 27.5237 10.0746 27.5572V28.2343C10.0746 28.2678 10.0475 28.295 10.014 28.295H9.10481C9.07133 28.295 9.0442 28.2678 9.0442 28.2343V27.5572ZM9.0442 28.6408C9.0442 28.6073 9.07133 28.5801 9.10481 28.5801H10.014C10.0475 28.5801 10.0746 28.6073 10.0746 28.6408V29.3179C10.0746 29.3514 10.0475 29.3786 10.014 29.3786H9.10481C9.07133 29.3786 9.0442 29.3514 9.0442 29.3179V28.6408ZM9.0442 29.7244C9.0442 29.6909 9.07133 29.6637 9.10481 29.6637H10.014C10.0475 29.6637 10.0746 29.6909 10.0746 29.7244V30.4015C10.0746 30.435 10.0475 30.4622 10.014 30.4622H9.10481C9.07133 30.4622 9.0442 30.435 9.0442 30.4015V29.7244ZM9.0442 30.808C9.0442 30.7745 9.07133 30.7473 9.10481 30.7473H10.014C10.0475 30.7473 10.0746 30.7745 10.0746 30.808V31.4851C10.0746 31.5186 10.0475 31.5458 10.014 31.5458H9.10481C9.07133 31.5458 9.0442 31.5186 9.0442 31.4851V30.808ZM9.0442 31.8916C9.0442 31.8581 9.07133 31.8309 9.10481 31.8309H10.014C10.0475 31.8309 10.0746 31.8581 10.0746 31.8916V32.5687C10.0746 32.6022 10.0475 32.6294 10.014 32.6294H9.10481C9.07133 32.6294 9.0442 32.6022 9.0442 32.5687V31.8916ZM9.0442 32.9752C9.0442 32.9417 9.07133 32.9145 9.10481 32.9145H10.014C10.0475 32.9145 10.0746 32.9417 10.0746 32.9752V33.6523C10.0746 33.6858 10.0475 33.713 10.014 33.713H9.10481C9.07133 33.713 9.0442 33.6858 9.0442 33.6523V32.9752ZM7.66725 18.8885C7.66725 18.855 7.69438 18.8278 7.72786 18.8278H8.63709C8.67056 18.8278 8.69769 18.855 8.69769 18.8885V19.5656C8.69769 19.5991 8.67056 19.6262 8.63709 19.6262H7.72786C7.69438 19.6262 7.66725 19.5991 7.66725 19.5656V18.8885ZM7.66725 19.9721C7.66725 19.9386 7.69438 19.9114 7.72786 19.9114H8.63709C8.67056 19.9114 8.69769 19.9386 8.69769 19.9721V20.6492C8.69769 20.6827 8.67056 20.7098 8.63709 20.7098H7.72786C7.69438 20.7098 7.66725 20.6827 7.66725 20.6492V19.9721ZM7.66725 21.0556C7.66725 21.0221 7.69438 20.995 7.72786 20.995H8.63709C8.67056 20.995 8.69769 21.0221 8.69769 21.0556V21.7328C8.69769 21.7663 8.67056 21.7934 8.63709 21.7934H7.72786C7.69438 21.7934 7.66725 21.7663 7.66725 21.7328V21.0556ZM7.66725 22.1392C7.66725 22.1057 7.69438 22.0786 7.72786 22.0786H8.63709C8.67056 22.0786 8.69769 22.1057 8.69769 22.1392V22.8164C8.69769 22.8499 8.67056 22.877 8.63709 22.877H7.72786C7.69438 22.877 7.66725 22.8499 7.66725 22.8164V22.1392ZM7.66725 23.2228C7.66725 23.1893 7.69438 23.1622 7.72786 23.1622H8.63709C8.67056 23.1622 8.69769 23.1893 8.69769 23.2228V23.9C8.69769 23.9335 8.67056 23.9606 8.63709 23.9606H7.72786C7.69438 23.9606 7.66725 23.9335 7.66725 23.9V23.2228ZM7.66725 24.3064C7.66725 24.2729 7.69438 24.2458 7.72786 24.2458H8.63709C8.67056 24.2458 8.69769 24.2729 8.69769 24.3064V24.9836C8.69769 25.017 8.67056 25.0442 8.63709 25.0442H7.72786C7.69438 25.0442 7.66725 25.017 7.66725 24.9836V24.3064ZM7.66725 25.39C7.66725 25.3565 7.69438 25.3294 7.72786 25.3294H8.63709C8.67056 25.3294 8.69769 25.3565 8.69769 25.39V26.0671C8.69769 26.1006 8.67056 26.1278 8.63709 26.1278H7.72786C7.69438 26.1278 7.66725 26.1006 7.66725 26.0671V25.39ZM7.66725 26.4736C7.66725 26.4401 7.69438 26.413 7.72786 26.413H8.63709C8.67056 26.413 8.69769 26.4401 8.69769 26.4736V27.1507C8.69769 27.1842 8.67056 27.2114 8.63709 27.2114H7.72786C7.69438 27.2114 7.66725 27.1842 7.66725 27.1507V26.4736ZM7.66725 27.5572C7.66725 27.5237 7.69438 27.4966 7.72786 27.4966H8.63709C8.67056 27.4966 8.69769 27.5237 8.69769 27.5572V28.2343C8.69769 28.2678 8.67056 28.295 8.63709 28.295H7.72786C7.69438 28.295 7.66725 28.2678 7.66725 28.2343V27.5572ZM7.66725 28.6408C7.66725 28.6073 7.69438 28.5801 7.72786 28.5801H8.63709C8.67056 28.5801 8.69769 28.6073 8.69769 28.6408V29.3179C8.69769 29.3514 8.67056 29.3786 8.63709 29.3786H7.72786C7.69438 29.3786 7.66725 29.3514 7.66725 29.3179V28.6408ZM7.66725 29.7244C7.66725 29.6909 7.69438 29.6637 7.72786 29.6637H8.63709C8.67056 29.6637 8.69769 29.6909 8.69769 29.7244V30.4015C8.69769 30.435 8.67056 30.4622 8.63709 30.4622H7.72786C7.69438 30.4622 7.66725 30.435 7.66725 30.4015V29.7244ZM7.66725 30.808C7.66725 30.7745 7.69438 30.7473 7.72786 30.7473H8.63709C8.67056 30.7473 8.69769 30.7745 8.69769 30.808V31.4851C8.69769 31.5186 8.67056 31.5458 8.63709 31.5458H7.72786C7.69438 31.5458 7.66725 31.5186 7.66725 31.4851V30.808ZM7.66725 31.8916C7.66725 31.8581 7.69438 31.8309 7.72786 31.8309H8.63709C8.67056 31.8309 8.69769 31.8581 8.69769 31.8916V32.5687C8.69769 32.6022 8.67056 32.6294 8.63709 32.6294H7.72786C7.69438 32.6294 7.66725 32.6022 7.66725 32.5687V31.8916ZM7.66725 32.9752C7.66725 32.9417 7.69438 32.9145 7.72786 32.9145H8.63709C8.67056 32.9145 8.69769 32.9417 8.69769 32.9752V33.6523C8.69769 33.6858 8.67056 33.713 8.63709 33.713H7.72786C7.69438 33.713 7.66725 33.6858 7.66725 33.6523V32.9752ZM7.26013 18.8278C7.29361 18.8278 7.32074 18.855 7.32074 18.8885V19.5656C7.32074 19.5991 7.29361 19.6262 7.26013 19.6262H6.91181H6.7906H6.44228C6.40881 19.6262 6.38167 19.5991 6.38167 19.5656V18.8885C6.38167 18.855 6.40881 18.8278 6.44228 18.8278H6.7906H6.91181H7.26013Z" fill="#24324A"/>
<path d="M6.79054 20.0327H6.50372V20.5885H6.79054H6.91176H7.19947V20.0327H6.91176H6.79054Z" fill="#24324A"/>
<path d="M6.79054 28.7014H6.50372V29.2572H6.79054H6.91176H7.19947V28.7014H6.91176H6.79054Z" fill="#24324A"/>
<path d="M6.79054 21.1163H6.50372V21.6721H6.79054H6.91176H7.19947V21.1163H6.91176H6.79054Z" fill="#24324A"/>
<path d="M6.79054 27.6178H6.50372V28.1737H6.79054H6.91176H7.19947V27.6178H6.91176H6.79054Z" fill="#24324A"/>
<path d="M13.2374 16.4777H11.9952V16.9484H13.2374V16.4777Z" fill="#24324A"/>
<path d="M6.7906 4.85335H3.21613V7.39259H6.7906H6.91181H10.4863V4.85335H6.91181H6.7906ZM4.62111 6.42759C4.62111 6.46109 4.59397 6.48824 4.5605 6.48824H3.68928C3.65581 6.48824 3.62865 6.46109 3.62865 6.42759V5.88624C3.62865 5.85275 3.65581 5.82559 3.68928 5.82559H4.5605C4.59397 5.82559 4.62111 5.85275 4.62111 5.88624V6.42759ZM6.31291 6.42759C6.31291 6.46109 6.28576 6.48824 6.25228 6.48824H5.38107C5.34759 6.48824 5.32046 6.46109 5.32046 6.42759V5.55583C5.32046 5.52233 5.34759 5.49517 5.38107 5.49517H6.25228C6.28576 5.49517 6.31291 5.52233 6.31291 5.55583V6.42759ZM9.08219 5.88534C9.08219 5.85184 9.10935 5.82469 9.14282 5.82469H10.014C10.0475 5.82469 10.0746 5.85184 10.0746 5.88534V6.42669C10.0746 6.46018 10.0475 6.48734 10.014 6.48734H9.14282C9.10935 6.48734 9.08219 6.46018 9.08219 6.42669V5.88534ZM7.39041 5.55583C7.39041 5.52233 7.41754 5.49517 7.45101 5.49517H8.32225C8.35573 5.49517 8.38286 5.52233 8.38286 5.55583V6.42759C8.38286 6.46109 8.35573 6.48824 8.32225 6.48824H7.45101C7.41754 6.48824 7.39041 6.46109 7.39041 6.42759V5.55583Z" fill="#24324A"/>
<path d="M9.95337 5.94685H9.20337V6.36689H9.95337V5.94685Z" fill="#24324A"/>
<path d="M7.99111 44.1931H6.85211V44.5724H7.99111V44.1931Z" fill="#24324A"/>
<path d="M13.2374 12.0592H11.9952V12.5299H13.2374V12.0592Z" fill="#24324A"/>
<path d="M13.2374 3.88109H11.9952V4.35182H13.2374V3.88109Z" fill="#24324A"/>
<path d="M6.79054 31.9522H6.50372V32.508H6.79054H6.91176H7.19947V31.9522H6.91176H6.79054Z" fill="#24324A"/>
<path d="M6.79054 29.785H6.50372V30.3409H6.79054H6.91176H7.19947V29.785H6.91176H6.79054Z" fill="#24324A"/>
<path d="M6.79054 30.8686H6.50372V31.4244H6.79054H6.91176H7.19947V30.8686H6.91176H6.79054Z" fill="#24324A"/>
<path d="M8.26149 5.61649H7.51154V6.36694H8.26149V5.61649Z" fill="#24324A"/>
<path d="M6.79054 33.0358H6.50372V33.5916H6.79054H6.91176H7.19947V33.0358H6.91176H6.79054Z" fill="#24324A"/>
<path d="M6.79055 40.6617H3.21698V41.3624H6.79055H6.91176H10.4862V40.6617H6.91176H6.79055Z" fill="#24324A"/>
<path d="M8.57637 33.0358H7.78931V33.5907H8.57637V33.0358Z" fill="#24324A"/>
<path d="M8.57637 30.8686H7.78931V31.4235H8.57637V30.8686Z" fill="#24324A"/>
<path d="M6.79055 35.4908H3.21698V35.4935V36.0141V36.1915H6.79055H6.91176H10.4862V36.0141V35.4935V35.4908H6.91176H6.79055Z" fill="#24324A"/>
<path d="M8.57637 31.9522H7.78931V32.5071H8.57637V31.9522Z" fill="#24324A"/>
<path d="M9.95333 24.367H9.16626V24.9219H9.95333V24.367Z" fill="#24324A"/>
<path d="M9.95333 23.2835H9.16626V23.8384H9.95333V23.2835Z" fill="#24324A"/>
<path d="M8.57637 29.785H7.78931V30.34H8.57637V29.785Z" fill="#24324A"/>
<path d="M11.6062 20.0327H11.1331V20.5876H11.6062V20.0327Z" fill="#24324A"/>
<path d="M9.95333 22.1999H9.16626V22.7548H9.95333V22.1999Z" fill="#24324A"/>
<path d="M9.95333 21.1163H9.16626V21.6712H9.95333V21.1163Z" fill="#24324A"/>
<path d="M9.95333 18.9491H9.16626V19.504H9.95333V18.9491Z" fill="#24324A"/>
<path d="M9.95333 25.4507H9.16626V26.0056H9.95333V25.4507Z" fill="#24324A"/>
<path d="M9.95333 20.0327H9.16626V20.5876H9.95333V20.0327Z" fill="#24324A"/>
<path d="M8.57637 21.1163H7.78931V21.6712H8.57637V21.1163Z" fill="#24324A"/>
<path d="M8.57637 25.4507H7.78931V26.0056H8.57637V25.4507Z" fill="#24324A"/>
<path d="M8.57637 24.367H7.78931V24.9219H8.57637V24.367Z" fill="#24324A"/>
<path d="M9.95333 29.785H9.16626V30.34H9.95333V29.785Z" fill="#24324A"/>
<path d="M9.95333 30.8686H9.16626V31.4235H9.95333V30.8686Z" fill="#24324A"/>
<path d="M8.57637 23.2835H7.78931V23.8384H8.57637V23.2835Z" fill="#24324A"/>
<path d="M8.57637 22.1999H7.78931V22.7548H8.57637V22.1999Z" fill="#24324A"/>
<path d="M8.57637 27.6178H7.78931V28.1727H8.57637V27.6178Z" fill="#24324A"/>
<path d="M9.95333 26.5342H9.16626V27.0892H9.95333V26.5342Z" fill="#24324A"/>
<path d="M8.57637 28.7014H7.78931V29.2563H8.57637V28.7014Z" fill="#24324A"/>
<path d="M8.57637 26.5342H7.78931V27.0892H8.57637V26.5342Z" fill="#24324A"/>
<path d="M9.95333 28.7014H9.16626V29.2563H9.95333V28.7014Z" fill="#24324A"/>
<path d="M9.95333 27.6178H9.16626V28.1727H9.95333V27.6178Z" fill="#24324A"/>
<path d="M7.99111 42.0259H6.85211V42.3373H7.99111V42.0259Z" fill="#24324A"/>
<path d="M7.99111 42.4595H6.85211V42.7709H7.99111V42.4595Z" fill="#24324A"/>
<path d="M12.5064 29.785H12.0332V30.34H12.5064V29.785Z" fill="#24324A"/>
<path d="M12.5064 33.0358H12.0332V33.5907H12.5064V33.0358Z" fill="#24324A"/>
<path d="M12.5064 30.8686H12.0332V31.4235H12.5064V30.8686Z" fill="#24324A"/>
<path d="M12.5064 28.7014H12.0332V29.2563H12.5064V28.7014Z" fill="#24324A"/>
<path d="M9.25121 42.8931H8.11218V43.2045H9.25121V42.8931Z" fill="#24324A"/>
<path d="M10.4871 42.8931H9.37335V43.2045H10.4871V42.8931Z" fill="#24324A"/>
<path d="M9.95333 31.9522H9.16626V32.5071H9.95333V31.9522Z" fill="#24324A"/>
<path d="M12.5064 27.6178H12.0332V28.1727H12.5064V27.6178Z" fill="#24324A"/>
<path d="M10.4871 42.4595H9.37335V42.7709H10.4871V42.4595Z" fill="#24324A"/>
<path d="M9.95333 33.0358H9.16626V33.5907H9.95333V33.0358Z" fill="#24324A"/>
<path d="M12.5064 31.9522H12.0332V32.5071H12.5064V31.9522Z" fill="#24324A"/>
<path d="M9.25121 42.4595H8.11218V42.7709H9.25121V42.4595Z" fill="#24324A"/>
<path d="M12.5064 22.1999H12.0332V22.7548H12.5064V22.1999Z" fill="#24324A"/>
<path d="M11.6053 35.5542H10.6083V35.9526H11.6053V35.5542Z" fill="#24324A"/>
<path d="M12.5064 23.2835H12.0332V23.8384H12.5064V23.2835Z" fill="#24324A"/>
<path d="M11.7935 8.63458H10.6083V9.10531H11.7935V8.63458Z" fill="#24324A"/>
<path d="M12.5064 21.1163H12.0332V21.6712H12.5064V21.1163Z" fill="#24324A"/>
<path d="M11.6053 38.9571H10.6083V39.3554H11.6053V38.9571Z" fill="#24324A"/>
<path d="M12.5064 24.367H12.0332V24.9219H12.5064V24.367Z" fill="#24324A"/>
<path d="M7.99111 41.4845H6.85211V41.9046H7.99111V41.4845Z" fill="#24324A"/>
<path d="M12.5064 26.5342H12.0332V27.0892H12.5064V26.5342Z" fill="#24324A"/>
<path d="M12.5064 25.4507H12.0332V26.0056H12.5064V25.4507Z" fill="#24324A"/>
<path d="M9.25121 41.4845H8.11218V41.9046H9.25121V41.4845Z" fill="#24324A"/>
<path d="M7.99111 42.8931H6.85211V43.2045H7.99111V42.8931Z" fill="#24324A"/>
<path d="M11.6062 30.8686H11.1331V31.4235H11.6062V30.8686Z" fill="#24324A"/>
<path d="M9.25121 43.7595H8.11218V44.0709H9.25121V43.7595Z" fill="#24324A"/>
<path d="M10.4871 42.0259H9.37335V42.3373H10.4871V42.0259Z" fill="#24324A"/>
<path d="M11.6062 25.4507H11.1331V26.0056H11.6062V25.4507Z" fill="#24324A"/>
<path d="M11.6062 27.6178H11.1331V28.1727H11.6062V27.6178Z" fill="#24324A"/>
<path d="M7.99111 43.7595H6.85211V44.0709H7.99111V43.7595Z" fill="#24324A"/>
<path d="M10.4871 43.7595H9.37335V44.0709H10.4871V43.7595Z" fill="#24324A"/>
<path d="M11.6062 26.5342H11.1331V27.0892H11.6062V26.5342Z" fill="#24324A"/>
<path d="M9.25121 44.1931H8.11218V44.5724H9.25121V44.1931Z" fill="#24324A"/>
<path d="M11.6062 21.1163H11.1331V21.6712H11.6062V21.1163Z" fill="#24324A"/>
<path d="M10.4871 44.1931H9.37335V44.5724H10.4871V44.1931Z" fill="#24324A"/>
<path d="M11.6062 23.2835H11.1331V23.8384H11.6062V23.2835Z" fill="#24324A"/>
<path d="M11.6062 24.367H11.1331V24.9219H11.6062V24.367Z" fill="#24324A"/>
<path d="M10.4871 41.4845H9.37335V41.9046H10.4871V41.4845Z" fill="#24324A"/>
<path d="M11.6062 22.1999H11.1331V22.7548H11.6062V22.1999Z" fill="#24324A"/>
<path d="M7.99111 43.3268H6.85211V43.6382H7.99111V43.3268Z" fill="#24324A"/>
<path d="M11.6062 31.9522H11.1331V32.5071H11.6062V31.9522Z" fill="#24324A"/>
<path d="M11.6062 28.7014H11.1331V29.2563H11.6062V28.7014Z" fill="#24324A"/>
<path d="M11.6062 33.0358H11.1331V33.5907H11.6062V33.0358Z" fill="#24324A"/>
<path d="M10.4871 43.3268H9.37335V43.6382H10.4871V43.3268Z" fill="#24324A"/>
<path d="M9.25121 43.3268H8.11218V43.6382H9.25121V43.3268Z" fill="#24324A"/>
<path d="M9.25121 42.0259H8.11218V42.3373H9.25121V42.0259Z" fill="#24324A"/>
<path d="M11.6062 29.785H11.1331V30.34H11.6062V29.785Z" fill="#24324A"/>
<path d="M12.5064 20.0327H12.0332V20.5876H12.5064V20.0327Z" fill="#24324A"/>
<path d="M13.2373 12.6512H12.6773V16.3555H13.2373V12.6512Z" fill="#24324A"/>
<path d="M13.2373 4.474H12.6773V11.9369H13.2373V4.474Z" fill="#24324A"/>
<path d="M13.2373 17.0698H12.6773V18.8885H13.2373V17.0698Z" fill="#24324A"/>
<path d="M11.9934 44.5724H12.2223H12.5552V34.6336H11.9934V44.5724Z" fill="#24324A"/>
<path d="M11.1882 39.4776H10.6083V44.5724H11.1882V39.4776Z" fill="#24324A"/>
<path d="M11.3102 35.432H11.6667C11.7002 35.432 11.7273 35.4592 11.7273 35.4927V36.0132C11.7273 36.0467 11.7002 36.0739 11.6667 36.0739H11.3102V38.834H11.6667C11.7002 38.834 11.7273 38.8611 11.7273 38.8946V39.4152C11.7273 39.4487 11.7002 39.4758 11.6667 39.4758H11.3102V44.5706H11.8721V34.6318H11.3102V35.432Z" fill="#24324A"/>
<path d="M11.1882 34.6336H10.6083V35.432H11.1882V34.6336Z" fill="#24324A"/>
<path d="M11.1882 36.0747H10.6083V38.8348H11.1882V36.0747Z" fill="#24324A"/>
<path d="M13.2373 34.6336H12.6773V44.5724H13.2373V34.6336Z" fill="#24324A"/>
<path d="M11.3102 9.22753V18.8893H11.8721V9.22391C11.8666 9.22572 11.8603 9.22753 11.8549 9.22753H11.3102Z" fill="#24324A"/>
<path d="M11.8721 8.51599V0.484558H11.3102V8.51237H11.8549C11.8603 8.51237 11.8657 8.51418 11.8721 8.51599Z" fill="#24324A"/>
<path d="M12.5552 0.484558H11.9934V3.75886H12.5552V0.484558Z" fill="#24324A"/>
<path d="M11.1882 9.22751H10.6083V18.8893H11.1882V9.22751Z" fill="#24324A"/>
<path d="M10.6083 34.5123H13.2374V19.0106H10.6083V34.5123ZM11.912 19.972C11.912 19.9385 11.9391 19.9114 11.9726 19.9114H12.567C12.6005 19.9114 12.6276 19.9385 12.6276 19.972V20.6491C12.6276 20.6826 12.6005 20.7098 12.567 20.7098H11.9726C11.9391 20.7098 11.912 20.6826 11.912 20.6491V19.972ZM11.912 21.0556C11.912 21.0221 11.9391 20.995 11.9726 20.995H12.567C12.6005 20.995 12.6276 21.0221 12.6276 21.0556V21.7327C12.6276 21.7662 12.6005 21.7934 12.567 21.7934H11.9726C11.9391 21.7934 11.912 21.7662 11.912 21.7327V21.0556ZM11.912 22.1392C11.912 22.1057 11.9391 22.0785 11.9726 22.0785H12.567C12.6005 22.0785 12.6276 22.1057 12.6276 22.1392V22.8163C12.6276 22.8498 12.6005 22.877 12.567 22.877H11.9726C11.9391 22.877 11.912 22.8498 11.912 22.8163V22.1392ZM11.912 23.2228C11.912 23.1893 11.9391 23.1621 11.9726 23.1621H12.567C12.6005 23.1621 12.6276 23.1893 12.6276 23.2228V23.8999C12.6276 23.9334 12.6005 23.9606 12.567 23.9606H11.9726C11.9391 23.9606 11.912 23.9334 11.912 23.8999V23.2228ZM11.912 24.3064C11.912 24.2729 11.9391 24.2457 11.9726 24.2457H12.567C12.6005 24.2457 12.6276 24.2729 12.6276 24.3064V24.9835C12.6276 25.017 12.6005 25.0442 12.567 25.0442H11.9726C11.9391 25.0442 11.912 25.017 11.912 24.9835V24.3064ZM11.912 25.39C11.912 25.3565 11.9391 25.3293 11.9726 25.3293H12.567C12.6005 25.3293 12.6276 25.3565 12.6276 25.39V26.0671C12.6276 26.1006 12.6005 26.1278 12.567 26.1278H11.9726C11.9391 26.1278 11.912 26.1006 11.912 26.0671V25.39ZM11.912 26.4736C11.912 26.4401 11.9391 26.4129 11.9726 26.4129H12.567C12.6005 26.4129 12.6276 26.4401 12.6276 26.4736V27.1507C12.6276 27.1842 12.6005 27.2114 12.567 27.2114H11.9726C11.9391 27.2114 11.912 27.1842 11.912 27.1507V26.4736ZM11.912 27.5572C11.912 27.5237 11.9391 27.4965 11.9726 27.4965H12.567C12.6005 27.4965 12.6276 27.5237 12.6276 27.5572V28.2343C12.6276 28.2678 12.6005 28.295 12.567 28.295H11.9726C11.9391 28.295 11.912 28.2678 11.912 28.2343V27.5572ZM11.912 28.6408C11.912 28.6073 11.9391 28.5801 11.9726 28.5801H12.567C12.6005 28.5801 12.6276 28.6073 12.6276 28.6408V29.3179C12.6276 29.3514 12.6005 29.3786 12.567 29.3786H11.9726C11.9391 29.3786 11.912 29.3514 11.912 29.3179V28.6408ZM11.912 29.7244C11.912 29.6909 11.9391 29.6637 11.9726 29.6637H12.567C12.6005 29.6637 12.6276 29.6909 12.6276 29.7244V30.4015C12.6276 30.435 12.6005 30.4621 12.567 30.4621H11.9726C11.9391 30.4621 11.912 30.435 11.912 30.4015V29.7244ZM11.912 30.8079C11.912 30.7745 11.9391 30.7473 11.9726 30.7473H12.567C12.6005 30.7473 12.6276 30.7745 12.6276 30.8079V31.4851C12.6276 31.5186 12.6005 31.5457 12.567 31.5457H11.9726C11.9391 31.5457 11.912 31.5186 11.912 31.4851V30.8079ZM11.912 31.8915C11.912 31.858 11.9391 31.8309 11.9726 31.8309H12.567C12.6005 31.8309 12.6276 31.858 12.6276 31.8915V32.5687C12.6276 32.6022 12.6005 32.6293 12.567 32.6293H11.9726C11.9391 32.6293 11.912 32.6022 11.912 32.5687V31.8915ZM11.912 32.9751C11.912 32.9416 11.9391 32.9145 11.9726 32.9145H12.567C12.6005 32.9145 12.6276 32.9416 12.6276 32.9751V33.6523C12.6276 33.6858 12.6005 33.7129 12.567 33.7129H11.9726C11.9391 33.7129 11.912 33.6858 11.912 33.6523V32.9751ZM11.0109 19.972C11.0109 19.9385 11.0381 19.9114 11.0715 19.9114H11.6659C11.6994 19.9114 11.7265 19.9385 11.7265 19.972V20.6491C11.7265 20.6826 11.6994 20.7098 11.6659 20.7098H11.0715C11.0381 20.7098 11.0109 20.6826 11.0109 20.6491V19.972ZM11.0109 21.0556C11.0109 21.0221 11.0381 20.995 11.0715 20.995H11.6659C11.6994 20.995 11.7265 21.0221 11.7265 21.0556V21.7327C11.7265 21.7662 11.6994 21.7934 11.6659 21.7934H11.0715C11.0381 21.7934 11.0109 21.7662 11.0109 21.7327V21.0556ZM11.0109 22.1392C11.0109 22.1057 11.0381 22.0785 11.0715 22.0785H11.6659C11.6994 22.0785 11.7265 22.1057 11.7265 22.1392V22.8163C11.7265 22.8498 11.6994 22.877 11.6659 22.877H11.0715C11.0381 22.877 11.0109 22.8498 11.0109 22.8163V22.1392ZM11.0109 23.2228C11.0109 23.1893 11.0381 23.1621 11.0715 23.1621H11.6659C11.6994 23.1621 11.7265 23.1893 11.7265 23.2228V23.8999C11.7265 23.9334 11.6994 23.9606 11.6659 23.9606H11.0715C11.0381 23.9606 11.0109 23.9334 11.0109 23.8999V23.2228ZM11.0109 24.3064C11.0109 24.2729 11.0381 24.2457 11.0715 24.2457H11.6659C11.6994 24.2457 11.7265 24.2729 11.7265 24.3064V24.9835C11.7265 25.017 11.6994 25.0442 11.6659 25.0442H11.0715C11.0381 25.0442 11.0109 25.017 11.0109 24.9835V24.3064ZM11.0109 25.39C11.0109 25.3565 11.0381 25.3293 11.0715 25.3293H11.6659C11.6994 25.3293 11.7265 25.3565 11.7265 25.39V26.0671C11.7265 26.1006 11.6994 26.1278 11.6659 26.1278H11.0715C11.0381 26.1278 11.0109 26.1006 11.0109 26.0671V25.39ZM11.0109 26.4736C11.0109 26.4401 11.0381 26.4129 11.0715 26.4129H11.6659C11.6994 26.4129 11.7265 26.4401 11.7265 26.4736V27.1507C11.7265 27.1842 11.6994 27.2114 11.6659 27.2114H11.0715C11.0381 27.2114 11.0109 27.1842 11.0109 27.1507V26.4736ZM11.0109 27.5572C11.0109 27.5237 11.0381 27.4965 11.0715 27.4965H11.6659C11.6994 27.4965 11.7265 27.5237 11.7265 27.5572V28.2343C11.7265 28.2678 11.6994 28.295 11.6659 28.295H11.0715C11.0381 28.295 11.0109 28.2678 11.0109 28.2343V27.5572ZM11.0109 28.6408C11.0109 28.6073 11.0381 28.5801 11.0715 28.5801H11.6659C11.6994 28.5801 11.7265 28.6073 11.7265 28.6408V29.3179C11.7265 29.3514 11.6994 29.3786 11.6659 29.3786H11.0715C11.0381 29.3786 11.0109 29.3514 11.0109 29.3179V28.6408ZM11.0109 29.7244C11.0109 29.6909 11.0381 29.6637 11.0715 29.6637H11.6659C11.6994 29.6637 11.7265 29.6909 11.7265 29.7244V30.4015C11.7265 30.435 11.6994 30.4621 11.6659 30.4621H11.0715C11.0381 30.4621 11.0109 30.435 11.0109 30.4015V29.7244ZM11.0109 30.8079C11.0109 30.7745 11.0381 30.7473 11.0715 30.7473H11.6659C11.6994 30.7473 11.7265 30.7745 11.7265 30.8079V31.4851C11.7265 31.5186 11.6994 31.5457 11.6659 31.5457H11.0715C11.0381 31.5457 11.0109 31.5186 11.0109 31.4851V30.8079ZM11.0109 31.8915C11.0109 31.858 11.0381 31.8309 11.0715 31.8309H11.6659C11.6994 31.8309 11.7265 31.858 11.7265 31.8915V32.5687C11.7265 32.6022 11.6994 32.6293 11.6659 32.6293H11.0715C11.0381 32.6293 11.0109 32.6022 11.0109 32.5687V31.8915ZM11.0109 32.9751C11.0109 32.9416 11.0381 32.9145 11.0715 32.9145H11.6659C11.6994 32.9145 11.7265 32.9416 11.7265 32.9751V33.6523C11.7265 33.6858 11.6994 33.7129 11.6659 33.7129H11.0715C11.0381 33.7129 11.0109 33.6858 11.0109 33.6523V32.9751Z" fill="#24324A"/>
<path d="M12.5552 17.0698H11.9934V18.8885H12.5552V17.0698Z" fill="#24324A"/>
<path d="M11.1882 0.484558H10.6083V8.51237H11.1882V0.484558Z" fill="#24324A"/>
<path d="M12.5552 4.474H11.9934V11.9369H12.5552V4.474Z" fill="#24324A"/>
<path d="M13.2373 0.484558H12.6773V3.75886H13.2373V0.484558Z" fill="#24324A"/>
<path d="M12.5552 12.6512H11.9934V16.3555H12.5552V12.6512Z" fill="#24324A"/>
</svg>
