<svg width="63" height="31" viewBox="0 0 63 31" fill="none" xmlns="http://www.w3.org/2000/svg">
<path d="M31.2317 30.4456H27.3234V30.7307H31.2317H31.2733H35.1807V30.4456H31.2733H31.2317Z" fill="#24324A"/>
<path d="M31.2317 30.0754H27.3234V30.3605H31.2317H31.2733H35.1807V30.0754H31.2733H31.2317Z" fill="#24324A"/>
<path d="M17.1447 2.47591C17.2243 2.45509 17.2822 2.38357 17.2822 2.29757C17.2822 2.21157 17.2234 2.14006 17.1447 2.11924V1.93276C17.1963 1.91374 17.2334 1.86486 17.2334 1.80602C17.2334 1.74808 17.1963 1.69829 17.1447 1.67928V1.5444C17.2641 1.52267 17.3537 1.41857 17.3537 1.29274C17.3537 1.16691 17.2632 1.0628 17.1447 1.04107V0.750488H17.0506V1.04198C16.9321 1.06461 16.8425 1.16781 16.8425 1.29274C16.8425 1.41766 16.9321 1.52176 17.0506 1.5444V1.67928C16.9999 1.69829 16.9638 1.74717 16.9638 1.80511C16.9638 1.86305 16.9999 1.91193 17.0506 1.93094V2.11833C16.9719 2.13915 16.914 2.21066 16.914 2.29576C16.914 2.38085 16.9719 2.45237 17.0506 2.47319V2.67869H17.0986H17.1447V2.47591ZM16.9077 1.29364C16.9077 1.18863 16.9927 1.10354 17.0977 1.10354C17.2026 1.10354 17.2876 1.18863 17.2876 1.29364C17.2876 1.39865 17.2026 1.48375 17.0977 1.48375C16.9927 1.48465 16.9077 1.39956 16.9077 1.29364Z" fill="#24324A"/>
<path d="M17.0975 7.49283H15.3958L15.9603 8.01335H17.0975H18.2347L18.7992 7.49283H17.0975Z" fill="#24324A"/>
<path d="M16.2769 16.9854L16.5149 15.6981V8.09848H16.0128V15.1776H15.745V15.7235H16.0128L15.7486 16.9854H16.2769Z" fill="#24324A"/>
<path d="M17.0977 6.60565H18.3525V5.75833L18.728 5.48404H17.0986H15.4692L15.8447 5.75833V6.60565H17.0977ZM17.8196 5.91222C17.8196 5.91222 17.816 5.6832 17.9879 5.6832C18.1598 5.6832 18.1562 5.91222 18.1562 5.91222V6.32502H17.9879H17.8196V5.91222ZM17.3691 5.91222C17.3691 5.91222 17.3655 5.6832 17.5374 5.6832C17.7093 5.6832 17.7056 5.91222 17.7056 5.91222V6.32502H17.5374H17.3691V5.91222ZM16.9421 5.91222C16.9421 5.91222 16.9385 5.69497 17.0986 5.6841C17.2578 5.69497 17.2551 5.91222 17.2551 5.91222V6.32502H17.0986H16.9421V5.91222ZM16.4906 5.91222C16.4906 5.91222 16.487 5.6832 16.6589 5.6832C16.8308 5.6832 16.8272 5.91222 16.8272 5.91222V6.32502H16.6589H16.4906V5.91222ZM16.0401 5.91222C16.0401 5.91222 16.0365 5.6832 16.2084 5.6832C16.3803 5.6832 16.3767 5.91222 16.3767 5.91222V6.32502H16.2084H16.0401V5.91222Z" fill="#24324A"/>
<path d="M18.45 17.0704H17.0975H15.745V17.3131H17.0975H18.45V17.0704Z" fill="#24324A"/>
<path d="M16.4216 4.0882V4.36249H17.0974H17.7742V4.0882H17.0974H16.4216Z" fill="#24324A"/>
<path d="M18.8102 7.40778V6.69081H17.0976H15.385V7.40778H17.0976H18.8102Z" fill="#24324A"/>
<path d="M18.7559 5.39989V4.89024H17.0976H15.4402V5.39989H17.0976H18.7559Z" fill="#24324A"/>
<path d="M18.745 4.80515L17.9009 4.44757H17.0975H16.2951L15.4501 4.80515H17.0975H18.745Z" fill="#24324A"/>
<path d="M18.4474 16.9854L18.1832 15.7235H18.4501V15.1776H18.1832V8.09848H17.6802V15.6981L17.9181 16.9854H18.4474Z" fill="#24324A"/>
<path d="M18.0033 4.0031V3.73967L17.7862 3.58577H17.0977H16.4101L16.193 3.73967V4.0031H17.0977H18.0033Z" fill="#24324A"/>
<path d="M17.7417 3.50066V3.29245C17.7417 3.29245 17.7417 2.6814 17.0984 2.6814C16.4552 2.6814 16.4552 3.29245 16.4552 3.29245V3.50066H17.0984H17.7417Z" fill="#24324A"/>
<path d="M17.8323 16.9854L17.5961 15.7099C17.5952 15.7072 17.5952 15.7045 17.5952 15.7017V8.09848H17.0976H16.6001V15.7017C16.6001 15.7045 16.6001 15.7072 16.5992 15.7099L16.363 16.9854H17.0976H17.8323ZM16.8932 15.8339L16.7783 15.4519C16.7774 15.4483 16.7765 15.4437 16.7765 15.4392V9.75782C16.7765 9.75148 16.7783 9.74514 16.781 9.73971L16.961 9.36312C16.9683 9.34864 16.9828 9.33868 16.999 9.33868H17.0976H17.1963C17.2125 9.33868 17.2279 9.34773 17.2343 9.36312L17.4143 9.73971C17.417 9.74514 17.4188 9.75148 17.4188 9.75782V15.4392C17.4188 15.4437 17.4179 15.4474 17.417 15.4519L17.3021 15.8339C17.2967 15.852 17.2804 15.8638 17.2614 15.8638H17.0976H16.9339C16.9158 15.8647 16.8986 15.852 16.8932 15.8339Z" fill="#24324A"/>
<path d="M17.2297 15.7796L17.3337 15.4338V9.76865L17.1691 9.42465H17.0976H17.0262L16.8624 9.76865V15.4338L16.9656 15.7796H17.0976H17.2297Z" fill="#24324A"/>
<path d="M22.031 16.7021H18.4746L18.5298 16.9682C18.5343 16.9881 18.5307 17.0089 18.5207 17.027C18.5207 17.0279 18.5217 17.0279 18.5217 17.0289H22.031V16.7021Z" fill="#24324A"/>
<path d="M13.5819 23.2434V28.9302V30.7308H14.3509V28.9302V23.2434V20.8363H13.5819V23.2434Z" fill="#24324A"/>
<path d="M10.0646 23.2434V28.9302V30.7308H10.8336V28.9302V23.2434V20.8363H10.0646V23.2434Z" fill="#24324A"/>
<path d="M22.5919 19.7935H0.435791V19.97H22.5919V19.7935Z" fill="#24324A"/>
<path d="M0.351392 19.9365H0.240356V19.9702H0.351392V19.9365Z" fill="#24324A"/>
<path d="M14.4414 28.9728V30.7308H17.0098V28.9728H15.7252H14.4414Z" fill="#24324A"/>
<path d="M17.0996 23.2434V28.9302V30.7308H17.8695V28.9302V23.2434V20.8363H17.0996V23.2434Z" fill="#24324A"/>
<path d="M0.240356 20.7513H6.49906H7.35852H10.0165H10.022H10.876H10.8814H13.5349H13.5394H14.3935H14.3989H17.0524H17.0569H17.9118H17.9164H20.5753H21.4347H22.5918V20.056H0.240356V20.7513Z" fill="#24324A"/>
<path d="M3.87817 23.0144C4.03288 22.6686 4.41918 22.0331 5.16737 22.0331C5.91555 22.0331 6.30186 22.6686 6.45656 23.0144V20.8354H3.87817V23.0144Z" fill="#24324A"/>
<path d="M7.40112 23.0144C7.55583 22.6686 7.94214 22.0331 8.69032 22.0331C9.43037 22.0331 9.81668 22.655 9.9741 23.0035V20.8363H7.40112V23.0144Z" fill="#24324A"/>
<path d="M3.87817 28.9728V30.7308H6.45656V28.9728H5.16737H3.87817Z" fill="#24324A"/>
<path d="M10.924 28.9728V30.7308H13.4924V28.9728H12.2077H10.924Z" fill="#24324A"/>
<path d="M7.40112 28.9728V30.7308H9.9741V28.9728H8.69032H7.40112Z" fill="#24324A"/>
<path d="M6.54163 23.2434V28.9302V30.7308H7.31607V28.9302V23.2434V20.8363H6.54163V23.2434Z" fill="#24324A"/>
<path d="M10.9239 23.0035C11.0822 22.6559 11.4685 22.0331 12.2076 22.0331C12.9477 22.0331 13.334 22.655 13.4914 23.0035V20.8363H10.923V23.0035H10.9239Z" fill="#24324A"/>
<path d="M14.4415 23.0035C14.5998 22.6559 14.9861 22.0331 15.7252 22.0331C16.4653 22.0331 16.8516 22.655 17.009 23.0035V20.8363H14.4406V23.0035H14.4415Z" fill="#24324A"/>
<path d="M17.959 23.0035C18.1173 22.6559 18.5036 22.0331 19.2427 22.0331C19.9909 22.0331 20.3772 22.6686 20.5319 23.0144V20.8354H17.959V23.0035Z" fill="#24324A"/>
<path d="M21.8961 15.8393C21.8934 15.8339 21.8925 15.8276 21.8925 15.8221H21.8707V16.0323H21.983L21.8961 15.8393Z" fill="#24324A"/>
<path d="M22.3196 14.7522H22.1693V15.0212H22.4997L22.3196 14.7522Z" fill="#24324A"/>
<path d="M21.4774 22.9175C21.6213 22.607 21.965 22.0593 22.592 22.0349V20.8363H21.4774V22.9175Z" fill="#24324A"/>
<path d="M22.0309 17.113H18.5351V17.3131C18.5351 17.3285 18.5297 17.343 18.5225 17.3557C18.5297 17.3683 18.5351 17.3828 18.5351 17.3982V17.5068H22.0309V17.113Z" fill="#24324A"/>
<path d="M22.1044 16.0919C22.1107 16.0874 22.1179 16.0846 22.127 16.0846H22.592V15.8638H22.0012L22.1044 16.0919Z" fill="#24324A"/>
<path d="M22.0309 16.3463H18.4004L18.4574 16.617H22.0309V16.3463Z" fill="#24324A"/>
<path d="M22.116 16.1679V18.9063L22.1169 18.9072C22.1187 18.9117 22.1196 18.9172 22.1196 18.9226V19.4685H22.5918V16.1697H22.1268C22.1232 16.1697 22.1196 16.1688 22.116 16.1679Z" fill="#24324A"/>
<path d="M21.4855 19.4685H21.5208H21.7741V18.9226C21.7741 18.9172 21.775 18.9117 21.7768 18.9072L21.8329 18.7642C21.8392 18.7479 21.8546 18.737 21.8727 18.737H21.9469H22.0211C22.0247 18.737 22.0274 18.7379 22.031 18.7388V17.5919H18.5353V18.8285L18.566 18.9081C18.5678 18.9126 18.5688 18.9181 18.5688 18.9235V19.4694H18.8221H18.8573H19.1107V18.9235C19.1107 18.9181 19.1116 18.9126 19.1134 18.9081L19.1695 18.7651C19.1758 18.7488 19.1912 18.7379 19.2093 18.7379H19.2835H19.3576C19.3748 18.7379 19.3911 18.7488 19.3975 18.7651L19.4535 18.9081C19.4554 18.9126 19.4563 18.9181 19.4563 18.9235V19.4694H19.7096H19.7449H19.9982V18.9235C19.9982 18.9181 19.9991 18.9126 20.0009 18.9081L20.057 18.7651C20.0633 18.7488 20.0787 18.7379 20.0968 18.7379H20.171H20.2452C20.2623 18.7379 20.2786 18.7488 20.285 18.7651L20.341 18.9081C20.3429 18.9126 20.3438 18.9181 20.3438 18.9235V19.4694H20.5971H20.6324H20.8857V18.9235C20.8857 18.9181 20.8866 18.9126 20.8884 18.9081L20.9445 18.7651C20.9508 18.7488 20.9662 18.7379 20.9843 18.7379H21.0585H21.1327C21.1498 18.7379 21.1661 18.7488 21.1725 18.7651L21.2286 18.9081C21.2304 18.9126 21.2313 18.9181 21.2313 18.9235V19.4694H21.4855V19.4685Z" fill="#24324A"/>
<path d="M24.4673 12.9516H23.8711V13.5798H24.4673V12.9516Z" fill="#24324A"/>
<path d="M21.5279 15.8221H21.3759V16.0323H21.5279V15.8221Z" fill="#24324A"/>
<path d="M21.9775 15.4003V15.5288C21.9784 15.5288 21.9794 15.5279 21.9803 15.5279H22.5918V15.4003H21.9803C21.9784 15.4003 21.9784 15.4003 21.9775 15.4003Z" fill="#24324A"/>
<path d="M17.959 28.9728V30.7308H20.5328V28.9728H19.2437H17.959Z" fill="#24324A"/>
<path d="M22.4119 14.7376V14.1564H22.3947V14.7114L22.4119 14.7376Z" fill="#24324A"/>
<path d="M24.4672 13.903H22.5682V14.0714H24.4672V13.903Z" fill="#24324A"/>
<path d="M21.9775 15.613V15.7795C21.9784 15.7795 21.9794 15.7786 21.9803 15.7786H22.5918V15.613H21.9803C21.9784 15.613 21.9784 15.613 21.9775 15.613Z" fill="#24324A"/>
<path d="M22.1268 15.106C22.1033 15.106 22.0843 15.087 22.0843 15.0635V14.6987L22.0454 14.6543H21.9775V15.3161C21.9784 15.3161 21.9794 15.3151 21.9803 15.3151H22.5918V15.1576L22.5566 15.1051H22.1268V15.106Z" fill="#24324A"/>
<path d="M24.4682 14.3809V14.1564H22.4968V14.8643L22.6569 15.1024H24.6428V14.6145L24.4772 14.4081C24.4709 14.3999 24.4682 14.3909 24.4682 14.3809Z" fill="#24324A"/>
<path d="M10.8379 19.0303H10.4788V19.4676H10.8379V19.0303Z" fill="#24324A"/>
<path d="M9.28909 19.0303H8.92993V19.4676H9.28909V19.0303Z" fill="#24324A"/>
<path d="M15.4854 19.0303H15.1262V19.4676H15.4854V19.0303Z" fill="#24324A"/>
<path d="M10.0635 19.0303H9.70435V19.4676H10.0635V19.0303Z" fill="#24324A"/>
<path d="M7.74027 19.0303H7.3811V19.4676H7.74027V19.0303Z" fill="#24324A"/>
<path d="M6.96574 19.0303H6.60657V19.4676H6.96574V19.0303Z" fill="#24324A"/>
<path d="M12.3867 19.0303H12.0276V19.4676H12.3867V19.0303Z" fill="#24324A"/>
<path d="M14.711 19.0303H14.3518V19.4676H14.711V19.0303Z" fill="#24324A"/>
<path d="M13.9364 19.0303H13.5773V19.4676H13.9364V19.0303Z" fill="#24324A"/>
<path d="M6.19154 19.0303H5.8324V19.4676H6.19154V19.0303Z" fill="#24324A"/>
<path d="M13.1621 19.0303H12.803V19.4676H13.1621V19.0303Z" fill="#24324A"/>
<path d="M11.6125 19.0303H11.2533V19.4676H11.6125V19.0303Z" fill="#24324A"/>
<path d="M8.5147 19.0303H8.15552V19.4676H8.5147V19.0303Z" fill="#24324A"/>
<path d="M1.54507 19.0303H1.18591V19.4676H1.54507V19.0303Z" fill="#24324A"/>
<path d="M22.0346 19.511V19.1562C22.0327 19.1507 22.0309 19.1453 22.0309 19.1399V18.9226L21.992 18.8221H21.9468H21.9016L21.859 18.9308V19.511C21.859 19.5346 21.84 19.5536 21.8165 19.5536H21.5207H21.4854H21.1896C21.166 19.5536 21.147 19.5346 21.147 19.511V18.9308L21.1045 18.8221H21.0593H21.0141L20.9715 18.9308V19.511C20.9715 19.5346 20.9525 19.5536 20.929 19.5536H20.6332H20.5979H20.3021C20.2785 19.5536 20.2595 19.5346 20.2595 19.511V18.9308L20.217 18.8221H20.1718H20.1265L20.084 18.9308V19.511C20.084 19.5346 20.065 19.5536 20.0415 19.5536H19.7457H19.7104H19.4146C19.391 19.5536 19.372 19.5346 19.372 19.511V18.9308L19.3295 18.8221H19.2843H19.239L19.1965 18.9308V19.511C19.1965 19.5346 19.1775 19.5536 19.154 19.5536H18.8582H18.8229H18.527C18.5035 19.5536 18.4845 19.5346 18.4845 19.511V19.0312H18.451V18.8448L18.442 18.823H18.3968H18.3515L18.309 18.9317V19.5119C18.309 19.5355 18.29 19.5545 18.2665 19.5545H17.9707H17.9354H17.6395C17.616 19.5545 17.597 19.5355 17.597 19.5119V18.9317L17.5545 18.823H17.5093H17.464L17.4215 18.9317V19.5119C17.4215 19.5355 17.4025 19.5545 17.379 19.5545H17.0831H17.0479H16.752C16.7285 19.5545 16.7095 19.5355 16.7095 19.5119V18.9317L16.667 18.823H16.6217H16.5765L16.534 18.9317V19.5119C16.534 19.5355 16.515 19.5545 16.4915 19.5545H16.1956H16.1604H15.8645C15.841 19.5545 15.822 19.5355 15.822 19.5119V18.9317L15.7795 18.823H15.746V18.8248H15.661H15.6175L15.5705 18.9371V19.5119C15.5705 19.5355 15.5515 19.5545 15.528 19.5545H15.0838C15.0602 19.5545 15.0412 19.5355 15.0412 19.5119V18.9398L14.9933 18.8258H14.9182H14.8431L14.7961 18.938V19.5128C14.7961 19.5364 14.7771 19.5554 14.7535 19.5554H14.3093C14.2858 19.5554 14.2668 19.5364 14.2668 19.5128V18.9398L14.2189 18.8258H14.1438H14.0687L14.0216 18.938V19.5128C14.0216 19.5364 14.0027 19.5554 13.9791 19.5554H13.5349C13.5114 19.5554 13.4924 19.5364 13.4924 19.5128V18.9407L13.4444 18.8267H13.3694H13.2943L13.2472 18.9389V19.5137C13.2472 19.5373 13.2282 19.5563 13.2047 19.5563H12.7605C12.737 19.5563 12.718 19.5373 12.718 19.5137V18.9416L12.67 18.8276H12.5949H12.5199L12.4728 18.9398V19.5147C12.4728 19.5382 12.4538 19.5572 12.4303 19.5572H11.9861C11.9626 19.5572 11.9436 19.5382 11.9436 19.5147V18.9416L11.8956 18.8276H11.8205H11.7454L11.6984 18.9398V19.5147C11.6984 19.5382 11.6794 19.5572 11.6559 19.5572H11.2116C11.1881 19.5572 11.1691 19.5382 11.1691 19.5147V18.9425L11.1212 18.8285H11.0461H10.971L10.924 18.9407V19.5156C10.924 19.5391 10.905 19.5581 10.8814 19.5581H10.4372C10.4137 19.5581 10.3947 19.5391 10.3947 19.5156V18.9434L10.3468 18.8294H10.2717H10.1966L10.1495 18.9416V19.5165C10.1495 19.54 10.1305 19.559 10.107 19.559H9.66281C9.63929 19.559 9.62029 19.54 9.62029 19.5165V18.9434L9.57234 18.8294H9.49725H9.42217L9.37512 18.9416V19.5165C9.37512 19.54 9.35612 19.559 9.3326 19.559H8.88839C8.86487 19.559 8.84587 19.54 8.84587 19.5165V18.9443L8.79792 18.8303H8.72284H8.64774L8.60069 18.9425V19.5174C8.60069 19.5409 8.5817 19.5599 8.55818 19.5599H8.11397C8.09044 19.5599 8.07145 19.5409 8.07145 19.5174V18.9452L8.0235 18.8312H7.94841H7.87332L7.82628 18.9434V19.5183C7.82628 19.5418 7.80728 19.5608 7.78376 19.5608H7.33955C7.31603 19.5608 7.29703 19.5418 7.29703 19.5183V18.9452L7.24908 18.8312H7.17398H7.0989L7.05185 18.9434V19.5183C7.05185 19.5418 7.03285 19.5608 7.00933 19.5608H6.56512C6.5416 19.5608 6.5226 19.5418 6.5226 19.5183V18.9461L6.47465 18.8321H6.39957H6.32448L6.27743 18.9443V19.5192C6.27743 19.5427 6.25844 19.5617 6.23492 19.5617H5.79071C5.76718 19.5617 5.74819 19.5427 5.74819 19.5192V18.9471L5.70024 18.833H5.62514H5.55005L5.50301 18.9452V19.5201C5.50301 19.5436 5.48401 19.5626 5.46049 19.5626H5.01628C4.99276 19.5626 4.97376 19.5436 4.97376 19.5201V18.9471L4.92581 18.833H4.85072H4.77564L4.72859 18.9452V19.5201C4.72859 19.5436 4.70959 19.5626 4.68606 19.5626H4.24186C4.21834 19.5626 4.19935 19.5436 4.19935 19.5201V18.948L4.15139 18.8339H4.0763H4.00121L3.95417 18.9461V19.521C3.95417 19.5445 3.93517 19.5635 3.91165 19.5635H3.46744C3.44392 19.5635 3.42492 19.5445 3.42492 19.521V18.9489L3.37697 18.8348H3.30188H3.2268L3.17975 18.9471V19.5219C3.17975 19.5454 3.16074 19.5644 3.13722 19.5644H2.69302C2.6695 19.5644 2.65049 19.5454 2.65049 19.5219V18.9489L2.60255 18.8348H2.52746H2.45237L2.40532 18.9471V19.5219C2.40532 19.5454 2.38633 19.5644 2.36281 19.5644H1.9186C1.89507 19.5644 1.87608 19.5454 1.87608 19.5219V18.9498L1.82813 18.8357H1.75304H1.67794L1.63091 18.948V19.5228C1.63091 19.5463 1.6119 19.5654 1.58838 19.5654H1.14418C1.12066 19.5654 1.10165 19.5463 1.10165 19.5228V18.9507L1.05371 18.8366H0.978613H0.903527L0.861914 18.9353V19.5228C0.861914 19.5463 0.842907 19.5654 0.819385 19.5654H0.426749C0.403227 19.5654 0.384231 19.5463 0.384231 19.5228V19.043H0.371564V18.9335L0.330857 18.8357H0.269333H0.242188V19.0421V19.1851V19.7201H22.5928V19.5654H22.078C22.0536 19.5536 22.0346 19.5346 22.0346 19.511Z" fill="#24324A"/>
<path d="M0.775756 19.0303H0.46814V19.4676H0.775756V19.0303Z" fill="#24324A"/>
<path d="M0.382446 30.7308H3.79317V28.9302V23.2434V20.8363H0.382446V30.7308Z" fill="#24324A"/>
<path d="M4.64249 19.0303H4.28333V19.4676H4.64249V19.0303Z" fill="#24324A"/>
<path d="M5.41713 19.0303H5.05798V19.4676H5.41713V19.0303Z" fill="#24324A"/>
<path d="M2.31926 19.0303H1.96008V19.4676H2.31926V19.0303Z" fill="#24324A"/>
<path d="M3.86832 19.0303H3.50916V19.4676H3.86832V19.0303Z" fill="#24324A"/>
<path d="M3.09379 19.0303H2.73462V19.4676H3.09379V19.0303Z" fill="#24324A"/>
<path d="M27.0664 12.2626V12.832H27.754V12.2626H27.4346H27.0664Z" fill="#24324A"/>
<path d="M30.7304 12.2626H30.3649V12.832H31.0524V12.2626H30.7304Z" fill="#24324A"/>
<path d="M29.2649 12.2626V12.832H29.9525V12.2626H29.6322H29.2649Z" fill="#24324A"/>
<path d="M28.1656 12.2626V12.832H28.8532V12.2626H28.533H28.1656Z" fill="#24324A"/>
<path d="M20.6178 23.2434V28.9302V30.7308H21.3922V20.8363H20.6178V23.2434Z" fill="#24324A"/>
<path d="M26.6494 12.2626H26.036V12.832H26.6494V12.2626Z" fill="#24324A"/>
<path d="M26.6567 12.1106C26.6567 12.1042 26.6585 12.0979 26.6612 12.0916L26.7263 11.9603C26.7336 11.9458 26.748 11.9368 26.7643 11.9368H26.8295H26.8946H26.9597C26.976 11.9368 26.9905 11.9458 26.9977 11.9603L27.0629 12.0916C27.0656 12.0979 27.0674 12.1042 27.0674 12.1106V12.1776H27.3877H27.7559V12.1106C27.7559 12.1042 27.7577 12.0979 27.7604 12.0916L27.8255 11.9603C27.8328 11.9458 27.8473 11.9368 27.8635 11.9368H27.9287H27.9938H28.059C28.0752 11.9368 28.0897 11.9458 28.0969 11.9603L28.1621 12.0916C28.1648 12.097 28.1666 12.1042 28.1666 12.1106V12.1776H28.4869H28.8551V12.1106C28.8551 12.1042 28.8569 12.0979 28.8596 12.0916L28.9247 11.9603C28.932 11.9458 28.9465 11.9368 28.9627 11.9368H29.0279H29.093H29.1582C29.1744 11.9368 29.1889 11.9458 29.1962 11.9603L29.2613 12.0916C29.264 12.0979 29.2658 12.1042 29.2658 12.1106V12.1776H29.5861H29.9543V12.1106C29.9543 12.1042 29.9561 12.0979 29.9588 12.0916L30.024 11.9603C30.0312 11.9458 30.0457 11.9368 30.062 11.9368H30.1271H30.1922H30.2574C30.2737 11.9368 30.2881 11.9458 30.2954 11.9603L30.3605 12.0916C30.3632 12.0979 30.365 12.1042 30.365 12.1106V12.1776H30.6853H31.0535V12.1106C31.0535 12.1042 31.0553 12.0979 31.058 12.0916L31.1232 11.9603C31.1304 11.9458 31.1449 11.9368 31.1612 11.9368H31.2263H31.2335H31.2752H31.2824H31.3475C31.3638 11.9368 31.3783 11.9458 31.3855 11.9603L31.4507 12.0916C31.4534 12.097 31.4552 12.1042 31.4552 12.1106V12.1776H31.8234H32.1437V12.1106C32.1437 12.1042 32.1455 12.0979 32.1482 12.0916L32.2133 11.9603C32.2206 11.9458 32.235 11.9368 32.2513 11.9368H32.3165H32.3816H32.4467C32.463 11.9368 32.4775 11.9458 32.4847 11.9603L32.5499 12.0916C32.5526 12.0979 32.5544 12.1042 32.5544 12.1106V12.1776H32.9226H33.2429V12.1106C33.2429 12.1042 33.2447 12.0979 33.2474 12.0916L33.3125 11.9603C33.3198 11.9458 33.3342 11.9368 33.3505 11.9368H33.4157H33.4808H33.5459C33.5622 11.9368 33.5767 11.9458 33.5839 11.9603L33.6491 12.0916C33.6518 12.097 33.6536 12.1042 33.6536 12.1106V12.1776H34.0218H34.3421V12.1106C34.3421 12.1042 34.3439 12.0979 34.3466 12.0916L34.4117 11.9603C34.419 11.9458 34.4335 11.9368 34.4497 11.9368H34.5149H34.58H34.6452C34.6614 11.9368 34.6759 11.9458 34.6832 11.9603L34.7483 12.0916C34.751 12.0979 34.7528 12.1042 34.7528 12.1106V12.1776H35.121H35.4413V12.1106C35.4413 12.1042 35.4431 12.0979 35.4458 12.0916L35.511 11.9603C35.5182 11.9458 35.5327 11.9368 35.5489 11.9368H35.6141H35.6792H35.7444C35.7606 11.9368 35.7751 11.9458 35.7824 11.9603L35.8475 12.0916C35.8502 12.0979 35.852 12.1042 35.852 12.1106V12.1776H35.9588C35.8611 11.8146 35.0423 9.21285 31.4317 8.56378L31.3674 8.53119V8.21797C31.5258 8.17724 31.6425 8.0333 31.6425 7.86221C31.6425 7.69111 31.5258 7.54717 31.3674 7.50643V7.13257C31.4706 7.09455 31.5447 6.99587 31.5447 6.88C31.5447 6.76412 31.4706 6.66545 31.3674 6.62743V6.35857C31.6054 6.31512 31.7863 6.10691 31.7863 5.85615C31.7863 5.60539 31.6054 5.39719 31.3674 5.35373V4.77165H31.334H31.1793H31.1458V5.35373C30.9079 5.39719 30.7269 5.60539 30.7269 5.85615C30.7269 6.10691 30.9079 6.31512 31.1458 6.35857V6.62743C31.0427 6.66545 30.9685 6.76412 30.9685 6.88C30.9685 6.99587 31.0427 7.09455 31.1458 7.13257V7.50643C30.9875 7.54808 30.8708 7.69111 30.8708 7.86221C30.8708 8.0333 30.9875 8.17724 31.1458 8.21797V8.53119L31.0815 8.56378C27.4718 9.21285 26.6522 11.8146 26.5544 12.1776H26.6612V12.1106H26.6567ZM30.8897 5.85524C30.8897 5.65156 31.0508 5.48499 31.2516 5.47594C31.4534 5.4859 31.6135 5.65156 31.6135 5.85524C31.6135 6.05893 31.4525 6.22549 31.2516 6.23455C31.0508 6.22549 30.8897 6.05983 30.8897 5.85524Z" fill="#24324A"/>
<path d="M25.5585 12.2201H24.8148V12.8321H25.5585V12.2201Z" fill="#24324A"/>
<path d="M24.6429 15.1875H22.677V30.7308H24.6429V15.1875Z" fill="#24324A"/>
<path d="M22.592 28.9728H21.4774V30.7308H22.592V28.9728Z" fill="#24324A"/>
<path d="M17.9354 19.4685H17.9706H18.2239V18.9226C18.2239 18.9172 18.2249 18.9118 18.2267 18.9072L18.2828 18.7642C18.2891 18.7479 18.3045 18.7371 18.3226 18.7371H18.3967H18.451V17.3982H17.0985H15.746V18.7371H15.8084C15.8256 18.7371 15.8419 18.7479 15.8482 18.7642L15.9043 18.9072C15.9061 18.9118 15.907 18.9172 15.907 18.9226V19.4685H16.1603H16.1956H16.4489V18.9226C16.4489 18.9172 16.4498 18.9118 16.4516 18.9072L16.5077 18.7642C16.5141 18.7479 16.5295 18.7371 16.5475 18.7371H16.6217H16.6959C16.7131 18.7371 16.7294 18.7479 16.7357 18.7642L16.7918 18.9072C16.7936 18.9118 16.7945 18.9172 16.7945 18.9226V19.4685H17.0478H17.0831H17.3364V18.9226C17.3364 18.9172 17.3374 18.9118 17.3392 18.9072L17.3953 18.7642C17.4016 18.7479 17.417 18.7371 17.4351 18.7371H17.5092H17.5834C17.6006 18.7371 17.6169 18.7479 17.6232 18.7642L17.6793 18.9072C17.6811 18.9118 17.682 18.9172 17.682 18.9226V19.4685H17.9354Z" fill="#24324A"/>
<path d="M19.9088 15.8221H19.7567V16.0323H19.9088V15.8221Z" fill="#24324A"/>
<path d="M18.8284 15.8221H18.6763V16.0323H18.8284V15.8221Z" fill="#24324A"/>
<path d="M18.5913 16.0747V15.6674L18.5514 15.5714H18.5361V15.7244C18.5361 15.7715 18.4981 15.8095 18.451 15.8095H18.3868V15.8231H18.2909L18.3832 16.2621H22.0318V16.1381L22.0228 16.1182H21.8292C21.8057 16.1182 21.7867 16.0992 21.7867 16.0756V15.6384L21.7586 15.5723H21.6971H21.6356L21.6148 15.6221V16.0756C21.6148 16.0992 21.5958 16.1182 21.5722 16.1182H21.3352C21.3117 16.1182 21.2927 16.0992 21.2927 16.0756V15.8231H21.2665V15.6692L21.2257 15.5714H21.1642H21.1027L21.0765 15.6348V16.0747C21.0765 16.0983 21.0575 16.1173 21.0339 16.1173H20.7969C20.7734 16.1173 20.7544 16.0983 20.7544 16.0747V15.8222H20.7336V15.6683L20.6929 15.5705H20.6314H20.5698L20.5382 15.6465V16.0738C20.5382 16.0973 20.5192 16.1164 20.4956 16.1164H20.2586C20.2351 16.1164 20.2161 16.0973 20.2161 16.0738V15.8212H20.2007V15.6674L20.16 15.5696H20.0985H20.037L19.9999 15.6592V16.0738C19.9999 16.0973 19.9809 16.1164 19.9574 16.1164H19.7203C19.6968 16.1164 19.6778 16.0973 19.6778 16.0738V15.8212H19.6679V15.6674L19.6271 15.5696H19.5656H19.5041L19.4634 15.6674V15.8212H19.4616V16.0738C19.4616 16.0973 19.4426 16.1164 19.4191 16.1164H19.182C19.1585 16.1164 19.1395 16.0973 19.1395 16.0738V15.8212H19.135V15.6674L19.0943 15.5696H19.0328H18.9712L18.9305 15.6674V15.8212H18.9233V16.0738C18.9233 16.0973 18.9043 16.1164 18.8808 16.1164H18.6437C18.6103 16.1173 18.5913 16.0973 18.5913 16.0747Z" fill="#24324A"/>
<path d="M20.4479 15.8221H20.2958V16.0323H20.4479V15.8221Z" fill="#24324A"/>
<path d="M19.3684 15.8221H19.2163V16.0323H19.3684V15.8221Z" fill="#24324A"/>
<path d="M23.4016 12.9624H22.8488V13.5798H23.4016V12.9624Z" fill="#24324A"/>
<path d="M20.988 15.8221H20.8359V16.0323H20.988V15.8221Z" fill="#24324A"/>
<path d="M24.4682 13.6649H23.8286C23.8051 13.6649 23.7861 13.6459 23.7861 13.6223V12.8646L23.7246 12.7542H23.5608L23.4857 12.8728V13.6223C23.4857 13.6459 23.4667 13.6649 23.4432 13.6649H22.8054C22.7818 13.6649 22.7629 13.6459 22.7629 13.6223V12.909L22.6769 12.7768H22.496V13.8179H24.4673V13.6649H24.4682Z" fill="#24324A"/>
<path d="M22.4118 12.7768H22.3838V13.8179H22.4118V12.7768Z" fill="#24324A"/>
<path d="M5.16737 22.1182C4.24458 22.1182 3.90441 23.1646 3.87817 23.2497V28.8877H5.16737H6.45656V23.2497C6.43032 23.1646 6.09016 22.1182 5.16737 22.1182ZM5.94359 28.3246H5.16737H4.39114V23.5439C4.39114 23.5439 4.48703 22.7419 5.16737 22.7419C5.8477 22.7419 5.94359 23.5439 5.94359 23.5439V28.3246Z" fill="#24324A"/>
<path d="M8.69032 22.1182C7.76753 22.1182 7.42736 23.1646 7.40112 23.2497V28.8877H8.69032H9.9741V23.2343C9.92434 23.0804 9.57512 22.1182 8.69032 22.1182ZM9.46385 28.3246H8.68762H7.91138V23.5439C7.91138 23.5439 8.00728 22.7419 8.68762 22.7419C9.36795 22.7419 9.46385 23.5439 9.46385 23.5439V28.3246Z" fill="#24324A"/>
<path d="M12.2077 22.1182C11.3229 22.1182 10.9737 23.0804 10.924 23.2343V28.8877H12.2077H13.4915V23.2343C13.4417 23.0804 13.0925 22.1182 12.2077 22.1182ZM12.9839 28.3246H12.2077H11.4315V23.5439C11.4315 23.5439 11.5274 22.7419 12.2077 22.7419C12.888 22.7419 12.9839 23.5439 12.9839 23.5439V28.3246Z" fill="#24324A"/>
<path d="M15.7252 22.1182C14.8404 22.1182 14.4912 23.0804 14.4414 23.2343V28.8877H15.7252H17.0089V23.2343C16.9592 23.0804 16.6109 22.1182 15.7252 22.1182ZM16.5041 28.3246H15.7279H14.9517V23.5439C14.9517 23.5439 15.0476 22.7419 15.7279 22.7419C16.4082 22.7419 16.5041 23.5439 16.5041 23.5439V28.3246Z" fill="#24324A"/>
<path d="M19.2436 22.1182C18.3588 22.1182 18.0096 23.0804 17.9598 23.2343V28.8877H19.2436H20.5328V23.2497C20.5066 23.1646 20.1664 22.1182 19.2436 22.1182ZM20.0244 28.3246H19.2481H18.4719V23.5439C18.4719 23.5439 18.5678 22.7419 19.2481 22.7419C19.9285 22.7419 20.0244 23.5439 20.0244 23.5439V28.3246Z" fill="#24324A"/>
<path d="M21.4774 23.1456V28.8877H22.592V28.3246H21.9931V23.5439C21.9931 23.5439 22.0718 22.8858 22.592 22.7618V22.12C21.8131 22.1526 21.5018 23.0678 21.4774 23.1456Z" fill="#24324A"/>
<path d="M45.4543 2.475C45.533 2.45418 45.5909 2.38266 45.5909 2.29757C45.5909 2.21247 45.533 2.14095 45.4543 2.12013V1.93275C45.505 1.91374 45.5412 1.86485 45.5412 1.80692C45.5412 1.74898 45.505 1.7001 45.4543 1.68109V1.5462C45.5728 1.52357 45.6624 1.42037 45.6624 1.29454C45.6624 1.16961 45.5728 1.06551 45.4543 1.04379V0.752289H45.3602V1.04288C45.2408 1.06461 45.1512 1.16871 45.1512 1.29454C45.1512 1.42037 45.2417 1.52448 45.3602 1.5462V1.68109C45.3087 1.7001 45.2716 1.74898 45.2716 1.80782C45.2716 1.86576 45.3087 1.91555 45.3602 1.93456V2.12104C45.2806 2.14186 45.2227 2.21338 45.2227 2.29938C45.2227 2.38538 45.2815 2.45689 45.3602 2.47771V2.68321H45.4064H45.4543V2.475ZM45.2164 1.29364C45.2164 1.18863 45.3014 1.10353 45.4064 1.10353C45.5113 1.10353 45.5964 1.18863 45.5964 1.29364C45.5964 1.39865 45.5113 1.48374 45.4064 1.48374C45.3014 1.48374 45.2164 1.39955 45.2164 1.29364Z" fill="#24324A"/>
<path d="M45.4066 7.49283H43.7048L44.2694 8.01335H45.4066H46.5438L47.1083 7.49283H45.4066Z" fill="#24324A"/>
<path d="M46.759 15.1776H46.4922V8.09848H45.9891V15.6981L46.2271 16.9854H46.7563L46.4922 15.7235H46.759V15.1776Z" fill="#24324A"/>
<path d="M45.4065 6.60565H46.6613V5.75833L47.0368 5.48404H45.4074H43.7781L44.1535 5.75833V6.60565H45.4065ZM46.1285 5.91222C46.1285 5.91222 46.1249 5.6832 46.2968 5.6832C46.4686 5.6832 46.465 5.91222 46.465 5.91222V6.32502H46.2968H46.1285V5.91222ZM45.677 5.91222C45.677 5.91222 45.6734 5.6832 45.8453 5.6832C46.0172 5.6832 46.0136 5.91222 46.0136 5.91222V6.32502H45.8453H45.677V5.91222ZM45.25 5.91222C45.25 5.91222 45.2464 5.69497 45.4065 5.6841C45.5658 5.69497 45.563 5.91222 45.563 5.91222V6.32502H45.4065H45.25V5.91222ZM44.7995 5.91222C44.7995 5.91222 44.7959 5.6832 44.9677 5.6832C45.1396 5.6832 45.136 5.91222 45.136 5.91222V6.32502H44.9677H44.7995V5.91222ZM44.3489 5.91222C44.3489 5.91222 44.3453 5.6832 44.5172 5.6832C44.6891 5.6832 44.6855 5.91222 44.6855 5.91222V6.32502H44.5172H44.3489V5.91222Z" fill="#24324A"/>
<path d="M46.759 17.0704H45.4065H44.054V17.3131H45.4065H46.759V17.0704Z" fill="#24324A"/>
<path d="M44.7297 4.0882V4.36249H45.4064H46.0831V4.0882H45.4064H44.7297Z" fill="#24324A"/>
<path d="M47.119 7.40778V6.69081H45.4065H43.6938V7.40778H45.4065H47.119Z" fill="#24324A"/>
<path d="M47.0649 5.39989V4.89024H45.4066H43.7483V5.39989H45.4066H47.0649Z" fill="#24324A"/>
<path d="M47.054 4.80515L46.209 4.44757H45.4065H44.604L43.759 4.80515H45.4065H47.054Z" fill="#24324A"/>
<path d="M44.3208 15.1776H44.054V15.7235H44.3208L44.0576 16.9854H44.5859L44.8238 15.6981V8.09848H44.3208V15.1776Z" fill="#24324A"/>
<path d="M46.3122 4.0031V3.73967L46.0951 3.58577H45.4066H44.7181L44.501 3.73967V4.0031H45.4066H46.3122Z" fill="#24324A"/>
<path d="M46.0497 3.50066V3.29245C46.0497 3.29245 46.0497 2.6814 45.4064 2.6814C44.7632 2.6814 44.7632 3.29245 44.7632 3.29245V3.50066H45.4064H46.0497Z" fill="#24324A"/>
<path d="M45.4064 8.09848H44.9088V15.7017C44.9088 15.7045 44.9088 15.7072 44.9079 15.7099L44.6718 16.9854H45.4064H46.141L45.9049 15.7099C45.9039 15.7072 45.9039 15.7045 45.9039 15.7017V8.09848H45.4064ZM45.7266 15.4401C45.7266 15.4446 45.7257 15.4483 45.7248 15.4528L45.6099 15.8348C45.6045 15.8529 45.5882 15.8647 45.5692 15.8647H45.4055H45.2417C45.2227 15.8647 45.2064 15.852 45.201 15.8348L45.0861 15.4528C45.0852 15.4492 45.0843 15.4446 45.0843 15.4401V9.75872C45.0843 9.75238 45.0861 9.74605 45.0888 9.74062L45.2688 9.36403C45.2761 9.34954 45.2906 9.33958 45.3068 9.33958H45.4055H45.5041C45.5204 9.33958 45.5357 9.34864 45.5421 9.36403L45.7221 9.74062C45.7248 9.74605 45.7266 9.75238 45.7266 9.75872V15.4401Z" fill="#24324A"/>
<path d="M45.4065 9.42465H45.335L45.1713 9.76865V15.4338L45.2744 15.7796H45.4065H45.5386L45.6417 15.4338V9.76865L45.478 9.42465H45.4065Z" fill="#24324A"/>
<path d="M44.0295 16.7021H40.4731V17.0279H43.9825C43.9825 17.027 43.9834 17.027 43.9834 17.0261C43.9734 17.008 43.9698 16.9881 43.9743 16.9673L44.0295 16.7021Z" fill="#24324A"/>
<path d="M48.1532 23.2434V28.9302V30.7308H48.9222V28.9302V23.2434V20.8363H48.1532V23.2434Z" fill="#24324A"/>
<path d="M51.6705 23.2434V28.9302V30.7308H52.4404V28.9302V23.2434V20.8363H51.6705V23.2434Z" fill="#24324A"/>
<path d="M62.0683 19.7935H39.9122V19.97H62.0683V19.7935Z" fill="#24324A"/>
<path d="M62.2645 19.9365H62.1534V19.9702H62.2645V19.9365Z" fill="#24324A"/>
<path d="M45.4954 28.9728V30.7308H48.0629V28.9728H46.7791H45.4954Z" fill="#24324A"/>
<path d="M44.6357 23.2434V28.9302V30.7308H45.4047V28.9302V23.2434V20.8363H44.6357V23.2434Z" fill="#24324A"/>
<path d="M39.9122 20.7513H41.0702H41.9297H44.5877H44.5931H45.4472H45.4517H48.1052H48.1106H48.9646H48.9701H51.6236H51.6281H52.483H52.4875H55.1455H56.005H62.2637V20.056H39.9122V20.7513Z" fill="#24324A"/>
<path d="M56.0475 23.0144C56.2022 22.6686 56.5885 22.0331 57.3367 22.0331C58.0849 22.0331 58.4712 22.6686 58.6259 23.0144V20.8354H56.0475V23.0144Z" fill="#24324A"/>
<path d="M52.5302 23.0035C52.6885 22.6559 53.0748 22.0331 53.8139 22.0331C54.5621 22.0331 54.9484 22.6686 55.1031 23.0144V20.8354H52.5302V23.0035Z" fill="#24324A"/>
<path d="M56.0475 28.9728V30.7308H58.6259V28.9728H57.3367H56.0475Z" fill="#24324A"/>
<path d="M49.0127 28.9728V30.7308H51.5811V28.9728H50.2965H49.0127Z" fill="#24324A"/>
<path d="M52.5302 28.9728V30.7308H55.1031V28.9728H53.8139H52.5302Z" fill="#24324A"/>
<path d="M55.1881 23.2434V28.9302V30.7308H55.9625V28.9302V23.2434V20.8363H55.1881V23.2434Z" fill="#24324A"/>
<path d="M49.0126 23.0035C49.1709 22.6559 49.5572 22.0331 50.2964 22.0331C51.0355 22.0331 51.4227 22.655 51.5801 23.0035V20.8363H49.0117V23.0035H49.0126Z" fill="#24324A"/>
<path d="M45.495 23.0035C45.6534 22.6559 46.0397 22.0331 46.7788 22.0331C47.5188 22.0331 47.9052 22.655 48.0626 23.0035V20.8363H45.4941V23.0035H45.495Z" fill="#24324A"/>
<path d="M41.9725 23.0144C42.1272 22.6686 42.5135 22.0331 43.2617 22.0331C44.0018 22.0331 44.3881 22.655 44.5455 23.0035V20.8363H41.9725V23.0144Z" fill="#24324A"/>
<path d="M40.6334 16.0323V15.8221H40.6117C40.6117 15.8285 40.6108 15.8339 40.6081 15.8393L40.5203 16.0314H40.6334V16.0323Z" fill="#24324A"/>
<path d="M40.335 15.0212V14.7522H40.1856L40.0045 15.0212H40.335Z" fill="#24324A"/>
<path d="M39.9122 22.0349C40.5401 22.0593 40.883 22.607 41.0268 22.9175V20.8363H39.9122V22.0349Z" fill="#24324A"/>
<path d="M43.9689 17.3982C43.9689 17.3819 43.9743 17.3683 43.9816 17.3557C43.9743 17.343 43.9689 17.3285 43.9689 17.3131V17.113H40.4731V17.5068H43.9689V17.3982Z" fill="#24324A"/>
<path d="M40.5041 15.8646H39.9133V16.0855H40.3783C40.3865 16.0855 40.3946 16.0882 40.401 16.0927L40.5041 15.8646Z" fill="#24324A"/>
<path d="M44.1037 16.3463H40.4731V16.617H44.0476L44.1037 16.3463Z" fill="#24324A"/>
<path d="M31.2733 16.2204V16.2123C31.266 16.2132 31.2597 16.215 31.2525 16.2159C31.2452 16.215 31.2389 16.2132 31.2316 16.2123V16.2204C29.3173 16.578 28.3601 17.6 27.8915 18.4166C27.3577 19.3463 27.3243 20.2135 27.3234 20.2225V29.9903H29.2232V22.7419C29.2232 22.7392 29.2232 22.7374 29.2241 22.7346C29.2268 22.7174 29.5317 21.0083 31.2525 20.6725C32.9732 21.0074 33.2781 22.7174 33.2808 22.7346C33.2808 22.7374 33.2817 22.7392 33.2817 22.7419V29.9903H35.1816V20.2225C35.1816 20.2135 35.1472 19.3463 34.6134 18.4166C34.1448 17.6 33.1876 16.578 31.2733 16.2204Z" fill="#24324A"/>
<path d="M39.9122 16.1697V19.4685H40.3845V18.9226C40.3845 18.9172 40.3854 18.9117 40.3872 18.9072L40.3881 18.9063V16.1679C40.3845 16.1688 40.3809 16.1697 40.3772 16.1697H39.9122Z" fill="#24324A"/>
<path d="M43.646 19.4685H43.6813H43.9346V18.9226C43.9346 18.9172 43.9355 18.9117 43.9373 18.9072L43.968 18.8276V17.591H40.4723V18.7379C40.4759 18.737 40.4786 18.7361 40.4822 18.7361H40.5564H40.6306C40.6478 18.7361 40.6641 18.747 40.6704 18.7633L40.7265 18.9063C40.7283 18.9108 40.7292 18.9163 40.7292 18.9217V19.4676H40.9825H41.0178H41.2711V18.9217C41.2711 18.9163 41.272 18.9108 41.2739 18.9063L41.3299 18.7633C41.3363 18.747 41.3517 18.7361 41.3698 18.7361H41.4439H41.5181C41.5353 18.7361 41.5516 18.747 41.5579 18.7633L41.614 18.9063C41.6158 18.9108 41.6167 18.9163 41.6167 18.9217V19.4676H41.87H41.9053H42.1587V18.9217C42.1587 18.9163 42.1596 18.9108 42.1614 18.9063L42.2175 18.7633C42.2238 18.747 42.2392 18.7361 42.2573 18.7361H42.3315H42.4056C42.4228 18.7361 42.4391 18.747 42.4454 18.7633L42.5015 18.9063C42.5033 18.9108 42.5042 18.9163 42.5042 18.9217V19.4676H42.7576H42.7928H43.0462V18.9217C43.0462 18.9163 43.0471 18.9108 43.0489 18.9063L43.105 18.7633C43.1113 18.747 43.1267 18.7361 43.1448 18.7361H43.219H43.2931C43.3103 18.7361 43.3266 18.747 43.3329 18.7633L43.389 18.9063C43.3908 18.9108 43.3918 18.9163 43.3918 18.9217V19.4676H43.646V19.4685Z" fill="#24324A"/>
<path d="M38.634 12.9516H38.0369V13.5798H38.634V12.9516Z" fill="#24324A"/>
<path d="M41.1284 15.8221H40.9763V16.0323H41.1284V15.8221Z" fill="#24324A"/>
<path d="M31.2732 14.4099H31.2316H24.5884L24.7187 14.5728C24.7205 14.5746 24.7205 14.5765 24.7223 14.5792H31.2325H31.2741H37.7843C37.7852 14.5774 37.7861 14.5746 37.7879 14.5728L37.9182 14.4099H31.2732Z" fill="#24324A"/>
<path d="M31.2732 13.3508H37.9517V13.1905H31.2732H31.2316H24.5531V13.3508H31.2316H31.2732Z" fill="#24324A"/>
<path d="M40.5276 15.5288V15.4003C40.5267 15.4003 40.5258 15.4012 40.5249 15.4012H39.9133V15.5288H40.5249C40.5258 15.5279 40.5267 15.5288 40.5276 15.5288Z" fill="#24324A"/>
<path d="M41.9725 28.9728V30.7308H44.5455V28.9728H43.2617H41.9725Z" fill="#24324A"/>
<path d="M40.1104 14.1564H40.0923V14.7376L40.1104 14.7114V14.1564Z" fill="#24324A"/>
<path d="M39.9358 13.903H38.0369V14.0714H39.9358V13.903Z" fill="#24324A"/>
<path d="M39.9122 15.7796H40.5238C40.5247 15.7796 40.5256 15.7796 40.5265 15.7805V15.6139C40.5256 15.6139 40.5247 15.6148 40.5238 15.6148H39.9122V15.7796Z" fill="#24324A"/>
<path d="M39.9122 15.1585V15.3161H40.5238C40.5247 15.3161 40.5256 15.3161 40.5265 15.317V14.6552H40.4587L40.4198 14.6996V15.0644C40.4198 15.0879 40.4008 15.1069 40.3772 15.1069H39.9475L39.9122 15.1585Z" fill="#24324A"/>
<path d="M40.0073 14.1564H38.0359V14.3809C38.0359 14.3909 38.0323 14.3999 38.0269 14.4072L37.8613 14.6136V15.1015H39.8471L40.0073 14.8634V14.1564Z" fill="#24324A"/>
<path d="M31.2732 14.3248H37.9517V13.6224V13.4359H31.2732H31.2316H24.5531V13.6224V14.3248H31.2316H31.2732Z" fill="#24324A"/>
<path d="M52.0253 19.0303H51.6661V19.4676H52.0253V19.0303Z" fill="#24324A"/>
<path d="M53.5741 19.0303H53.215V19.4676H53.5741V19.0303Z" fill="#24324A"/>
<path d="M47.3778 19.0303H47.0187V19.4676H47.3778V19.0303Z" fill="#24324A"/>
<path d="M52.7997 19.0303H52.4406V19.4676H52.7997V19.0303Z" fill="#24324A"/>
<path d="M55.123 19.0303H54.7638V19.4676H55.123V19.0303Z" fill="#24324A"/>
<path d="M55.8974 19.0303H55.5382V19.4676H55.8974V19.0303Z" fill="#24324A"/>
<path d="M50.4763 19.0303H50.1172V19.4676H50.4763V19.0303Z" fill="#24324A"/>
<path d="M48.152 19.0303H47.7928V19.4676H48.152V19.0303Z" fill="#24324A"/>
<path d="M48.9267 19.0303H48.5675V19.4676H48.9267V19.0303Z" fill="#24324A"/>
<path d="M56.6719 19.0303H56.3127V19.4676H56.6719V19.0303Z" fill="#24324A"/>
<path d="M49.702 19.0303H49.3429V19.4676H49.702V19.0303Z" fill="#24324A"/>
<path d="M51.2509 19.0303H50.8917V19.4676H51.2509V19.0303Z" fill="#24324A"/>
<path d="M54.3485 19.0303H53.9894V19.4676H54.3485V19.0303Z" fill="#24324A"/>
<path d="M61.3184 19.0303H60.9592V19.4676H61.3184V19.0303Z" fill="#24324A"/>
<path d="M62.2367 18.824H62.1751L62.1344 18.9217V19.0313H62.1218V19.5111C62.1218 19.5346 62.1028 19.5536 62.0792 19.5536H61.6866C61.6631 19.5536 61.6441 19.5346 61.6441 19.5111V18.9236L61.6025 18.8249H61.5274H61.4523L61.4043 18.9389V19.5111C61.4043 19.5346 61.3853 19.5536 61.3618 19.5536H60.9176C60.8941 19.5536 60.8751 19.5346 60.8751 19.5111V18.9362L60.8281 18.824H60.753H60.6779L60.6299 18.938V19.5102C60.6299 19.5337 60.6109 19.5527 60.5874 19.5527H60.1432C60.1197 19.5527 60.1007 19.5337 60.1007 19.5102V18.9353L60.0536 18.8231H59.9785H59.9035L59.8555 18.9371V19.5102C59.8555 19.5337 59.8365 19.5527 59.813 19.5527H59.3688C59.3452 19.5527 59.3263 19.5337 59.3263 19.5102V18.9353L59.2792 18.8231H59.2041H59.129L59.0811 18.9371V19.5093C59.0811 19.5328 59.0621 19.5518 59.0386 19.5518H58.5944C58.5708 19.5518 58.5518 19.5328 58.5518 19.5093V18.9344L58.5048 18.8222H58.4297H58.3546L58.3067 18.9362V19.5084C58.3067 19.5319 58.2877 19.5509 58.2641 19.5509H57.8199C57.7964 19.5509 57.7774 19.5319 57.7774 19.5084V18.9335L57.7304 18.8213H57.6553H57.5802L57.5322 18.9353V19.5084C57.5322 19.5319 57.5132 19.5509 57.4897 19.5509H57.0455C57.022 19.5509 57.003 19.5319 57.003 19.5084V18.9335L56.9559 18.8213H56.8808H56.8058L56.7578 18.9353V19.5074C56.7578 19.531 56.7388 19.55 56.7153 19.55H56.2711C56.2476 19.55 56.2286 19.531 56.2286 19.5074V18.9326L56.1815 18.8204H56.1064H56.0313L55.9834 18.9344V19.5065C55.9834 19.5301 55.9644 19.5491 55.9409 19.5491H55.4967C55.4731 19.5491 55.4541 19.5301 55.4541 19.5065V18.9317L55.4071 18.8194H55.332H55.2569L55.209 18.9335V19.5065C55.209 19.5301 55.19 19.5491 55.1665 19.5491H54.7222C54.6987 19.5491 54.6797 19.5301 54.6797 19.5065V18.9317L54.6327 18.8194H54.5576H54.4825L54.4345 18.9335V19.5056C54.4345 19.5292 54.4155 19.5482 54.392 19.5482H53.9478C53.9243 19.5482 53.9053 19.5292 53.9053 19.5056V18.9308L53.8582 18.8185H53.7832H53.7081L53.6601 18.9326V19.5047C53.6601 19.5283 53.6411 19.5473 53.6176 19.5473H53.1734C53.1499 19.5473 53.1309 19.5283 53.1309 19.5047V18.9299L53.0838 18.8176H53.0087H52.9337L52.8857 18.9317V19.5047C52.8857 19.5283 52.8667 19.5473 52.8432 19.5473H52.399C52.3754 19.5473 52.3565 19.5283 52.3565 19.5047V18.9299L52.3094 18.8176H52.2343H52.1592L52.1113 18.9317V19.5038C52.1113 19.5274 52.0923 19.5464 52.0688 19.5464H51.6246C51.601 19.5464 51.582 19.5274 51.582 19.5038V18.929L51.535 18.8167H51.4599H51.3848L51.3369 18.9308V19.5029C51.3369 19.5265 51.3179 19.5455 51.2943 19.5455H50.8501C50.8266 19.5455 50.8076 19.5265 50.8076 19.5029V18.9281L50.7606 18.8158H50.6855H50.6104L50.5624 18.9299V19.5029C50.5624 19.5265 50.5434 19.5455 50.5199 19.5455H50.0757C50.0522 19.5455 50.0332 19.5265 50.0332 19.5029V18.9281L49.9861 18.8158H49.9111H49.836L49.788 18.9299V19.502C49.788 19.5255 49.769 19.5446 49.7455 19.5446H49.3013C49.2778 19.5446 49.2588 19.5255 49.2588 19.502V18.9272L49.2117 18.8149H49.1366H49.0615L49.0136 18.929V19.5011C49.0136 19.5246 48.9946 19.5436 48.9711 19.5436H48.5269C48.5033 19.5436 48.4844 19.5246 48.4844 19.5011V18.9263L48.4373 18.814H48.3622H48.2871L48.2392 18.9281V19.5011C48.2392 19.5246 48.2202 19.5436 48.1967 19.5436H47.7524C47.7289 19.5436 47.7099 19.5246 47.7099 19.5011V18.9263L47.6629 18.814H47.5878H47.5127L47.4648 18.9281V19.5002C47.4648 19.5237 47.4457 19.5428 47.4222 19.5428H46.978C46.9545 19.5428 46.9355 19.5237 46.9355 19.5002V18.9254L46.8885 18.8131H46.8459H46.7609V18.8113H46.7274L46.6849 18.9199V19.5002C46.6849 19.5237 46.6659 19.5428 46.6424 19.5428H46.3465H46.3113H46.0154C45.9919 19.5428 45.9729 19.5237 45.9729 19.5002V18.9199L45.9304 18.8113H45.8851H45.8399L45.7974 18.9199V19.5002C45.7974 19.5237 45.7784 19.5428 45.7549 19.5428H45.459H45.4237H45.1279C45.1044 19.5428 45.0854 19.5237 45.0854 19.5002V18.9199L45.0429 18.8113H44.9976H44.9524L44.9099 18.9199V19.5002C44.9099 19.5237 44.8909 19.5428 44.8674 19.5428H44.5715H44.5362H44.2404C44.2169 19.5428 44.1979 19.5237 44.1979 19.5002V18.9199L44.1554 18.8113H44.1101H44.0649L44.0558 18.833V19.0195H44.0224V19.4993C44.0224 19.5228 44.0034 19.5418 43.9799 19.5418H43.684H43.6487H43.3529C43.3294 19.5418 43.3104 19.5228 43.3104 19.4993V18.919L43.2679 18.8104H43.2226H43.1774L43.1349 18.919V19.4993C43.1349 19.5228 43.1159 19.5418 43.0923 19.5418H42.7965H42.7612H42.4654C42.4419 19.5418 42.4229 19.5228 42.4229 19.4993V18.919L42.3803 18.8104H42.3351H42.2899L42.2474 18.919V19.4993C42.2474 19.5228 42.2284 19.5418 42.2048 19.5418H41.909H41.8737H41.5779C41.5544 19.5418 41.5354 19.5228 41.5354 19.4993V18.919L41.4928 18.8104H41.4476H41.4024L41.3599 18.919V19.4993C41.3599 19.5228 41.3408 19.5418 41.3173 19.5418H41.0215H40.9862H40.6904C40.6668 19.5418 40.6478 19.5228 40.6478 19.4993V18.919L40.6053 18.8104H40.5601H40.5149L40.476 18.9109V19.1281C40.476 19.1345 40.4751 19.1399 40.4723 19.1444V19.4993C40.4723 19.5228 40.4533 19.5418 40.4298 19.5418H39.915V19.6966H62.2656V19.1616V19.0186V18.8122H62.2367V18.824Z" fill="#24324A"/>
<path d="M62.0358 19.0303H61.7281V19.4676H62.0358V19.0303Z" fill="#24324A"/>
<path d="M58.7109 23.2434V28.9302V30.7308H62.1217V20.8363H58.7109V23.2434Z" fill="#24324A"/>
<path d="M58.2207 19.0303H57.8616V19.4676H58.2207V19.0303Z" fill="#24324A"/>
<path d="M57.4464 19.0303H57.0873V19.4676H57.4464V19.0303Z" fill="#24324A"/>
<path d="M60.5439 19.0303H60.1847V19.4676H60.5439V19.0303Z" fill="#24324A"/>
<path d="M58.9949 19.0303H58.6357V19.4676H58.9949V19.0303Z" fill="#24324A"/>
<path d="M59.7696 19.0303H59.4104V19.4676H59.7696V19.0303Z" fill="#24324A"/>
<path d="M35.0694 12.2626H34.751V12.832H35.4385V12.2626H35.0694Z" fill="#24324A"/>
<path d="M31.7737 12.2626H31.4525V12.832H32.1401V12.2626H31.7737Z" fill="#24324A"/>
<path d="M32.8718 12.2626H32.5515V12.832H33.2391V12.2626H32.8727H32.8718Z" fill="#24324A"/>
<path d="M33.971 12.2626H33.6508V12.832H34.3383V12.2626H33.971Z" fill="#24324A"/>
<path d="M41.113 30.7308H41.8875V28.9302V23.2434V20.8363H41.113V30.7308Z" fill="#24324A"/>
<path d="M36.4683 12.2626H35.8549V12.832H36.4683V12.2626Z" fill="#24324A"/>
<path d="M37.6893 12.2201H36.9457V12.8321H37.6893V12.2201Z" fill="#24324A"/>
<path d="M39.8281 15.1875H37.8622V30.7308H39.8281V15.1875Z" fill="#24324A"/>
<path d="M41.0268 28.9728H39.9122V30.7308H41.0268V28.9728Z" fill="#24324A"/>
<path d="M46.3094 19.4685H46.3447H46.598V18.9226C46.598 18.9172 46.5989 18.9118 46.6007 18.9072L46.6568 18.7642C46.6631 18.7479 46.6785 18.7371 46.6966 18.7371H46.759V17.3982H45.4065H44.054V18.7371H44.1082H44.1824C44.1996 18.7371 44.2159 18.7479 44.2222 18.7642L44.2783 18.9072C44.2801 18.9118 44.281 18.9172 44.281 18.9226V19.4685H44.5344H44.5696H44.823V18.9226C44.823 18.9172 44.8239 18.9118 44.8257 18.9072L44.8818 18.7642C44.8881 18.7479 44.9035 18.7371 44.9216 18.7371H44.9958H45.0699C45.0871 18.7371 45.1034 18.7479 45.1097 18.7642L45.1658 18.9072C45.1676 18.9118 45.1686 18.9172 45.1686 18.9226V19.4685H45.4219H45.4571H45.7105V18.9226C45.7105 18.9172 45.7114 18.9118 45.7132 18.9072L45.7693 18.7642C45.7756 18.7479 45.791 18.7371 45.8091 18.7371H45.8833H45.9574C45.9746 18.7371 45.9909 18.7479 45.9973 18.7642L46.0533 18.9072C46.0552 18.9118 46.0561 18.9172 46.0561 18.9226V19.4685H46.3094Z" fill="#24324A"/>
<path d="M31.2317 14.6634H24.7278V30.7308H27.2383V20.2198C27.2383 20.2099 27.2736 19.3209 27.8173 18.3731C28.2977 17.5357 29.2811 16.4865 31.2516 16.129C33.222 16.4865 34.2054 17.5357 34.6858 18.3731C35.2295 19.3209 35.2648 20.2099 35.2648 20.2198V30.7308H37.7753V14.6634H31.2715H31.2317Z" fill="#24324A"/>
<path d="M31.2733 13.1054H37.9517V12.4111V11.9911H37.8975H37.7998L37.7744 12.0481V12.8755C37.7744 12.899 37.7554 12.9181 37.7319 12.9181H36.9032C36.8797 12.9181 36.8607 12.899 36.8607 12.8755V12.0997L36.8154 11.9911H36.7223H36.6291L36.5676 12.1377V12.221H36.5522V12.8755C36.5522 12.899 36.5332 12.9181 36.5097 12.9181H35.8112C35.7877 12.9181 35.7687 12.899 35.7687 12.8755V12.2427C35.7642 12.2364 35.7615 12.2283 35.7615 12.2201V12.1205L35.7126 12.0218H35.6737H35.6086H35.5697L35.5208 12.1205V12.2201V12.8746C35.5208 12.8981 35.5018 12.9171 35.4783 12.9171H34.7057C34.6822 12.9171 34.6632 12.8981 34.6632 12.8746V12.2283C34.6623 12.2255 34.6614 12.2228 34.6614 12.2201V12.1205L34.6125 12.0218H34.5736H34.5085H34.4696L34.4207 12.1205V12.2201C34.4207 12.2219 34.4198 12.2228 34.4198 12.2246V12.8755C34.4198 12.899 34.4008 12.9181 34.3773 12.9181H33.6047C33.5811 12.9181 33.5622 12.899 33.5622 12.8755V12.2246C33.5622 12.2228 33.5612 12.2219 33.5612 12.2201V12.1205L33.5124 12.0218H33.4735H33.4084H33.3694L33.3206 12.1205V12.2201C33.3206 12.2228 33.3197 12.2255 33.3188 12.2283V12.8746C33.3188 12.8981 33.2998 12.9171 33.2763 12.9171H32.5037C32.4801 12.9171 32.4611 12.8981 32.4611 12.8746V12.2201V12.1205L32.4123 12.0218H32.3734H32.3082H32.2693L32.2205 12.1205V12.2201C32.2205 12.2246 32.2196 12.2283 32.2178 12.2319V12.8746C32.2178 12.8981 32.1988 12.9171 32.1753 12.9171H31.4026C31.3791 12.9171 31.3601 12.8981 31.3601 12.8746V12.2201C31.3601 12.2183 31.361 12.2174 31.361 12.2156V12.1205L31.3122 12.0218H31.2733H31.266H31.2244H31.2172H31.1783L31.1294 12.1205V12.2156C31.1294 12.2174 31.1303 12.2183 31.1303 12.2201V12.8746C31.1303 12.8981 31.1113 12.9171 31.0878 12.9171H30.3152C30.2917 12.9171 30.2727 12.8981 30.2727 12.8746V12.2319C30.2718 12.2283 30.27 12.2237 30.27 12.2201V12.1205L30.2211 12.0218H30.1822H30.1171H30.0782L30.0293 12.1205V12.2201V12.8746C30.0293 12.8981 30.0103 12.9171 29.9868 12.9171H29.2142C29.1907 12.9171 29.1716 12.8981 29.1716 12.8746V12.2283C29.1707 12.2255 29.1698 12.2228 29.1698 12.2201V12.1205L29.121 12.0218H29.0821H29.017H28.978L28.9292 12.1205V12.2201C28.9292 12.2219 28.9283 12.2228 28.9283 12.2246V12.8755C28.9283 12.899 28.9093 12.9181 28.8858 12.9181H28.1132C28.0896 12.9181 28.0706 12.899 28.0706 12.8755V12.2246C28.0706 12.2228 28.0697 12.2219 28.0697 12.2201V12.1205L28.0209 12.0218H27.982H27.9168H27.8779L27.8291 12.1205V12.2201C27.8291 12.2228 27.8282 12.2255 27.8273 12.2283V12.8746C27.8273 12.8981 27.8083 12.9171 27.7848 12.9171H27.0121C26.9886 12.9171 26.9696 12.8981 26.9696 12.8746V12.2201V12.1205L26.9208 12.0218H26.8819H26.8167H26.7778L26.729 12.1205V12.2201C26.729 12.2283 26.7263 12.2364 26.7217 12.2427V12.8755C26.7217 12.899 26.7027 12.9181 26.6792 12.9181H25.9808C25.9573 12.9181 25.9383 12.899 25.9383 12.8755V12.221H25.9229V12.1377L25.8614 11.9911H25.7682H25.675L25.6298 12.0997V12.8755C25.6298 12.899 25.6108 12.9181 25.5872 12.9181H24.7585C24.735 12.9181 24.716 12.899 24.716 12.8755V12.0481L24.6907 11.9911H24.593H24.5387V12.4111V13.1054H31.2172H31.2733Z" fill="#24324A"/>
<path d="M42.7477 15.8221H42.5956V16.0323H42.7477V15.8221Z" fill="#24324A"/>
<path d="M43.828 15.8221H43.6759V16.0323H43.828V15.8221Z" fill="#24324A"/>
<path d="M40.4731 16.1372V16.2612H44.1218L44.2141 15.8222H44.1182V15.8086H44.0539C44.0069 15.8086 43.9689 15.7706 43.9689 15.7235V15.5705H43.9535L43.9137 15.6665V16.0738C43.9137 16.0974 43.8947 16.1164 43.8712 16.1164H43.6342C43.6106 16.1164 43.5916 16.0974 43.5916 16.0738V15.8212H43.5844V15.6674L43.5437 15.5696H43.4822H43.4207L43.3799 15.6674V15.8212H43.3754V16.0738C43.3754 16.0974 43.3564 16.1164 43.3329 16.1164H43.0959C43.0723 16.1164 43.0533 16.0974 43.0533 16.0738V15.8212H43.0515V15.6674L43.0108 15.5696H42.9493H42.8878L42.8471 15.6674V15.8212H42.8371V16.0738C42.8371 16.0974 42.8181 16.1164 42.7946 16.1164H42.5576C42.5341 16.1164 42.515 16.0974 42.515 16.0738V15.6592L42.478 15.5696H42.4164H42.3495L42.3088 15.6674V15.8212H42.2934V16.0738C42.2934 16.0974 42.2744 16.1164 42.2509 16.1164H42.0139C41.9903 16.1164 41.9713 16.0974 41.9713 16.0738V15.6465L41.9397 15.5705H41.8781H41.8166L41.7759 15.6683V15.8222H41.7551V16.0747C41.7551 16.0983 41.7361 16.1173 41.7126 16.1173H41.4755C41.452 16.1173 41.433 16.0983 41.433 16.0747V15.6348L41.4068 15.5714H41.3453H41.2838L41.243 15.6692V15.8231H41.2168V16.0756C41.2168 16.0992 41.1978 16.1182 41.1743 16.1182H40.9373C40.9137 16.1182 40.8947 16.0992 40.8947 16.0756V15.6221L40.8739 15.5723H40.8124H40.7509L40.7228 15.6384V16.0756C40.7228 16.0992 40.7038 16.1182 40.6803 16.1182H40.4867L40.4731 16.1372Z" fill="#24324A"/>
<path d="M42.2085 15.8221H42.0564V16.0323H42.2085V15.8221Z" fill="#24324A"/>
<path d="M43.2877 15.8221H43.1356V16.0323H43.2877V15.8221Z" fill="#24324A"/>
<path d="M39.6552 12.9624H39.1024V13.5798H39.6552V12.9624Z" fill="#24324A"/>
<path d="M41.6684 15.8221H41.5164V16.0323H41.6684V15.8221Z" fill="#24324A"/>
<path d="M40.0071 12.7768H39.8262L39.7403 12.909V13.6223C39.7403 13.6459 39.7213 13.6649 39.6977 13.6649H39.0599C39.0364 13.6649 39.0174 13.6459 39.0174 13.6223V12.8728L38.9423 12.7542H38.7786L38.717 12.8646V13.6223C38.717 13.6459 38.698 13.6649 38.6745 13.6649H38.0349V13.817H40.0062V12.7768H40.0071Z" fill="#24324A"/>
<path d="M40.1203 12.7768H40.0923V13.8179H40.1203V12.7768Z" fill="#24324A"/>
<path d="M57.3367 22.1182C56.4139 22.1182 56.0737 23.1646 56.0475 23.2497V28.8877H57.3367H58.6259V23.2497C58.5996 23.1646 58.2595 22.1182 57.3367 22.1182ZM58.1129 28.3246H57.3367H56.5604V23.5439C56.5604 23.5439 56.6563 22.7419 57.3367 22.7419C58.017 22.7419 58.1129 23.5439 58.1129 23.5439V28.3246Z" fill="#24324A"/>
<path d="M53.8139 22.1182C52.9291 22.1182 52.5799 23.0804 52.5302 23.2343V28.8877H53.8139H55.1031V23.2497C55.0778 23.1646 54.7367 22.1182 53.8139 22.1182ZM54.5929 28.3246H53.8166H53.0404V23.5439C53.0404 23.5439 53.1363 22.7419 53.8166 22.7419C54.497 22.7419 54.5929 23.5439 54.5929 23.5439V28.3246Z" fill="#24324A"/>
<path d="M50.2965 22.1182C49.4117 22.1182 49.0625 23.0804 49.0127 23.2343V28.8877H50.2965H51.5802V23.2343C51.5305 23.0804 51.1812 22.1182 50.2965 22.1182ZM51.0727 28.3246H50.2965H49.5202V23.5439C49.5202 23.5439 49.6161 22.7419 50.2965 22.7419C50.9768 22.7419 51.0727 23.5439 51.0727 23.5439V28.3246Z" fill="#24324A"/>
<path d="M46.7791 22.1182C45.8943 22.1182 45.5451 23.0804 45.4954 23.2343V28.8877H46.7791H48.0629V23.2343C48.0131 23.0804 47.6639 22.1182 46.7791 22.1182ZM47.5526 28.3246H46.7764H46.0002V23.5439C46.0002 23.5439 46.0961 22.7419 46.7764 22.7419C47.4567 22.7419 47.5526 23.5439 47.5526 23.5439V28.3246Z" fill="#24324A"/>
<path d="M43.2617 22.1182C42.3389 22.1182 41.9988 23.1646 41.9725 23.2497V28.8877H43.2617H44.5455V23.2343C44.4957 23.0804 44.1465 22.1182 43.2617 22.1182ZM44.0325 28.3246H43.2563H42.4801V23.5439C42.4801 23.5439 42.576 22.7419 43.2563 22.7419C43.9366 22.7419 44.0325 23.5439 44.0325 23.5439V28.3246Z" fill="#24324A"/>
<path d="M39.9122 22.12V22.7618C40.4324 22.8858 40.5111 23.5439 40.5111 23.5439V28.3246H39.9122V28.8877H41.0268V23.1456C41.0024 23.0678 40.6912 22.1526 39.9122 22.12Z" fill="#24324A"/>
</svg>
