<svg width="18" height="18" viewBox="0 0 18 18" fill="none" xmlns="http://www.w3.org/2000/svg">
<g clip-path="url(#clip0)">
<path d="M12.6074 9.74985H3.56236C3.25193 9.74985 2.99986 9.49778 2.99986 9.18735V5.81236C2.99986 5.50193 3.25193 5.24986 3.56236 5.24986H14.4372C14.7477 5.24986 14.9997 5.50193 14.9997 5.81236V7.49986C14.9997 7.81028 14.7477 8.06235 14.4372 8.06235C14.1268 8.06235 13.8747 7.81028 13.8747 7.49986V6.37486H4.12486V8.62485H12.6074C12.9178 8.62485 13.1699 8.87692 13.1699 9.18735C13.1699 9.49778 12.9181 9.74985 12.6074 9.74985Z" fill="#707070"/>
<path d="M10.3651 11.9925H3.59998C3.28955 11.9925 3.03748 11.7404 3.03748 11.43C3.03748 11.1196 3.28955 10.8675 3.59998 10.8675H10.3651C10.6755 10.8675 10.9276 11.1196 10.9276 11.43C10.9276 11.7404 10.6755 11.9925 10.3651 11.9925Z" fill="#707070"/>
<path d="M8.12986 14.2425H3.59998C3.28955 14.2425 3.03748 13.9904 3.03748 13.68C3.03748 13.3696 3.28955 13.1175 3.59998 13.1175H8.12986C8.44029 13.1175 8.69236 13.3696 8.69236 13.68C8.69236 13.9904 8.44064 14.2425 8.12986 14.2425Z" fill="#707070"/>
<path d="M9.39517 18C9.24751 18 9.10337 17.9417 8.99755 17.8351C8.86783 17.7054 8.80947 17.5208 8.84146 17.3394L9.23908 15.0856C9.25947 14.9724 9.31396 14.8673 9.39517 14.7857L14.9639 9.21764C15.2009 8.98069 15.4522 8.83303 15.711 8.77889C16.0689 8.70401 16.4152 8.81264 16.6876 9.08581L17.6154 10.0136C18.1269 10.5251 18.1269 11.3576 17.6154 11.8698L12.0474 17.4386C11.9654 17.5205 11.8607 17.575 11.7475 17.5947L9.49361 17.9923C9.46056 17.9969 9.42822 18 9.39517 18ZM11.6497 17.0399H11.6571H11.6497ZM10.3163 15.4561L10.0892 16.7439L11.3769 16.5168L16.8198 11.0732C16.8926 10.9997 16.8926 10.8812 16.8198 10.8078L15.8987 9.88667C15.8913 9.90108 15.8351 9.93694 15.7592 10.0118L10.3163 15.4561Z" fill="#CFCFCF"/>
<path d="M7.37262 16.4999H2.06262C0.924609 16.4999 0 15.5753 0 14.4376V2.06262C0 0.924609 0.924609 0 2.06262 0H15.9377C17.0754 0 18 0.924609 18 2.06262V7.53012C18 7.84055 17.7479 8.09262 17.4375 8.09262C17.1271 8.09262 16.875 7.84055 16.875 7.53012V2.06262C16.875 1.54582 16.4542 1.125 15.9374 1.125H2.06262C1.54582 1.125 1.125 1.54582 1.125 2.06262V14.4376C1.125 14.9544 1.54582 15.3752 2.06262 15.3752H7.37262C7.68305 15.3752 7.93512 15.6273 7.93512 15.9377C7.93512 16.2482 7.68305 16.4999 7.37262 16.4999Z" fill="#707070"/>
<path d="M17.4375 3.75014H0.5625C0.25207 3.75014 0 3.49807 0 3.18764C0 2.87721 0.25207 2.62514 0.5625 2.62514H17.4375C17.7479 2.62514 18 2.87721 18 3.18764C18 3.49807 17.7479 3.75014 17.4375 3.75014Z" fill="#707070"/>
</g>
<defs>
<clipPath id="clip0">
<rect width="18" height="18" fill="white"/>
</clipPath>
</defs>
</svg>
