<svg width="100" height="28" viewBox="0 0 100 28" fill="none" xmlns="http://www.w3.org/2000/svg">
<g clip-path="url(#clip0)">
<path d="M0 12.3068V11.9303C0 7.95042 2.33391 5.95935 7.00402 5.95935C8.83993 5.95935 10.3224 6.27118 11.4515 6.89252C12.0298 6.28042 12.9524 5.97552 14.2169 5.97552C14.9971 5.97552 15.8003 6.18571 16.6242 6.6061L16.0069 9.5904C15.5846 9.49339 15.2358 9.44719 14.965 9.44719C14.5955 9.44719 14.3247 9.50031 14.1526 9.60888C13.9782 9.71513 13.8657 9.89992 13.8107 10.1563C13.9415 10.646 14.008 11.2489 14.008 11.9649V12.3391C14.008 16.3259 11.6741 18.3215 7.00631 18.3215H6.81125C6.31325 18.4139 6.0654 18.6403 6.0654 18.9983C6.0654 19.1923 6.21916 19.3425 6.52897 19.4441C6.83878 19.5458 7.24498 19.6243 7.75445 19.6797C8.26162 19.7352 8.82387 19.7952 9.4389 19.8599C10.0539 19.9269 10.669 20.0424 11.2817 20.2087C11.8944 20.375 12.4544 20.5944 12.9662 20.8716C13.4756 21.1488 13.8887 21.5553 14.2031 22.0912C14.5175 22.6271 14.6758 23.2646 14.6758 24.006C14.6758 24.5719 14.5634 25.0755 14.3431 25.5143C14.1205 25.9532 13.7946 26.3089 13.3678 26.5815C12.9386 26.854 12.4865 27.0781 12.0092 27.256C11.5318 27.4338 10.9581 27.5585 10.2857 27.6325C9.61331 27.7064 9.00975 27.7549 8.46816 27.7803C7.92656 27.8057 7.30694 27.8172 6.60471 27.8172C5.58118 27.8172 4.39931 27.7826 3.06139 27.711C1.72117 27.6417 0.716007 27.5493 0.0390132 27.4407L0.268503 24.2647C1.80608 24.5165 3.48594 24.6412 5.30809 24.6412C6.9214 24.6412 8.13999 24.5673 8.96156 24.4195C9.78313 24.2717 10.1962 23.9899 10.1962 23.5741C10.1962 23.3385 9.9759 23.1468 9.53528 22.9989C9.09466 22.8488 8.54848 22.7264 7.90132 22.6317C7.25187 22.537 6.54274 22.433 5.76936 22.3199C4.99598 22.2067 4.28227 22.0519 3.62593 21.8556C2.96959 21.6592 2.4257 21.3451 1.99197 20.9132C1.55823 20.4812 1.34022 19.9546 1.34022 19.3309C1.34022 18.444 1.68675 17.7603 2.3821 17.2798C0.791739 16.3097 0 14.6535 0 12.3068ZM4.63569 12.3183C4.63569 14.0391 5.41824 14.9007 6.98566 14.9007C7.76363 14.9007 8.35571 14.6836 8.76191 14.247C9.1681 13.8105 9.37005 13.1683 9.37005 12.3183V11.9626C9.37005 10.2418 8.58061 9.3802 7.00402 9.3802C5.42742 9.3802 4.63569 10.2372 4.63569 11.9464V12.3183Z" fill="#24324A"/>
<path d="M17.6661 15.8339V6.27118H22.0424V15.4089C22.0424 17.4069 22.8847 18.4047 24.5714 18.4047C25.4412 18.4047 26.3224 18.2961 27.2151 18.0767V6.27118H31.5915V20.9432C30.607 21.2827 29.4274 21.5461 28.0482 21.7378C26.6689 21.9295 25.4343 22.0242 24.3419 22.0242C19.8921 22.0219 17.6661 19.9592 17.6661 15.8339Z" fill="#24324A"/>
<path d="M34.3247 17.0627V0H38.7011V17.0142C38.7011 17.5039 38.7562 17.8434 38.864 18.0282C38.9719 18.213 39.1784 18.3054 39.4814 18.3054C39.7407 18.3054 40.0826 18.2569 40.5072 18.1575L41.0763 21.1187C40.1652 21.5253 39.1738 21.7262 38.0998 21.7262C37.4917 21.7262 36.9753 21.6639 36.5462 21.5368C36.117 21.4121 35.7269 21.1857 35.3758 20.8577C35.0224 20.5297 34.7608 20.0493 34.5864 19.4164C34.4119 18.7858 34.3247 18.0005 34.3247 17.0627Z" fill="#24324A"/>
<path d="M41.191 9.56268V6.27118H43.0132V5.40268C43.0132 1.80166 44.693 0 48.0551 0C48.6839 0 49.3953 0.0646751 50.187 0.196335C50.9788 0.327995 51.5158 0.468895 51.798 0.621343L51.1302 3.52018C50.5772 3.4555 49.9598 3.42085 49.2759 3.42085C48.5485 3.42085 48.0528 3.5733 47.7866 3.8782C47.5204 4.1831 47.3873 4.69588 47.3873 5.41654V6.26887H50.1687V9.56268H47.3895V21.7285H43.0132V9.56268H41.191Z" fill="#24324A"/>
<path d="M51.4079 9.56267V6.27117H53.1979V2.94733H57.5743V6.27117H60.6816V9.56267H57.5743V15.8546C57.5743 16.6284 57.7281 17.2313 58.0379 17.6609C58.3477 18.0905 58.7998 18.3054 59.3964 18.3054C60.0482 18.3054 60.5737 18.2661 60.9753 18.1899L61.1383 21.546C60.5301 21.6662 59.7981 21.7262 58.9421 21.7262C56.9891 21.7262 55.5456 21.2342 54.607 20.2525C53.6684 19.2709 53.2002 17.885 53.2002 16.0925V9.56267H51.4079Z" fill="#0572FF"/>
<path d="M62.6965 21.7285V0H67.0729V6.71236C68.5921 6.22036 70.0126 5.97552 71.3345 5.97552C73.2002 5.97552 74.5818 6.50216 75.4837 7.55544C76.3833 8.60872 76.833 10.0847 76.833 11.9857V21.7285H72.4567V12.4615C72.4567 11.5561 72.2387 10.8516 71.8049 10.3503C71.3712 9.8491 70.7195 9.59733 69.852 9.59733C69.4297 9.59733 68.9386 9.65276 68.3787 9.76133C67.821 9.86989 67.3827 10.0015 67.0683 10.154V21.7308H62.6965V21.7285Z" fill="#0572FF"/>
<path d="M79.6328 4.58501V0.328003H84.2685V4.58501H79.6328ZM79.7636 17.0627V6.27119H84.14V17.0142C84.14 17.5039 84.1951 17.8434 84.3029 18.0282C84.4108 18.213 84.6173 18.3054 84.9202 18.3054C85.1704 18.3054 85.5054 18.2569 85.93 18.1576L86.5152 21.1187C85.6041 21.5253 84.6058 21.7262 83.5227 21.7262C82.9145 21.7262 82.3982 21.6639 81.969 21.5368C81.5399 21.4121 81.152 21.1857 80.8055 20.8577C80.459 20.5297 80.1974 20.0539 80.0252 19.4256C79.8485 18.7997 79.7636 18.012 79.7636 17.0627Z" fill="#0572FF"/>
<path d="M87.4102 21.5807L87.6374 18.4856C89.8612 18.7258 91.541 18.8459 92.6816 18.8459C93.7051 18.8459 94.4532 18.7073 94.9214 18.4278C95.3896 18.1483 95.6236 17.7926 95.6236 17.356C95.6236 16.9749 95.4882 16.6562 95.2174 16.3998C94.9466 16.1434 94.5749 15.9471 94.1044 15.8131C93.634 15.6791 93.1176 15.5313 92.56 15.3696C92 15.2102 91.4377 15.0162 90.8755 14.7945C90.311 14.5704 89.7969 14.3001 89.331 13.9837C88.8652 13.6673 88.4842 13.2168 88.1928 12.6325C87.899 12.0481 87.7545 11.3574 87.7545 10.5605C87.7545 9.88376 87.8531 9.2809 88.0528 8.75195C88.2501 8.223 88.5324 7.79568 88.8973 7.47461C89.2622 7.15355 89.6454 6.88561 90.047 6.6731C90.4487 6.4606 90.9145 6.30815 91.4469 6.21576C91.9771 6.12336 92.4452 6.061 92.8468 6.02635C93.2484 5.99401 93.6913 5.97784 94.1733 5.97784C96.1974 5.97784 97.9874 6.11412 99.541 6.38668L99.2702 9.51419C97.7671 9.27397 96.4544 9.15386 95.3345 9.15386C94.8434 9.15386 94.4211 9.17002 94.0677 9.20467C93.7143 9.23932 93.3815 9.30399 93.0717 9.3987C92.7619 9.4934 92.5278 9.63199 92.3695 9.80985C92.2111 9.99001 92.1331 10.2141 92.1331 10.482C92.1331 10.8192 92.2892 11.0918 92.6036 11.3066C92.918 11.5191 93.3081 11.6854 93.7762 11.8032C94.2444 11.921 94.7585 12.0527 95.323 12.1936C95.8853 12.3368 96.4406 12.5216 96.9845 12.7479C97.5307 12.9743 98.0287 13.2561 98.4808 13.5957C98.9329 13.9352 99.3001 14.4179 99.5823 15.0439C99.8646 15.6699 100.007 16.4021 100.007 17.2429C100.007 20.4304 97.8933 22.0242 93.6707 22.0242C91.4905 22.0219 89.4068 21.8764 87.4102 21.5807Z" fill="#0572FF"/>
</g>
<defs>
<clipPath id="clip0">
<rect width="100" height="27.8195" fill="white"/>
</clipPath>
</defs>
</svg>
