<svg width="24" height="24" viewBox="0 0 24 24" fill="none" xmlns="http://www.w3.org/2000/svg">
<path d="M20.4844 9.97594H16.9964C16.6078 9.97594 16.2933 10.2909 16.2933 10.6791C16.2933 10.7709 16.3116 10.8581 16.3434 10.9388C16.4466 11.1984 16.7002 11.3822 16.9964 11.3822H20.4844C21.6473 11.3822 22.5938 12.3286 22.5938 13.4916V20.4844C22.5938 21.6473 21.6473 22.5938 20.4844 22.5938H12.5358C11.3728 22.5938 10.4264 21.6473 10.4264 20.4844V12.772C10.4264 12.3408 10.777 11.9902 11.2083 11.9902H12.7927C13.9992 11.9902 14.9808 11.0086 14.9808 9.80203V3.51562C14.9808 1.57687 13.4039 0 11.4652 0H3.51562C1.57687 0 0 1.57687 0 3.51562V10.9955C0 12.9342 1.57687 14.5111 3.51562 14.5111H9.02016V20.4844C9.02016 22.4231 10.597 24 12.5358 24H20.4844C22.4231 24 24 22.4231 24 20.4844V13.4916C24 11.5533 22.4231 9.97594 20.4844 9.97594ZM9.02016 13.1048H3.51562C2.35266 13.1048 1.40625 12.1584 1.40625 10.9955V3.51562C1.40625 2.35266 2.35266 1.40625 3.51562 1.40625H11.4642C12.6272 1.40625 13.5736 2.35266 13.5736 3.51562V9.8025C13.5736 10.2337 13.223 10.5844 12.7917 10.5844H11.2073C10.0008 10.5844 9.01922 11.5659 9.01922 12.7725V13.1048H9.02016Z" fill="#323C45" fill-opacity="0.5"/>
<path d="M10.2759 8.84248L8.13703 3.80435C8.02688 3.54467 7.77188 3.37592 7.48969 3.37592C7.2075 3.37592 6.95297 3.54467 6.84281 3.80435L4.70391 8.84248C4.55203 9.19967 4.71891 9.61263 5.07656 9.76451C5.16609 9.80248 5.25938 9.82076 5.35078 9.82076C5.62453 9.82076 5.88469 9.65998 5.99859 9.39232L6.41391 8.41451H8.56688L8.98219 9.39232C9.13406 9.74951 9.54656 9.91639 9.90422 9.76498C10.2619 9.61357 10.4278 9.20013 10.2759 8.84248ZM7.01063 7.00779L7.49016 5.8781L7.96969 7.00779H7.01063Z" fill="#323C45" fill-opacity="0.5"/>
<path d="M19.2761 20.4753H13V17.5569C13 15.1859 14.0575 14 16.1725 14C18.2416 14 19.2761 15.163 19.2761 17.488V20.4753ZM16.3028 16.2523C16.3028 15.3092 16.0281 14.8377 15.4788 14.8377C15.1169 14.8377 14.7564 15.0734 14.3973 15.545C14.0378 16.0166 13.8583 16.6644 13.8583 17.4884V19.6306C15.4881 18.5919 16.3028 17.4655 16.3028 16.2523ZM18.3972 19.6995V17.4884C18.3972 15.8909 17.7906 15.0003 16.5775 14.8175C17.0491 15.0463 17.2848 15.5478 17.2848 16.3213C17.2848 16.7881 17.1189 17.3469 16.787 17.9966C16.4552 18.6467 15.962 19.2144 15.3072 19.6995H18.3972Z" fill="#323C45" fill-opacity="0.5"/>
</svg>
