<svg width="21" height="18" viewBox="0 0 21 18" fill="none" xmlns="http://www.w3.org/2000/svg">
<path d="M10.156 18C9.86676 18 9.58786 17.8957 9.37086 17.706C8.55005 16.9912 7.759 16.3198 7.06117 15.7271L7.0576 15.7239C5.01133 13.9868 3.24435 12.4868 2.01453 11.0094C0.640302 9.35761 0 7.79123 0 6.08022C0 4.41781 0.572463 2.88422 1.61147 1.76159C2.66277 0.625527 4.10563 0 5.67425 0C6.84655 0 7.92046 0.369073 8.86584 1.09734C9.34269 1.46483 9.77511 1.91452 10.156 2.43928C10.5372 1.91452 10.9692 1.46483 11.4465 1.09734C12.3915 0.369073 13.4654 0 14.6377 0C16.2063 0 17.6492 0.625527 18.7005 1.76159C19.7399 2.88422 20.3119 4.41781 20.3119 6.08022C20.3119 7.79123 19.672 9.35761 18.2974 11.0094C17.068 12.4872 15.301 13.9872 13.2547 15.7239C12.5557 16.3174 11.7631 16.99 10.9407 17.7064C10.7241 17.8957 10.4452 18 10.156 18ZM5.67425 1.18506C4.44165 1.18506 3.30942 1.67505 2.48583 2.56454C1.64995 3.46786 1.18936 4.71615 1.18936 6.07982C1.18936 7.51897 1.72651 8.80598 2.93015 10.253C4.09373 11.6515 5.8246 13.1207 7.82882 14.8218L7.83239 14.8249C8.53299 15.4197 9.32722 16.0938 10.154 16.8138C10.9855 16.0926 11.7809 15.4173 12.4831 14.8214C14.4869 13.1203 16.2178 11.6515 17.3814 10.2526C18.585 8.80558 19.1222 7.51857 19.1222 6.07943C19.1222 4.71536 18.6616 3.46707 17.8257 2.56415C17.0021 1.67426 15.8699 1.18467 14.6377 1.18467C13.7347 1.18467 12.906 1.47036 12.1741 2.03425C11.5219 2.53688 11.0676 3.17229 10.801 3.61683C10.6642 3.84563 10.423 3.98195 10.156 3.98195C9.88897 3.98195 9.64777 3.84563 9.5109 3.61683C9.2447 3.17229 8.79046 2.53688 8.13786 2.03425C7.40592 1.47115 6.57718 1.18506 5.67425 1.18506Z" fill="black"/>
</svg>
