<svg width="103" height="8" viewBox="0 0 103 8" fill="none" xmlns="http://www.w3.org/2000/svg">
<path d="M0.792614 0.454545V7H1.53409V2.02699H1.59801L3.64347 7H4.35938L6.40483 2.02699H6.46875V7H7.21023V0.454545H6.2642L4.03977 5.88778H3.96307L1.73864 0.454545H0.792614ZM10.1418 7.11506C10.9983 7.11506 11.4458 6.65483 11.5992 6.33523H11.6375V7H12.3918V3.76562C12.3918 2.20597 11.2029 2.02699 10.5764 2.02699C9.83496 2.02699 8.99121 2.28267 8.60769 3.17756L9.3236 3.43324C9.48979 3.07528 9.8829 2.69176 10.602 2.69176C11.2955 2.69176 11.6375 3.0593 11.6375 3.68892V3.71449C11.6375 4.07884 11.2668 4.04688 10.3719 4.16193C9.46103 4.28018 8.46706 4.48153 8.46706 5.60653C8.46706 6.56534 9.20854 7.11506 10.1418 7.11506ZM10.2568 6.4375C9.65598 6.4375 9.22132 6.16903 9.22132 5.64489C9.22132 5.0696 9.74547 4.89062 10.3335 4.81392C10.6531 4.77557 11.5097 4.68608 11.6375 4.53267V5.22301C11.6375 5.83665 11.1517 6.4375 10.2568 6.4375ZM15.6222 7.10227C16.5682 7.10227 16.8878 6.5142 17.054 6.24574H17.1435V7H17.8722V0.454545H17.1179V2.87074H17.054C16.8878 2.61506 16.5938 2.02699 15.6349 2.02699C14.3949 2.02699 13.5384 3.01136 13.5384 4.55824C13.5384 6.1179 14.3949 7.10227 15.6222 7.10227ZM15.7244 6.42472C14.7784 6.42472 14.2926 5.59375 14.2926 4.54545C14.2926 3.50994 14.7656 2.70455 15.7244 2.70455C16.6449 2.70455 17.1307 3.44602 17.1307 4.54545C17.1307 5.65767 16.6321 6.42472 15.7244 6.42472ZM21.4165 7.10227C22.4137 7.10227 23.1424 6.60369 23.3725 5.86222L22.6438 5.65767C22.4521 6.16903 22.0078 6.42472 21.4165 6.42472C20.5312 6.42472 19.9208 5.85263 19.8857 4.80114H23.4492V4.48153C23.4492 2.65341 22.3626 2.02699 21.3398 2.02699C20.0103 2.02699 19.1282 3.07528 19.1282 4.58381C19.1282 6.09233 19.9975 7.10227 21.4165 7.10227ZM19.8857 4.14915C19.9368 3.3853 20.4769 2.70455 21.3398 2.70455C22.158 2.70455 22.6822 3.31818 22.6822 4.14915H19.8857ZM28.2401 7H28.9815L30.0554 3.22869H30.1321L31.206 7H31.9474L33.4432 2.09091H32.6506L31.5895 5.83665H31.5384L30.5028 2.09091H29.6974L28.6491 5.84943H28.598L27.5369 2.09091H26.7443L28.2401 7ZM34.4403 7H35.1946V2.09091H34.4403V7ZM34.8239 1.27273C35.1179 1.27273 35.3608 1.04261 35.3608 0.761364C35.3608 0.480114 35.1179 0.25 34.8239 0.25C34.5298 0.25 34.2869 0.480114 34.2869 0.761364C34.2869 1.04261 34.5298 1.27273 34.8239 1.27273ZM38.711 2.09091H37.6627V0.914773H36.9085V2.09091H36.167V2.73011H36.9085V5.7983C36.9085 6.65483 37.5988 7.06392 38.238 7.06392C38.5193 7.06392 38.6982 7.01278 38.8005 6.97443L38.6471 6.29688C38.5832 6.30966 38.4809 6.33523 38.3147 6.33523C37.9823 6.33523 37.6627 6.23295 37.6627 5.59375V2.73011H38.711V2.09091ZM40.7053 4.04688C40.7053 3.19034 41.2519 2.70455 41.9965 2.70455C42.7061 2.70455 43.1343 3.15199 43.1343 3.93182V7H43.8886V3.88068C43.8886 2.61825 43.2174 2.02699 42.2139 2.02699C41.4404 2.02699 40.9994 2.34979 40.7693 2.85795H40.7053V0.454545H39.9511V7H40.7053V4.04688ZM59.5331 7H60.2874V2.09091H59.5331V7ZM59.9166 1.27273C60.2107 1.27273 60.4536 1.04261 60.4536 0.761364C60.4536 0.480114 60.2107 0.25 59.9166 0.25C59.6226 0.25 59.3797 0.480114 59.3797 0.761364C59.3797 1.04261 59.6226 1.27273 59.9166 1.27273ZM62.4231 4.04688C62.4231 3.19034 62.9537 2.70455 63.676 2.70455C64.3759 2.70455 64.801 3.16158 64.801 3.93182V7H65.5552V3.88068C65.5552 2.62784 64.8873 2.02699 63.8933 2.02699C63.1518 2.02699 62.6916 2.35938 62.4615 2.85795H62.3975V2.09091H61.6689V7H62.4231V4.04688ZM69.567 7H71.9321C73.479 7 74.1182 6.24574 74.1182 5.26136C74.1182 4.22585 73.4023 3.66335 72.8014 3.625V3.56108C73.3639 3.40767 73.8625 3.03693 73.8625 2.19318C73.8625 1.23438 73.2233 0.454545 71.8554 0.454545H69.567V7ZM70.3596 6.29688V4.02131H71.9704C72.827 4.02131 73.3639 4.59659 73.3639 5.26136C73.3639 5.83665 72.9676 6.29688 71.9321 6.29688H70.3596ZM70.3596 3.33097V1.15767H71.8554C72.7247 1.15767 73.1082 1.6179 73.1082 2.19318C73.1082 2.88352 72.5457 3.33097 71.8298 3.33097H70.3596ZM76.7629 7.11506C77.6194 7.11506 78.0669 6.65483 78.2203 6.33523H78.2586V7H79.0129V3.76562C79.0129 2.20597 77.824 2.02699 77.1975 2.02699C76.4561 2.02699 75.6123 2.28267 75.2288 3.17756L75.9447 3.43324C76.1109 3.07528 76.504 2.69176 77.2231 2.69176C77.9166 2.69176 78.2586 3.0593 78.2586 3.68892V3.71449C78.2586 4.07884 77.8879 4.04688 76.993 4.16193C76.0821 4.28018 75.0882 4.48153 75.0882 5.60653C75.0882 6.56534 75.8296 7.11506 76.7629 7.11506ZM76.8779 6.4375C76.2771 6.4375 75.8424 6.16903 75.8424 5.64489C75.8424 5.0696 76.3666 4.89062 76.9546 4.81392C77.2742 4.77557 78.1308 4.68608 78.2586 4.53267V5.22301C78.2586 5.83665 77.7728 6.4375 76.8779 6.4375ZM81.1438 4.04688C81.1438 3.19034 81.6903 2.70455 82.435 2.70455C83.1445 2.70455 83.5728 3.15199 83.5728 3.93182V7H84.3271V3.88068C84.3271 2.61825 83.6559 2.02699 82.6523 2.02699C81.8789 2.02699 81.4379 2.34979 81.2077 2.85795H81.1438V0.454545H80.3896V7H81.1438V4.04688ZM85.7069 7H86.4612V3.89347C86.4612 3.22869 86.9854 2.7429 87.7013 2.7429C87.9026 2.7429 88.1104 2.78125 88.1615 2.79403V2.02699C88.0752 2.0206 87.877 2.0142 87.7652 2.0142C87.1771 2.0142 86.6657 2.34659 86.4868 2.83239H86.4356V2.09091H85.7069V7ZM90.5002 7.11506C91.3567 7.11506 91.8042 6.65483 91.9576 6.33523H91.9959V7H92.7502V3.76562C92.7502 2.20597 91.5613 2.02699 90.9348 2.02699C90.1934 2.02699 89.3496 2.28267 88.9661 3.17756L89.682 3.43324C89.8482 3.07528 90.2413 2.69176 90.9604 2.69176C91.6539 2.69176 91.9959 3.0593 91.9959 3.68892V3.71449C91.9959 4.07884 91.6252 4.04688 90.7303 4.16193C89.8194 4.28018 88.8255 4.48153 88.8255 5.60653C88.8255 6.56534 89.5669 7.11506 90.5002 7.11506ZM90.6152 6.4375C90.0144 6.4375 89.5797 6.16903 89.5797 5.64489C89.5797 5.0696 90.1039 4.89062 90.6919 4.81392C91.0115 4.77557 91.8681 4.68608 91.9959 4.53267V5.22301C91.9959 5.83665 91.5101 6.4375 90.6152 6.4375ZM94.1269 7H94.8811V2.09091H94.1269V7ZM94.5104 1.27273C94.8044 1.27273 95.0473 1.04261 95.0473 0.761364C95.0473 0.480114 94.8044 0.25 94.5104 0.25C94.2164 0.25 93.9735 0.480114 93.9735 0.761364C93.9735 1.04261 94.2164 1.27273 94.5104 1.27273ZM97.0169 4.04688C97.0169 3.19034 97.5474 2.70455 98.2697 2.70455C98.9696 2.70455 99.3947 3.16158 99.3947 3.93182V7H100.149V3.88068C100.149 2.62784 99.481 2.02699 98.487 2.02699C97.7456 2.02699 97.2853 2.35938 97.0552 2.85795H96.9913V2.09091H96.2626V7H97.0169V4.04688ZM102.077 7.05114C102.393 7.05114 102.652 6.79226 102.652 6.47585C102.652 6.15945 102.393 5.90057 102.077 5.90057C101.761 5.90057 101.502 6.15945 101.502 6.47585C101.502 6.79226 101.761 7.05114 102.077 7.05114Z" fill="#655252"/>
<path d="M51.7116 7.10227L54.9972 3.81676C55.7834 3.03054 55.777 1.73295 54.9972 0.965909C54.1982 0.179688 52.9485 0.186079 52.1463 0.965909L51.7116 1.38778L51.277 0.965909C50.4748 0.186079 49.2251 0.179688 48.4261 0.965909C47.6463 1.73295 47.6399 3.03054 48.4261 3.81676L51.7116 7.10227Z" fill="#FF0000"/>
</svg>
