<svg width="19" height="21" viewBox="0 0 19 21" fill="none" xmlns="http://www.w3.org/2000/svg">
<path d="M12.9805 14.4814H5.76048" stroke="#707070" stroke-width="1.5" stroke-miterlimit="10" stroke-linecap="round" stroke-linejoin="round"/>
<path d="M12.9805 10.2954H5.76048" stroke="#707070" stroke-width="1.5" stroke-miterlimit="10" stroke-linecap="round" stroke-linejoin="round"/>
<path d="M8.51548 6.11842H5.76048" stroke="#707070" stroke-width="1.5" stroke-miterlimit="10" stroke-linecap="round" stroke-linejoin="round"/>
<path d="M13.1735 1.00842H5.48448C4.87692 0.975001 4.26926 1.0724 3.70258 1.29404C3.1359 1.51568 2.62341 1.85639 2.19974 2.29314C1.77607 2.72989 1.4511 3.25251 1.24679 3.82566C1.04248 4.39882 0.963602 5.00916 1.01548 5.61542V14.8154C0.964122 15.4245 1.04464 16.0376 1.25156 16.6128C1.45848 17.188 1.78693 17.7118 2.21455 18.1486C2.64216 18.5855 3.1589 18.925 3.72956 19.1441C4.30022 19.3632 4.9114 19.4568 5.52148 19.4184H13.2105C13.8174 19.4517 14.4245 19.3545 14.9907 19.1332C15.5569 18.912 16.069 18.572 16.4927 18.136C16.9163 17.7001 17.2415 17.1784 17.4464 16.6061C17.6513 16.0338 17.7311 15.4242 17.6805 14.8184V5.61842C17.7327 5.00869 17.6529 4.39486 17.4463 3.8188C17.2398 3.24275 16.9114 2.71803 16.4836 2.28044C16.0558 1.84286 15.5386 1.5027 14.9673 1.28318C14.3961 1.06366 13.7842 0.969941 13.1735 1.00842V1.00842Z" stroke="#CFCFCF" stroke-width="1.5" stroke-miterlimit="10" stroke-linecap="round" stroke-linejoin="round"/>
</svg>
