<svg width="19" height="24" viewBox="0 0 19 24" fill="none" xmlns="http://www.w3.org/2000/svg">
<path d="M17.211 20.25C16.6942 20.25 16.2756 20.6695 16.2756 21.1875C16.2756 21.4491 16.1872 21.6689 16.0132 21.8414C15.8304 22.0223 15.5652 22.1273 15.3056 22.125C15.0493 22.1217 14.8417 22.0345 14.67 21.8578L9.74338 16.7836C9.56706 16.6022 9.32573 16.5 9.07318 16.5C8.82063 16.5 8.57883 16.6022 8.40298 16.7836L3.47634 21.8573C3.3061 22.0327 3.09657 22.1203 2.83607 22.125C2.5737 22.1302 2.30945 22.0256 2.12799 21.8466C1.95728 21.6783 1.87029 21.4617 1.87029 21.2034V3.75C1.87029 2.71594 2.70933 1.875 3.74105 1.875H14.4044C15.4361 1.875 16.2751 2.71594 16.2751 3.75V16.5469C16.2751 17.0648 16.6937 17.4844 17.2105 17.4844C17.7273 17.4844 18.1459 17.0648 18.1459 16.5469V3.75C18.1459 1.68234 16.4674 0 14.4044 0H3.74152C1.67854 0 0 1.68234 0 3.75V21.2039C0 21.9619 0.290435 22.6655 0.817054 23.1844C1.34554 23.7042 2.0728 24 2.8197 24C2.83654 24 2.85291 24 2.86974 23.9995C3.62693 23.9859 4.30041 23.6977 4.81767 23.1652L9.07365 18.7819L13.3296 23.1652C13.8506 23.7014 14.5255 23.9902 15.2822 24C16.0418 24.008 16.7891 23.7094 17.3279 23.1755C17.8559 22.6528 18.1468 21.9469 18.1468 21.1875C18.1464 20.6695 17.7273 20.25 17.211 20.25Z" fill="#323C45" fill-opacity="0.5"/>
</svg>
