<svg width="32" height="32" viewBox="0 0 32 32" fill="none" xmlns="http://www.w3.org/2000/svg">
<g filter="url(#filter0_d)">
<path d="M23.0312 7.07812C23.4194 7.07812 23.7344 6.76312 23.7344 6.375C23.7344 5.21203 24.6808 4.26562 25.8438 4.26562C26.2319 4.26562 26.5469 3.95062 26.5469 3.5625C26.5469 3.17438 26.2319 2.85938 25.8438 2.85938C24.7005 2.85938 23.7344 1.87172 23.7344 0.703125C23.7344 0.315 23.4194 0 23.0312 0C22.6431 0 22.3281 0.315 22.3281 0.703125C22.3281 1.87172 21.362 2.85938 20.2188 2.85938C19.8306 2.85938 19.5156 3.17438 19.5156 3.5625C19.5156 3.95062 19.8306 4.26562 20.2188 4.26562C21.3817 4.26562 22.3281 5.21203 22.3281 6.375C22.3281 6.76312 22.6431 7.07812 23.0312 7.07812ZM22.3164 3.55547C22.5873 3.34875 22.8255 3.10687 23.0312 2.82984C23.237 3.10687 23.4752 3.34875 23.7461 3.55547C23.4752 3.7575 23.2342 3.99797 23.0312 4.26797C22.8283 3.99797 22.5873 3.7575 22.3164 3.55547Z" fill="#323C45" fill-opacity="0.5"/>
<path d="M18.1094 4.96875C18.1094 4.58062 17.7944 4.26562 17.4062 4.26562C17.0181 4.26562 16.7031 4.58062 16.7031 4.96875C16.7031 6.9075 15.1263 8.48438 13.1875 8.48438C12.7994 8.48438 12.4844 8.79938 12.4844 9.1875C12.4844 9.57562 12.7994 9.89062 13.1875 9.89062C15.1258 9.89062 16.7031 11.468 16.7031 13.4062C16.7031 13.7944 17.0181 14.1094 17.4062 14.1094C17.7944 14.1094 18.1094 13.7944 18.1094 13.4062C18.1094 11.468 19.6867 9.89062 21.625 9.89062C22.0131 9.89062 22.3281 9.57562 22.3281 9.1875C22.3281 8.79938 22.0131 8.48438 21.625 8.48438C19.6867 8.48438 18.1094 6.9075 18.1094 4.96875ZM17.4062 10.8736C16.9905 10.1836 16.4102 9.60328 15.7202 9.1875C16.4102 8.77172 16.9905 8.19141 17.4062 7.50141C17.822 8.19141 18.4023 8.77172 19.0923 9.1875C18.4023 9.60328 17.822 10.1836 17.4062 10.8736Z" fill="#323C45" fill-opacity="0.5"/>
<path d="M16 24C22.03 24 27.1952 19.4756 27.9934 13.6266C28.038 13.3017 27.8519 12.9895 27.5448 12.8738C27.2383 12.758 26.8923 12.8695 26.7109 13.1428C25.1636 15.4739 22.4064 16.9219 19.5156 16.9219C14.8633 16.9219 11.0781 13.1367 11.0781 8.48438C11.0781 5.5936 12.5261 2.83641 14.8572 1.28906C15.1305 1.10766 15.242 0.76172 15.1263 0.455157C15.0105 0.148595 14.6983 -0.0374988 14.3734 0.00656368C8.51688 0.805782 4 5.97844 4 12C4 18.6075 9.39297 24 16 24ZM11.8858 2.13985C10.4828 3.90516 9.67188 6.15891 9.67188 8.48438C9.67188 13.912 14.088 18.3281 19.5156 18.3281C21.8411 18.3281 24.0948 17.5172 25.8602 16.1142C24.2223 19.9463 20.3716 22.5938 16 22.5938C10.1584 22.5938 5.40625 17.8416 5.40625 12C5.40625 7.62844 8.05375 3.77766 11.8858 2.13985Z" fill="#323C45" fill-opacity="0.5"/>
</g>
<defs>
<filter id="filter0_d" x="0" y="0" width="32" height="32" filterUnits="userSpaceOnUse" color-interpolation-filters="sRGB">
<feFlood flood-opacity="0" result="BackgroundImageFix"/>
<feColorMatrix in="SourceAlpha" type="matrix" values="0 0 0 0 0 0 0 0 0 0 0 0 0 0 0 0 0 0 127 0" result="hardAlpha"/>
<feOffset dy="4"/>
<feGaussianBlur stdDeviation="2"/>
<feComposite in2="hardAlpha" operator="out"/>
<feColorMatrix type="matrix" values="0 0 0 0 0 0 0 0 0 0 0 0 0 0 0 0 0 0 0.25 0"/>
<feBlend mode="normal" in2="BackgroundImageFix" result="effect1_dropShadow"/>
<feBlend mode="normal" in="SourceGraphic" in2="effect1_dropShadow" result="shape"/>
</filter>
</defs>
</svg>
