<svg width="17" height="18" viewBox="0 0 17 18" fill="none" xmlns="http://www.w3.org/2000/svg">
<path d="M13.5614 12.7389C13.2366 12.7296 12.9133 12.7844 12.6097 12.9001C12.3062 13.0158 12.0284 13.1902 11.7923 13.4133L5.30725 9.67285C5.35979 9.46572 5.39031 9.25362 5.39829 9.04008C5.39031 8.82654 5.35979 8.61444 5.30725 8.40731L11.7024 4.69836C12.1584 5.12403 12.747 5.37965 13.3694 5.42223C13.9917 5.4648 14.6097 5.29172 15.1194 4.93211C15.6291 4.57251 15.9993 4.04832 16.1679 3.44774C16.3365 2.84716 16.293 2.20685 16.0449 1.63455C15.7967 1.06225 15.3591 0.592874 14.8055 0.305409C14.2519 0.0179433 13.6161 -0.0700713 13.0053 0.0561736C12.3944 0.182418 11.8456 0.515218 11.4514 0.998577C11.0571 1.48194 10.8413 2.08635 10.8403 2.71014C10.8482 2.92369 10.8787 3.1358 10.9314 3.34291L4.53624 7.05185C4.02962 6.58486 3.36516 6.3267 2.67615 6.32917C2.32249 6.33035 1.97256 6.40137 1.64643 6.53817C1.32031 6.67497 1.02442 6.87485 0.77576 7.12633C0.527102 7.3778 0.330573 7.67593 0.19746 8.00357C0.064346 8.33122 -0.00272956 8.68194 8.50436e-05 9.03558C0.00455332 9.56419 0.162334 10.0801 0.454285 10.5208C0.746236 10.9615 1.15981 11.308 1.64482 11.5183C2.12984 11.7286 2.66545 11.7935 3.18667 11.7054C3.7079 11.6172 4.19233 11.3796 4.5812 11.0216L11.0224 14.771C10.9665 14.9617 10.9359 15.1589 10.9314 15.3577C10.9291 15.8785 11.0816 16.3883 11.3693 16.8225C11.6571 17.2566 12.0672 17.5956 12.5478 17.7965C13.0284 17.9973 13.5577 18.0511 14.0689 17.9508C14.58 17.8506 15.0498 17.6009 15.4189 17.2333C15.788 16.8658 16.0397 16.397 16.1422 15.8863C16.2446 15.3757 16.1932 14.8461 15.9944 14.3646C15.7955 13.8832 15.4583 13.4716 15.0254 13.182C14.5925 12.8924 14.0833 12.7378 13.5625 12.7378L13.5614 12.7389Z" fill="#323C45"/>
</svg>
