<svg width="18" height="18" viewBox="0 0 18 18" fill="none" xmlns="http://www.w3.org/2000/svg">
<path fill-rule="evenodd" clip-rule="evenodd" d="M15.3039 2.61591C13.6198 0.92987 11.3803 0.00112609 8.99437 0C4.07786 0 0.0768557 4.001 0.074885 8.91864C0.074322 10.4907 0.484782 12.0252 1.26544 13.378L0 18L4.72846 16.7596C6.03134 17.4702 7.49808 17.8449 8.99071 17.8452H8.99437C13.91 17.8452 17.9119 13.8439 17.9136 8.92596C17.9147 6.54259 16.9879 4.30167 15.3039 2.61591ZM8.99437 16.3387H8.99127C7.66108 16.3382 6.3565 15.9806 5.21802 15.3053L4.94748 15.1445L2.14154 15.8807L2.89039 13.1451L2.71416 12.8647C1.97207 11.6843 1.58019 10.3201 1.58075 8.91948C1.58244 4.83177 4.90807 1.50643 8.99718 1.50643C10.9774 1.50699 12.8388 2.27921 14.2383 3.68063C15.6377 5.08205 16.4083 6.9446 16.4077 8.9254C16.406 13.0131 13.0807 16.3387 8.99437 16.3387ZM13.0607 10.7865C12.838 10.6751 11.742 10.1359 11.5376 10.0613C11.3335 9.98702 11.1849 9.94986 11.0363 10.1728C10.8876 10.3958 10.4605 10.898 10.3305 11.0467C10.2004 11.1953 10.0706 11.2142 9.84766 11.1024C9.6247 10.9909 8.90682 10.7556 8.05549 9.99631C7.39307 9.40539 6.94573 8.6754 6.81567 8.45244C6.68588 8.22919 6.81454 8.12024 6.91335 7.9975C7.15462 7.69796 7.39616 7.38378 7.47049 7.23513C7.54481 7.08649 7.50765 6.95615 7.45191 6.84466C7.39645 6.73318 6.95051 5.63609 6.76499 5.18987C6.58397 4.75548 6.40042 4.81404 6.2636 4.80728C6.13382 4.80081 5.98517 4.7994 5.83653 4.7994C5.68789 4.7994 5.44662 4.85514 5.24223 5.07839C5.03813 5.30164 4.46242 5.84075 4.46242 6.93756C4.46242 8.03438 5.2611 9.09431 5.3723 9.24295C5.48378 9.3916 6.94376 11.6427 9.17961 12.608C9.71141 12.8377 10.1264 12.9748 10.4501 13.0776C10.9842 13.2473 11.4698 13.2231 11.8538 13.166C12.282 13.1018 13.1722 12.6269 13.3583 12.1063C13.5441 11.5858 13.5441 11.1396 13.488 11.0464C13.4323 10.9538 13.2836 10.898 13.0607 10.7865Z" fill="#00866A"/>
</svg>
